<svg xmlns="http://www.w3.org/2000/svg" xmlns:xlink="http://www.w3.org/1999/xlink" width="178" height="178" viewBox="0 0 178 178">
  <defs>
    <clipPath id="clip-path">
      <rect id="Rectangle_408120" data-name="Rectangle 408120" width="99.818" height="100.574" fill="none"/>
    </clipPath>
    <clipPath id="clip-path-3">
      <rect id="Rectangle_408103" data-name="Rectangle 408103" width="68.776" height="68.776" fill="none"/>
    </clipPath>
    <clipPath id="clip-path-4">
      <rect id="Rectangle_408104" data-name="Rectangle 408104" width="26.138" height="18.487" fill="none"/>
    </clipPath>
    <clipPath id="clip-path-5">
      <rect id="Rectangle_408109" data-name="Rectangle 408109" width="16.941" height="26.952" fill="none"/>
    </clipPath>
    <clipPath id="clip-path-6">
      <rect id="Rectangle_408114" data-name="Rectangle 408114" width="17.461" height="27.779" fill="none"/>
    </clipPath>
  </defs>
  <g id="Group_1113354" data-name="Group 1113354" transform="translate(-17486.113 9254.35)">
    <g id="Group_1113051" data-name="Group 1113051" transform="translate(17486.113 -9254.349)">
      <path id="Path_882862" data-name="Path 882862" d="M89,0A89,89,0,1,1,0,89,89,89,0,0,1,89,0Z" transform="translate(0 -0.001)" fill="#005865"/>
      <path id="Path_882863" data-name="Path 882863" d="M78.668,0A78.668,78.668,0,1,1,0,78.668,78.668,78.668,0,0,1,78.668,0Z" transform="translate(10.332 10.331)" fill="#f3f9ff"/>
    </g>
    <g id="Group_1113052" data-name="Group 1113052" transform="translate(17525.113 -9215.349)">
      <rect id="Rectangle_401104" data-name="Rectangle 401104" width="99.117" height="100.574" transform="translate(-0.114 0.349)" fill="none"/>
      <g id="Group_1113310" data-name="Group 1113310" transform="translate(-0.113 0.349)">
        <g id="Group_1113309" data-name="Group 1113309" clip-path="url(#clip-path)">
          <g id="Group_1113308" data-name="Group 1113308" transform="translate(0 0)">
            <g id="Group_1113307" data-name="Group 1113307" clip-path="url(#clip-path)">
              <path id="Path_888694" data-name="Path 888694" d="M51.25,11.089A41.556,41.556,0,1,0,92.806,52.645,41.556,41.556,0,0,0,51.25,11.089" transform="translate(-1.832 -2.095)" fill="#a4e5fc"/>
              <path id="Path_888695" data-name="Path 888695" d="M32.821,76.978c-1.272-.277-.83.94-1.548-.608s-.719-.608-2.157,0-.664.165-.719-.553,0,0,.11-1.106-1.272-.664-2.1-1.66-.166-.719-1.217-1.012-.5.349-1.826-.869-1.051-.221-1.6-.165-1.493.663-1.383-.5-1.715.277-1.936,1.054-.332.5-1.106-.058-.277.277-1.549,0,.443-1.937-1.106-2.213-.553.276-.719-1.051A7.939,7.939,0,0,1,13.9,65.97c.055-1.051-1.494-.332-1.107,1.549s-1.161,1.106-1.438,0c-.234-.934-.978-.925-1.538-1.83.079,1.186.2,2.361.371,3.518.206.01-.042-.218.392-.471.663-.387.277.221,1.952.886s.26,0,1.256.775.387.165.941,1.051.663.774,1.438,1.217.387.332.442,1.494-.442,1-1.493,2.544,0,.332,1.328,1.659.277.333,1.383,2.323.5,0,1.161.886.111.775,1.217,1.273.277.885.11,1.715a4.122,4.122,0,0,0,.111,2.434c.332,1.6.719,1.106-.554,2.324-.167.16-.288.283-.374.381q.291.344.59.68a1.841,1.841,0,0,1,.614.6c.079.122.148.221.208.311.788.842,1.6,1.657,2.456,2.431l.268-.142c.829-.442.552-.11.663-1.051s.5-.608,1.328-.94S26.957,91.2,26.9,90.7s.388-.719,1.162-1.549.83-.775.719-2.434.111-1.494,2.655-1.659,1.217-.221,1-1.383,0-1.659,1.106-3.209.055-1.106.553-2.324,0-.885-1.273-1.161" transform="translate(-1.855 -12.373)" fill="#005c75"/>
              <path id="Path_888696" data-name="Path 888696" d="M26.6,44.094c-.332-.387,0,0-.663-.443s.277-.94.387-1.6.111-1.051-.663-2.1-.166.277-.663,1.217-.941-.055-.775-1.328-.221-.277-1-.94.387-.277,0-1.217-1.383.388-1.439,1.217-.221.442-.83,1.881,0,.332.221,1.659-1.493.055-1.438.775a6.17,6.17,0,0,1-.166,2.1c-.221,1.272-.608.055-1-1.66s-.83-.387-1.051-1.936-1.162-.277-1.6-.83-.83-1.328.5-2.324.333-1.161,1.826-2.323.941-.719,2.157-.941,1.328-1.105,1.6-1.493,0-.83-1.161-.663-1.383,1.715-1.217-.5-.333.11-1.217-.221c-.429-.161-.573-.307-.751-.347A41.36,41.36,0,0,0,9.7,56.536c0,.307.016.611.023.917a3.12,3.12,0,0,1,2.225-.359c1.273.166.166-.387,2.766-.885s.443.5,1.051.94.719.221.719.221a1.938,1.938,0,0,1,.387.719c.166.5.055-.388.277-2.6s1.328-1.106,1.771-1.826.332-1.493,1.77-2.046.277-.443,1.051-1.771.332-.166,1.992-.553.5-.221.5-1.6-.83-.332.443-1.217.553.055,1.826.442,0-.774.719-1.991-.277-.443-.609-.83" transform="translate(-1.832 -5.985)" fill="#005c75"/>
              <path id="Path_888697" data-name="Path 888697" d="M29.509,33.979c-.207-.7,0,.249-.207-1.037s.29-1.2-.333-1.659-.083.5-.622-.456-.706.041-.83-1.162.165-1.908-.5-1.494.373,1.08-.663.415-.415-1.12-1.411-.912-.041.29-1,1-1.328,1.2-.623,1.743.291.041,1.079.83.374.166,1.411.457,1.2.083,1,1.079.208.7,0,1.41a2.18,2.18,0,0,1-.54,1c-.249.373.32.61-.249.373-.521-.217-.83-.539-1.12,0s-.166.539.332.539,1-.083,1.079.539-.248.373.539.746,1.7,1.494,1.577.789-.871-.955-.373-1.079,1.328,1.109.788-.255-1.162-1.345-.581-1.561-.125-.341,1,.239,1.66.706,1.286-.166-.83-.663-1.037-1.369" transform="translate(-4.339 -5.219)" fill="#005c75"/>
              <path id="Path_888698" data-name="Path 888698" d="M48.936,19.731c-.664.457.083-.124-1.328.5s-1.452.913-1.742.913,1.95-1.351,1.577-1.589-.084-.384-.872,0-1.079.717-.747.054.415-.095.872-.732.373-.513.7-.388.83-.374-.083-.623-.083-.207-1-.7-.249-.871-1.659-.374-.414.54-1.452.29-1.369-.165-1.494.457.249,1.286-.414.83-.415-1.7-.664-.457-.954,2.49-.954,1.37.5-2.033-.332-1.535-.83.581-1.162.414-.29-.7-.7.166-.125,1.12-.664,1-1.037-.954-1.2-.041.124.124.165,1.078,0,1.245-.456.871-.706-.124-.788.125c-.131.394-.664,0-1.328.393s-.581.479,0,.769,1.908.374,1.12.623-1.93-.457-1.587.249.264.29.884.83,0-.042,1.118.622,1.121.337,1.121,1a4.212,4.212,0,0,0,0,1.326c.124,1.244.29,1,0,1.684s.124.017.332.888.414.415-.374.83-.539.415-.165.955-.208.539-.332,1.161.456.706-.084,1.494-.456.332.084,1.493.379,1.245,1.06,1.659,1.263,1.659,1.429.208.041-1.161.539-1.784S37.984,35,39.6,34.46s.706-.29,1.992-1.2.747-.249,1.95-1,1.245-1.026,1.079-1.343-.605-.732.071-.483,1.506.788,1.008-.249-1.618-.7-.539-1.345,1-.689.955-1.02.5.29.539-.663-.333-.955,0-1.453,1,.457.581-.663-.872-1.12-.083-1.991.539-.792,1-1.309.5-.019.788-1.015.664-1.452,0-1" transform="translate(-6.175 -3.127)" fill="#005c75"/>
              <path id="Path_888699" data-name="Path 888699" d="M87.42,25.432c.071.719-.68.664-.9.388-.191-.238-.051-.523.4-1.689-.636-.594-1.286-1.172-1.959-1.725a.175.175,0,0,1-.152.067c-.237,0-.221-.162-.205-.348q-.7-.56-1.414-1.091c-.144.187-.3.449-.483.693-.47.636.139.581.443.746s-.083.221.055.5.083.664-.526.3-.3.443-.636.277-.3-.3-.8.277.414.277-.637.6-.165.23-.885.783.36.692.8.913.526.387.277.663l-.387-.083c-.235-.221-.125-.139-.47.152s0,0-.622.041-.194.125-.249.733.055.221.539.512.069.194.65.415.263.028.374.4a7.7,7.7,0,0,0,.346,1.024c.277.719-.1.235-.526-.041s-.263-.429-.359-1.01-.637-.165-.747-.512-.263-.332-.871-.083.373.47-.056.581-.028.221.346.374.36.525.194.359.055-.235-.512-.166-.332-.124-.553-.871-.234.014-.277.429-.179.221-.179.526.249.262.47.47.221.208.139.678-.041.429.373.691.249-.028.4-.262.332-.111.526.083.332.1.526.525.138.277.055.568-.139-.125-.5-.733-.194-.083-.525.069-.084.443-.042.858a2.015,2.015,0,0,1,0,.829c-.069.637-.18.249-.431.457s-.51-.041-.634-.139-.028-.248.208-.332.428-.263.414-.719.084-.388-.11-.8-.249-.221-.484-.608.014-.333-.277-.817a2.667,2.667,0,0,0-.409-.608c-.354-.456-.213-.4-.117-1.12s0,0-.428-.3-.29-.1-.775.194-.069.373.014.594.041.332-.139.761-.11.263.084.539.179.1.193.567.3.387.512.387.277.333.512.512.166.152-.083.594-.249-.028-.526-.263-.208-.193-.457-.29-.165-.181-.165-.181c-.609-.25-.457-.427-.886-.247-.791.332-1.474-.482-2.268-1.162s-.664-.387-.885-1.548.5-.664,1-1.771.111-.221.83-.885.609-.719.719-1.328-.388-.443-.885,0-.443.387-1.328.663-.553,1-.719,1.992a11.617,11.617,0,0,0-.442,2.6c.055.886.608.719,1.383.775s.774.572,1.161.581a.991.991,0,0,1,.581.4c.083.138.277-.195.414-.071.266.238.267.7-.666.592-.334.032-.96.146-2.21.377-1.494.277,0,0-.166.111a1.926,1.926,0,0,0-.608,1.217c-.166.775.166-.775-.772,0s-.279-.277-.058-.775-.221-.221-.94-.442.11.332.11.775.387.387.3,1.161-.3.055-.631-.388-.49.122-.5.941.277.553-.5.442-.719-.221-.332.443,0,0-.166.387-.5-.055-.775-.608-.277-.387-1.161-1.106.332.111.608-.165.443.055,1.383.277.775,0,1.051-.831-.221-.442-1.106-1.161-.277-.055-1.825-.5-.333-.277-.941-.388-.5-.11-1.161-.775-.277,0-1.659,1-1.494.719-1.273,1.328.055.442-.83,1.383-.5.332-.63,1.05-.366.5-1.029,1.045-.553.394-.831,1.224,0,.387.111,1.771,0,.387.719.221.165-.277,1.029-.664.132.166,0,.94.63.664.962,1.273.608.166,1.106-.719-.277-.608.055-.94.443-.166.166-1.2-.608-.463-.277-1.4.663-.553.94-1.106,0-.277.5-.83.5-.608,1,0-.443.333-.5,1-.387.332-.775.719-.221.608.332,1.011.111.593.553.981.443-.332.886-.775.442-.11,1.383.408-.5.7-1,.367-.5-.277-.94.5.608.277.5,1-.221.221-.719-.328-.5.217-.608,1.1a1.7,1.7,0,0,0-.006.538c.082.1.032.153,0,0a.447.447,0,0,0-.105-.095c-.332-.221,0,0-.719.387s-.719.332-1.383.111a2.79,2.79,0,0,0-1.35-.111c-.685,0-.2-.553-.255-1.493s-.553-.166-.664.442.332.941-.11,1.494-.443.055-.388.885,0,0-1.217.443,0,0-.664,1.051-.11.332-1.051.332-.442-.055-.885.388.443.5,1.051.5.111.719.111,1.549-.056.387-1.273-.055-.775.165-1.771.553,0,0,.44,1.161-.5.5-.329,1.217.5.277,1.272.663.608-.166,1.549-.663.277-.553.5-1.106.663-.277.885-1.328.443-.277,1.494.055.442-.332,1.548-.388.166.885.719,1.107.553.553.5,1.217.277.221.663-.221.388-.5-.055-1-1.549-1.107-1.438-1.937.5.333,1,.664.885.165,1.936,1.05-.277.609.5,1.549.719.719.719-.221.055-.609,1.383-.443.11.277.719,1.32.221.285,1.328.451.775-.111,1.77.11.221.719-.719,2.1,0,0-1.107-.111-.552.055-1.272.055-.553-.11-2.157-.608-.332,0-.608,1.328-.277.055-1.549-.387-.055-.5-1.6-.664,0,0-.663-.83.442-.608-.5-1.051,0,0-1.217-.277-.5-.11-2.323.941,0,0-1.162-.333-.553-.055-1.659.664,0,0-.5,1.161.166.388-.442,1.383-1.051.277-1.6,1.161-.332.222-.941,1.463-.055.474.166,1.635.111.5-.387,1.715.165.443.663,1.715.277.332,1.881,1.316c.692.424.827.556.825.59.044.01.113.028.224.062.826.251,1.109-.031,1.938-.031s.664.165,1.493-.277.742-.472,1.162-.332c.332.11.387.871.594.743s.955.128,1.7.46-.208,1.079-.456,1.826.332.249.7,1.079.166.29,1,1.493-.208.872.249,1.618-.125.539-1.286,2.116,0,.581.913,1.494.083.539.456,1.079.332.332.373,1.742.042.581.83,1.95,0,.415.664,1.245,1.328.124,2.448-.457.581-.124,1.369-.871.457-.083,1.245-1.2-.083-1,.788-1.244.456-.249.746-.664-.041-.7-.124-1.369.124-.414.706-1.12.829-.29,1.369-.7.414-.539.083-1.328-.125-.622-.208-1.784-.415-.5-.083-1.493,0,0,.373-.788.5.041.83-.5.457-.457,1-1,.539-.207,1-1.286.373-.414.83-1.161,0,0,.373-1.079.5-.663-.332-.622,0,0-1.079.083-.332.166-1,0-.415-.249-1.12-.542-.5-.661-.581-1.2-.208-.332-.706-.83-.165-.706-.83-1.453-.083-.332-.539-1.286-.332-.457-1.41-1.784.954-.249,1.867.622,0,.332.747,1.162.29.249.29.83.208.5.912,1.41.249.249.747,1.659.249.747.663.459.581-.169,1.577-.044.373,0,.706-.539.373-.539,1-.664a3.7,3.7,0,0,0,1.629-1.2,5.979,5.979,0,0,0,.984-1.162c.706-.912-.041-.5-.581-.912s-.539.332-.83-.457-.084-.249-.955.166-.5.29-1.328-.166-.5-.7-1.037-1.244-.208-.788.539-.788.539.083,1.493.954.249.332,1.079.415,0,0,1.245.315.29.432,1.908.141.706-.165,1.493.664l.788,1c.415,1.079.955-.166,1.41.871s.084.581.291,1.908.373.5,1.742,1.742a2.381,2.381,0,0,1,.719.917,1.075,1.075,0,0,1,.194-.337c.623-.788,0-.83-.332-1.742s.083-.414,1.037-1.41.332-.664.746-.788.706-.373,1.286-1.286.457,0,1.2-.332.581,0,.83.539,0,.581.539.706.208.5.332.871.249.415.788.208.5.332.747.954.29.747-.042,1.659-.083.706.664,1.411.539.622.622,1.075.415.5,1.037,1.414.747.414.871-.333-.373-.456-1-1.369-.664-.29-1.09-.746-.238-.747-.363-1.453.125-.747.706-.788.788.166,1.452.955.374.539,1.2,0,.663-.374.373-1.328.084-.622-.165-.954-1.079-.747-1.079-1.577.165-.54.746-.831.747.084,1.162,0c.3-.059.406-.268.672-.474.071-.992.119-1.991.119-3A41.423,41.423,0,0,0,87.423,24.615a1.9,1.9,0,0,0,0,.818" transform="translate(-9.17 -3.974)" fill="#005c75"/>
              <path id="Path_888700" data-name="Path 888700" d="M80.212,83.538c-.5.968-.11,1.577-.83,1.577s-1.355.332-1.3.775-.11.5.139.8c.228.279-.443.249-.5,1.135s-.249,1.161.5,1.244,1.161.028,1.217-.442-.912-.249,0-1.135.719-.912.886-1.576.636-.858.442-1.355-.055-1.992-.553-1.024" transform="translate(-14.674 -15.724)" fill="#005c75"/>
              <path id="Path_888701" data-name="Path 888701" d="M106.872,77.225c-.374-.622-.021-.767-.851-1.14a5.385,5.385,0,0,1-1.369-.976.994.994,0,0,0-.809,0c-.616.352-.478.021.622.809s.851.394,1.079,1.161a2.611,2.611,0,0,0,.622,1.245,3.943,3.943,0,0,0,1.1,1.058,5.455,5.455,0,0,0,.473.307c.124-.321.248-.642.365-.967-.131-.3-.363-.354-.465-.688-.145-.478-.394-.187-.767-.809" transform="translate(-19.552 -14.175)" fill="#005c75"/>
              <path id="Path_888702" data-name="Path 888702" d="M89.07,19.935c.415.443-.4,1.193.193,1,.166-.056-.276.193-.028.11.229-.076.368-.407.856-.823q-.768-.543-1.56-1.05a2.871,2.871,0,0,0,.539.767" transform="translate(-16.728 -3.622)" fill="#005c75"/>
              <path id="Path_888703" data-name="Path 888703" d="M87.158,18.812c-.332-.581-.332-.326-.83-.689s-.249-.031-.775-.639l-.059-.071c-.33-.183-.663-.359-1-.534a1.047,1.047,0,0,0-.049.189c-.139.858-.663.831,0,1.328s.83.166,1.161.637.221.663.941.663.851.121,1.115-.221c0,0-.175-.083-.507-.663" transform="translate(-15.894 -3.189)" fill="#005c75"/>
              <path id="Path_888704" data-name="Path 888704" d="M62.53,22.354c-.526.055-.5-.581-.608.194s-.166.747-.526.83-.3-.249-.359.083c-.073.436-1.577-.442-1,.415s.663.442.8,1.217.249.858.637,1.134.5.831.607.277a5.046,5.046,0,0,0,.166-1.135c0-.387.111-1.217.415-.553s.747,1.328.8.775a1.174,1.174,0,0,0-.36-1.023c-.193-.221-1.217-.719-.138-.775s.968.049,1.134-.446.8-.483-.165-.543-.886-.5-1.411-.449" transform="translate(-11.32 -4.187)" fill="#005c75"/>
              <path id="Path_888705" data-name="Path 888705" d="M50.039,38.238c-.443-.277-.581.138-1.19.359s-.5.028-1.023-.47-.221.747-.221,1.08.11.47.553.746.194.249.636.332.907.158.857-.332c-.028-.277.5-.47.8-.792s.028-.646-.415-.923" transform="translate(-8.978 -7.182)" fill="#005c75"/>
              <path id="Path_888706" data-name="Path 888706" d="M53.345,47.2c-.18-.36-.138.415-.5.47s-.415.11-.333.663-.538.692-.033.857.5-.083.863-.332.139-.47.415-.885.442-.719.221-.775-.526.221-.637,0" transform="translate(-9.879 -8.901)" fill="#005c75"/>
              <path id="Path_888707" data-name="Path 888707" d="M56.051,46.944c-.277-.111-.47-.083-.553-.553s.165-.636,0-.857-.084-1.079-.5-.747-.055.36-.414.332c-.543-.041-.543,1-.147,1.217s.257-.139.534.5.968.733.414.893-.733-.118-.463.436.685.384.436.634-.608.168-.691.527,0,.165.387,0,.166-.221.692-.166.526.083.719-.138.525-.47.5-.692c-.007-.062.011-.059.033-.04-.033-.048-.084-.124-.171-.264-.415-.663-.5-.968-.775-1.079" transform="translate(-10.233 -8.448)" fill="#005c75"/>
              <path id="Path_888708" data-name="Path 888708" d="M27.742,25.708c-.27-.27-.5-.125-.912-.208s-.56.021-.955-.125a.4.4,0,0,1-.277-.358c-.341.32-.682.642-1.012.973a1.389,1.389,0,0,0,.336.132c.539.144.373.29.671.414s.2.125.822-.062.56.021.871.208.374,0,.664-.353.062-.353-.208-.622" transform="translate(-4.645 -4.727)" fill="#005c75"/>
              <path id="Path_888709" data-name="Path 888709" d="M36.252,16.5a2.043,2.043,0,0,1-.085-.2,41.27,41.27,0,0,0-3.827,2.141c-.007.053-.052.084-.133.085a41.652,41.652,0,0,0-5.617,4.262c.135.1.277.23.411.313.332.208.228.27,1.016.228s.208,0,.912.187.478-.021.56-.374-.062-.353.373-.706.415-.373.519-.56.456-.1.83-.436.145-.767.138-1,.484-.145.753-.393.187-.022.747,0,.062-.145.5-.581.663-.228,1-.581.368-.088.809-.436-.207-.021-.1-.208.706-.124,1.2-.5.457-.311.643-.477-.477-.457-.643-.775" transform="translate(-5.024 -3.081)" fill="#005c75"/>
              <path id="Path_888710" data-name="Path 888710" d="M23.567,27.023q-.547.575-1.075,1.17a1.088,1.088,0,0,1,.5-.053c.374,0,.291,0,.571-.457.259-.422.231-.574.006-.661" transform="translate(-4.25 -5.106)" fill="#005c75"/>
              <path id="Path_888711" data-name="Path 888711" d="M20.154,30.949a.751.751,0,0,0,.216.318.435.435,0,0,0,.519,0c.207-.129.539.41.518-.315s-.083-.816.021-1.144a.89.89,0,0,0-.024-.421q-.644.766-1.251,1.563" transform="translate(-3.808 -5.553)" fill="#005c75"/>
              <g id="Group_1113297" data-name="Group 1113297" transform="translate(9.13 22.061)" opacity="0.3">
                <g id="Group_1113296" data-name="Group 1113296">
                  <g id="Group_1113295" data-name="Group 1113295" clip-path="url(#clip-path-3)">
                    <path id="Path_888712" data-name="Path 888712" d="M23.058,84.177a40.288,40.288,0,0,0,56.976,0c-12.889,3.385-32.508,5.795-48.241-9.939S18.853,41.321,23.058,27.2a40.288,40.288,0,0,0,0,56.976" transform="translate(-11.257 -27.201)"/>
                  </g>
                </g>
              </g>
              <g id="Group_1113300" data-name="Group 1113300" transform="translate(45.203 11.019)" opacity="0.3">
                <g id="Group_1113299" data-name="Group 1113299">
                  <g id="Group_1113298" data-name="Group 1113298" clip-path="url(#clip-path-4)">
                    <path id="Path_888713" data-name="Path 888713" d="M81.666,26.283c-1.271,4.734-8.06,7.025-15.163,5.118S54.67,24.11,55.941,19.377,64,12.352,71.1,14.259s11.832,7.291,10.561,12.025" transform="translate(-55.734 -13.586)" fill="#fff"/>
                  </g>
                </g>
              </g>
              <path id="Path_888714" data-name="Path 888714" d="M76.286,17.531c-.247.92-2.316,1.164-4.621.545s-3.973-1.866-3.726-2.786,2.316-1.164,4.621-.545,3.973,1.866,3.726,2.786" transform="translate(-12.833 -2.722)" fill="#fff"/>
              <path id="Path_888715" data-name="Path 888715" d="M78.946,22.474c-.149.391-1.063.4-2.042.031s-1.652-.993-1.5-1.384,1.063-.4,2.042-.031,1.652.993,1.5,1.384" transform="translate(-14.243 -3.934)" fill="#fff"/>
              <path id="Path_888716" data-name="Path 888716" d="M107.944,37.817h-16a2.651,2.651,0,0,1-2.651-2.651V3.563A2.651,2.651,0,0,1,91.945.912h16A2.652,2.652,0,0,1,110.6,3.563v31.6a2.651,2.651,0,0,1-2.651,2.651" transform="translate(-16.872 -0.172)" fill="#243042"/>
              <rect id="Rectangle_408105" data-name="Rectangle 408105" width="17.343" height="27.404" transform="translate(74.401 3.724)" fill="#010203"/>
              <rect id="Rectangle_408106" data-name="Rectangle 408106" width="16.941" height="26.953" transform="translate(74.601 3.944)" fill="#00ab9d"/>
              <rect id="Rectangle_408107" data-name="Rectangle 408107" width="9.787" height="0.677" transform="translate(76.578 1.839)" fill="#4f6182"/>
              <rect id="Rectangle_408108" data-name="Rectangle 408108" width="3.133" height="0.677" transform="translate(87.417 1.839)" fill="#161a24"/>
              <path id="Path_888717" data-name="Path 888717" d="M103.787,43.046H99.845A.645.645,0,0,1,99.2,42.4V40.943a.645.645,0,0,1,.645-.645h3.943a.645.645,0,0,1,.645.645V42.4a.645.645,0,0,1-.645.645" transform="translate(-18.744 -7.614)" fill="#a2a5ab"/>
              <path id="Path_888718" data-name="Path 888718" d="M103.726,42.968A10.5,10.5,0,0,0,99.65,40.6a.6.6,0,0,1,.423-.175h3.654a.6.6,0,0,1,.6.6V42.37a.6.6,0,0,1-.6.6" transform="translate(-18.829 -7.638)" fill="#7b7d82"/>
              <path id="Path_888719" data-name="Path 888719" d="M96.28,42.139H93.637a.433.433,0,0,1-.432-.432v-.977a.433.433,0,0,1,.432-.432H96.28a.433.433,0,0,1,.432.432v.977a.433.433,0,0,1-.432.432" transform="translate(-17.611 -7.614)" fill="#a2a5ab"/>
              <path id="Path_888720" data-name="Path 888720" d="M110.4,42.139h-2.642a.433.433,0,0,1-.432-.432v-.977a.433.433,0,0,1,.432-.432H110.4a.433.433,0,0,1,.432.432v.977a.433.433,0,0,1-.432.432" transform="translate(-20.279 -7.614)" fill="#a2a5ab"/>
              <path id="Path_888721" data-name="Path 888721" d="M110.4,42.087a6.332,6.332,0,0,0-2.769-1.548.4.4,0,0,1,.32-.159H110.4a.4.4,0,0,1,.4.4v.906a.4.4,0,0,1-.4.4" transform="translate(-20.338 -7.63)" fill="#7b7d82"/>
              <path id="Path_888722" data-name="Path 888722" d="M96.3,42.087a6.332,6.332,0,0,0-2.769-1.548.4.4,0,0,1,.32-.159H96.3a.4.4,0,0,1,.4.4v.906a.4.4,0,0,1-.4.4" transform="translate(-17.673 -7.63)" fill="#7b7d82"/>
              <path id="Path_888723" data-name="Path 888723" d="M103.191,42.716h-2.313a.519.519,0,0,1-.518-.517v-.856a.519.519,0,0,1,.518-.518h2.313a.519.519,0,0,1,.518.518V42.2a.519.519,0,0,1-.518.517M100.878,41.1a.239.239,0,0,0-.238.238V42.2a.239.239,0,0,0,.238.238h2.313a.239.239,0,0,0,.238-.238v-.856a.239.239,0,0,0-.238-.238Z" transform="translate(-18.963 -7.714)" fill="#1f252e"/>
              <path id="Path_888724" data-name="Path 888724" d="M92.573,1.211H108.8a2.634,2.634,0,0,1,2.191,2.48V34.754L110.7,4.1s.111-2.481-2.11-2.611c-.259,0-16.012-.277-16.012-.277" transform="translate(-17.492 -0.229)" fill="#8e99ab"/>
              <path id="Path_888725" data-name="Path 888725" d="M108.212,38.044H91.985a2.634,2.634,0,0,1-2.191-2.48V4.5l.551,30.655s0,2.311,1.856,2.311c.259,0,16.012.577,16.012.577" transform="translate(-16.967 -0.85)" fill="#0c0f14"/>
              <path id="Path_888726" data-name="Path 888726" d="M107.5,41.433c.085.569.842.854.842.854a.7.7,0,0,1-.842-.854" transform="translate(-20.309 -7.829)" fill="#dce0e8"/>
              <path id="Path_888727" data-name="Path 888727" d="M99.407,41.992c.131.878,1.179,1.228,1.179,1.228s-1.443.333-1.179-1.228" transform="translate(-18.777 -7.934)" fill="#dce0e8"/>
              <path id="Path_888728" data-name="Path 888728" d="M93.4,41.559c.073.489.658.685.658.685s-.8.186-.658-.685" transform="translate(-17.644 -7.853)" fill="#dce0e8"/>
              <path id="Path_888729" data-name="Path 888729" d="M106.07,17.4H95.553a.631.631,0,0,0-.631.631v6.01a.631.631,0,0,0,.631.632h.973l-1.217,2.1,3.347-2.1h7.413a.631.631,0,0,0,.631-.632v-6.01a.631.631,0,0,0-.631-.631" transform="translate(-17.936 -3.288)" fill="#fff"/>
              <path id="Path_888730" data-name="Path 888730" d="M94.394,27.554l1.543-2.665h-.483a.915.915,0,0,1-.913-.914v-6.01a.914.914,0,0,1,.913-.913H105.97a.914.914,0,0,1,.913.913v6.01a.915.915,0,0,1-.913.914H98.638Zm1.059-9.938a.349.349,0,0,0-.349.349v6.01a.349.349,0,0,0,.349.35h1.463l-.891,1.539,2.45-1.539h7.495a.349.349,0,0,0,.349-.35v-6.01a.349.349,0,0,0-.349-.349Z" transform="translate(-17.836 -3.222)" fill="#ff4242"/>
              <path id="Path_888731" data-name="Path 888731" d="M99.513,21.672a.753.753,0,1,1-.753-.753.753.753,0,0,1,.753.753" transform="translate(-18.519 -3.953)" fill="#bf3131"/>
              <path id="Path_888732" data-name="Path 888732" d="M102.761,21.672a.753.753,0,1,1-.753-.753.753.753,0,0,1,.753.753" transform="translate(-19.132 -3.953)" fill="#bf3131"/>
              <path id="Path_888733" data-name="Path 888733" d="M106.008,21.672a.753.753,0,1,1-.753-.753.753.753,0,0,1,.753.753" transform="translate(-19.746 -3.953)" fill="#bf3131"/>
              <g id="Group_1113303" data-name="Group 1113303" transform="translate(74.601 3.944)" opacity="0.2">
                <g id="Group_1113302" data-name="Group 1113302">
                  <g id="Group_1113301" data-name="Group 1113301" clip-path="url(#clip-path-5)">
                    <path id="Path_888734" data-name="Path 888734" d="M108.923,31.815,91.981,4.863h16.941Z" transform="translate(-91.981 -4.863)" fill="#fff"/>
                  </g>
                </g>
              </g>
              <path id="Path_888735" data-name="Path 888735" d="M113.667,1.577c.2.256.25.553.109.663s-.417-.009-.618-.265-.25-.553-.109-.663.417.009.618.265" transform="translate(-21.346 -0.24)" fill="#fff"/>
              <path id="Path_888736" data-name="Path 888736" d="M114.582,2.7c.12.152.148.329.065.395s-.248,0-.367-.158-.149-.329-.066-.395.249.006.368.158" transform="translate(-21.572 -0.475)" fill="#fff"/>
              <path id="Path_888737" data-name="Path 888737" d="M22.691,111.682H6.2a2.733,2.733,0,0,1-2.732-2.732V76.377A2.733,2.733,0,0,1,6.2,73.645h16.49a2.732,2.732,0,0,1,2.732,2.732v32.572a2.732,2.732,0,0,1-2.732,2.732" transform="translate(-0.655 -13.915)" fill="#fff"/>
              <rect id="Rectangle_408110" data-name="Rectangle 408110" width="17.876" height="28.244" transform="translate(4.853 62.805)" fill="#010203"/>
              <rect id="Rectangle_408111" data-name="Rectangle 408111" width="17.46" height="27.779" transform="translate(5.06 63.032)" fill="#f2a600"/>
              <rect id="Rectangle_408112" data-name="Rectangle 408112" width="10.087" height="0.698" transform="translate(7.097 60.862)" fill="#98bbfa"/>
              <rect id="Rectangle_408113" data-name="Rectangle 408113" width="3.229" height="0.698" transform="translate(18.269 60.862)" fill="#778cc2"/>
              <path id="Path_888738" data-name="Path 888738" d="M18.406,117.07H14.343a.665.665,0,0,1-.665-.665v-1.5a.665.665,0,0,1,.665-.664h4.063a.665.665,0,0,1,.665.664v1.5a.665.665,0,0,1-.665.665" transform="translate(-2.584 -21.585)" fill="#a2a5ab"/>
              <path id="Path_888739" data-name="Path 888739" d="M18.343,116.99a10.832,10.832,0,0,0-4.2-2.445.614.614,0,0,1,.436-.18h3.766a.616.616,0,0,1,.616.616v1.393a.616.616,0,0,1-.616.616" transform="translate(-2.672 -21.609)" fill="#7b7d82"/>
              <path id="Path_888740" data-name="Path 888740" d="M10.669,116.136H7.945a.445.445,0,0,1-.445-.445v-1.007a.445.445,0,0,1,.445-.445h2.724a.445.445,0,0,1,.445.445v1.007a.445.445,0,0,1-.445.445" transform="translate(-1.417 -21.585)" fill="#a2a5ab"/>
              <path id="Path_888741" data-name="Path 888741" d="M25.219,116.136H22.5a.445.445,0,0,1-.445-.445v-1.007a.445.445,0,0,1,.445-.445h2.724a.445.445,0,0,1,.445.445v1.007a.445.445,0,0,1-.445.445" transform="translate(-4.166 -21.585)" fill="#a2a5ab"/>
              <path id="Path_888742" data-name="Path 888742" d="M25.226,116.083a6.528,6.528,0,0,0-2.854-1.6.413.413,0,0,1,.329-.164h2.525a.412.412,0,0,1,.413.413v.934a.413.413,0,0,1-.413.413" transform="translate(-4.227 -21.602)" fill="#7b7d82"/>
              <path id="Path_888743" data-name="Path 888743" d="M10.688,116.083a6.528,6.528,0,0,0-2.854-1.6.413.413,0,0,1,.329-.164h2.525a.412.412,0,0,1,.413.413v.934a.413.413,0,0,1-.413.413" transform="translate(-1.48 -21.602)" fill="#7b7d82"/>
              <path id="Path_888744" data-name="Path 888744" d="M17.792,116.731H15.409a.534.534,0,0,1-.534-.534v-.882a.534.534,0,0,1,.534-.534h2.384a.535.535,0,0,1,.534.534v.882a.535.535,0,0,1-.534.534m-2.384-1.661a.246.246,0,0,0-.246.246v.882a.246.246,0,0,0,.246.246h2.384a.246.246,0,0,0,.246-.246v-.882a.246.246,0,0,0-.246-.246Z" transform="translate(-2.811 -21.688)" fill="#fff"/>
              <path id="Path_888745" data-name="Path 888745" d="M22.967,111.915H6.242c-2.115-.229-2.258-2.556-2.258-2.556V77.344l.568,31.594s0,2.382,1.912,2.382c.266,0,16.5.594,16.5.594" transform="translate(-0.753 -14.614)" fill="#8c8c8c"/>
              <path id="Path_888746" data-name="Path 888746" d="M22.23,115.408c.087.586.867.88.867.88a.72.72,0,0,1-.867-.88" transform="translate(-4.198 -21.806)" fill="#dce0e8"/>
              <path id="Path_888747" data-name="Path 888747" d="M13.891,115.984c.135.9,1.216,1.265,1.216,1.265s-1.487.344-1.216-1.265" transform="translate(-2.618 -21.915)" fill="#dce0e8"/>
              <path id="Path_888748" data-name="Path 888748" d="M7.7,115.538c.075.5.677.706.677.706s-.829.191-.677-.706" transform="translate(-1.451 -21.831)" fill="#dce0e8"/>
              <path id="Path_888749" data-name="Path 888749" d="M10.185,90.461H21.024a.651.651,0,0,1,.651.65v6.195a.651.651,0,0,1-.651.65h-1l1.254,2.166-3.45-2.166h-7.64a.65.65,0,0,1-.65-.65V91.111a.65.65,0,0,1,.65-.65" transform="translate(-1.802 -17.093)" fill="#fff"/>
              <path id="Path_888750" data-name="Path 888750" d="M17.674,98.179H10.118a.942.942,0,0,1-.942-.941V91.044a.942.942,0,0,1,.942-.941h10.84a.941.941,0,0,1,.941.941v6.195a.941.941,0,0,1-.941.941h-.5l1.59,2.747Zm-7.557-7.495a.36.36,0,0,0-.359.359v6.195a.36.36,0,0,0,.359.359h7.724l2.526,1.586L19.45,97.6h1.508a.36.36,0,0,0,.359-.359V91.044a.36.36,0,0,0-.359-.359Z" transform="translate(-1.734 -17.025)" fill="#5542ff"/>
              <path id="Path_888751" data-name="Path 888751" d="M19.41,94.863a.776.776,0,1,0,.775-.775.775.775,0,0,0-.775.775" transform="translate(-3.668 -17.778)" fill="#5542ff"/>
              <path id="Path_888752" data-name="Path 888752" d="M16.063,94.863a.776.776,0,1,0,.775-.775.775.775,0,0,0-.775.775" transform="translate(-3.035 -17.778)" fill="#5542ff"/>
              <path id="Path_888753" data-name="Path 888753" d="M12.715,94.863a.776.776,0,1,0,.775-.775.775.775,0,0,0-.775.775" transform="translate(-2.403 -17.778)" fill="#5542ff"/>
              <g id="Group_1113306" data-name="Group 1113306" transform="translate(5.06 63.032)" opacity="0.2">
                <g id="Group_1113305" data-name="Group 1113305">
                  <g id="Group_1113304" data-name="Group 1113304" clip-path="url(#clip-path-6)">
                    <path id="Path_888754" data-name="Path 888754" d="M23.7,105.5,6.239,77.716H23.7Z" transform="translate(-6.239 -77.716)" fill="#fff"/>
                  </g>
                </g>
              </g>
              <path id="Path_888755" data-name="Path 888755" d="M85.3,9.073A7.651,7.651,0,0,0,83.59,8.015l.643-1.339a8.878,8.878,0,0,1,2.051,1.29Z" transform="translate(-15.794 -1.261)" fill="#fff"/>
              <path id="Path_888756" data-name="Path 888756" d="M4.472,46.723l-1.479-.139c.143-1.522.33-3.033.559-4.488l1.467.229c-.225,1.427-.409,2.905-.547,4.4m1.387-8.741-1.447-.333c.342-1.489.744-2.962,1.193-4.378l1.415.449c-.436,1.377-.828,2.811-1.161,4.262m2.679-8.4-1.368-.574c.593-1.412,1.252-2.793,1.961-4.1l1.3.7c-.685,1.27-1.324,2.606-1.9,3.973m4.193-7.725-1.223-.84a40.279,40.279,0,0,1,2.8-3.6l1.119.977a38.7,38.7,0,0,0-2.692,3.467m5.765-6.6-1-1.1a39.356,39.356,0,0,1,3.551-2.868l.864,1.206a38.3,38.3,0,0,0-3.418,2.76m7.131-5.118L24.9,8.843a43.5,43.5,0,0,1,4.089-2.016l.586,1.363a41.961,41.961,0,0,0-3.947,1.947m8.08-3.489-.453-1.415c1.416-.453,2.893-.855,4.388-1.193l.328,1.447c-1.453.329-2.886.719-4.263,1.161M64.275,5.8c-1.337-.361-2.786-.672-4.308-.923l.243-1.465c1.569.26,3.068.582,4.454.955ZM42.318,4.692l-.206-1.47c1.475-.207,2.994-.361,4.518-.457l.092,1.481c-1.484.094-2.967.243-4.4.447m13.257-.357c-1.462-.122-2.95-.193-4.423-.207l.015-1.485c1.509.016,3.034.088,4.533.213Z" transform="translate(-0.566 -0.499)" fill="#fff"/>
              <path id="Path_888757" data-name="Path 888757" d="M4.037,64.749l-1.484-.02q.015-1.138.057-2.243l1.484.055q-.041,1.088-.057,2.208" transform="translate(-0.482 -11.807)" fill="#fff"/>
              <path id="Path_888758" data-name="Path 888758" d="M35.481,119a9.111,9.111,0,0,1-2.05-1.291l.989-1.108a7.647,7.647,0,0,0,1.707,1.062Z" transform="translate(-6.317 -22.032)" fill="#fff"/>
              <path id="Path_888759" data-name="Path 888759" d="M58.112,113.206l-.026-1.484c1.412-.024,2.828-.1,4.209-.213l.127,1.479c-1.416.122-2.865.195-4.311.219m-4.311-.071c-1.442-.071-2.889-.191-4.3-.355l.174-1.475c1.376.162,2.788.28,4.2.35Zm12.907-.667L66.476,111c1.393-.22,2.78-.5,4.123-.818l.348,1.444c-1.381.332-2.808.615-4.239.842m-21.474-.343c-1.49-.287-2.908-.624-4.212-1l.414-1.427c1.26.367,2.632.693,4.079.97Zm29.873-1.685-.467-1.409c1.342-.447,2.659-.953,3.913-1.5l.6,1.36c-1.3.569-2.656,1.092-4.043,1.552m7.92-3.489-.73-1.293a39.506,39.506,0,0,0,3.525-2.244l.864,1.206a40.88,40.88,0,0,1-3.659,2.331M90.07,101.9l-.992-1.1a37.244,37.244,0,0,0,2.94-2.961l1.11.985a38.871,38.871,0,0,1-3.058,3.08m5.75-6.479-1.213-.858a39.566,39.566,0,0,0,2.224-3.535l1.3.725a41.2,41.2,0,0,1-2.307,3.668m4.23-7.547-1.36-.594c.548-1.255,1.054-2.571,1.5-3.912l1.409.472c-.464,1.382-.984,2.739-1.551,4.034m2.755-8.179-1.44-.357c.329-1.324.62-2.706.867-4.114l1.461.255c-.252,1.442-.551,2.86-.887,4.215m1.495-8.477-1.475-.162c.15-1.361.268-2.776.348-4.205l1.481.081c-.081,1.457-.2,2.9-.354,4.286" transform="translate(-7.751 -12.632)" fill="#fff"/>
              <path id="Path_888760" data-name="Path 888760" d="M119.285,61.032l-1.484-.006q0-1.089-.016-2.209l1.484-.029q.022,1.138.016,2.244" transform="translate(-22.256 -11.108)" fill="#fff"/>
              <path id="Path_888761" data-name="Path 888761" d="M34.039,9.317,18.428,20.178l-6.467-9.325h0L27.557,0Z" transform="translate(-2.26 0)" fill="#fff"/>
              <path id="Path_888762" data-name="Path 888762" d="M12.593,10.576,27.173.43,24.069,11.5Z" transform="translate(-2.379 -0.081)" fill="#c73e3e"/>
              <rect id="Rectangle_408115" data-name="Rectangle 408115" width="5.576" height="0.885" transform="matrix(0.822, -0.57, 0.57, 0.822, 24.478, 10.639)" fill="#858585"/>
              <rect id="Rectangle_408116" data-name="Rectangle 408116" width="9.388" height="0.885" transform="translate(22.216 14.065) rotate(-34.739)" fill="#858585"/>
              <path id="Path_888763" data-name="Path 888763" d="M22.816,19.2a3.022,3.022,0,0,1-.959.988,2.243,2.243,0,0,1-3.217-.6,2.725,2.725,0,0,1,.667-3.883,2.1,2.1,0,0,1,3.047.482,1.531,1.531,0,0,1-.152,2.243.58.58,0,0,1-.846-.105l-.012.008a1.082,1.082,0,0,1-.457,1.01.844.844,0,0,1-1.226-.318,1.684,1.684,0,0,1,.439-2.4,2.07,2.07,0,0,1,.827-.349l.6,1.248c.187.4.344.534.518.422.264-.174.361-.735-.122-1.433a1.629,1.629,0,0,0-2.422-.4,2.15,2.15,0,0,0-.432,3.093,1.785,1.785,0,0,0,2.654.513,2.4,2.4,0,0,0,.745-.8ZM20.54,17.067a.89.89,0,0,0-.205.106.975.975,0,0,0-.118,1.358c.16.23.365.3.564.165a.838.838,0,0,0,.074-.994Z" transform="translate(-3.422 -2.883)" fill="#c73e3e"/>
              <path id="Path_888764" data-name="Path 888764" d="M0,67.247l6.139-1.1-2.432,5.1Z" transform="translate(0 -12.499)" fill="#fff"/>
              <path id="Path_888765" data-name="Path 888765" d="M121.258,53.981l-7.785,1.556,2.744-6.072Z" transform="translate(-21.441 -9.346)" fill="#fff"/>
              <path id="Path_888766" data-name="Path 888766" d="M87.2,107.87,102.77,97.094l6.415,9.3-15.55,10.767Z" transform="translate(-16.477 -18.346)" fill="#fff"/>
              <path id="Path_888767" data-name="Path 888767" d="M110.29,108.776,95.752,118.842l3.116-11.014Z" transform="translate(-18.092 -20.374)" fill="#504aff"/>
              <rect id="Rectangle_408117" data-name="Rectangle 408117" width="5.551" height="0.881" transform="matrix(0.823, -0.568, 0.568, 0.823, 72.928, 90.652)" fill="#858585"/>
              <rect id="Rectangle_408118" data-name="Rectangle 408118" width="9.345" height="0.88" transform="matrix(0.823, -0.568, 0.568, 0.823, 72.066, 89.402)" fill="#858585"/>
              <path id="Path_888768" data-name="Path 888768" d="M102.425,101.5a3.028,3.028,0,0,1,.956-.981,2.234,2.234,0,0,1,3.2.6,2.714,2.714,0,0,1-.673,3.865,2.094,2.094,0,0,1-3.032-.487,1.523,1.523,0,0,1,.156-2.232.576.576,0,0,1,.842.107l.012-.008a1.077,1.077,0,0,1,.458-1,.84.84,0,0,1,1.22.32,1.678,1.678,0,0,1-.443,2.385,2.071,2.071,0,0,1-.824.346l-.59-1.245c-.186-.4-.341-.532-.515-.42-.264.172-.361.731.118,1.426a1.621,1.621,0,0,0,2.41.4,2.141,2.141,0,0,0,.438-3.079,1.777,1.777,0,0,0-2.641-.517,2.384,2.384,0,0,0-.744.8Zm2.261,2.127a.913.913,0,0,0,.2-.105.97.97,0,0,0,.122-1.351c-.159-.23-.363-.3-.562-.165a.833.833,0,0,0-.075.989Z" transform="translate(-19.353 -18.912)" fill="#504aff"/>
            </g>
          </g>
        </g>
      </g>
    </g>
  </g>
</svg>
