<svg xmlns="http://www.w3.org/2000/svg" xmlns:xlink="http://www.w3.org/1999/xlink" width="178" height="178" viewBox="0 0 178 178">
  <defs>
    <clipPath id="clip-path">
      <rect id="Rectangle_407866" data-name="Rectangle 407866" width="87.151" height="100.574" fill="none"/>
    </clipPath>
  </defs>
  <g id="Group_1113352" data-name="Group 1113352" transform="translate(-710.824 -2490.651)">
    <g id="Group_1113039" data-name="Group 1113039" transform="translate(710.824 2490.651)">
      <path id="Path_882862" data-name="Path 882862" d="M89,0A89,89,0,1,1,0,89,89,89,0,0,1,89,0Z" transform="translate(0 -0.001)" fill="#005865"/>
      <path id="Path_882863" data-name="Path 882863" d="M78.668,0A78.668,78.668,0,1,1,0,78.668,78.668,78.668,0,0,1,78.668,0Z" transform="translate(10.332 10.331)" fill="#f3f9ff"/>
    </g>
    <g id="Group_1113042" data-name="Group 1113042" transform="translate(749.824 2529.651)">
      <rect id="Rectangle_401104" data-name="Rectangle 401104" width="99.117" height="100.574" transform="translate(-0.113)" fill="none"/>
      <g id="Group_1113275" data-name="Group 1113275" transform="translate(5.887)">
        <g id="Group_1113274" data-name="Group 1113274" transform="translate(0 0)" clip-path="url(#clip-path)">
          <path id="Path_888168" data-name="Path 888168" d="M78.088,87.327a9,9,0,0,0,9.063-9.063V9.065A9,9,0,0,0,78.088,0H9.062A9,9,0,0,0,0,9.065V78.09a9,9,0,0,0,9.062,9.063H78.088Z" transform="translate(0 0)" fill="#d7deed"/>
          <path id="Path_888169" data-name="Path 888169" d="M31.725,40.564A15.36,15.36,0,0,0,16.388,55.9a10.856,10.856,0,0,0,.172,2.268,15.332,15.332,0,0,0,30.33,0,9.237,9.237,0,0,0,.174-2.268A15.361,15.361,0,0,0,31.725,40.564" transform="translate(11.85 29.331)" fill="#5165a2"/>
          <path id="Path_888170" data-name="Path 888170" d="M41.756,19.269H17.7a6.733,6.733,0,0,1,1.918-4.706,6.438,6.438,0,0,1,4.707-1.92H35.133a6.737,6.737,0,0,1,6.623,6.625" transform="translate(12.8 9.142)" fill="#57606f"/>
          <path id="Path_888171" data-name="Path 888171" d="M38.967,17.354H32.343a6.734,6.734,0,0,0-4.706,1.916A6.179,6.179,0,0,0,25.894,23.8H6.373V6.373H71.738V23.8H49.948a6.622,6.622,0,0,0-6.623-6.625H38.967Z" transform="translate(4.608 4.608)" fill="#afb9d2"/>
          <rect id="Rectangle_407864" data-name="Rectangle 407864" width="13.073" height="37.127" transform="translate(63.273 39.393)" fill="#f3a744"/>
          <rect id="Rectangle_407865" data-name="Rectangle 407865" width="13.073" height="37.127" transform="translate(10.981 39.393)" fill="#f3a744"/>
          <path id="Path_888172" data-name="Path 888172" d="M34.62,48.759v6.625H31.308V58.7H24.683V55.385H21.547V48.759h3.136V45.623h6.625v3.136Z" transform="translate(15.58 32.989)" fill="#2bc897"/>
          <path id="Path_888173" data-name="Path 888173" d="M25.647,18.238a2.2,2.2,0,0,1-1.046-.176A2.3,2.3,0,0,1,23.555,15.1l2.266-4.359a2.223,2.223,0,0,1,4.01,1.92l-2.268,4.356a2.034,2.034,0,0,1-1.916,1.222" transform="translate(16.884 6.862)" fill="#57606f"/>
        </g>
      </g>
    </g>
  </g>
</svg>
