<svg xmlns="http://www.w3.org/2000/svg" xmlns:xlink="http://www.w3.org/1999/xlink" width="85" height="85" viewBox="0 0 85 85">
  <defs>
    <clipPath id="clip-path">
      <rect id="Rectangle_404010" data-name="Rectangle 404010" width="68.541" height="68.541" transform="translate(0.371 -0.061)" fill="#fff" stroke="#707070" stroke-width="1"/>
    </clipPath>
    <clipPath id="clip-path-2">
      <rect id="Rectangle_407793" data-name="Rectangle 407793" width="64.188" height="64.269" fill="#fff"/>
    </clipPath>
  </defs>
  <g id="Group_1113365" data-name="Group 1113365" transform="translate(-285.34 -5337)">
    <rect id="Rectangle_404009" data-name="Rectangle 404009" width="85" height="85" transform="translate(285.34 5337)" fill="#005865"/>
    <g id="Mask_Group_1098861" data-name="Mask Group 1098861" transform="translate(293.34 5345)" clip-path="url(#clip-path)">
      <g id="Group_1113133" data-name="Group 1113133" transform="translate(2.371 1.939)">
        <g id="Group_1113132" data-name="Group 1113132" clip-path="url(#clip-path-2)">
          <path id="Path_887985" data-name="Path 887985" d="M17.234,41.715C9.3,42.38,1.739,38.74.25,30.394-1.568,20.2,6.795,12.249,16.825,14.058A17.2,17.2,0,0,1,32.271.036C41.845-.57,49.542,6.4,50.515,15.8A12.974,12.974,0,0,1,62.228,35.675c-1.912,3.2-6.614,6.04-10.375,6.04H46.907v4.209H55.43c1.147,0,.609,4.015.761,4.817a4.534,4.534,0,0,1-1.824,8.872c-4.791-.472-5.354-7.839-.539-8.872l.024-2.5H45.539c-.328,0-.947-.856-.947-1.157V41.715H33.228v5.577a2.056,2.056,0,0,1-.947.947H28.6v6.84a14.433,14.433,0,0,1,2.186,1.391c2.478,2.516,1.023,7.261-2.52,7.744A4.587,4.587,0,0,1,26.3,55.265c.2-2.517-.309-5.524-.018-7.978.042-.351.415-1.363.741-1.363h3.893V41.715H19.549v5.366c0,.3-.62,1.157-.947,1.157H10.29l.024,2.5c4.714.907,4.261,8.292-.335,8.867-5.9.738-7.6-7.28-2.029-8.867.151-.8-.386-4.817.761-4.817h8.523ZM31.5,2.419c-7.342.829-13.091,8.086-12.577,15.406.084,1.2,1.276,4.058-.01,4.635-1.631.731-1.893-1.98-2.069-2.977-.135-.76-.077-2.3-.267-2.89-.172-.541-2.845-.587-3.442-.55-14.012.861-14.835,22.24.41,23.364,12.231.9,25.551-.7,37.9,0,14-1.032,13.224-20.1,1.253-21.261-.932-.09-3.687.233-4.227-.192-.523-.412-.21-1.413-.3-2.017C46.908,7.259,40.548,1.4,31.5,2.419M8.55,52.916c-2.175.441-2.211,3.8-.209,4.319,3.907,1.014,4.07-5.1.209-4.319m45.877,0c-2.731.554-1.992,5.191,1.373,4.319,2.37-.614,1.83-4.968-1.373-4.319m-27.57,4.631c-2.667.542-1.893,4.95,1.166,4.322a2.24,2.24,0,1,0-1.166-4.322" transform="translate(0 0.001)" fill="#fff"/>
        </g>
      </g>
    </g>
  </g>
</svg>
