<svg xmlns="http://www.w3.org/2000/svg" xmlns:xlink="http://www.w3.org/1999/xlink" width="178" height="178" viewBox="0 0 178 178">
  <defs>
    <clipPath id="clip-path">
      <rect id="Rectangle_407877" data-name="Rectangle 407877" width="86.798" height="100.574" fill="none"/>
    </clipPath>
  </defs>
  <g id="Group_1113353" data-name="Group 1113353" transform="translate(-1060.824 -2490.651)">
    <g id="Group_1113040" data-name="Group 1113040" transform="translate(1060.824 2490.651)">
      <path id="Path_882862" data-name="Path 882862" d="M89,0A89,89,0,1,1,0,89,89,89,0,0,1,89,0Z" transform="translate(0 -0.001)" fill="#005865"/>
      <path id="Path_882863" data-name="Path 882863" d="M78.668,0A78.668,78.668,0,1,1,0,78.668,78.668,78.668,0,0,1,78.668,0Z" transform="translate(10.332 10.331)" fill="#f3f9ff"/>
    </g>
    <g id="Group_1113043" data-name="Group 1113043" transform="translate(1099.824 2529.651)">
      <rect id="Rectangle_401104" data-name="Rectangle 401104" width="99.117" height="100.574" transform="translate(-0.113 0.349)" fill="none"/>
      <g id="Group_1113277" data-name="Group 1113277" transform="translate(5.888 0.348)">
        <g id="Group_1113276" data-name="Group 1113276" transform="translate(0 0)" clip-path="url(#clip-path)">
          <path id="Path_888174" data-name="Path 888174" d="M20.2,2.967a3.374,3.374,0,0,1,1.954.525,1.96,1.96,0,0,0,.083-.538C22.241,1.321,20.169,0,17.607,0V2.45a3.92,3.92,0,0,1,2.6.516" transform="translate(11.499 0)" fill="#6d0c05"/>
          <path id="Path_888175" data-name="Path 888175" d="M19.438,0h0C16.879,0,14.8,1.32,14.8,2.953a1.977,1.977,0,0,0,.187.785,9.619,9.619,0,0,1,4.448-1.288Z" transform="translate(9.668 0)" fill="#6d0c05"/>
          <path id="Path_888176" data-name="Path 888176" d="M17.647,24.73v-.412L20.215,16.8l-2.609-2.164Z" transform="translate(11.499 5.413)" fill="#f9c478"/>
          <path id="Path_888177" data-name="Path 888177" d="M19.039,25.365,19,15.274l-1.818-1.509a5.934,5.934,0,0,1-1.706-.841v2.34l3.564,9.69Z" transform="translate(10.106 4.778)" fill="#f7b56d"/>
          <path id="Path_888178" data-name="Path 888178" d="M16.507,13.537l1.818,1.509V13.821a6.194,6.194,0,0,1-1.818-.284" transform="translate(10.78 5.005)" fill="#eaa663"/>
          <path id="Path_888179" data-name="Path 888179" d="M17.607,14.011v1.226L20.214,17.4l1-2.193-.3-2.185a6.057,6.057,0,0,1-3.308.988Z" transform="translate(11.499 4.815)" fill="#eaa663"/>
          <path id="Path_888180" data-name="Path 888180" d="M20.6,16.759V5.59h0A34.612,34.612,0,0,1,14.041,8.2l.126.353-.278-.31a1.09,1.09,0,0,0-.66-.445.06.06,0,0,0-.038.018c-.182.155-.21.905-.1,2.237.1,1.166.982,2.261,1.47,2.261a.273.273,0,0,0,.114-.036l.1-.063.026.1a5.7,5.7,0,0,0,2.266,3.319,5.916,5.916,0,0,0,1.706.842,6.177,6.177,0,0,0,1.818.284" transform="translate(8.508 2.067)" fill="#ffc988"/>
          <path id="Path_888181" data-name="Path 888181" d="M18.89,4.662a4.618,4.618,0,0,1-1.283,1.273V17.1h0a6.056,6.056,0,0,0,3.309-.989,5.686,5.686,0,0,0,2.476-3.457l.028-.1.106.063a.245.245,0,0,0,.122.036c.478,0,1.357-1.1,1.46-2.261.116-1.33.083-2.082-.1-2.235a.069.069,0,0,0-.041-.018,1.115,1.115,0,0,0-.66.442l-.274.312.129-.37s-2-1.42-4.2-2.651A2.314,2.314,0,0,1,18.89,4.662" transform="translate(11.499 1.723)" fill="#f7b56d"/>
          <path id="Path_888182" data-name="Path 888182" d="M16.512,70.937a3.092,3.092,0,0,1-2.407-1.511l-.278.742a2.039,2.039,0,0,0,.456,2.327c1.617,1.39,4.736.67,4.736.67a2.268,2.268,0,0,0,.407-1.922l-.387-1.535a2.54,2.54,0,0,1-2.528,1.229" transform="translate(8.919 25.671)" fill="#06962c"/>
          <path id="Path_888183" data-name="Path 888183" d="M13.181,61.57a102.076,102.076,0,0,1,2.175,11.557l-.724,1.934a3.092,3.092,0,0,0,2.407,1.511,2.54,2.54,0,0,0,2.528-1.229l-.6-2.366.987-18.785H13.373a16.9,16.9,0,0,0-.192,7.378" transform="translate(8.391 20.038)" fill="#ffc988"/>
          <path id="Path_888184" data-name="Path 888184" d="M21.05,70.937a2.542,2.542,0,0,1-2.528-1.229l-.387,1.535a2.269,2.269,0,0,0,.408,1.922s3.118.721,4.736-.67a2.044,2.044,0,0,0,.458-2.327l-.278-.742a3.092,3.092,0,0,1-2.41,1.511" transform="translate(11.8 25.671)" fill="#038c24"/>
          <path id="Path_888185" data-name="Path 888185" d="M19.095,72.976l-.6,2.366a2.542,2.542,0,0,0,2.528,1.229,3.1,3.1,0,0,0,2.41-1.511l-.727-1.934a102.963,102.963,0,0,1,2.175-11.557,16.868,16.868,0,0,0-.19-7.376H18.108Z" transform="translate(11.826 20.038)" fill="#f9c478"/>
          <path id="Path_888186" data-name="Path 888186" d="M9.555,44.477c2.3,1.971,1.807,2.057,2.3,1.971,1.129-.195-1.83-1.574-1.192-5.653.132-.851.871-.327,1.03.562s.081,2.068.871,1.741c0,0,.952-2.7-.871-4.4-1.531-1.436-1.4-1.026-1.339-1.322L7.617,38.379s-.362,4.126,1.937,6.1" transform="translate(4.961 13.819)" fill="#f9c478"/>
          <path id="Path_888187" data-name="Path 888187" d="M38.776,15.97c-.97-.519-.045,2.188-3.967,4.705-.818.523-1.405-.419-1.405-1.316a2.2,2.2,0,0,0-1.342-2.3,21.222,21.222,0,0,1,.226,4.5,9.3,9.3,0,0,0-.023,1.516l1.653,1.59s4.764-3.216,4.81-5.959.468-2.514.048-2.742" transform="translate(20.938 5.881)" fill="#f9c478"/>
          <path id="Path_888188" data-name="Path 888188" d="M19.778,2.237a9.876,9.876,0,0,1-1.4,3.35A2.315,2.315,0,0,0,19.459,6.8c2.2,1.229,4.2,2.651,4.2,2.651s1.065-2.4.744-3.686a6.1,6.1,0,0,0-2.756-3.072A3.384,3.384,0,0,0,19.7,2.168a.888.888,0,0,1,.081.068" transform="translate(12.006 0.797)" fill="#891809"/>
          <path id="Path_888189" data-name="Path 888189" d="M20.338,7h0V1.789A9.635,9.635,0,0,0,15.89,3.077a4.174,4.174,0,0,0-1.3,1.216,6.557,6.557,0,0,0-.957,5.354l.152-.045A34.426,34.426,0,0,0,20.338,7" transform="translate(8.767 0.661)" fill="#a0210c"/>
          <path id="Path_888190" data-name="Path 888190" d="M18.89,5.727a9.876,9.876,0,0,0,1.4-3.35.888.888,0,0,0-.081-.068,3.92,3.92,0,0,0-2.6-.516V7A4.618,4.618,0,0,0,18.89,5.727" transform="translate(11.499 0.658)" fill="#a0210c"/>
          <path id="Path_888191" data-name="Path 888191" d="M19.784,18.516v-.008a5.461,5.461,0,0,1-2.952-2.583l-.612-1.289-.007-.018h-1.88l5.45,12.294Z" transform="translate(9.361 5.405)" fill="#08a437"/>
          <path id="Path_888192" data-name="Path 888192" d="M17.631,18.516v-.008a5.451,5.451,0,0,0,2.951-2.583l.612-1.289.007-.018h1.881l-5.45,12.294Z" transform="translate(11.514 5.405)" fill="#038c24"/>
          <path id="Path_888193" data-name="Path 888193" d="M11.308,55.732H21.755v-5l-9.842-.7c-.21,3.085-.605,5.706-.605,5.706" transform="translate(7.385 18.498)" fill="#06962c"/>
          <path id="Path_888194" data-name="Path 888194" d="M17.631,23.791v0Z" transform="translate(11.514 8.723)" fill="#e13633"/>
          <path id="Path_888195" data-name="Path 888195" d="M21.121,27.246v-.14l-5.45-12.292-.319-.726-3.065.753.013.082,1.21,6.913,2.936.684-.741,1.074Z" transform="translate(8.024 5.209)" fill="#07e0e0"/>
          <path id="Path_888196" data-name="Path 888196" d="M17.631,27.246v-.14l5.45-12.292.319-.726,3.065.753-.015.082-1.208,6.913-2.936.684.741,1.074Z" transform="translate(11.514 5.209)" fill="#00c4ce"/>
          <path id="Path_888197" data-name="Path 888197" d="M17.628,49.834V50.8l.064.005Z" transform="translate(11.512 18.427)" fill="#02331e"/>
          <path id="Path_888198" data-name="Path 888198" d="M24.175,27.02,18.76,23.369l.741-1.074-2.936-.684L15.355,14.7c-2.136.6-4.753,3.756-5.039,5.023C9.374,23.9,8.592,36.71,8.592,36.71L7.61,46.763l2.739-1.008L10.5,45.7l3.584-11.042.531-6.893.334-1.575,3.162,8.294c-2.61,4.528-4.964,6.034-4.872,13.2v.005L11.925,62.917l2.4.173,9.842.7V40.944Z" transform="translate(4.97 5.435)" fill="#00c4ce"/>
          <path id="Path_888199" data-name="Path 888199" d="M17.628,50.729v5H28.077s-.4-2.622-.605-5.706h0Z" transform="translate(11.512 18.498)" fill="#038c24"/>
          <path id="Path_888200" data-name="Path 888200" d="M38.048,23.382l-.268-.258L30.5,27.234s-4.483-9.51-7.138-12.127c1.212,2.312-.154,10.935-.154,10.935l4.835,5.619a4.289,4.289,0,0,0,4.875-.379L39.7,24.971Z" transform="translate(15.156 5.586)" fill="#0094a3"/>
          <path id="Path_888201" data-name="Path 888201" d="M25.876,42.019l0,0c.086-6.5-1.838-8.342-4.143-12,2.3,3.653,4.225,5.508,4.141,11.992Z" transform="translate(14.195 11.101)" fill="#02331e"/>
          <path id="Path_888202" data-name="Path 888202" d="M21.529,29.621c.093.151.182.3.273.441-.091-.144-.18-.29-.273-.441" transform="translate(14.06 10.953)" fill="#02331e"/>
          <path id="Path_888203" data-name="Path 888203" d="M21.441,29.442c.048.082.1.166.145.245-.048-.079-.1-.164-.145-.245" transform="translate(14.003 10.886)" fill="#9fc6ed"/>
          <path id="Path_888204" data-name="Path 888204" d="M21.694,29.943l.068.107-.068-.107" transform="translate(14.168 11.072)" fill="#9fc6ed"/>
          <path id="Path_888205" data-name="Path 888205" d="M24.037,46c-.635,1.933-.6,5.264-.4,8.183l2.4-.171L24.721,38.782a55.751,55.751,0,0,1-.63,7.052Z" transform="translate(15.351 14.34)" fill="#0094a3"/>
          <path id="Path_888206" data-name="Path 888206" d="M23.527,15.257a1,1,0,0,0-.56-.555l-.015.082a3.406,3.406,0,0,1,.575.473" transform="translate(14.989 5.436)" fill="#9fc6ed"/>
          <path id="Path_888207" data-name="Path 888207" d="M26.851,26.206s1.364-8.623.154-10.935a3.9,3.9,0,0,0-.575-.51l-1.2,6.83-2.933.684.741,1.075L17.633,27l0,13.924V63.772l9.842-.7h0c-.2-2.919-.231-6.252.4-8.183l.055-.168a55.4,55.4,0,0,0,.63-7.05l0,0V47.66c.084-6.485-1.838-8.338-4.141-11.992l-.068-.105-.273-.442c-.048-.079-.1-.163-.145-.245-.079-.136-.162-.267-.243-.41Z" transform="translate(11.512 5.458)" fill="#0094a3"/>
          <path id="Path_888212" data-name="Path 888212" d="M0,0H1.178V1.665H0Z" transform="matrix(0.004, -1, 1, 0.004, 54.799, 21.311)" fill="#9added"/>
          <path id="Path_888213" data-name="Path 888213" d="M0,0H1.178V1.665H0Z" transform="translate(56.462 21.317) rotate(-89.772)" fill="#85d3e0"/>
          <path id="Path_888208" data-name="Path 888208" d="M33.425,21.417l1.741.005.026-5.843-1.739-.005a.8.8,0,0,0-.863.705l-.021,4.428a.793.793,0,0,0,.856.71" transform="translate(21.27 5.758)" fill="#e13633"/>
          <path id="Path_888209" data-name="Path 888209" d="M34.14,21.422l1.739.005a.8.8,0,0,0,.863-.7l.021-4.43a.793.793,0,0,0-.856-.71l-1.739-.005Z" transform="translate(22.296 5.76)" fill="#e13633"/>
          <path id="Path_888214" data-name="Path 888214" d="M0,0,3.158,0v1.44L0,1.44Z" transform="matrix(0.005, -1, 1, 0.005, 55.001, 25.794)" fill="#e8fafb"/>
          <path id="Path_888215" data-name="Path 888215" d="M0,0,3.159,0v1.44L0,1.44Z" transform="translate(56.443 25.8) rotate(-89.803)" fill="#d4f4f4"/>
          <rect id="Rectangle_407871" data-name="Rectangle 407871" width="24.902" height="6.245" transform="translate(52.956 43.008)" fill="#096a6d"/>
          <path id="Path_888210" data-name="Path 888210" d="M49.848,25.757H37.8a2.412,2.412,0,0,0-2.253,1.314l-2.47,5.693c-.15.352.162.722.612.722H53.957c.45,0,.764-.37.612-.722L52.1,27.071a2.416,2.416,0,0,0-2.253-1.314" transform="translate(21.58 9.524)" fill="#01565c"/>
          <rect id="Rectangle_407872" data-name="Rectangle 407872" width="11.168" height="2.244" transform="translate(59.822 33.038)" fill="#096a6d"/>
          <path id="Path_888211" data-name="Path 888211" d="M42.445,26.224l-1.351.01V20.3l1.284-.011Z" transform="translate(26.838 7.502)" fill="#01565c"/>
          <rect id="Rectangle_407873" data-name="Rectangle 407873" width="7.986" height="3.053" transform="translate(63.004 25.705)" fill="#01565c"/>
          <rect id="Rectangle_407874" data-name="Rectangle 407874" width="86.798" height="11.961" transform="translate(0 49.568)" fill="#01565c"/>
          <rect id="Rectangle_407875" data-name="Rectangle 407875" width="6.893" height="44.268" transform="translate(77.685 56.306)" fill="#01565c"/>
          <rect id="Rectangle_407876" data-name="Rectangle 407876" width="6.893" height="44.268" transform="translate(4.227 56.306)" fill="#01565c"/>
        </g>
      </g>
    </g>
  </g>
</svg>
