<svg xmlns="http://www.w3.org/2000/svg" xmlns:xlink="http://www.w3.org/1999/xlink" width="85" height="85" viewBox="0 0 85 85">
  <defs>
    <clipPath id="clip-path">
      <rect id="Rectangle_404010" data-name="Rectangle 404010" width="68.541" height="68.541" transform="translate(0.371 -0.061)" fill="#fff" stroke="#707070" stroke-width="1"/>
    </clipPath>
    <clipPath id="clip-path-2">
      <rect id="Rectangle_407792" data-name="Rectangle 407792" width="59" height="59" transform="translate(0)" fill="#fff"/>
    </clipPath>
  </defs>
  <g id="Group_1113366" data-name="Group 1113366" transform="translate(-285.34 -5337)">
    <rect id="Rectangle_404009" data-name="Rectangle 404009" width="85" height="85" transform="translate(285.34 5337)" fill="#005865"/>
    <g id="Mask_Group_1098861" data-name="Mask Group 1098861" transform="translate(293.34 5345)" clip-path="url(#clip-path)">
      <g id="Group_1113131" data-name="Group 1113131" transform="translate(5.372 4.939)">
        <g id="Group_1113130" data-name="Group 1113130" clip-path="url(#clip-path-2)">
          <path id="Path_887981" data-name="Path 887981" d="M109.008,90.9a16.958,16.958,0,0,1-.032,5.021c.733.509,2.016.88,2.484,1.66.49.818.178,1.207-.195,1.964a40.618,40.618,0,0,1-2.745,4.742c-1.4,1.773-2.509.054-4.013-.48-.916.54-1.763,1.192-2.708,1.688-.361.189-1.271.41-1.475.58-.572.476.652,3.469-1.281,3.857l-6.8-.036c-1.778-.463-.608-3.354-1.17-3.822-.2-.17-1.115-.391-1.475-.58-.945-.5-1.792-1.148-2.708-1.688-2.347,1.108-2.83,2.338-4.5-.349a40.053,40.053,0,0,1-2.7-4.937c-.184-1.368,1.835-2.026,2.738-2.6a13.842,13.842,0,0,1,0-4.944c-.892-.579-2.695-1.133-2.757-2.4-.026-.527,2.27-4.416,2.721-5.141,1.678-2.691,2.164-1.451,4.5-.349.916-.54,1.763-1.192,2.708-1.688.361-.189,1.271-.41,1.475-.58.572-.476-.652-3.469,1.281-3.857l6.8.036c1.778.463.608,3.354,1.17,3.822.21.175,1.42.544,1.86.782s2.018,1.427,2.214,1.468c.921.192,2.211-2.124,3.784-.859a45.715,45.715,0,0,1,3.031,5.044c.373.739.726,1.144.3,1.963-.418.8-1.72,1.282-2.5,1.68M97.242,82.442c-.147-.588.108-1.689,0-2.349l-.22-.22H94.379l-.22.22v2.349a3.519,3.519,0,0,1-.626.7,16.828,16.828,0,0,1-1.97.673,11.932,11.932,0,0,0-1.707.935c-.472.313-1.817,1.615-2.112,1.7-1.267.381-2.012-.732-3.125-1l-1.332,2.561c1.149.813,2.52.89,2.343,2.635A18.473,18.473,0,0,0,85.2,93.9c.045,1.016.686,2.548.335,3.405-.282.691-2.236,1.438-2.246,1.588l1.332,2.561c1.113-.265,1.859-1.378,3.125-1,.293.088,1.642,1.391,2.112,1.7,1.233.82,2.747,1.014,3.677,1.608a3.519,3.519,0,0,1,.626.7v2.349l.22.22h2.643l.22-.22v-2.349a3.518,3.518,0,0,1,.626-.7,16.87,16.87,0,0,1,1.97-.673,12.084,12.084,0,0,0,1.8-.993c.468-.316,1.729-1.557,2.024-1.645,1.266-.381,2.012.732,3.125,1l1.332-2.561c-1.149-.813-2.52-.891-2.343-2.635A18.487,18.487,0,0,0,106.2,93c-.045-1.016-.686-2.548-.335-3.405.282-.691,2.236-1.438,2.246-1.588l-1.332-2.561c-1.113.265-1.859,1.378-3.125,1-.294-.088-1.556-1.33-2.024-1.645a12.084,12.084,0,0,0-1.8-.993c-.7-.3-2.385-.527-2.6-1.368" transform="translate(-66.199 -63.958)" fill="#fff"/>
          <path id="Path_887982" data-name="Path 887982" d="M39.836,138.473c.861,2.373-1.8,3.89-3.139,1.7l-2.6-7.89c.228-1.751,1.115-2,2.651-1.632,2.457.589,5.086,1.822,7.523,2.575a1.715,1.715,0,0,1-1.228,3.05,19.817,19.817,0,0,0,5.972,3.24c20.188,7.249,39.592-11.253,33.706-31.846-.377-1.319-2.069-4.2.345-4.664,2.15-.409,2.769,2.887,3.207,4.493C92,128.517,73.44,148.168,52.14,144a31.77,31.77,0,0,1-12.3-5.529" transform="translate(-28.335 -85.564)" fill="#fff"/>
          <path id="Path_887983" data-name="Path 887983" d="M47.505,6.081c-.861-2.373,1.8-3.89,3.139-1.7l2.6,7.89c-.183,1.621-1.013,1.967-2.531,1.68l-7.643-2.623a1.773,1.773,0,0,1,1.227-3.132,19.6,19.6,0,0,0-4.281-2.481C19.59-3.221-1.5,15.467,4.617,36.883c.377,1.319,2.069,4.2-.345,4.664-2.153.409-2.765-2.887-3.207-4.493C-4.714,16.031,13.915-3.566,35.2.552a31.692,31.692,0,0,1,12.3,5.529" transform="translate(0 0)" fill="#fff"/>
          <path id="Path_887984" data-name="Path 887984" d="M148.483,142.991c6.377-.533,7.944,9.046,1.559,10.465-7.338,1.63-9.038-9.84-1.559-10.465m-.212,2.169c-3.841.607-3.192,6.857,1.105,6.284,3.964-.528,3.3-6.979-1.105-6.284" transform="translate(-119.357 -118.8)" fill="#fff"/>
        </g>
      </g>
    </g>
  </g>
</svg>
