<svg id="Group_1109396" data-name="Group 1109396" xmlns="http://www.w3.org/2000/svg" xmlns:xlink="http://www.w3.org/1999/xlink" width="58.684" height="37.181" viewBox="0 0 58.684 37.181">
  <defs>
    <clipPath id="clip-path">
      <rect id="Rectangle_404502" data-name="Rectangle 404502" width="58.684" height="37.181" fill="none"/>
    </clipPath>
    <clipPath id="clip-path-3">
      <rect id="Rectangle_404487" data-name="Rectangle 404487" width="23.273" height="25.434" fill="none"/>
    </clipPath>
    <clipPath id="clip-path-4">
      <rect id="Rectangle_404488" data-name="Rectangle 404488" width="14.751" height="14.751" fill="none"/>
    </clipPath>
    <clipPath id="clip-path-5">
      <rect id="Rectangle_404489" data-name="Rectangle 404489" width="13.449" height="13.449" fill="#2bc897"/>
    </clipPath>
    <clipPath id="clip-path-6">
      <rect id="Rectangle_404490" data-name="Rectangle 404490" width="17.96" height="16.692" fill="none"/>
    </clipPath>
    <clipPath id="clip-path-7">
      <rect id="Rectangle_404491" data-name="Rectangle 404491" width="23.212" height="25.374" fill="none"/>
    </clipPath>
    <clipPath id="clip-path-8">
      <rect id="Rectangle_404492" data-name="Rectangle 404492" width="14.752" height="14.751" fill="none"/>
    </clipPath>
    <clipPath id="clip-path-9">
      <rect id="Rectangle_404493" data-name="Rectangle 404493" width="13.449" height="13.449" fill="none"/>
    </clipPath>
    <clipPath id="clip-path-11">
      <path id="Path_882908" data-name="Path 882908" d="M114.387,175.133c1.061,1.061,3.705,5.949,11.269-1.615l-6.749-6.749c-3.558,3.558-5.582,7.3-4.52,8.364" transform="translate(-114.105 -166.769)" fill="none"/>
    </clipPath>
    <clipPath id="clip-path-12">
      <rect id="Rectangle_404496" data-name="Rectangle 404496" width="3.304" height="3.028" fill="none"/>
    </clipPath>
    <clipPath id="clip-path-17">
      <rect id="Rectangle_404499-2" data-name="Rectangle 404499" width="2.387" height="2.187" fill="none"/>
    </clipPath>
    <clipPath id="clip-path-19">
      <rect id="Rectangle_404500" data-name="Rectangle 404500" width="2.853" height="2.615" fill="none"/>
    </clipPath>
  </defs>
  <g id="Group_1108836" data-name="Group 1108836" clip-path="url(#clip-path)">
    <g id="Group_1108816" data-name="Group 1108816">
      <g id="Group_1108815" data-name="Group 1108815" clip-path="url(#clip-path)">
        <path id="Path_882892" data-name="Path 882892" d="M260.152,16.457,249.318,27.29h0c-1.276,1.276.824,5.446,4.692,9.313s8.037,5.968,9.313,4.692h0l10.834-10.834a9.9,9.9,0,0,0-14-14" transform="translate(-218.373 -11.891)" fill="#2bc897"/>
        <g id="Group_1108793" data-name="Group 1108793" transform="translate(35.411 4.343)" style="mix-blend-mode: multiply;isolation: isolate">
          <g id="Group_1108792" data-name="Group 1108792">
            <g id="Group_1108791" data-name="Group 1108791" clip-path="url(#clip-path-3)">
              <path id="Path_882894" data-name="Path 882894" d="M308.269,49.14,297.436,59.974h0c-1.251,1.251-5.282-.744-9.083-4.466.075.077.149.153.226.23,3.867,3.867,8.037,5.968,9.313,4.692h0L308.725,49.6a9.9,9.9,0,0,0,0-14h0c-.076-.076-.155-.148-.233-.222a9.9,9.9,0,0,1-.222,13.771" transform="translate(-288.352 -35.369)" fill="#e8c8c8"/>
            </g>
          </g>
        </g>
        <g id="Group_1108796" data-name="Group 1108796" transform="translate(30.571 15.026)" style="mix-blend-mode: soft-light;isolation: isolate">
          <g id="Group_1108795" data-name="Group 1108795">
            <g id="Group_1108794" data-name="Group 1108794" clip-path="url(#clip-path-4)">
              <path id="Path_882895" data-name="Path 882895" d="M249.318,122.73h0c-1.276,1.276.824,5.446,4.692,9.313h0c3.867,3.867,8.037,5.968,9.313,4.692s-.824-5.446-4.692-9.313-8.037-5.968-9.313-4.692" transform="translate(-248.944 -122.356)" fill="#a3a3a3"/>
            </g>
          </g>
        </g>
        <g id="Group_1108799" data-name="Group 1108799" transform="translate(31.223 15.677)" style="mix-blend-mode: multiply;isolation: isolate">
          <g id="Group_1108798" data-name="Group 1108798">
            <g id="Group_1108797" data-name="Group 1108797" clip-path="url(#clip-path-5)">
              <path id="Path_882896" data-name="Path 882896" d="M254.53,127.943h0c-1.061,1.061.962,4.806,4.52,8.364s7.3,5.582,8.364,4.52-.962-4.806-4.52-8.364-7.3-5.582-8.364-4.52" transform="translate(-254.248 -127.661)" fill="#2bc897"/>
            </g>
          </g>
        </g>
        <g id="Group_1108802" data-name="Group 1108802" transform="translate(33.206 3.676)" style="mix-blend-mode: soft-light;isolation: isolate">
          <g id="Group_1108801" data-name="Group 1108801">
            <g id="Group_1108800" data-name="Group 1108800" clip-path="url(#clip-path-6)">
              <path id="Path_882897" data-name="Path 882897" d="M279.87,31.386,270.4,40.858c1.907.388,4.8,2.241,7.551,4.988q.386.386.748.776l8.2-8.2a4.972,4.972,0,0,0-7.032-7.032" transform="translate(-270.398 -29.93)" fill="#e0e0e0"/>
            </g>
          </g>
        </g>
        <path id="Path_882898" data-name="Path 882898" d="M16.905,16.457,27.739,27.29h0c1.276,1.276-.824,5.446-4.692,9.313h0c-3.867,3.867-8.037,5.968-9.313,4.692h0L2.9,30.461a9.9,9.9,0,0,1,14-14" transform="translate(0 -11.891)" fill="#f3a744"/>
        <g id="Group_1108805" data-name="Group 1108805" transform="translate(0 4.403)" style="mix-blend-mode: multiply;isolation: isolate">
          <g id="Group_1108804" data-name="Group 1108804">
            <g id="Group_1108803" data-name="Group 1108803" clip-path="url(#clip-path-7)">
              <path id="Path_882899" data-name="Path 882899" d="M14.068,60.522h0L3.234,49.688a9.9,9.9,0,0,1-.162-13.834c-.057.054-.115.106-.171.162a9.9,9.9,0,0,0,0,14L13.735,60.855h0c1.276,1.276,5.446-.825,9.313-4.692L23.213,56c-3.819,3.761-7.887,5.784-9.145,4.527" transform="translate(-0.001 -35.854)" fill="#cfe1ec"/>
            </g>
          </g>
        </g>
        <g id="Group_1108808" data-name="Group 1108808" transform="translate(13.361 15.026)" style="mix-blend-mode: soft-light;isolation: isolate">
          <g id="Group_1108807" data-name="Group 1108807">
            <g id="Group_1108806" data-name="Group 1108806" clip-path="url(#clip-path-8)">
              <path id="Path_882900" data-name="Path 882900" d="M123.178,122.73h0c1.276,1.276-.824,5.446-4.692,9.313h0c-3.867,3.867-8.037,5.968-9.313,4.692s.824-5.446,4.692-9.313,8.037-5.968,9.313-4.692" transform="translate(-108.8 -122.356)" fill="#fff"/>
            </g>
          </g>
        </g>
        <g id="Group_1108811" data-name="Group 1108811" transform="translate(14.013 15.677)" style="mix-blend-mode: multiply;isolation: isolate">
          <g id="Group_1108810" data-name="Group 1108810">
            <g id="Group_1108809" data-name="Group 1108809" clip-path="url(#clip-path-9)">
              <path id="Path_882901" data-name="Path 882901" d="M127.271,127.943h0c1.061,1.061-.963,4.806-4.52,8.364s-7.3,5.582-8.364,4.52.962-4.806,4.52-8.364,7.3-5.582,8.364-4.52" transform="translate(-114.105 -127.661)" fill="#d8dfe6"/>
            </g>
          </g>
        </g>
        <g id="Group_1108814" data-name="Group 1108814" transform="translate(7.518 3.676)" style="mix-blend-mode: soft-light;isolation: isolate">
          <g id="Group_1108813" data-name="Group 1108813">
            <g id="Group_1108812" data-name="Group 1108812" clip-path="url(#clip-path-6)">
              <path id="Path_882902" data-name="Path 882902" d="M69.709,31.386l9.472,9.472c-1.907.388-4.8,2.241-7.551,4.988h0q-.386.386-.748.776l-8.2-8.2a4.972,4.972,0,0,1,7.032-7.032" transform="translate(-61.221 -29.93)" fill="#fff"/>
            </g>
          </g>
        </g>
        <path id="Path_882903" data-name="Path 882903" d="M88.81,35.425c.042.622-.836,1.188-1.96,1.263s-2.069-.369-2.11-.991.836-1.188,1.96-1.263,2.069.369,2.111.991" transform="translate(-74.332 -30.198)" fill="#fff"/>
      </g>
    </g>
    <g id="Group_1108821" data-name="Group 1108821" transform="translate(14.012 20.48)">
      <g id="Group_1108820" data-name="Group 1108820" clip-path="url(#clip-path-11)">
        <path id="Path_882904" data-name="Path 882904" d="M116.193,205.125a2.272,2.272,0,1,1-2.272-2.272,2.272,2.272,0,0,1,2.272,2.272" transform="translate(-111.951 -198.422)" fill="#cfe1ec"/>
        <path id="Path_882905" data-name="Path 882905" d="M116.193,205.125a2.272,2.272,0,1,1-2.272-2.272,2.272,2.272,0,0,1,2.272,2.272" transform="translate(-111.951 -198.422)" fill="#7cbf35"/>
        <g id="Group_1108819" data-name="Group 1108819" transform="translate(0.318 4.63)" style="mix-blend-mode: soft-light;isolation: isolate">
          <g id="Group_1108818" data-name="Group 1108818">
            <g id="Group_1108817" data-name="Group 1108817" clip-path="url(#clip-path-12)">
              <path id="Path_882906" data-name="Path 882906" d="M120,205.983a1.658,1.658,0,1,1-1.652-1.514A1.588,1.588,0,0,1,120,205.983" transform="translate(-116.696 -204.469)" fill="#d4d4d4"/>
            </g>
          </g>
        </g>
        <path id="Path_882907" data-name="Path 882907" d="M133.206,207.363c-.194.182-.565.1-.829-.171s-.322-.647-.128-.829.565-.1.829.171.322.647.128.829" transform="translate(-129.92 -201.414)" fill="#fff"/>
      </g>
    </g>
    <g id="Group_1108835" data-name="Group 1108835">
      <g id="Group_1108834" data-name="Group 1108834" clip-path="url(#clip-path)">
        <path id="Path_882910" data-name="Path 882910" d="M188.4,263.882a2.272,2.272,0,1,1-2.272-2.272,2.272,2.272,0,0,1,2.272,2.272" transform="translate(-158.923 -231.755)" fill="#7cbf35"/>
        <g id="Group_1108824" data-name="Group 1108824" transform="translate(25.555 30.053)" style="mix-blend-mode: soft-light;isolation: isolate">
          <g id="Group_1108823" data-name="Group 1108823">
            <g id="Group_1108822" data-name="Group 1108822" clip-path="url(#clip-path-12)">
              <path id="Path_882911" data-name="Path 882911" d="M192.21,264.739a1.658,1.658,0,1,1-1.652-1.514,1.588,1.588,0,0,1,1.652,1.514" transform="translate(-188.906 -263.225)" fill="#d4d4d4"/>
            </g>
          </g>
        </g>
        <path id="Path_882912" data-name="Path 882912" d="M199.639,265.555c-.075.253-.436.371-.807.262s-.611-.4-.537-.656.436-.371.807-.262.611.4.537.656" transform="translate(-171.575 -234.605)" fill="#fff"/>
        <path id="Path_882913" data-name="Path 882913" d="M298.623,243.712a2.272,2.272,0,1,1-2.272-2.272,2.272,2.272,0,0,1,2.272,2.272" transform="translate(-257.965 -211.79)" fill="#cfe1ec"/>
        <path id="Path_882914" data-name="Path 882914" d="M298.623,243.712a2.272,2.272,0,1,1-2.272-2.272,2.272,2.272,0,0,1,2.272,2.272" transform="translate(-257.965 -211.79)" fill="#7cbf35"/>
        <g id="Group_1108827" data-name="Group 1108827" transform="translate(36.734 29.848)" style="mix-blend-mode: soft-light;isolation: isolate">
          <g id="Group_1108826" data-name="Group 1108826">
            <g id="Group_1108825" data-name="Group 1108825" clip-path="url(#clip-path-12)">
              <path id="Path_882915" data-name="Path 882915" d="M302.431,244.569a1.658,1.658,0,1,1-1.652-1.514,1.588,1.588,0,0,1,1.652,1.514" transform="translate(-299.127 -243.055)" fill="#d4d4d4"/>
            </g>
          </g>
        </g>
        <path id="Path_882916" data-name="Path 882916" d="M315.636,245.949c-.193.181-.565.1-.829-.171s-.322-.647-.128-.829.565-.1.829.171.322.647.128.829" transform="translate(-275.935 -214.781)" fill="#fff"/>
        <g id="Group_1108838" data-name="Group 1108838" transform="translate(27.393 21.868)">
          <path id="Path_882918" data-name="Path 882918" d="M244.849,225.665a2.272,2.272,0,1,1-2.272-2.272,2.272,2.272,0,0,1,2.272,2.272" transform="translate(-240.305 -223.393)" fill="#cfe1ec"/>
          <g id="Group_1108830" data-name="Group 1108830" transform="translate(0.622 0.198)" style="mix-blend-mode: soft-light;isolation: isolate">
            <g id="Group_1108829" data-name="Group 1108829">
              <g id="Group_1108828" data-name="Group 1108828" clip-path="url(#clip-path-12)">
                <path id="Path_882919" data-name="Path 882919" d="M248.657,226.522A1.658,1.658,0,1,1,247,225.008a1.588,1.588,0,0,1,1.652,1.514" transform="translate(-245.353 -225.008)" fill="#d4d4d4"/>
              </g>
            </g>
          </g>
          <path id="Path_882920" data-name="Path 882920" d="M254.2,226.347c-.014.265-.335.466-.717.45s-.68-.245-.666-.51.335-.466.717-.45.68.245.666.51" transform="translate(-251.28 -225.536)" fill="#fff"/>
        </g>
        <g id="Group_1108839" data-name="Group 1108839" transform="translate(35.104 20.857)">
          <path id="Path_882918-2" data-name="Path 882918" d="M243.588,225.034a1.641,1.641,0,1,1-1.641-1.641,1.641,1.641,0,0,1,1.641,1.641" transform="translate(-240.305 -223.393)" fill="#cfe1ec"/>
          <g id="Group_1108830-2" data-name="Group 1108830" transform="translate(0.449 0.143)" style="mix-blend-mode: soft-light;isolation: isolate">
            <g id="Group_1108829-2" data-name="Group 1108829">
              <g id="Group_1108828-2" data-name="Group 1108828" clip-path="url(#clip-path-17)">
                <path id="Path_882919-2" data-name="Path 882919" d="M247.74,226.1a1.2,1.2,0,1,1-1.193-1.094,1.147,1.147,0,0,1,1.193,1.094" transform="translate(-245.353 -225.008)" fill="#d4d4d4"/>
              </g>
            </g>
          </g>
          <path id="Path_882920-2" data-name="Path 882920" d="M253.818,226.205c-.01.191-.242.337-.518.325s-.491-.177-.481-.368.242-.337.518-.325.491.177.481.368" transform="translate(-251.707 -225.619)" fill="#fff"/>
        </g>
        <g id="Group_1108840" data-name="Group 1108840" transform="translate(19.75 20.226)">
          <path id="Path_882918-3" data-name="Path 882918" d="M243.588,225.034a1.641,1.641,0,1,1-1.641-1.641,1.641,1.641,0,0,1,1.641,1.641" transform="translate(-240.305 -223.393)" fill="#cfe1ec"/>
          <g id="Group_1108830-3" data-name="Group 1108830" transform="translate(0.449 0.143)" style="mix-blend-mode: soft-light;isolation: isolate">
            <g id="Group_1108829-3" data-name="Group 1108829">
              <g id="Group_1108828-3" data-name="Group 1108828" clip-path="url(#clip-path-17)">
                <path id="Path_882919-3" data-name="Path 882919" d="M247.74,226.1a1.2,1.2,0,1,1-1.193-1.094,1.147,1.147,0,0,1,1.193,1.094" transform="translate(-245.353 -225.008)" fill="#d4d4d4"/>
              </g>
            </g>
          </g>
          <path id="Path_882920-3" data-name="Path 882920" d="M253.818,226.205c-.01.191-.242.337-.518.325s-.491-.177-.481-.368.242-.337.518-.325.491.177.481.368" transform="translate(-251.707 -225.619)" fill="#fff"/>
        </g>
        <path id="Path_882921" data-name="Path 882921" d="M191.476,208.808a1.962,1.962,0,1,1-1.962-1.962,1.962,1.962,0,0,1,1.962,1.962" transform="translate(-164.52 -181.445)" fill="#cfe1ec"/>
        <path id="Path_882922" data-name="Path 882922" d="M191.476,208.808a1.962,1.962,0,1,1-1.962-1.962,1.962,1.962,0,0,1,1.962,1.962" transform="translate(-164.52 -181.445)" fill="#7cbf35"/>
        <g id="Group_1108833" data-name="Group 1108833" transform="translate(23.567 25.573)" style="mix-blend-mode: soft-light;isolation: isolate">
          <g id="Group_1108832" data-name="Group 1108832">
            <g id="Group_1108831" data-name="Group 1108831" clip-path="url(#clip-path-19)">
              <path id="Path_882923" data-name="Path 882923" d="M194.763,209.548a1.432,1.432,0,1,1-1.427-1.307,1.371,1.371,0,0,1,1.427,1.307" transform="translate(-191.91 -208.241)" fill="#d4d4d4"/>
            </g>
          </g>
        </g>
        <path id="Path_882924" data-name="Path 882924" d="M199.441,209.082c-.023.229-.305.393-.629.367s-.569-.233-.546-.462.305-.393.629-.367.569.233.546.462" transform="translate(-173.917 -182.999)" fill="#fff"/>
      </g>
    </g>
  </g>
</svg>
