<svg xmlns="http://www.w3.org/2000/svg" xmlns:xlink="http://www.w3.org/1999/xlink" width="70" height="70" viewBox="0 0 70 70">
  <defs>
    <clipPath id="clip-path">
      <rect id="Rectangle_406706" data-name="Rectangle 406706" width="38.109" height="44.489" fill="#006543"/>
    </clipPath>
  </defs>
  <g id="Group_1072266" data-name="Group 1072266" transform="translate(-268.711 -957.971)">
    <circle id="Ellipse_5614" data-name="Ellipse 5614" cx="35" cy="35" r="35" transform="translate(268.711 957.971)" fill="#fff"/>
    <g id="Group_1111952" data-name="Group 1111952" transform="translate(284.711 970.97)">
      <g id="Group_1111951" data-name="Group 1111951" clip-path="url(#clip-path)">
        <path id="Path_886624" data-name="Path 886624" d="M18.844.023a.978.978,0,0,1,.5.024c.366.1,1.312.6,1.743.791,5.556,2.487,11,5.239,16.542,7.749a1,1,0,0,1,.339.586,31.6,31.6,0,0,1-.185,7.014C36.608,27.32,30.771,38.951,19.979,44.147c-.9.436-.858.467-1.777.032C8.115,39.4,2.231,28.7.632,18.36.235,15.8-.249,11.688.147,9.173a1,1,0,0,1,.339-.586ZM17.8,10.789a10.666,10.666,0,0,0-9.38,8.874C7.194,28.7,18.067,34.738,25.609,29.124c8.527-6.347,3.05-19.336-7.805-18.335" transform="translate(0 0)" fill="#006543"/>
        <path id="Path_886625" data-name="Path 886625" d="M142.5,178.987a1.568,1.568,0,0,1,1.453,2.669c-1.877,2.219-4.737,4.217-6.7,6.428a1.681,1.681,0,0,1-2.267.164,32.432,32.432,0,0,1-3.376-3.236c-1.059-1.526.705-3.256,2.392-2.112.357.242,1.92,1.922,2.095,1.892l5.762-5.512a1.361,1.361,0,0,1,.643-.294" transform="translate(-118.802 -162.642)" fill="#006543"/>
      </g>
    </g>
  </g>
</svg>
