<svg xmlns="http://www.w3.org/2000/svg" xmlns:xlink="http://www.w3.org/1999/xlink" width="100.495" height="150" viewBox="0 0 100.495 150">
  <defs>
    <clipPath id="clip-path">
      <rect id="Rectangle_403416" data-name="Rectangle 403416" width="71.683" height="58.902" fill="#59c4c8"/>
    </clipPath>
    <clipPath id="clip-path-2">
      <path id="Path_875268" data-name="Path 875268" d="M1.1,22.912,0,23.293v7.9a5.187,5.187,0,0,0,2.421,4.17L29.988,55.009a10.8,10.8,0,0,0,11.707,0L69.263,35.37a5.21,5.21,0,0,0,2.42-4.1c0-.066,0-.132,0-.2h0V23.367l-1.728-1.185C69.468,25.819,66,28.217,63.1,28.715L43.345,42.969l-8.621,3.841L7.207,29.288l.636-.453c-2.351-1.356-3.618-4.456-4.89-7.285Z" transform="translate(0 -21.549)" fill="#61dfe4"/>
    </clipPath>
    <clipPath id="clip-path-3">
      <rect id="Rectangle_403409" data-name="Rectangle 403409" width="71.683" height="58.902" fill="none"/>
    </clipPath>
    <clipPath id="clip-path-4">
      <rect id="Rectangle_403408" data-name="Rectangle 403408" width="35.842" height="34.45" fill="none"/>
    </clipPath>
    <clipPath id="clip-path-5">
      <path id="Path_875270" data-name="Path 875270" d="M26.3,6.628,3.311,23.549c1.272,2.829,2.539,5.929,4.89,7.285L34.324,12.221a3.459,3.459,0,0,1,3.749,0L63.74,30.508l-.285.207c2.9-.5,6.37-2.9,6.858-6.533L41.508,4.411,33.126,1.678Z" transform="translate(-3.311 -1.678)" fill="#61dfe4"/>
    </clipPath>
    <clipPath id="clip-path-7">
      <rect id="Rectangle_403411" data-name="Rectangle 403411" width="32.888" height="29.156" fill="none"/>
    </clipPath>
    <clipPath id="clip-path-8">
      <path id="Path_875272" data-name="Path 875272" d="M33.967,46.513,6.4,26.872a1.539,1.539,0,0,1,0-2.672L33.966,4.56a3.457,3.457,0,0,1,3.749,0L65.283,24.2a1.538,1.538,0,0,1,0,2.671L37.716,46.512a3.458,3.458,0,0,1-3.749,0M35.736,0a10.166,10.166,0,0,0-5.749,1.725L2.421,21.365c-3.227,2.3-3.227,6.041,0,8.341L29.989,49.347a10.793,10.793,0,0,0,11.707,0L69.263,29.706c3.227-2.3,3.227-6.041,0-8.341L41.695,1.725A10.166,10.166,0,0,0,35.946,0Z" transform="translate(-0.001)" fill="#98baff"/>
    </clipPath>
    <clipPath id="clip-path-10">
      <path id="Path_875275" data-name="Path 875275" d="M33.322,46.995,5.755,27.355a2.178,2.178,0,0,1,0-3.782L33.321,3.934a4.894,4.894,0,0,1,5.307,0L66.195,23.574a2.177,2.177,0,0,1,0,3.781L38.628,46.995a4.894,4.894,0,0,1-5.306,0M30.9,2.208,3.333,21.847c-2.8,1.994-2.8,5.239,0,7.232L30.9,48.722a9.367,9.367,0,0,0,10.151,0L68.617,29.08c2.8-1.992,2.8-5.237,0-7.231L41.049,2.208a9.359,9.359,0,0,0-10.151,0" transform="translate(-1.234 -0.712)" fill="#98baff"/>
    </clipPath>
    <clipPath id="clip-path-11">
      <rect id="Rectangle_403518" data-name="Rectangle 403518" width="60.873" height="61.12" fill="#fff"/>
    </clipPath>
    <clipPath id="clip-path-12">
      <rect id="Rectangle_403232" data-name="Rectangle 403232" width="72.996" height="50.71" fill="#61dfe4"/>
    </clipPath>
    <clipPath id="clip-path-13">
      <rect id="Rectangle_406758" data-name="Rectangle 406758" width="33.761" height="37.592" fill="#0c2d70"/>
    </clipPath>
  </defs>
  <g id="Group_1113370" data-name="Group 1113370" transform="translate(-1020 -4603)">
    <rect id="Rectangle_404548" data-name="Rectangle 404548" width="85" height="150" transform="translate(1020 4603)" fill="#b8fafd"/>
    <g id="Group_1113229" data-name="Group 1113229">
      <g id="Group_1108967" data-name="Group 1108967" transform="translate(1048.254 4641)">
        <g id="Group_1100744" data-name="Group 1100744" transform="translate(0.004 14.098)">
          <g id="Group_1100514" data-name="Group 1100514" clip-path="url(#clip-path)">
            <g id="Group_1100495" data-name="Group 1100495" transform="translate(0 23.717)">
              <g id="Group_1100494" data-name="Group 1100494" clip-path="url(#clip-path-2)">
                <path id="Path_875399" data-name="Path 875399" d="M0,0,71.633-6.175l-7.76,81.049L-7.76,81.049Z" transform="translate(-12.548 26.819) rotate(-60)" fill="#61dfe4"/>
              </g>
            </g>
            <g id="Group_1100500" data-name="Group 1100500" transform="translate(0 0)">
              <g id="Group_1100499" data-name="Group 1100499" clip-path="url(#clip-path-3)">
                <g id="Group_1100498" data-name="Group 1100498" transform="translate(35.841 24.452)" opacity="0.3">
                  <g id="Group_1100497" data-name="Group 1100497">
                    <g id="Group_1100496" data-name="Group 1100496" clip-path="url(#clip-path-4)">
                      <path id="Path_875269" data-name="Path 875269" d="M67.442,28.647,47.689,42.9l-7.5,3.344V56.667a10.2,10.2,0,0,0,5.854-1.725L73.606,35.3a5.208,5.208,0,0,0,2.42-4.1c0-.066,0-.133,0-.2l0,0V23.3l-1.58-1.084h-.165c-.539,3.58-3.968,5.937-6.841,6.431" transform="translate(-40.185 -22.217)" fill="#0f054c"/>
                    </g>
                  </g>
                </g>
              </g>
            </g>
            <g id="Group_1100502" data-name="Group 1100502" transform="translate(2.953 1.847)">
              <g id="Group_1100501" data-name="Group 1100501" clip-path="url(#clip-path-5)">
                <path id="Path_875400" data-name="Path 875400" d="M0,0,63.434-5.469,56.357,68.457-7.078,73.925Z" transform="matrix(0.5, -0.866, 0.866, 0.5, -10.231, 21.867)" fill="#61dfe4"/>
              </g>
            </g>
            <g id="Group_1100507" data-name="Group 1100507" transform="translate(0 0)">
              <g id="Group_1100506" data-name="Group 1100506" clip-path="url(#clip-path-3)">
                <g id="Group_1100505" data-name="Group 1100505" transform="translate(2.953 1.847)" opacity="0.3">
                  <g id="Group_1100504" data-name="Group 1100504">
                    <g id="Group_1100503" data-name="Group 1100503" clip-path="url(#clip-path-7)">
                      <path id="Path_875271" data-name="Path 875271" d="M36.2,2.68l-3.073-1L26.3,6.628,3.311,23.548c1.272,2.829,2.538,5.93,4.89,7.286L34.324,12.221A3.27,3.27,0,0,1,36.2,11.67Z" transform="translate(-3.311 -1.678)" fill="#0f054c"/>
                    </g>
                  </g>
                </g>
              </g>
            </g>
            <g id="Group_1100509" data-name="Group 1100509" transform="translate(0)">
              <g id="Group_1100508" data-name="Group 1100508" clip-path="url(#clip-path-8)">
                <rect id="Rectangle_403413" data-name="Rectangle 403413" width="73.296" height="51.647" transform="translate(-0.807 0)" fill="#98baff"/>
              </g>
            </g>
            <g id="Group_1100511" data-name="Group 1100511" transform="translate(0 0)">
              <g id="Group_1100510" data-name="Group 1100510" clip-path="url(#clip-path-3)">
                <path id="Path_875273" data-name="Path 875273" d="M65.965,23.834,38.4,4.193a3.457,3.457,0,0,0-3.749,0L7.082,23.833A1.547,1.547,0,0,0,6.4,25.649a1.843,1.843,0,0,1,.686-.855L34.649,5.153a3.457,3.457,0,0,1,3.749,0L65.965,24.794a1.846,1.846,0,0,1,.686.856,1.546,1.546,0,0,0-.686-1.816" transform="translate(-0.682 0.367)" fill="#fff"/>
                <path id="Path_875274" data-name="Path 875274" d="M69.263,27.329,41.7,46.968a10.793,10.793,0,0,1-11.707,0L2.422,27.327A5.344,5.344,0,0,1,.03,23.637a5.047,5.047,0,0,0,2.392,4.651L29.989,47.929a10.8,10.8,0,0,0,11.707,0L69.263,28.288a5.045,5.045,0,0,0,2.391-4.65,5.344,5.344,0,0,1-2.391,3.69" transform="translate(0 2.379)" fill="#fff"/>
              </g>
            </g>
            <g id="Group_1100513" data-name="Group 1100513" transform="translate(1.1 0.784)">
              <g id="Group_1100512" data-name="Group 1100512" clip-path="url(#clip-path-10)">
                <rect id="Rectangle_403415" data-name="Rectangle 403415" width="70.881" height="50.002" transform="translate(-0.7 0)" fill="#98baff"/>
              </g>
            </g>
          </g>
        </g>
        <g id="Group_1100749" data-name="Group 1100749" transform="translate(5.307)">
          <g id="Group_1100748" data-name="Group 1100748" clip-path="url(#clip-path-11)">
            <path id="Path_875398" data-name="Path 875398" d="M6.247,0H54.48A6.338,6.338,0,0,1,60.8,6.356l.14,34.756-26.7,18.94a7.554,7.554,0,0,1-7.744,0L-.145,41.219-.072,6.356A6.338,6.338,0,0,1,6.247,0" transform="translate(0.074 0)" fill="#fff"/>
          </g>
        </g>
        <g id="Group_1100745" data-name="Group 1100745" transform="translate(-0.755 6.578)">
          <g id="Group_1100096" data-name="Group 1100096" transform="translate(0 0)" clip-path="url(#clip-path-12)">
            <path id="Path_873771" data-name="Path 873771" d="M36.5,50.711a9.642,9.642,0,0,1-5.42-1.551L2.316,29.276A4.816,4.816,0,0,1,0,25.354a4.813,4.813,0,0,1,2.316-3.921L31.077,1.55a10.26,10.26,0,0,1,10.843,0L70.681,21.434A4.813,4.813,0,0,1,73,25.355a4.816,4.816,0,0,1-2.316,3.922L41.92,49.16A9.645,9.645,0,0,1,36.5,50.711M36.5.595a9.2,9.2,0,0,0-5.169,1.477L2.568,21.955A4.223,4.223,0,0,0,.5,25.354a4.22,4.22,0,0,0,2.064,3.4L31.331,48.638a9.785,9.785,0,0,0,10.337,0L70.429,28.755a4.22,4.22,0,0,0,2.064-3.4,4.22,4.22,0,0,0-2.064-3.4L41.667,2.072A9.2,9.2,0,0,0,36.5.595" transform="translate(0 -0.001)" fill="#61dfe4"/>
          </g>
        </g>
        <rect id="Rectangle_403516" data-name="Rectangle 403516" width="60.873" height="30.446" transform="translate(5.307 4.578)" fill="#fff"/>
      </g>
      <g id="Group_1108971" data-name="Group 1108971" transform="translate(1065.166 4646.246)">
        <g id="Group_1099618" data-name="Group 1099618" transform="translate(0 0)">
          <rect id="Rectangle_401104" data-name="Rectangle 401104" width="37.658" height="38.112" transform="translate(0)" fill="none"/>
        </g>
        <g id="Grupo_156261" data-name="Grupo 156261" transform="translate(0.754 0.223)">
          <g id="Group_1112001" data-name="Group 1112001" transform="translate(1.615 3.011)">
            <g id="Group_1112000" data-name="Group 1112000" clip-path="url(#clip-path-13)">
              <path id="Path_886688" data-name="Path 886688" d="M28.013,22.648l5.531,2.412a.814.814,0,0,1,.115.329,34.993,34.993,0,0,1,.006,5.213,7.712,7.712,0,0,1-4.308,6.468c-2.6,1.215-3.774.094-5.962-1.195l-22.45.009c-.355-.03-.765-.06-.891-.442L0,5.158l.13-.536L4.84,0,27.665.056l.278.278ZM26.779,1.22H5.56V5.163a1.877,1.877,0,0,1-.5.389H1.227V34.658H22.446c-.21-.615-.637-1.135-.862-1.749a11.085,11.085,0,0,1-.471-1.751V28.215h-.555v2.722a1.272,1.272,0,0,1-.222.333l-12.7-.047c-.173-.109-.174-.428-.19-.615a43.506,43.506,0,0,1,0-5.787c.048-.538.15-.763.725-.83H19.838a1.015,1.015,0,0,1,.72.391v2.611h.555V25.271c0-.309.778-.567.778-.667V18.439H20.557v2.722a.748.748,0,0,1-.187.286l-12.587.045a2.884,2.884,0,0,1-.335-.331V18.439H5.393c-.206,0-.555-.478-.5-.72.2-3.054,0-9.45,0-9.45A1.52,1.52,0,0,1,5,7.737a2.858,2.858,0,0,1,.509-.3H7.448V4.83c0-.278.473-.426.717-.393H19.84c.616.052.67.1.722.722a43.684,43.684,0,0,1,0,5.9c-.056.582-.275.671-.834.721l-11.561,0a1.015,1.015,0,0,1-.72-.391V8.663c-.429.058-1.011-.159-1.333.167v8.387H7.448V14.606a2.884,2.884,0,0,1,.335-.331H20.222a2.875,2.875,0,0,1,.335.331v2.611c.523.081,2.555-.294,2.555.5V24.1l3.666-1.444ZM4.338,4.33V2.108A25.238,25.238,0,0,0,2.393,4c-.086.112-.214.14-.166.334Zm15,1.333H8.67v4.888H19.335Zm0,9.776H8.67v4.888H19.335ZM32.429,25.786,27.39,23.668l-5.036,2.121c.1,2.868-.619,5.953,1.317,8.367a7.017,7.017,0,0,0,3.415,2.256c1.217.171,3.165-1.221,3.913-2.145,2.009-2.481,1.358-5.517,1.432-8.481m-13.094-.571H8.67V30.1H19.335Z" fill="#0c2d70"/>
              <path id="Path_886689" data-name="Path 886689" d="M225.936,248.759a.727.727,0,0,1,.033.813l-3.974,3.589c-.425.189-2.169-1.635-2.231-1.84-.127-.417.131-.963.581-.924.49.042,1.3,1.261,1.547,1.216l3.3-2.935a.793.793,0,0,1,.749.082" transform="translate(-195.321 -220.998)" fill="#0c2d70"/>
              <path id="Path_886690" data-name="Path 886690" d="M101.263,145.33c.446.447.011,1.018-.582,1.087,0,0-4.255-.166-6.217-.009a.611.611,0,0,1-.013-1.221c2.019.141,4.239-.167,6.232,0,.172.015.457.019.58.142" transform="translate(-83.423 -129.013)" fill="#0c2d70"/>
              <path id="Path_886691" data-name="Path 886691" d="M101.263,163.709c-.123.123-.407.127-.58.142-1.993.169-4.213-.139-6.232,0a.61.61,0,0,1,.013-1.221c1.962.156,6.217-.009,6.217-.009.593.069,1.028.64.582,1.087" transform="translate(-83.423 -144.556)" fill="#0c2d70"/>
              <path id="Path_886692" data-name="Path 886692" d="M94.061,57.052c-.649-.854-.093-1.167.773-1.227a38.493,38.493,0,0,1,5.866.031c1.005.179.616,1.2.36,1.2Z" transform="translate(-83.36 -49.538)" fill="#0c2d70"/>
              <path id="Path_886693" data-name="Path 886693" d="M94.089,74.691l6.639-.021a.617.617,0,0,1-.1,1.225c-1.993-.049-4.116.05-6.332-.012-.748-.021-.861-.849-.205-1.192" transform="translate(-83.253 -66.375)" fill="#0c2d70"/>
              <path id="Path_886694" data-name="Path 886694" d="M94.061,251.645h7c.256,0,.645,1.017-.36,1.2a38.493,38.493,0,0,1-5.866.031c-.866-.06-1.422-.373-.773-1.227" transform="translate(-83.36 -223.689)" fill="#0c2d70"/>
              <path id="Path_886695" data-name="Path 886695" d="M94.254,233.691l6.528-.021a.61.61,0,0,1,.232,1.115l-6.781.1a.6.6,0,0,1,.021-1.2" transform="translate(-83.307 -207.711)" fill="#0c2d70"/>
            </g>
          </g>
        </g>
      </g>
    </g>
  </g>
</svg>
