<svg xmlns="http://www.w3.org/2000/svg" xmlns:xlink="http://www.w3.org/1999/xlink" width="99" height="99" viewBox="0 0 99 99">
  <defs>
    <clipPath id="clip-path">
      <rect id="Rectangle_401223" data-name="Rectangle 401223" width="99" height="99" transform="translate(0)" fill="#006543"/>
    </clipPath>
    <clipPath id="clip-path-2">
      <rect id="Rectangle_401223-2" data-name="Rectangle 401223" width="88.539" height="88.539" fill="#f3f9ff"/>
    </clipPath>
    <clipPath id="clip-path-3">
      <rect id="Rectangle_406794" data-name="Rectangle 406794" width="61.399" height="63.743" fill="none"/>
    </clipPath>
  </defs>
  <g id="Group_1112236" data-name="Group 1112236" transform="translate(-619.921 -5755.871)">
    <g id="Group_1100724" data-name="Group 1100724" transform="translate(619.921 5755.871)">
      <g id="Group_1099654" data-name="Group 1099654" transform="translate(0 0)">
        <g id="Group_1099652" data-name="Group 1099652" clip-path="url(#clip-path)">
          <path id="Path_873521" data-name="Path 873521" d="M99,77.066A22,22,0,0,1,77.066,99H21.934A22,22,0,0,1,0,77.066V21.933A22,22,0,0,1,21.934,0H77.066A22,22,0,0,1,99,21.934Z" transform="translate(0)" fill="#005865"/>
        </g>
      </g>
      <g id="Group_1099659" data-name="Group 1099659" transform="translate(4.77 5.723)">
        <g id="Group_1099652-2" data-name="Group 1099652" transform="translate(0 0)" clip-path="url(#clip-path-2)">
          <path id="Path_873521-2" data-name="Path 873521" d="M88.539,68.922A19.674,19.674,0,0,1,68.923,88.539H19.616A19.674,19.674,0,0,1,0,68.922V19.616A19.674,19.674,0,0,1,19.616,0H68.923A19.674,19.674,0,0,1,88.539,19.616Z" fill="#f3f9ff"/>
        </g>
      </g>
    </g>
    <g id="Group_1100725" data-name="Group 1100725" transform="translate(636.343 5771.293)">
      <rect id="Rectangle_401104" data-name="Rectangle 401104" width="68" height="69" transform="translate(-0.421 0.438)" fill="none"/>
      <g id="Group_1112241" data-name="Group 1112241" transform="translate(2.579 3.438)">
        <g id="Group_1112082" data-name="Group 1112082" clip-path="url(#clip-path-3)">
          <path id="Path_887003" data-name="Path 887003" d="M44.591,99.46c.753-.366,5.368-.62,5.707-.259.09.1.019.295-.042.441l-.089.168c1.342.239,2.1,1.747,2.28,3l.008,38.252a3.4,3.4,0,0,1-2.93,3.351c-15.647.08-31.329.012-46.965-.086A3.919,3.919,0,0,1,0,140.671l.009-30.336a3.71,3.71,0,0,1,3.47-3.565c7.472.162,15.64.152,23.206,0l.185-.416c2.387-.391,2.788-2.41,3.1-4.435.513-2.041,2.206-2.606,4.108-2.813a64.475,64.475,0,0,1,10.27-.011Z" transform="translate(0 -80.823)" fill="#ffd768"/>
          <path id="Path_887004" data-name="Path 887004" d="M36.363,38a2.36,2.36,0,0,1,0,2.558l.128-.365H68.845l.226.365a.424.424,0,0,1,.365.168c.2.39.047,7.662,0,8.751l-.365.218c-2.689,0-10.113-.447-12.185.332-3.045,1.145-1.652,3.691-3.169,5.6A3.942,3.942,0,0,1,51.164,57c-7.054.183-14.139.107-21.2,0l-.009-15.815c-.04-.187.132-.63.283-.63H36.18c.094-.488-.209-2.43.183-2.558" transform="translate(-24.48 -31.057)" fill="#dee4f0"/>
          <path id="Path_887005" data-name="Path 887005" d="M271.766,101.271c.149-.51.417-.521.548,0,.609-.632,1.739.355,2.219.907.443.509,1.324,2.184.7,2.656l.365.128V141.61l-.365.225c.018-.141.058-.351.16-.365.273-.037,2.915-.062,3.055,0a.6.6,0,0,1,.257.365l-.365-.128V101.5q.1-.62,1.28-.225c2.007.094,3.1,1.686,3.287,3.565l-.046,37.957a3.771,3.771,0,0,1-2.643,3.2c-2.089.424-6.784.029-9.186.041,1.452-.791,2.409-1.622,2.565-3.373l-.007-38.2a3.668,3.668,0,0,0-2.374-3.017c-.052-.3.35-.18.547-.18" transform="translate(-221.511 -82.45)" fill="#f3a744"/>
          <path id="Path_887006" data-name="Path 887006" d="M65,6.943C64.981,4.632,65.02,2.311,65,0h39.1V9.5c-.538.3-.561-.252-.57-.728l.038-1.466H65.229Z" transform="translate(-53.12)" fill="#dee4f0"/>
          <path id="Path_887007" data-name="Path 887007" d="M275.82,61.625c-.144-.016-.361-.067-.365-.168-.046-1.085-.267-8.4,0-8.751l.365-.218a42.265,42.265,0,0,1,6.213,0q.085,4.45.183,8.953c.177.056.555-.072.786.035l.128.147c-.3-.014-.612.007-.915,0v40.565h-3.472v-37a13.6,13.6,0,0,0-.406-1.421,3.342,3.342,0,0,0-2.518-2.142" transform="translate(-225.017 -42.805)" fill="#b0c0d2"/>
          <path id="Path_887008" data-name="Path 887008" d="M65.028,38h38.921c.093.487-.21,2.431.182,2.559h6.213V49.69c-.427-.134-.054-7.96-.183-8.953h-6.213v9.136a3.344,3.344,0,0,0-.548,0c-.19-.3-.693-.182-1-.186-1.553-.019-3.111,0-4.662,0V40.554H65.028c-.006-.85.008-1.708,0-2.558" transform="translate(-53.145 -31.052)" fill="#727997"/>
          <path id="Path_887009" data-name="Path 887009" d="M21.045,141.765c7.055-.166,14.139.124,21.2,0-.1.022-.36.3-.618.2-7.194-.084-14.392.066-21.585-.01-.309,0-.813.117-1-.186.64-.054,1.354.015,2.01,0" transform="translate(-15.557 -115.818)" fill="#f4cd5e"/>
          <path id="Path_887010" data-name="Path 887010" d="M157.468,171.206l18.518.044a1.4,1.4,0,0,1,.893,1.117,28.208,28.208,0,0,1-.071,5.024,1.336,1.336,0,0,1-1.1.913l-18.384-.09a1.07,1.07,0,0,1-.709-.936,31.552,31.552,0,0,1-.021-4.932,1.537,1.537,0,0,1,.87-1.14" transform="translate(-127.914 -139.923)" fill="#fb5f61"/>
          <path id="Path_887011" data-name="Path 887011" d="M59.488,75h24.3c.6,0,.6,1.827,0,1.827h-24.3c-.5,0-.71-1.579,0-1.827" transform="translate(-48.244 -61.296)" fill="#6198cd"/>
          <path id="Path_887012" data-name="Path 887012" d="M59.058,102.04c-.192-.056-.468-.553-.522-.77-.256-1.03,1.089-1.2,1.793-1.248a85.609,85.609,0,0,1,12.233.024c1.855.259,1.18,1.993.748,1.993Z" transform="translate(-47.814 -81.575)" fill="#6298cd"/>
        </g>
      </g>
    </g>
  </g>
</svg>
