<svg xmlns="http://www.w3.org/2000/svg" xmlns:xlink="http://www.w3.org/1999/xlink" width="99" height="99" viewBox="0 0 99 99">
  <defs>
    <clipPath id="clip-path">
      <rect id="Rectangle_401223" data-name="Rectangle 401223" width="99" height="99" transform="translate(0)" fill="#f3a744"/>
    </clipPath>
    <clipPath id="clip-path-2">
      <rect id="Rectangle_401223-2" data-name="Rectangle 401223" width="88.539" height="88.539" fill="#f3f9ff"/>
    </clipPath>
    <clipPath id="clip-path-3">
      <rect id="Rectangle_406792" data-name="Rectangle 406792" width="68" height="55.987" fill="none"/>
    </clipPath>
  </defs>
  <g id="Group_1112234" data-name="Group 1112234" transform="translate(-619.921 -5755.871)">
    <g id="Group_1100724" data-name="Group 1100724" transform="translate(619.921 5755.871)">
      <g id="Group_1099654" data-name="Group 1099654" transform="translate(0 0)">
        <g id="Mask_Group_1099652" data-name="Mask Group 1099652" clip-path="url(#clip-path)">
          <path id="Path_873521" data-name="Path 873521" d="M99,77.066A22,22,0,0,1,77.066,99H21.934A22,22,0,0,1,0,77.066V21.933A22,22,0,0,1,21.934,0H77.066A22,22,0,0,1,99,21.934Z" transform="translate(0)" fill="#005865"/>
        </g>
      </g>
      <g id="Group_1099659" data-name="Group 1099659" transform="translate(4.77 5.723)">
        <g id="Group_1099652" data-name="Group 1099652" transform="translate(0 0)" clip-path="url(#clip-path-2)">
          <path id="Path_873521-2" data-name="Path 873521" d="M88.539,68.922A19.674,19.674,0,0,1,68.923,88.539H19.616A19.674,19.674,0,0,1,0,68.922V19.616A19.674,19.674,0,0,1,19.616,0H68.923A19.674,19.674,0,0,1,88.539,19.616Z" fill="#f3f9ff"/>
        </g>
      </g>
    </g>
    <g id="Group_1100725" data-name="Group 1100725" transform="translate(636.343 5771.293)">
      <rect id="Rectangle_401104" data-name="Rectangle 401104" width="68" height="69" transform="translate(-0.421 0.438)" fill="none"/>
      <g id="Group_1112079" data-name="Group 1112079" transform="translate(-0.421 6.437)">
        <g id="Group_1112078" data-name="Group 1112078" clip-path="url(#clip-path-3)">
          <path id="Path_886928" data-name="Path 886928" d="M49.256,12.034s-4.393,2.548-13,.879-9.577-4.92-14.41-5.447S9.279,5.356,3.3,12.561A14.481,14.481,0,0,0,.5,25.641a7.4,7.4,0,0,0,1.844,3.3A18,18,0,0,1,6.731,47.179C2.952,58.953,19.295,62.731,27.2,60.8s39.89-10.192,40.769-33.212S49.256,12.034,49.256,12.034" transform="translate(0 -5.572)" fill="#fee1a5"/>
          <path id="Path_886929" data-name="Path 886929" d="M38.84,82.219c.034,8.263-.015,16.533-.012,24.8a1.335,1.335,0,0,1-2.516.366,6.412,6.412,0,0,1-.042-1.441c-.09-2.423.01-4.888,0-7.315q-.035-8.3,0-16.606c.263-.634,2.529-.667,2.57.2" transform="translate(-29.069 -65.434)" fill="#41cee2"/>
          <path id="Path_886930" data-name="Path 886930" d="M298.648,82.1c.1-.669,2.26-.5,2.517-.157q.082,12.77-.1,25.517c.017,1.5-2.355.749-2.415.2-.19-8.423-.169-17.188,0-25.562" transform="translate(-239.499 -65.499)" fill="#41cee2"/>
          <path id="Path_886931" data-name="Path 886931" d="M261.971,212.6a2.291,2.291,0,0,1,1.582,1.582c.88.881,1.7,1.877,2.57,2.768q.077.8-1.165,1.613-.71.962-1.405.759c-.888-.874-1.887-1.69-2.768-2.57-1.145-1.144-2.212-2.418-3.361-3.558l.109-.442a4.8,4.8,0,0,0,2-1.951l.462.021a2.176,2.176,0,0,1,1.977,1.779" transform="translate(-206.533 -169.129)" fill="#8398fd"/>
          <path id="Path_886932" data-name="Path 886932" d="M288.424,244.281l2.57-2.372c1.018,1.039,4.78,4.079,4.737,5.416A1.886,1.886,0,0,1,292.9,248.8c-.955-.494-3.5-3.565-4.473-4.521" transform="translate(-231.405 -194.085)" fill="#ff9292"/>
          <path id="Path_886933" data-name="Path 886933" d="M169.553,35.16c.094,1.723,0,3.6,0,5.338-.189.634-2.326.607-2.57,0a51.98,51.98,0,0,1,0-6.128,1.311,1.311,0,0,1,2.468-.391,2.964,2.964,0,0,1,.1,1.182" transform="translate(-133.884 -26.678)" fill="#41cee2"/>
          <path id="Path_886934" data-name="Path 886934" d="M235.883,40.457c-.189.634-2.326.607-2.57,0,0-1.638-.061-3.307,0-4.942.033-.889-.226-1.622.721-2.148,2.617-1.454,1.849,7.09,1.849,7.09" transform="translate(-187.167 -26.637)" fill="#41cee2"/>
          <path id="Path_886935" data-name="Path 886935" d="M301.295,33.976a46.855,46.855,0,0,1,.021,6.467c-.078.1-2.451.26-2.393-.338a40.634,40.634,0,0,1,0-6.326c.522-1.445,1.946-1.327,2.372.2" transform="translate(-239.729 -26.284)" fill="#41cee2"/>
          <path id="Path_886936" data-name="Path 886936" d="M195.792,33.843c.045.893.3,6.277.021,6.664-.077.105-2.451.259-2.394-.338V33.843a1.2,1.2,0,0,1,2.372,0" transform="translate(-155.181 -26.348)" fill="#41cee2"/>
          <path id="Path_886937" data-name="Path 886937" d="M262.278,33.9c.066.875.169,9.724-.1,10.082-.077.1-2.335-3.158-2.277-3.756a39.225,39.225,0,0,1,0-6.326,1.206,1.206,0,0,1,2.372,0" transform="translate(-208.422 -26.401)" fill="#41cee2"/>
          <path id="Path_886938" data-name="Path 886938" d="M301.412,42.072c.045,2.235-.009,4.486,0,6.722.007,1.579,0,3.166,0,4.745s0,3.166,0,4.745c0,1.381,0,2.77,0,4.152,0,1.447,0,2.9,0,4.349s.012,2.9,0,4.349c0,.5.151,1.254-.193,1.582V47.8h-2.314a7.821,7.821,0,0,1,0-2.768h2.314V38.909a12,12,0,0,1,.193,3.163" transform="translate(-239.716 -31.217)" fill="#b8fafd"/>
          <path id="Path_886939" data-name="Path 886939" d="M164.854.017a1.974,1.974,0,1,1,.522,3.913c-2.512.3-2.832-3.637-.522-3.913" transform="translate(-131.011 0.001)" fill="#fe7fb8"/>
          <path id="Path_886940" data-name="Path 886940" d="M253.283,263.869c1.592,1.741-.807,4.543-2.713,2.812-2.1-1.908,1.092-4.584,2.713-2.812" transform="translate(-200.478 -211.239)" fill="#befed9"/>
          <path id="Path_886941" data-name="Path 886941" d="M262.275,57.085l-.4-1.449q.045-4.141-.055-8.239A1.929,1.929,0,0,1,259.9,47a7.517,7.517,0,0,1,0-2.768h2.373V37.909c.191.486-.62,19.386,0,19.176" transform="translate(-208.419 -30.415)" fill="#b8fafd"/>
          <path id="Path_886942" data-name="Path 886942" d="M195.994,39.491c.056,1.372,0,2.776,0,4.152,0,1.25,0,2.507,0,3.756v1.384c-.037.177-.1.169-.2,0q-.558-.24-.45-1.385A1.929,1.929,0,0,1,193.424,47V44.235H195.8V37.909a3.839,3.839,0,0,1,.2,1.582" transform="translate(-155.185 -30.415)" fill="#b8fafd"/>
          <path id="Path_886943" data-name="Path 886943" d="M31.5,246.462c.865.976,1.022,2.046-.593,1.582-1.147-1.487-.7-.174-1.774.116-1.729.469-.347-1.936.785-2.489.529-.258,1.232.4,1.582.791" transform="translate(-22.722 -197.057)" fill="#6784fd"/>
          <path id="Path_886944" data-name="Path 886944" d="M197.259,5.724c-.446-.71,1.338-2.479,1.854-2.479.489,0,2.145,1.56,1.782,2.3-.53,1.088-1.628-.588-1.782-.588-.11,0-1.344,1.574-1.854.763" transform="translate(-158.206 -2.603)" fill="#befed9"/>
          <path id="Path_886945" data-name="Path 886945" d="M75.391,82.077c.128-.66,2.218-.5,2.467-.125q.113,7.788-.094,15.545c-.182,1.149-2.149,1.067-2.367-.1.008-5.1-.029-10.214-.005-15.316" transform="translate(-60.48 -65.489)" fill="#41cee2"/>
          <path id="Path_886946" data-name="Path 886946" d="M101.861,97.386c-.218-5.128-.142-10.423-.023-15.559.079-.106,2.412-.208,2.49.212q.107,7.59-.1,15.15a1.193,1.193,0,0,1-2.372.2" transform="translate(-81.613 -65.575)" fill="#41cee2"/>
          <path id="Path_886947" data-name="Path 886947" d="M38.524,40.508c-.189.634-2.326.607-2.57,0a49.108,49.108,0,0,1,0-6.222,1.292,1.292,0,0,1,2.553.2,51.2,51.2,0,0,1,.012,6.018" transform="translate(-28.753 -26.687)" fill="#41cee2"/>
          <path id="Path_886948" data-name="Path 886948" d="M77.5,34.06c.054.86.274,6.308.021,6.664-.075.106-2.45.259-2.394-.338.009-1.305-.237-5.814.131-6.677a1.226,1.226,0,0,1,2.242.351" transform="translate(-60.22 -26.565)" fill="#41cee2"/>
          <path id="Path_886949" data-name="Path 886949" d="M142.291,32.909c.137.293.582.282.742.443.439.445.239,5.792.247,6.871.121.566-2.212.471-2.3.384-.332-.316-.162-5.822-.068-6.71.281-.77.546-.933,1.384-.988" transform="translate(-112.948 -26.403)" fill="#41cee2"/>
          <path id="Path_886950" data-name="Path 886950" d="M104.313,33.981a30.927,30.927,0,0,1,0,5.931,5.368,5.368,0,0,1-2.372,0,39.587,39.587,0,0,1,0-6.128c.55-1.441,1.946-1.328,2.372.2" transform="translate(-81.692 -26.289)" fill="#41cee2"/>
          <path id="Path_886951" data-name="Path 886951" d="M101.463,44.037a5.385,5.385,0,0,0,2.372,0c.382-1.17-.284-4.5,0-5.931.042.149.313.381.212.669-.088,7.389.067,14.78-.011,22.168,0,.334.126.88-.2,1.085V47h-2.374V62.225c-.328-.205-.2-.75-.2-1.085-.093-7.518.088-15.042-.01-22.562-.1-.315.147-.5.212-.67Z" transform="translate(-81.215 -30.415)" fill="#b8fafd"/>
          <path id="Path_886952" data-name="Path 886952" d="M73.37,190.966a2.321,2.321,0,0,1-2.175,2.965c-2.281-.059-2.692-4.67.68-4.141a2.591,2.591,0,0,1,1.495,1.176" transform="translate(-55.691 -152.236)" fill="#befed9"/>
          <path id="Path_886953" data-name="Path 886953" d="M77.788,62.423V47H75.416c0-.92-.006-1.847,0-2.768h2.373V37.909c.063.172.309.363.212.669-.1,7.586.083,15.176-.011,22.76,0,.335.127.879-.2,1.085" transform="translate(-60.505 -30.415)" fill="#b8fafd"/>
          <path id="Path_886954" data-name="Path 886954" d="M140.472,37.909v6.327h2.373c.006.92,0,1.847,0,2.768l-.216.4-1.755.036.153,9.3-.357,2.332a.533.533,0,0,1-.4.988c-.013-.723.007-1.452,0-2.175-.065-6.429.06-12.866-.014-19.3-.1-.305.149-.5.212-.669" transform="translate(-112.513 -30.415)" fill="#b8fafd"/>
          <path id="Path_886955" data-name="Path 886955" d="M55.237,225.587a3.617,3.617,0,0,1,.988.988c1.186,2.663-2.626,3.833-3.558,1.779a2.079,2.079,0,0,1,2.57-2.768" transform="translate(-42.105 -180.926)" fill="#f3a744"/>
          <path id="Path_886956" data-name="Path 886956" d="M38.984,69.909c.008.986,0,1.979,0,2.965a6.929,6.929,0,0,0-2.57-.2c0-.92-.007-1.848,0-2.768Z" transform="translate(-29.213 -56.088)" fill="#b8fafd"/>
          <path id="Path_886957" data-name="Path 886957" d="M153.73,92.675a14.056,14.056,0,0,1,5.338.988c.612-.5,2.431.381,2.57,1.186.063-.074,2.708,2.3,2.768,2.372l.434-.095a8.014,8.014,0,0,1,1.938,3.851,15.389,15.389,0,0,1,1.018,8.045,16.1,16.1,0,0,1-2.2,5.454l-.6.141.137.444c-.736.781-1.482,1.528-2.264,2.264l-.443-.138a24.175,24.175,0,0,1-3.756,1.977,17.264,17.264,0,0,1-2.965.593,19.381,19.381,0,0,1-4.547-.2,6.551,6.551,0,0,1-1.384-.4,29.108,29.108,0,0,1-2.965-1.384c-.238-.146-1.722-1.344-1.977-1.582-.2-.182-.625-.6-.791-.791a15.526,15.526,0,0,1-2.57-4.152,17.265,17.265,0,0,1-.4-8.3,10.849,10.849,0,0,1,.6-2.9c.252-.669.837-2.188,1.575-2.039,1.113-1.735,2.929-3.815,7.908-4.942.126-.678,2.5-.394,2.57-.4" transform="translate(-112.921 -74.308)" fill="#ff9292"/>
          <path id="Path_886958" data-name="Path 886958" d="M107.038,189.545a2.676,2.676,0,0,1,1.384,2.372,3.289,3.289,0,0,1-1.186,1.582,2.606,2.606,0,0,1-2.768-.791c-.43-.6-.173-1.506,0-2.175a2.266,2.266,0,0,1,2.57-.988" transform="translate(-83.627 -152.001)" fill="#befed9"/>
          <path id="Path_886959" data-name="Path 886959" d="M140.942,190.909a19.11,19.11,0,0,0,2.175,3.361,2.565,2.565,0,0,1-2.768.2c-1.1-.681-1.082-3.462.593-3.558" transform="translate(-111.995 -153.168)" fill="#befed9"/>
          <path id="Path_886960" data-name="Path 886960" d="M253.785,203.866c.627-.045.878.207.593.791-.616.92-1.429,2.113-2.57,2.372-.083-.083-.311-.114-.4-.2-.3-.3-.518-.8-.988-.988.333-.259,2.308-2.236,2.57-2.57.451-.392.952.006.791.593" transform="translate(-200.917 -162.962)" fill="#6683fd"/>
          <path id="Path_886961" data-name="Path 886961" d="M143.792,83.9v7.117a16.407,16.407,0,0,0-2.175,4.942l-.2-12.06Z" transform="translate(-113.461 -67.317)" fill="#41cee2"/>
          <path id="Path_886962" data-name="Path 886962" d="M169.994,82.168v2.768c-.424.19-2.267,1.159-2.57,1.384V82.168c.075-.9,2.494-.9,2.57,0" transform="translate(-134.325 -65.382)" fill="#41cee2"/>
          <path id="Path_886963" data-name="Path 886963" d="M169.987,69.909c0,.986,0,1.979,0,2.965a3.582,3.582,0,0,0-2.57,0c0-.986,0-1.979,0-2.965Z" transform="translate(-134.318 -56.088)" fill="#b8fafd"/>
          <path id="Path_886964" data-name="Path 886964" d="M193.424,83.9H195.8v1.78a16.2,16.2,0,0,0-2.372.4Z" transform="translate(-155.185 -67.317)" fill="#41cee2"/>
          <path id="Path_886965" data-name="Path 886965" d="M235.994,82.22c.119.281,0,3.756,0,3.756a14.986,14.986,0,0,0-2.57-1.186V82.022c.262-.634,2.53-.667,2.57.2" transform="translate(-187.278 -65.434)" fill="#41cee2"/>
          <path id="Path_886966" data-name="Path 886966" d="M235.994,69.909a9.992,9.992,0,0,1,0,2.965,6.929,6.929,0,0,0-2.57-.2c0-.92,0-1.848,0-2.768Z" transform="translate(-187.278 -56.088)" fill="#b8fafd"/>
          <path id="Path_886967" data-name="Path 886967" d="M170.162,6.949c.822-.221.844,1.018.356,1.156-.691.2-1.281-.908-.356-1.156" transform="translate(-136.141 -5.555)" fill="#f7ebf0"/>
          <path id="Path_886968" data-name="Path 886968" d="M257.812,270.395c.568.568-.334,1.47-.9.9s.334-1.469.9-.9" transform="translate(-205.976 -216.795)" fill="#ddf5ed"/>
          <path id="Path_886969" data-name="Path 886969" d="M260.424,83.9H262.8V93.987a23.91,23.91,0,0,0-2.372-3.756Z" transform="translate(-208.94 -67.317)" fill="#41cee2"/>
          <path id="Path_886970" data-name="Path 886970" d="M104.8,68.909c-.1.319-2.266.321-2.372,0Z" transform="translate(-82.176 -55.286)" fill="#6684fd"/>
          <path id="Path_886971" data-name="Path 886971" d="M60.5,233.743c-.295.412-1.364.043-1.167-.668.213-.768,1.7-.082,1.167.668" transform="translate(-47.585 -186.728)" fill="#fbcfe7"/>
          <path id="Path_886972" data-name="Path 886972" d="M186.947,114.858a2.253,2.253,0,0,0,.4,1.515l-.4.265a7.7,7.7,0,0,0,.264,1.654l-.264.125a3.114,3.114,0,0,1,.088,1.325c.5.123.381.5-.088.652a3.614,3.614,0,0,0,.4,1.515l-.4.265q.229,1.072.4,2.1l-.4.268c-.658.079-.786-.969-.2-1.186-.054-.978.014-1.984,0-2.965a3.238,3.238,0,0,1,0-3.163v-4.349c.056-.023.14.022.2,0Z" transform="translate(-149.5 -90.56)" fill="#f0abd7"/>
          <path id="Path_886973" data-name="Path 886973" d="M237.775,119.107v3.361q.657.954,0,1.582.745,1.174,0,1.779.776,1.152,0,1.582c.018.525-.026,1.057,0,1.582q.2.462,0,.593c-.73.44-.919-1.255-.2-1.384a1.5,1.5,0,0,1,0-1.977,2.556,2.556,0,0,1,0-2.372,3.919,3.919,0,0,1,0-2.965v-1.977c.074.053.126.142.2.2" transform="translate(-190.245 -95.402)" fill="#dca1da"/>
          <path id="Path_886974" data-name="Path 886974" d="M182.4,206.1a8.238,8.238,0,0,1-1.977-.988c.586-.03,1.184.417,1.582-.2.212.374.539.586.4,1.186" transform="translate(-144.755 -164.4)" fill="#83b3ae"/>
          <path id="Path_886975" data-name="Path 886975" d="M193.192,172.39a1.855,1.855,0,0,1-.2.4c-.805.857-1.884.123-2.175.2-.246-.218-.274-.545-.4-.791.525-.42,2.78-.77,2.768.2" transform="translate(-152.779 -137.812)" fill="#9e81e3"/>
          <path id="Path_886976" data-name="Path 886976" d="M177.8,114.976a49.081,49.081,0,0,0-.087,5.126.891.891,0,0,0-.111,1.4c-.5.034-.733.749-.791,1.186-.042-.623-1.293-.471-1.779-.4.294-.435.108-.733-.4-.791-.344-.269-.193-.951-.2-1.384-.007-.657,0-1.32,0-1.977,0-.789,0-1.584,0-2.372,0-.986,0-1.979,0-2.965a4.041,4.041,0,0,0,0-1.977,8.617,8.617,0,0,0-2.175-1.186,10.564,10.564,0,0,0-4.547-.791V112.8a1.505,1.505,0,0,0,0,1.779,1.033,1.033,0,0,0,0,1.582,1.411,1.411,0,0,0,0,1.977,1.145,1.145,0,0,0,0,1.779c-.557.177-.608,1.619-.2,1.977-.512-.064-.577.044-.2.4a1.343,1.343,0,0,0-.481-.106,10.032,10.032,0,0,1-1.422-.046.148.148,0,0,0-.117.054c.044-.227-.136-.393-.55-.495.317-.409.3-.537-.2-.4a3.653,3.653,0,0,1-.2-1.186,9.691,9.691,0,0,0,0-2.965c-.015-1.051,0-2.112,0-3.163a19.9,19.9,0,0,0,0-4.349,10.229,10.229,0,0,0-2.768,1.779c-.071.06-.129.135-.2.2-.437.641-.761,2.5,0,2.768a1.338,1.338,0,0,0,0,1.582,1.339,1.339,0,0,0,0,1.779q-.693,1.1,0,1.582c-.169.094-.176.161,0,.2a5.959,5.959,0,0,1-.2,2.372c-.083.2-.3.389-.4.593l-.325-.354a4.35,4.35,0,0,1-2.047-.042,7.235,7.235,0,0,0,2.175,3.954c.606.419,1.553.725,1.977,0a2.8,2.8,0,0,0,1.779,1.779c-.39.378.04.92.4,1.186a10.385,10.385,0,0,0,11.664-3.163A8.871,8.871,0,0,0,178,123.081a9.637,9.637,0,0,0-.2-8.105" transform="translate(-127.105 -87.317)" fill="#e5cb82"/>
          <path id="Path_886977" data-name="Path 886977" d="M192.314,108.909a9.658,9.658,0,0,0-2.57.593.284.284,0,0,0-.223.069c-.117.037-.226.073-.37.128-.161.587.009,12.469.08,12.614-.256,1.8,2.863,1.049,3,.215.035-.211.081-13.619.081-13.619m-2.928,6.145a.1.1,0,0,1-.038-.016.151.151,0,0,1-.025-.091,1.171,1.171,0,0,0,.063.107" transform="translate(-151.703 -87.378)" fill="#41cee2"/>
          <path id="Path_886978" data-name="Path 886978" d="M243.277,123.863c-.065-.144-.127-.258-.2-.4a10.194,10.194,0,0,0-.988-1.582,8.167,8.167,0,0,0-1.977-1.977c-.157.435-.029,10.3,0,10.478.045.277-.045.732.154.923.677.651,1.749.1,2.021.264,1.318-.132.808-5.662.988-7.71" transform="translate(-192.584 -96.204)" fill="#41cee2"/>
          <path id="Path_886979" data-name="Path 886979" d="M160.51,122.909a8.48,8.48,0,0,0-2.175,2.768,7.523,7.523,0,0,0-.791,1.977,5.762,5.762,0,0,0-.2.791v.791a.5.5,0,0,0,0,.266c0,.57.174,3.769.2,3.885.494.949,1.718.488,2.529.268,1.022-.276.436-10.746.436-10.746" transform="translate(-126.225 -98.611)" fill="#41cee2"/>
          <path id="Path_886980" data-name="Path 886980" d="M171.4,194.972c1.625.593,1.775,1.714,2.285,2.614.232.733-.8-.036-2.087-.637a7.739,7.739,0,0,1-2.175-1.977,2.225,2.225,0,0,1,1.977,0" transform="translate(-135.93 -156.242)" fill="#7bb7ae"/>
        </g>
      </g>
    </g>
  </g>
</svg>
