<svg xmlns="http://www.w3.org/2000/svg" xmlns:xlink="http://www.w3.org/1999/xlink" width="400" height="226.813" viewBox="0 0 400 226.813">
  <defs>
    <clipPath id="clip-path">
      <rect id="Rectangle_406785" data-name="Rectangle 406785" width="400" height="226.813" transform="translate(285 1094.999)" fill="#fff" stroke="#707070" stroke-width="1"/>
    </clipPath>
    <clipPath id="clip-path-2">
      <rect id="Rectangle_406784" data-name="Rectangle 406784" width="359.664" height="208" fill="none"/>
    </clipPath>
    <clipPath id="clip-path-3">
      <rect id="Rectangle_406820" data-name="Rectangle 406820" width="346.325" height="157.14" fill="none"/>
    </clipPath>
  </defs>
  <g id="Mask_Group_1109118" data-name="Mask Group 1109118" transform="translate(-285 -1094.999)" clip-path="url(#clip-path)">
    <path id="Path_886776" data-name="Path 886776" d="M16.525,27.877S51.778-7.115,120.21,1.309s81.911,36.288,173.155,14.9,121.312,64.152,43.548,65.448S263.28,90.5,354.54,152.94s-118.639,90.72-180.113,49.9.3-22.032-108.87-56.376S16.525,27.877,16.525,27.877Z" transform="matrix(0.998, -0.07, 0.07, 0.998, 286.974, 1111.566)" fill="#defff4"/>
    <g id="Group_1112074" data-name="Group 1112074" transform="translate(305.168 1104.655)">
      <g id="Group_1112073" data-name="Group 1112073" clip-path="url(#clip-path-2)">
        <g id="Group_1112090" data-name="Group 1112090" transform="translate(0 24.169)">
          <g id="Group_1112089" data-name="Group 1112089" transform="translate(1.885 2.261)" clip-path="url(#clip-path-3)">
            <path id="Path_887039" data-name="Path 887039" d="M307.013,34.517c1.463.973,4.4,3.4,4.921,5.52.51,2.044-.7,4.691-1.622,6.787-.857,1.96-22.219,49.458-23.963,53.344-2.811,6.276-5.446,13.173-7.288,18.49-3.035,8.737-6.605,18.306-9.8,27.5-.942,2.709-1.827,6.981-4.364,9.118-2.27,1.906-6.243.929-9.4.254a89.8,89.8,0,0,1-9.752-2.751c-6.457-2.17-13.332-4.64-19.754-7.239-3.925-1.591-7.088-3.124-10.082-4.378-6.48-2.719-12.974-5.422-19.949-8.588-5.058-2.3-9.593-5.718-9.422-10.711.075-2.119.951-4.708,1.641-7.29.665-2.47,1.263-5.051,2.01-7.344,1.66-5.11,3.794-10.121,5.766-14.882C202.135,77.4,207.646,62.3,213.941,47.4c4.023-9.517,9.253-20.3,14.083-30.18,3.133-6.408,7.8-14.048,13.243-14.228,2.383-.08,5.3,1.143,7.964,2.057,7.959,2.726,16.443,7.386,24.533,11.792,8.8,4.784,16.264,8.107,24.753,12.646,2.868,1.533,5.666,3.147,8.5,5.032" transform="translate(34.27 0.752)" fill="#c1d5e8" fill-rule="evenodd"/>
            <path id="Path_887040" data-name="Path 887040" d="M234.545,8.445A4.428,4.428,0,0,1,237.353,7.3c1.3.011,5.64,1.24,4.734,3.188-.843,1.811-7.369.353-7.542-2.043" transform="translate(43.092 1.837)" fill="#fff" fill-rule="evenodd"/>
            <path id="Path_887041" data-name="Path 887041" d="M231.94,9.453c-1.1,1.252-3.206,2.736-4.241,1.928-2.45-1.924,4.372-5.238,4.241-1.928" transform="translate(41.736 2.025)" fill="#fff" fill-rule="evenodd"/>
            <path id="Path_887042" data-name="Path 887042" d="M236.168,12.748a.878.878,0,0,0-.136.841,2.8,2.8,0,0,1-3.868.088,3.429,3.429,0,0,0-.007-.954c1.129-1.05,2.893-1.665,4.012.025" transform="translate(42.653 2.944)" fill="#fff" fill-rule="evenodd"/>
            <path id="Path_887043" data-name="Path 887043" d="M288.895,33.048c-1.148,4.278-8.145-1.134-6.915-3.393,1.258-2.316,6.27.975,6.915,3.393" transform="translate(51.78 7.266)" fill="#fff" fill-rule="evenodd"/>
            <path id="Path_887044" data-name="Path 887044" d="M277.227,25.7c2.119,1.3,3.61,2.019,2.681,3.706-1.452,2.645-10.676-2.093-9.27-4.889,1.128-2.249,4.612-.023,6.589,1.183" transform="translate(49.697 5.929)" fill="#fff" fill-rule="evenodd"/>
            <path id="Path_887045" data-name="Path 887045" d="M288.787,37.9c.263,2.024-1.9,4.251-3.306,2.993-1.631-1.47,1.409-5.768,3.306-2.993" transform="translate(52.365 9.311)" fill="#fff" fill-rule="evenodd"/>
            <path id="Path_887046" data-name="Path 887046" d="M248.538,120.569c-1.764,2.885,6.6,3.922,5.532.731-.556-1.665-4.057-1.329-5.532-.731" transform="translate(45.618 30.226)" fill="#fff" fill-rule="evenodd"/>
            <path id="Path_887047" data-name="Path 887047" d="M245.884,124.079a1.888,1.888,0,0,0,1.452-2.352c-.613-1.8-4.183-2.5-5.549-3.063-1.657-.682-4.495-2.76-6.055-1.426-2.222,1.911,2.454,4.283,4.093,5.029.872.4,1.764.691,2.515.988,1.289.508,2.267,1.2,3.543.824" transform="translate(43.202 29.4)" fill="#fff" fill-rule="evenodd"/>
            <path id="Path_887048" data-name="Path 887048" d="M282.569,32.739c1.463.973,4.4,3.4,4.921,5.52.51,2.044-.7,4.691-1.622,6.787-.857,1.96-22.219,49.458-23.963,53.344-2.811,6.276-5.446,13.173-7.288,18.49-3.035,8.737-6.605,18.306-9.8,27.5-.943,2.709-1.827,6.981-4.366,9.117-2.27,1.906-6.242.929-9.4.254A89.8,89.8,0,0,1,221.3,151c-6.457-2.17-13.332-4.64-19.754-7.239-3.925-1.591-7.088-3.124-10.082-4.379-6.48-2.719-12.974-5.422-19.949-8.588-5.058-2.3-9.593-5.718-9.422-10.711.075-2.119.951-4.708,1.641-7.29.665-2.47,1.263-5.051,2.01-7.344,1.66-5.109,3.794-10.121,5.766-14.882C177.69,75.617,183.2,60.518,189.5,45.62c4.023-9.517,9.253-20.3,14.083-30.18,3.133-6.408,7.8-14.047,13.244-14.228,2.383-.08,5.3,1.143,7.964,2.057,7.959,2.726,16.443,7.386,24.533,11.792,8.8,4.784,16.264,8.107,24.753,12.646,2.868,1.533,5.667,3.147,8.5,5.032" transform="translate(29.779 0.304)" fill="#ededed" fill-rule="evenodd"/>
            <path id="Path_887049" data-name="Path 887049" d="M267.718,45.607c.118-.29.233-.587.348-.882-1.8-1-3.719-1.883-5.515-2.846-8.233-4.4-15.606-8.316-24.024-12.482-5.123-2.531-10.385-4.924-15.9-7.679-2.272-1.137-4.529-2.254-7.95-3.84-2.038-.949-6.935-3.783-7.948-3.345s-2.39,3.043-1.982,4.086c.361.919,1.9,1.506,3.539,2.358,4.166,2.174,8.313,4.406,11.847,6.127,13.515,6.587,26.526,14.162,39.594,20.929,1.7.884,3.8,2.123,5.481,2.883.888-1.742,1.778-3.484,2.51-5.307" transform="translate(37.604 3.646)" fill="#334f70" fill-rule="evenodd"/>
            <path id="Path_887050" data-name="Path 887050" d="M263.178,55.434c-2.242-1.439-4.82-2.57-7.188-3.835-8.233-4.406-15.606-8.32-24.025-12.483-5.123-2.533-10.385-4.929-15.9-7.682-2.272-1.137-4.531-2.254-7.949-3.84-2.04-.951-6.941-3.783-7.951-3.345-1.025.442-2.389,3.044-1.979,4.088.361.916,1.9,1.5,3.536,2.358,4.166,2.172,8.315,4.4,11.849,6.125,13.517,6.589,26.524,14.162,39.592,20.927,2.538,1.312,5.932,3.415,7.552,3.561.842-1.945,1.637-3.92,2.46-5.874" transform="translate(36.399 6.092)" fill="#334f70" fill-rule="evenodd"/>
            <path id="Path_887051" data-name="Path 887051" d="M257.987,65.084c-1.365-.7-2.757-1.369-4.083-2.08-8.232-4.4-15.609-8.318-24.025-12.483-5.121-2.53-10.384-4.921-15.9-7.681-2.272-1.133-4.529-2.252-7.945-3.842-2.044-.944-6.939-3.776-7.955-3.34s-2.388,3.047-1.976,4.088c.359.919,1.9,1.5,3.535,2.354,4.166,2.175,8.316,4.4,11.848,6.126,13.515,6.589,26.526,14.163,39.594,20.93,1.161.6,2.5,1.369,3.768,2.032q1.607-3.029,3.138-6.1" transform="translate(36.016 8.964)" fill="#334f70" fill-rule="evenodd"/>
            <path id="Path_887052" data-name="Path 887052" d="M252.484,75.356c-1.69-.914-3.466-1.741-5.141-2.635-8.227-4.4-15.6-8.315-24.023-12.478-5.121-2.533-10.384-4.929-15.9-7.682-2.274-1.137-4.53-2.254-7.946-3.843-2.044-.946-6.943-3.783-7.955-3.342-1.029.439-2.39,3.043-1.979,4.086.36.914,1.9,1.5,3.539,2.358,4.167,2.169,8.312,4.4,11.85,6.125,13.511,6.587,26.523,14.162,39.589,20.93,1.443.745,3.161,1.74,4.673,2.5q1.637-3.012,3.29-6.017" transform="translate(34.81 11.41)" fill="#334f70" fill-rule="evenodd"/>
            <path id="Path_887053" data-name="Path 887053" d="M248.407,85.914c.121-.29.232-.585.353-.882-1.805-1-3.719-1.883-5.52-2.846-8.23-4.4-15.6-8.316-24.021-12.48-5.121-2.533-10.386-4.924-15.9-7.682-2.272-1.132-4.529-2.252-7.948-3.845-2.041-.946-6.938-3.775-7.952-3.34s-2.39,3.045-1.979,4.089c.362.918,1.9,1.5,3.538,2.354,4.164,2.174,8.313,4.4,11.85,6.125,13.516,6.585,26.527,14.164,39.592,20.929,1.7.884,3.8,2.123,5.481,2.888.887-1.745,1.777-3.489,2.507-5.31" transform="translate(34.056 13.792)" fill="#334f70" fill-rule="evenodd"/>
            <path id="Path_887054" data-name="Path 887054" d="M210.1,6.667a4.428,4.428,0,0,1,2.808-1.145c1.3.011,5.64,1.24,4.734,3.188-.843,1.811-7.369.353-7.542-2.043" transform="translate(38.601 1.39)" fill="#fff" fill-rule="evenodd"/>
            <path id="Path_887055" data-name="Path 887055" d="M207.495,7.675c-1.1,1.252-3.206,2.736-4.241,1.928-2.45-1.924,4.372-5.24,4.241-1.928" transform="translate(37.245 1.577)" fill="#fff" fill-rule="evenodd"/>
            <path id="Path_887056" data-name="Path 887056" d="M211.724,10.971a.878.878,0,0,0-.136.841,2.8,2.8,0,0,1-3.868.088,3.429,3.429,0,0,0-.007-.954c1.129-1.05,2.893-1.665,4.012.025" transform="translate(38.162 2.497)" fill="#fff" fill-rule="evenodd"/>
            <path id="Path_887057" data-name="Path 887057" d="M264.451,31.27c-1.148,4.278-8.145-1.134-6.915-3.393,1.258-2.316,6.27.975,6.915,3.393" transform="translate(47.289 6.819)" fill="#fff" fill-rule="evenodd"/>
            <path id="Path_887058" data-name="Path 887058" d="M252.783,23.926c2.118,1.3,3.609,2.019,2.681,3.706-1.454,2.645-10.677-2.093-9.271-4.889,1.128-2.249,4.612-.023,6.59,1.183" transform="translate(45.205 5.482)" fill="#fff" fill-rule="evenodd"/>
            <path id="Path_887059" data-name="Path 887059" d="M264.342,36.125c.264,2.024-1.9,4.251-3.3,2.993-1.631-1.47,1.409-5.768,3.3-2.993" transform="translate(47.874 8.863)" fill="#fff" fill-rule="evenodd"/>
            <path id="Path_887060" data-name="Path 887060" d="M224.094,118.792c-1.764,2.885,6.6,3.922,5.532.731-.556-1.665-4.057-1.331-5.532-.731" transform="translate(41.127 29.778)" fill="#fff" fill-rule="evenodd"/>
            <path id="Path_887061" data-name="Path 887061" d="M221.44,122.3a1.888,1.888,0,0,0,1.452-2.352c-.613-1.8-4.183-2.5-5.549-3.063-1.657-.682-4.495-2.76-6.055-1.426-2.222,1.911,2.454,4.283,4.093,5.029.872.4,1.764.691,2.515.988,1.289.508,2.267,1.2,3.543.824" transform="translate(38.711 28.953)" fill="#fff" fill-rule="evenodd"/>
            <path id="Path_887062" data-name="Path 887062" d="M219.737,98.613c2.461.32,5.389-2.352,7.3-.342,1.974,2.078-1.049,5.437-1.534,8.3,2.687.183,5.61-1.125,7.666,1.09,2.209,2.383,1.168,9.676-.266,12.4a19.135,19.135,0,0,1-.952-5.19c-.105-1.225.316-4.173-.611-5.2-2.005-2.206-5.742,1.2-7.658-.726-1.854-1.863.161-5.374,1.027-8.109-2.224-1.154-5.865,3-7.956,1.432-1.874-1.4-.529-3.5.566-5.757-4.023,1.493-10.277,10.174-13.784,7.124-2.154-1.868-.518-4.719.536-7.195-3.223,2.322-10.1,11.495-12.788,6.385-1.585-3.017,1.886-9.556,5.5-14.131,2.169-2.74,5.858-7.08,8.045-5.561,2.547,1.76.732,4.73-.031,7.007,2.7-.751,5.3-6.948,8.022-6.643,2.861,1.873.415,4.72-.876,7.2-1.31,2.518-2.411,4.869-3.1,6.354,2.7-.762,9.7-8.37,12.6-7.285,3.63,1.364.479,6.031-1.7,8.842m-24.117.169c1.957-1.2,3.89-3.691,5.848-4.978-.451-1.786.763-3.607.914-5.412-2.674,3.475-5.376,6.948-6.761,10.39" transform="translate(35.071 20.847)" fill="#334f70" fill-rule="evenodd"/>
            <path id="Path_887063" data-name="Path 887063" d="M181.1,113.543A12.181,12.181,0,0,1,168.964,125.8l-157.2-2.692a12.477,12.477,0,0,1,.382-24.929l6.917.119,52.193.894-.125,8.2,39.3.672.125-8.2,59.109,1.013c6.288.108,11.547,5.777,11.442,12.664" transform="translate(0 24.713)" fill="#313a52"/>
            <path id="Path_887064" data-name="Path 887064" d="M162.987,2.457,19.617,0A10.818,10.818,0,0,0,8.755,10.973L7.217,111.348a10.866,10.866,0,0,0,10.52,11.338l52.193.894-.127,8.2,39.3.672.121-7.873,52.192.894A10.815,10.815,0,0,0,172.277,114.5l1.544-100.7A11.127,11.127,0,0,0,162.987,2.457" transform="translate(1.326 0)" fill="#334f70"/>
            <path id="Path_887065" data-name="Path 887065" d="M21.944,13.173c-.06,3.937-1.282,83.647-1.383,90.209l133.625,2.288,1.383-90.207L21.944,13.173" transform="translate(3.778 3.316)" fill="#cfe0e9"/>
            <path id="Path_887066" data-name="Path 887066" d="M84.084,20.548c19.494.334,35.277,17.01,34.961,37.675s-16.6,36.465-36.092,36.131-35.276-17.01-34.96-37.675,16.6-36.465,36.091-36.131" transform="translate(8.817 5.171)" fill="#5cbeff"/>
            <path id="Path_887067" data-name="Path 887067" d="M101.363,48.253l-.2,12.8L87.02,60.8l-.226,14.761-11.949-.205L75.071,60.6l-14.149-.242.2-12.8,14.149.243.226-14.761,11.949.205-.227,14.76Z" transform="translate(11.193 8.318)" fill="#fff"/>
            <path id="Path_887068" data-name="Path 887068" d="M143.5,54.569l1.713-8.071a8.68,8.68,0,0,1,10.225-6.763c4.181.993,31.858,7.559,35.719,8.474a9.2,9.2,0,0,1,6.51,10.733l-1.713,8.071-4.184-.993L143.5,54.569" transform="translate(26.364 9.949)" fill="#c1d5e8"/>
            <path id="Path_887069" data-name="Path 887069" d="M183.842,103.852a9.379,9.379,0,0,1-11.007,7.281l-26.388-6.261c-4.827-1.145-8.084-6.51-7.014-11.556.857-4.037,7.85-37,8.707-41.04L192.55,62.812c-.786,3.7-7.85,37-8.707,41.04" transform="translate(25.58 13.159)" fill="#2ebca1"/>
            <path id="Path_887070" data-name="Path 887070" d="M172.662,73.275l-3.861-.916.857-4.037a4.6,4.6,0,0,0-3.254-5.365,4.339,4.339,0,0,0-5.113,3.38l-.857,4.037-3.861-.915a4.336,4.336,0,0,0-5.109,3.38,4.6,4.6,0,0,0,3.254,5.365l3.861.916-.857,4.037a4.6,4.6,0,0,0,3.258,5.365,4.337,4.337,0,0,0,5.109-3.38l.857-4.038,3.861.916a4.338,4.338,0,0,0,5.113-3.38,4.6,4.6,0,0,0-3.258-5.365" transform="translate(27.81 15.821)" fill="#fff"/>
            <path id="Path_887071" data-name="Path 887071" d="M20.085,5.969a4.428,4.428,0,0,1,2.808-1.145c1.3.011,5.64,1.24,4.734,3.188-.843,1.811-7.369.353-7.542-2.043" transform="translate(3.69 1.214)" fill="#fff" fill-rule="evenodd"/>
            <path id="Path_887072" data-name="Path 887072" d="M17.479,6.977c-1.1,1.252-3.206,2.736-4.241,1.928-2.45-1.924,4.371-5.24,4.241-1.928" transform="translate(2.334 1.402)" fill="#fff" fill-rule="evenodd"/>
            <path id="Path_887073" data-name="Path 887073" d="M21.708,10.273a.878.878,0,0,0-.136.841A2.8,2.8,0,0,1,17.7,11.2a3.427,3.427,0,0,0-.007-.954c1.129-1.05,2.893-1.665,4.012.025" transform="translate(3.251 2.321)" fill="#fff" fill-rule="evenodd"/>
            <path id="Path_887074" data-name="Path 887074" d="M142.678,14.12c-1.007,3.756-7.151-1-6.07-2.979,1.1-2.033,5.5.856,6.07,2.979" transform="translate(25.075 2.63)" fill="#fff" fill-rule="evenodd"/>
            <path id="Path_887075" data-name="Path 887075" d="M132.435,7.673c1.86,1.139,3.169,1.772,2.353,3.253-1.275,2.323-9.372-1.836-8.138-4.292.991-1.974,4.05-.019,5.785,1.039" transform="translate(23.245 1.457)" fill="#fff" fill-rule="evenodd"/>
            <path id="Path_887076" data-name="Path 887076" d="M142.583,18.382c.231,1.777-1.668,3.733-2.9,2.627-1.432-1.291,1.237-5.063,2.9-2.627" transform="translate(25.588 4.425)" fill="#fff" fill-rule="evenodd"/>
            <path id="Path_887077" data-name="Path 887077" d="M142.933,111.946c-.2,3.428,7.573,0,5.162-2.224-1.255-1.164-4.152.939-5.162,2.224" transform="translate(26.26 27.533)" fill="#fff" fill-rule="evenodd"/>
            <path id="Path_887078" data-name="Path 887078" d="M142.132,116.071c.49-.512,1.226-1.843.179-2.8-1.366-1.25-4.806-.02-6.257.2-1.761.263-5.2-.083-5.94,1.889-1.054,2.816,4.122,2.466,5.9,2.269.945-.106,1.858-.309,2.65-.441,1.36-.223,2.531-.13,3.472-1.114" transform="translate(23.879 28.372)" fill="#fff" fill-rule="evenodd"/>
          </g>
        </g>
      </g>
    </g>
  </g>
</svg>
