<svg xmlns="http://www.w3.org/2000/svg" xmlns:xlink="http://www.w3.org/1999/xlink" width="99" height="99" viewBox="0 0 99 99">
  <defs>
    <clipPath id="clip-path">
      <rect id="Rectangle_401223" data-name="Rectangle 401223" width="99" height="99" transform="translate(0)" fill="#844804"/>
    </clipPath>
    <clipPath id="clip-path-2">
      <rect id="Rectangle_401223-2" data-name="Rectangle 401223" width="88.539" height="88.539" fill="#f3f9ff"/>
    </clipPath>
    <clipPath id="clip-path-3">
      <rect id="Rectangle_406819" data-name="Rectangle 406819" width="66.327" height="66.333" fill="none"/>
    </clipPath>
  </defs>
  <g id="Group_1112238" data-name="Group 1112238" transform="translate(-619.921 -5755.871)">
    <g id="Group_1100724" data-name="Group 1100724" transform="translate(619.921 5755.871)">
      <g id="Group_1099654" data-name="Group 1099654" transform="translate(0 0)">
        <g id="Group_1099652" data-name="Group 1099652" clip-path="url(#clip-path)">
          <path id="Path_873521" data-name="Path 873521" d="M99,77.066A22,22,0,0,1,77.066,99H21.934A22,22,0,0,1,0,77.066V21.933A22,22,0,0,1,21.934,0H77.066A22,22,0,0,1,99,21.934Z" transform="translate(0)" fill="#005865"/>
        </g>
      </g>
      <g id="Group_1099659" data-name="Group 1099659" transform="translate(4.77 5.723)">
        <g id="Group_1099652-2" data-name="Group 1099652" transform="translate(0 0)" clip-path="url(#clip-path-2)">
          <path id="Path_873521-2" data-name="Path 873521" d="M88.539,68.922A19.674,19.674,0,0,1,68.923,88.539H19.616A19.674,19.674,0,0,1,0,68.922V19.616A19.674,19.674,0,0,1,19.616,0H68.923A19.674,19.674,0,0,1,88.539,19.616Z" fill="#f3f9ff"/>
        </g>
      </g>
    </g>
    <g id="Group_1100725" data-name="Group 1100725" transform="translate(636.343 5771.293)">
      <rect id="Rectangle_401104" data-name="Rectangle 401104" width="68" height="69" transform="translate(-0.421 0.438)" fill="none"/>
      <g id="Group_1112239" data-name="Group 1112239" transform="translate(0.579 1.438)">
        <g id="Group_1112086" data-name="Group 1112086" clip-path="url(#clip-path-3)">
          <path id="Path_887020" data-name="Path 887020" d="M30.235,23.115a4.854,4.854,0,0,1,1.71.38,16.8,16.8,0,0,1,5.819.874c1.765.543,4.107,1.307,5.2,2.736a2.765,2.765,0,0,1-1.33,2.66l-.95.03C20.355,21.921-.445,40.752,5.937,61.753c.328,1.078,3.154,7.721,4.3,8.364.792.443,1.406-.166,1.9-.721l2.2-2.442.507.049c.141-.04.339-.08.409.019a41.657,41.657,0,0,1,2.039,3.747l-.168.414a.4.4,0,0,1,.1.444c-.462.374-3.105,2.521-2.3,3.163,16.852,13.494,42.251.7,42.21-20.579a5.54,5.54,0,0,1,.275-2.788.8.8,0,0,1,1.33,0,2.687,2.687,0,0,1,.277.442c.828,1.742-.368,8.6-.936,10.712-3.04,11.319-13.655,21.4-25.56,22.095a9.986,9.986,0,0,1-2.28.38C5.507,84.372-8.6,56.485,5.761,36.165a31.432,31.432,0,0,1,24.474-13.05" transform="translate(0 -18.723)" fill="#d73834"/>
          <path id="Path_887021" data-name="Path 887021" d="M197.926,170.579l2.057-.36.412.36a30.781,30.781,0,0,1-26.219,33.249,5.151,5.151,0,0,0-1.52.19c-.187.017-.382-.014-.57,0q-.766.162-.95-.19A30.946,30.946,0,0,0,196.076,182.5a33.182,33.182,0,0,0,1.28-11.925c.19,0,.38,0,.57,0" transform="translate(-138.622 -137.879)" fill="#9b2925"/>
          <path id="Path_887022" data-name="Path 887022" d="M269.246,32.7c-.792.059-1.662-.016-2.47,0,3.43-.919,4.747-3.37,3.393-6.718a154.862,154.862,0,0,0-12.508-24.54A7.807,7.807,0,0,0,256.137.212a4.425,4.425,0,0,1,5.1,1.836c4.112,8.572,8.813,16.923,12.55,25.639.2,2.975-1.668,4.8-4.539,5.014" transform="translate(-207.473 0)" fill="#f9bd2c"/>
          <path id="Path_887023" data-name="Path 887023" d="M165.44,22.876c3.54-.047,8.626,1.353,11.871,2.639-.1.195-.321.838-.57,1.33a28.26,28.26,0,0,0-11.02-3.61c-.013-.34-1.054-.572-.281-.359" transform="translate(-133.776 -18.463)" fill="#9b2925"/>
          <path id="Path_887024" data-name="Path 887024" d="M161.417,347.115c.162.308.646.179.95.19a30.627,30.627,0,0,1-3.23.19,9.326,9.326,0,0,1,2.28-.38" transform="translate(-128.902 -281.166)" fill="#fb516a"/>
          <path id="Path_887025" data-name="Path 887025" d="M161.987,23.123c-.359,0-.933-.129-1.14.19-.561-.07-1.244.027-1.71-.38a7.492,7.492,0,0,1,2.85.19" transform="translate(-128.902 -18.542)" fill="#fb5b72"/>
          <path id="Path_887026" data-name="Path 887026" d="M180.657,347c-.547.083-.931.135-1.52.19.328-.38,1.044-.13,1.52-.19" transform="translate(-145.102 -281.055)" fill="#fb516a"/>
          <path id="Path_887027" data-name="Path 887027" d="M93.31,69.515l.187,1.039c-.063,6.288-.036,12.564.015,18.829.008,1.027,1.682.655,1.327-.745a3.481,3.481,0,0,1,.427-2.151c1.5,1.052,2.871.76,4.5,1.267l.382.234c-.431,1.326.49,5.032,1.169,1.974l-.054-1.974.4-.234c.884.013,1.775-.007,2.66,0l.339.6q.013,5.078.109,10.164c.1,6.141-3.579,12.1-9.657,13.659l.279.278-.513.441c-6.214.7-13.368.316-17.815-4.672l-.1-.709a26.7,26.7,0,0,1-2.28-4.18c-.628-.085-.731-1.746-.751-2.376q-.134-7.408.047-14.834a3.841,3.841,0,0,1,3.134-2.655c.607-.048,1.7-.047,1.751.676a1.312,1.312,0,0,1,.57.57,3.2,3.2,0,0,1,.821,2.908l-.143,4.072c.1,2.386.709,2.689,3.047,3.011a8.383,8.383,0,0,1,5.967,7.963c.233.942,1.236.731,1.18-.636A9.6,9.6,0,0,0,81.685,93.1a25.428,25.428,0,0,1-.1-5.281c.039-.524-.208-3.427-.391-2.348l-.42.19-.346-.75a55.822,55.822,0,0,1,.043-8.935c.237-2.032,2.212-4.087,4.36-3.6.694.157,2.051.7,1.833,1.506q.342,7.64.2,15.446a.661.661,0,0,0,1.256.237L88,70.735l.374-1.22c-.2-1.031,1.656-1.56,2.539-1.548.864.012,2.621.537,2.4,1.548" transform="translate(-59.846 -55.054)" fill="#fedece"/>
          <path id="Path_887028" data-name="Path 887028" d="M60.591,49.006c-.784,1.554-1.5,3.182-2.28,4.75l-.366.313a3.614,3.614,0,0,0-3.523.69.379.379,0,0,0-.481-.054c.526.639-.449,1.384-1.007.761a27.715,27.715,0,0,0-.513-3.041,3.2,3.2,0,0,0-4.94,0,2.329,2.329,0,0,1-.95,1.8c.541-.158.451,3.086.38,3.245a.629.629,0,0,1-.38.27c-.506.578-.852-.41-.76-.95-2.574-2.639-5.64-.54-5.9,2.748-.227,2.9.183,6.1.007,9.031-.393.877-.781-.116-.95-.653l-.38-.487-.57-.38c-2.036-.844-3.686.1-4.516,2.038.191,4.739-.4,9.9-.05,14.593.033.439.286,2.218.387,2.558-.795.662-2.664,3.163-3.423,3.512a1.643,1.643,0,0,1-1.384-.082,32.808,32.808,0,0,1-2.826-4.441,26.63,26.63,0,0,1,7.951-33.156,26.933,26.933,0,0,1,26.472-3.072" transform="translate(-18.957 -37.965)" fill="#fef4f4"/>
          <path id="Path_887029" data-name="Path 887029" d="M119.035,172.115a26.589,26.589,0,0,1-42.759,23.617c-.888-1.471,1.6-2.9,2.48-3.858,4.411,5.479,11.992,5.712,18.429,4.94l.471-.437c7.6-.95,11.659-7.683,11.209-14.963l-.126-8.515a.828.828,0,0,1,.416-.784c3.288.017,6.592.035,9.88,0" transform="translate(-61.632 -139.414)" fill="#fef4f4"/>
          <path id="Path_887030" data-name="Path 887030" d="M189.378,172.11c-.455,7.958,2.115,16.371-5.067,22.007a12.923,12.923,0,0,1-6.9,2.692c-.537-.016-1.08.023-1.618,0-.231-.01-.706.144-.661-.188a12.846,12.846,0,0,0,10.214-7.932c1.978-4.915.563-11.341.995-16.579,1.011.008,2.029-.005,3.04,0" transform="translate(-141.854 -139.409)" fill="#f7c3bb"/>
          <path id="Path_887031" data-name="Path 887031" d="M175.207,76.115a4.046,4.046,0,0,1,1.049,3.019c.253.042.225-.473.471-.739l.522-.263c.533.044.205,6.03.048,7.1-1.045,2.193-2.634,3.918-1.471,6.506.263.586,1.216,1.387,1.281,1.664a7.713,7.713,0,0,1-.29,3.224,1.036,1.036,0,0,1-1.788-.671c.039-6.265-.093-12.536-.015-18.8,0-.321-.122-.845.193-1.042" transform="translate(-141.742 -61.654)" fill="#f7c3bb"/>
          <path id="Path_887032" data-name="Path 887032" d="M188.507,82.159c-1.28,2.588-2.557,5.183-3.8,7.79-.315-.2-.19-.721-.193-1.042-.018-1.709.071-3.435,0-5.141-.014-.366.2-.762-.38-.656,1.28-1.378,2.636-1.316,4.37-.95" transform="translate(-149.152 -66.368)" fill="#fedece"/>
          <path id="Path_887033" data-name="Path 887033" d="M211.886,172.107c-.134.785.343,3.161-.378,3.515-2.026.995-1.476-2.418-1.521-3.515.631.019,1.269-.009,1.9,0" transform="translate(-170.062 -139.407)" fill="#f7c3bb"/>
          <path id="Path_887034" data-name="Path 887034" d="M99.667,152.211l.378-2.089c1.385,2.877.53,6.217.764,9.307,4.189.155,8.162,4,8.689,8.125.082.644.3,2.25-.465,2.48-1.747.527-1.364-1.559-1.629-2.665a7.889,7.889,0,0,0-5.456-5.754c-1.13-.356-2.249-.07-2.888-1.292-1.1-2.111.4-6.76-.723-9.062l-1.126-.739a4.244,4.244,0,0,1,1.633.793,9.1,9.1,0,0,0,.822.9" transform="translate(-78.742 -121.6)" fill="#f7c3bb"/>
          <path id="Path_887035" data-name="Path 887035" d="M140.222,80.485a9.105,9.105,0,0,1,.76.95V77.92a3.612,3.612,0,0,1,.95-1.8l.106,20.15a1.033,1.033,0,0,1-1.993-.309c.024-4.808-.076-9.621-.016-14.429,0-.322-.122-.845.193-1.042" transform="translate(-113.407 -61.654)" fill="#f7c3bb"/>
          <path id="Path_887036" data-name="Path 887036" d="M202.431,33.465c.141-.042-23.137,2.322-26.133-2.388-.667-1.049-.384-3.237.04-4.38.268-.722,11.654-25.067,14.807-25.805.5-.1.887-.153,1.872.7,2.153,1.858,6.263,11.992,9.246,17.868a82.626,82.626,0,0,1,3.492,7.683c1.152,2.995.012,6.323-3.322,6.325" transform="translate(-142.48 -0.68)" fill="#ffd400"/>
          <path id="Path_887037" data-name="Path 887037" d="M248.657,43.955a12.565,12.565,0,0,1,3.3.044c1.418.436,1.362,2.067,1.318,3.239a38.936,38.936,0,0,1-.652,5.807,2.463,2.463,0,0,1-4.84-.311c-.369-2.166-.355-4.783-.572-7a2.38,2.38,0,0,1,1.452-1.776" transform="translate(-200.238 -35.534)" fill="#fef4f4"/>
          <path id="Path_887038" data-name="Path 887038" d="M253.348,125.12c2.988-.581,3.73,4.264.5,4.46-2.705.164-3.128-3.948-.5-4.46" transform="translate(-203.783 -101.309)" fill="#fef4f3"/>
        </g>
      </g>
    </g>
  </g>
</svg>
