<svg xmlns="http://www.w3.org/2000/svg" xmlns:xlink="http://www.w3.org/1999/xlink" width="99" height="99" viewBox="0 0 99 99">
  <defs>
    <clipPath id="clip-path">
      <rect id="Rectangle_401223" data-name="Rectangle 401223" width="99" height="99" transform="translate(0)" fill="#f3a744"/>
    </clipPath>
    <clipPath id="clip-path-2">
      <rect id="Rectangle_401223-2" data-name="Rectangle 401223" width="88.539" height="88.539" fill="#f3f9ff"/>
    </clipPath>
    <clipPath id="clip-path-3">
      <rect id="Rectangle_406903" data-name="Rectangle 406903" width="62.658" height="62.658" fill="none"/>
    </clipPath>
  </defs>
  <g id="Group_1112281" data-name="Group 1112281" transform="translate(-619.921 -5755.871)">
    <g id="Group_1100724" data-name="Group 1100724" transform="translate(619.921 5755.871)">
      <g id="Group_1099654" data-name="Group 1099654" transform="translate(0 0)">
        <g id="Mask_Group_1099652" data-name="Mask Group 1099652" clip-path="url(#clip-path)">
          <path id="Path_873521" data-name="Path 873521" d="M99,77.066A22,22,0,0,1,77.066,99H21.934A22,22,0,0,1,0,77.066V21.933A22,22,0,0,1,21.934,0H77.066A22,22,0,0,1,99,21.934Z" transform="translate(0)" fill="#005865"/>
        </g>
      </g>
      <g id="Group_1099659" data-name="Group 1099659" transform="translate(4.77 5.723)">
        <g id="Group_1099652" data-name="Group 1099652" transform="translate(0 0)" clip-path="url(#clip-path-2)">
          <path id="Path_873521-2" data-name="Path 873521" d="M88.539,68.922A19.674,19.674,0,0,1,68.923,88.539H19.616A19.674,19.674,0,0,1,0,68.922V19.616A19.674,19.674,0,0,1,19.616,0H68.923A19.674,19.674,0,0,1,88.539,19.616Z" fill="#f3f9ff"/>
        </g>
      </g>
    </g>
    <g id="Group_1100725" data-name="Group 1100725" transform="translate(636.343 5771.293)">
      <rect id="Rectangle_401104" data-name="Rectangle 401104" width="68" height="69" fill="none"/>
      <g id="Group_1112369" data-name="Group 1112369" transform="translate(2.079 3.763)">
        <g id="Group_1112368" data-name="Group 1112368" transform="translate(0 0)" clip-path="url(#clip-path-3)">
          <path id="Path_887290" data-name="Path 887290" d="M23.678,21.383l-20.055.01L1.078,21.4A1.082,1.082,0,0,0,0,22.488L.008,25.04l.024,5.718L.041,33.3a1.086,1.086,0,0,0,1.093,1.082l3.172-.016L25.529,34.3c-.349-4.309-1.859-8.594-1.851-12.92" transform="translate(0 22.208)" fill="#f3aa43"/>
          <path id="Path_887291" data-name="Path 887291" d="M14.691,26.455,11.483,16.5l-1.5,1.117-1.8,9.114Z" transform="translate(8.491 17.136)" fill="#dead8e"/>
          <path id="Path_887292" data-name="Path 887292" d="M2.179,35.019l-.6-5.2a6.538,6.538,0,0,1-.02-1.215l.563-6.825c-.006-1.7,3.123-5.17,2.4-9.357l10.91,6.2A3.106,3.106,0,0,1,18.539,21.7L18.6,34.946a3.108,3.108,0,0,1-3.084,3.113L5.29,38.1a3.106,3.106,0,0,1-3.111-3.084" transform="translate(1.598 12.899)" fill="#f5c4a5"/>
          <path id="Path_887293" data-name="Path 887293" d="M16.038,34.9a3.65,3.65,0,0,1-3.612,3.645l-5.72.026a3.641,3.641,0,0,1-3.647-3.616L3.034,28.4,2.985,4.3C2.971,2.3,4.6.037,6.591.031L12.311,0A3.639,3.639,0,0,1,15.956,3.62l.057,24.78Z" transform="translate(3.1 0.005)" fill="#f5c4a5"/>
          <path id="Path_887294" data-name="Path 887294" d="M3.154,24.365c.455,0,.824.212.826.483s-.363.493-.817.5-.826-.212-.828-.483.363-.493.819-.5" transform="translate(2.425 25.305)" fill="#f3cfb8"/>
          <path id="Path_887295" data-name="Path 887295" d="M5.231,23.809c.455,0,.824.212.828.483s-.363.5-.819.5-.826-.212-.828-.483.363-.493.819-.5" transform="translate(4.582 24.727)" fill="#f3cfb8"/>
          <path id="Path_887296" data-name="Path 887296" d="M7.425,23.788c.455,0,.824.212.828.483s-.365.5-.819.5-.826-.212-.828-.483.363-.493.819-.5" transform="translate(6.861 24.705)" fill="#f3cfb8"/>
          <path id="Path_887297" data-name="Path 887297" d="M9.365,23.916c.457,0,.826.214.828.483s-.365.5-.819.5-.824-.212-.828-.485.365-.493.819-.5" transform="translate(8.875 24.838)" fill="#f3cfb8"/>
          <path id="Path_887298" data-name="Path 887298" d="M10.745,36.731h0a1.687,1.687,0,0,1-1.794-1.564L8.217,24.526a1.683,1.683,0,0,1,3.357-.232l.734,10.643a1.687,1.687,0,0,1-1.564,1.794" transform="translate(8.53 23.605)" fill="#f5c4a5"/>
          <path id="Path_887299" data-name="Path 887299" d="M9.012,38.611h0A1.9,1.9,0,0,1,7,36.854L6.168,24.885a1.893,1.893,0,0,1,3.777-.261l.826,11.968a1.9,1.9,0,0,1-1.759,2.018" transform="translate(6.401 23.745)" fill="#f5c4a5"/>
          <path id="Path_887300" data-name="Path 887300" d="M6.89,38.758h0A1.9,1.9,0,0,1,4.872,37L4.046,25.032a1.893,1.893,0,1,1,3.777-.261L8.647,36.74A1.9,1.9,0,0,1,6.89,38.758" transform="translate(4.198 23.895)" fill="#f5c4a5"/>
          <path id="Path_887301" data-name="Path 887301" d="M4.883,36.161h0a1.569,1.569,0,0,1-1.668-1.453L1.937,23.816c-.061-.858,1.191-.612,2.049-.671A1.571,1.571,0,0,1,5.655,24.6l.681,9.9a1.57,1.57,0,0,1-1.453,1.668" transform="translate(2.01 24.034)" fill="#f5c4a5"/>
          <path id="Path_887302" data-name="Path 887302" d="M11.342,29.222h0a1.141,1.141,0,0,1-1.019,1.241L10,30.5a1.134,1.134,0,1,1-.226-2.257L10.1,28.2a1.142,1.142,0,0,1,1.244,1.017" transform="translate(9.086 29.287)" fill="#f2d5c2"/>
          <path id="Path_887303" data-name="Path 887303" d="M9.493,30.107h0a1.139,1.139,0,0,1-1.017,1.241l-.324.031a1.133,1.133,0,1,1-.226-2.255l.326-.035a1.139,1.139,0,0,1,1.241,1.017" transform="translate(7.168 30.206)" fill="#f2d5c2"/>
          <path id="Path_887304" data-name="Path 887304" d="M7.366,30.351h0A1.137,1.137,0,0,1,6.348,31.59l-.324.033A1.133,1.133,0,1,1,5.8,29.368l.326-.035a1.139,1.139,0,0,1,1.241,1.017" transform="translate(4.959 30.459)" fill="#f2d5c2"/>
          <path id="Path_887305" data-name="Path 887305" d="M4.9,29.124h0a.894.894,0,0,1-.8.976l-.257.026a.893.893,0,0,1-.175-1.778l.255-.027a.9.9,0,0,1,.978.8" transform="translate(2.973 29.411)" fill="#f2d5c2"/>
          <path id="Path_887306" data-name="Path 887306" d="M15.979,27.457,3.042,28.4l-.049-24.1-.018-3.17A1.087,1.087,0,0,1,3.291.363,1.1,1.1,0,0,1,4.06.041L6.6.033,12.32.008,14.872,0a1.081,1.081,0,0,1,1.085,1.078l.008,2.546Z" transform="translate(3.09 0.001)" fill="#d53d33"/>
          <path id="Path_887307" data-name="Path 887307" d="M9.425,13.915l9.887-2.693-1.117-1.5-8.843-1.3Z" transform="translate(9.712 8.751)" fill="#dead8e"/>
          <path id="Path_887308" data-name="Path 887308" d="M8.8,2.178l5.2-.6a6.188,6.188,0,0,1,1.213-.02l6.825.561c1.706-.006,5.17,3.125,9.357,2.4L25.2,15.427a3.106,3.106,0,0,1-3.086,3.111L8.874,18.6a3.109,3.109,0,0,1-3.111-3.084L5.718,5.289A3.106,3.106,0,0,1,8.8,2.178" transform="translate(5.938 1.598)" fill="#f5c4a5"/>
          <path id="Path_887309" data-name="Path 887309" d="M15.483,16.039a3.65,3.65,0,0,1-3.645-3.614L11.812,6.7a3.639,3.639,0,0,1,3.616-3.645l6.558-.024,24.1-.051c2-.012,4.265,1.617,4.271,3.608l.024,5.72a3.638,3.638,0,0,1-3.612,3.645l-24.782.057Z" transform="translate(12.267 3.1)" fill="#f5c4a5"/>
          <path id="Path_887310" data-name="Path 887310" d="M6.87,3.154c.006.455-.212.826-.481.828s-.5-.365-.5-.819.21-.826.481-.828.5.365.5.819" transform="translate(6.118 2.426)" fill="#f3cfb8"/>
          <path id="Path_887311" data-name="Path 887311" d="M7.429,5.231c0,.455-.214.826-.483.828s-.5-.363-.5-.819.214-.826.485-.828.493.365.5.819" transform="translate(6.694 4.583)" fill="#f3cfb8"/>
          <path id="Path_887312" data-name="Path 887312" d="M7.449,7.424c0,.455-.212.826-.483.828s-.493-.365-.5-.819.212-.826.483-.828.493.365.5.819" transform="translate(6.717 6.86)" fill="#f3cfb8"/>
          <path id="Path_887313" data-name="Path 887313" d="M7.321,9.365c0,.455-.214.826-.483.828s-.5-.363-.5-.819.212-.826.483-.828.493.365.5.819" transform="translate(6.584 8.876)" fill="#f3cfb8"/>
          <path id="Path_887314" data-name="Path 887314" d="M1.142,10.745h0A1.686,1.686,0,0,1,2.706,8.951l10.641-.734a1.683,1.683,0,0,1,.232,3.357l-10.643.734a1.687,1.687,0,0,1-1.794-1.564" transform="translate(1.182 8.53)" fill="#f5c4a5"/>
          <path id="Path_887315" data-name="Path 887315" d="M.15,9.012h0A1.9,1.9,0,0,1,1.907,6.994l11.968-.826a1.893,1.893,0,1,1,.263,3.777l-11.97.824A1.9,1.9,0,0,1,.15,9.012" transform="translate(0.151 6.402)" fill="#f5c4a5"/>
          <path id="Path_887316" data-name="Path 887316" d="M.005,6.89h0A1.9,1.9,0,0,1,1.762,4.872l11.968-.826a1.893,1.893,0,0,1,.259,3.777L2.021,8.647A1.894,1.894,0,0,1,.005,6.89" transform="translate(0.001 4.198)" fill="#f5c4a5"/>
          <path id="Path_887317" data-name="Path 887317" d="M1.21,4.883h0A1.569,1.569,0,0,1,2.663,3.215L13.555,1.937c.86-.061.612,1.191.673,2.049a1.57,1.57,0,0,1-1.453,1.668l-9.9.683A1.569,1.569,0,0,1,1.21,4.883" transform="translate(1.253 2.01)" fill="#f5c4a5"/>
          <path id="Path_887318" data-name="Path 887318" d="M2.688,11.339h0a1.136,1.136,0,0,1-1.241-1.015L1.414,10A1.134,1.134,0,1,1,3.67,9.771L3.7,10.1a1.135,1.135,0,0,1-1.015,1.239" transform="translate(1.463 9.088)" fill="#f2d5c2"/>
          <path id="Path_887319" data-name="Path 887319" d="M1.8,9.491h0A1.136,1.136,0,0,1,.562,8.473L.528,8.149a1.134,1.134,0,0,1,2.257-.226l.033.326A1.136,1.136,0,0,1,1.8,9.491" transform="translate(0.542 7.169)" fill="#f2d5c2"/>
          <path id="Path_887320" data-name="Path 887320" d="M1.559,7.364h0A1.136,1.136,0,0,1,.319,6.346L.285,6.022A1.134,1.134,0,0,1,2.541,5.8l.033.326A1.135,1.135,0,0,1,1.559,7.364" transform="translate(0.29 4.96)" fill="#f2d5c2"/>
          <path id="Path_887321" data-name="Path 887321" d="M2.537,4.9h0a.9.9,0,0,1-.978-.8l-.027-.257A.893.893,0,1,1,3.31,3.667l.027.257a.9.9,0,0,1-.8.976" transform="translate(1.587 2.973)" fill="#f2d5c2"/>
          <path id="Path_887322" data-name="Path 887322" d="M17.751,15.98,16.8,3.043l24.1-.051,3.17-.016a1.089,1.089,0,0,1,1.095,1.084l.008,2.54.024,5.72.008,2.552a1.081,1.081,0,0,1-1.078,1.084l-2.544.008Z" transform="translate(17.45 3.091)" fill="#55ace0"/>
          <path id="Path_887323" data-name="Path 887323" d="M19.319,9.354l3.3,9.956,1.5-1.119,1.05-8.839Z" transform="translate(20.064 9.713)" fill="#dead8e"/>
          <path id="Path_887324" data-name="Path 887324" d="M37.25,8.8l.6,5.2a6.225,6.225,0,0,1,.02,1.217l-.563,6.823c.008,1.7-3.123,5.17-2.4,9.357L24,25.2a3.107,3.107,0,0,1-3.111-3.084L20.83,8.876a3.111,3.111,0,0,1,3.086-3.113L34.14,5.718A3.106,3.106,0,0,1,37.25,8.8" transform="translate(21.633 5.939)" fill="#f5c4a5"/>
          <path id="Path_887325" data-name="Path 887325" d="M21.349,15.482a3.65,3.65,0,0,1,3.614-3.645l5.72-.024a3.636,3.636,0,0,1,3.645,3.614l.027,6.558.049,24.1c.012,2-1.617,4.267-3.608,4.271l-5.718.027a3.641,3.641,0,0,1-3.647-3.614l-.055-24.782Z" transform="translate(22.172 12.269)" fill="#f5c4a5"/>
          <path id="Path_887326" data-name="Path 887326" d="M28.422,6.873c-.457,0-.826-.214-.828-.483s.365-.5.819-.5.824.212.828.485-.363.493-.819.5" transform="translate(28.657 6.118)" fill="#f3cfb8"/>
          <path id="Path_887327" data-name="Path 887327" d="M26.345,7.428c-.457,0-.826-.214-.828-.483s.363-.5.819-.5.824.212.826.481-.363.5-.817.5" transform="translate(26.5 6.696)" fill="#f3cfb8"/>
          <path id="Path_887328" data-name="Path 887328" d="M24.151,7.45c-.457,0-.826-.214-.828-.483s.363-.5.819-.5.824.214.828.483-.365.5-.819.5" transform="translate(24.222 6.717)" fill="#f3cfb8"/>
          <path id="Path_887329" data-name="Path 887329" d="M22.21,7.322c-.455,0-.824-.214-.828-.483s.365-.5.819-.5.826.214.828.485-.363.493-.819.5" transform="translate(22.206 6.584)" fill="#f3cfb8"/>
          <path id="Path_887330" data-name="Path 887330" d="M22.08,1.141h0a1.689,1.689,0,0,1,1.8,1.564l.732,10.641a1.682,1.682,0,1,1-3.355.232L20.516,2.935A1.689,1.689,0,0,1,22.08,1.141" transform="translate(21.302 1.182)" fill="#f5c4a5"/>
          <path id="Path_887331" data-name="Path 887331" d="M24.074.15h0a1.9,1.9,0,0,1,2.018,1.757l.826,11.968a1.892,1.892,0,1,1-3.775.261L22.316,2.168A1.9,1.9,0,0,1,24.074.15" transform="translate(23.172 0.152)" fill="#f5c4a5"/>
          <path id="Path_887332" data-name="Path 887332" d="M26.195,0h0a1.9,1.9,0,0,1,2.018,1.757l.826,11.968a1.892,1.892,0,0,1-3.775.261L24.437,2.022A1.9,1.9,0,0,1,26.195,0" transform="translate(25.374 0.001)" fill="#f5c4a5"/>
          <path id="Path_887333" data-name="Path 887333" d="M28.1,1.21h0a1.566,1.566,0,0,1,1.668,1.453l1.278,10.892c.061.858-1.191.612-2.049.671a1.57,1.57,0,0,1-1.668-1.453l-.683-9.893A1.572,1.572,0,0,1,28.1,1.21" transform="translate(27.667 1.253)" fill="#f5c4a5"/>
          <path id="Path_887334" data-name="Path 887334" d="M20.72,2.687h0a1.138,1.138,0,0,1,1.015-1.241l.326-.031a1.133,1.133,0,1,1,.226,2.255l-.328.035A1.137,1.137,0,0,1,20.72,2.687" transform="translate(21.512 1.464)" fill="#f2d5c2"/>
          <path id="Path_887335" data-name="Path 887335" d="M22.568,1.8h0A1.135,1.135,0,0,1,23.583.56l.324-.033a1.134,1.134,0,0,1,.226,2.257l-.326.033A1.135,1.135,0,0,1,22.568,1.8" transform="translate(23.432 0.543)" fill="#f2d5c2"/>
          <path id="Path_887336" data-name="Path 887336" d="M24.694,1.559h0A1.136,1.136,0,0,1,25.709.317l.326-.033a1.134,1.134,0,0,1,.226,2.257l-.328.033a1.135,1.135,0,0,1-1.239-1.015" transform="translate(25.64 0.291)" fill="#f2d5c2"/>
          <path id="Path_887337" data-name="Path 887337" d="M26.876,2.535h0a.9.9,0,0,1,.8-.976l.257-.027a.893.893,0,1,1,.175,1.778l-.257.024a.9.9,0,0,1-.976-.8" transform="translate(27.907 1.588)" fill="#f2d5c2"/>
          <path id="Path_887338" data-name="Path 887338" d="M21.382,17.751,34.321,16.8l.049,24.1.016,3.17A1.086,1.086,0,0,1,33.3,45.167l-2.544.008-5.716.024-2.554.008A1.081,1.081,0,0,1,21.4,44.13L21.4,41.585Z" transform="translate(22.206 17.451)" fill="#758586"/>
          <path id="Path_887339" data-name="Path 887339" d="M26.456,19.338,16.5,22.6l1.117,1.5,8.841,1.3Z" transform="translate(17.136 20.084)" fill="#dead8e"/>
          <path id="Path_887340" data-name="Path 887340" d="M35.019,37.248l-5.2.6a6.046,6.046,0,0,1-1.215.02l-6.825-.561c-1.7.008-5.17-3.123-9.357-2.4L18.621,24a3.107,3.107,0,0,1,3.084-3.111l13.242-.059a3.106,3.106,0,0,1,3.111,3.084l.047,10.223a3.109,3.109,0,0,1-3.086,3.111" transform="translate(12.899 21.633)" fill="#f5c4a5"/>
          <path id="Path_887341" data-name="Path 887341" d="M26.95,24.963a3.652,3.652,0,0,0-3.645-3.614l-6.5.024-5.628.014c-.01,4.336.406,8.656.756,12.975l4.872-.01,6.56-.024a3.639,3.639,0,0,0,3.616-3.645Z" transform="translate(11.602 22.172)" fill="#f5c4a5"/>
          <path id="Path_887342" data-name="Path 887342" d="M24.365,28.422c0-.455.212-.826.483-.828s.493.365.5.819-.212.826-.483.828-.493-.363-.5-.819" transform="translate(25.304 28.658)" fill="#f3cfb8"/>
          <path id="Path_887343" data-name="Path 887343" d="M23.81,26.344c0-.455.212-.826.481-.828s.5.365.5.819-.212.826-.483.828-.493-.365-.5-.819" transform="translate(24.727 26.5)" fill="#f3cfb8"/>
          <path id="Path_887344" data-name="Path 887344" d="M23.788,24.151c0-.455.212-.826.483-.828s.5.365.5.819-.214.826-.485.828-.493-.363-.5-.819" transform="translate(24.705 24.223)" fill="#f3cfb8"/>
          <path id="Path_887345" data-name="Path 887345" d="M23.916,22.21c0-.455.214-.826.483-.828s.5.365.5.819-.214.826-.485.828-.493-.365-.5-.819" transform="translate(24.838 22.207)" fill="#f3cfb8"/>
          <path id="Path_887346" data-name="Path 887346" d="M36.732,22.08h0a1.687,1.687,0,0,1-1.564,1.794l-10.641.734a1.683,1.683,0,0,1-.232-3.357l10.641-.734a1.689,1.689,0,0,1,1.8,1.564" transform="translate(23.605 21.303)" fill="#f5c4a5"/>
          <path id="Path_887347" data-name="Path 887347" d="M38.611,24.074h0a1.9,1.9,0,0,1-1.757,2.018l-11.968.826a1.893,1.893,0,1,1-.259-3.777l11.966-.824a1.9,1.9,0,0,1,2.018,1.757" transform="translate(23.744 23.172)" fill="#f5c4a5"/>
          <path id="Path_887348" data-name="Path 887348" d="M38.758,26.194h0A1.9,1.9,0,0,1,37,28.213l-11.968.826a1.893,1.893,0,1,1-.261-3.777l11.968-.824a1.9,1.9,0,0,1,2.018,1.757" transform="translate(23.894 25.375)" fill="#f5c4a5"/>
          <path id="Path_887349" data-name="Path 887349" d="M36.161,28.1h0a1.571,1.571,0,0,1-1.453,1.67L23.816,31.044c-.858.061-.61-1.191-.671-2.049A1.569,1.569,0,0,1,24.6,27.328l9.9-.683A1.569,1.569,0,0,1,36.161,28.1" transform="translate(24.033 27.669)" fill="#f5c4a5"/>
          <path id="Path_887350" data-name="Path 887350" d="M29.222,20.719h0a1.136,1.136,0,0,1,1.239,1.017l.033.324a1.133,1.133,0,1,1-2.255.226L28.2,21.96a1.138,1.138,0,0,1,1.017-1.241" transform="translate(29.286 21.512)" fill="#f2d5c2"/>
          <path id="Path_887351" data-name="Path 887351" d="M30.108,22.567h0a1.137,1.137,0,0,1,1.239,1.017l.033.324a1.133,1.133,0,1,1-2.255.226l-.035-.326a1.14,1.14,0,0,1,1.017-1.241" transform="translate(30.206 23.431)" fill="#f2d5c2"/>
          <path id="Path_887352" data-name="Path 887352" d="M30.349,24.694h0a1.137,1.137,0,0,1,1.241,1.015l.033.326a1.133,1.133,0,1,1-2.255.226l-.035-.326a1.137,1.137,0,0,1,1.015-1.241" transform="translate(30.458 25.64)" fill="#f2d5c2"/>
          <path id="Path_887353" data-name="Path 887353" d="M29.125,26.877h0a.9.9,0,0,1,.976.8l.024.257a.892.892,0,1,1-1.776.177l-.026-.257a.9.9,0,0,1,.8-.976" transform="translate(29.411 27.909)" fill="#f2d5c2"/>
          <path id="Path_887354" data-name="Path 887354" d="M11.928,34.329l4.874-.01-.948-12.937-4.683,0c-.008,4.328.406,8.635.756,12.945" transform="translate(11.602 22.207)" fill="#f3aa43"/>
        </g>
      </g>
    </g>
  </g>
</svg>
