<svg xmlns="http://www.w3.org/2000/svg" xmlns:xlink="http://www.w3.org/1999/xlink" width="70" height="70" viewBox="0 0 70 70">
  <defs>
    <clipPath id="clip-path">
      <rect id="Rectangle_406851" data-name="Rectangle 406851" width="40" height="40" fill="#006543"/>
    </clipPath>
  </defs>
  <g id="Group_1112267" data-name="Group 1112267" transform="translate(-268.711 -957.546)">
    <circle id="Ellipse_5614" data-name="Ellipse 5614" cx="35" cy="35" r="35" transform="translate(268.711 957.546)" fill="#fff"/>
    <g id="Group_1112273" data-name="Group 1112273" transform="translate(283.711 972.546)">
      <g id="Group_1112272" data-name="Group 1112272" clip-path="url(#clip-path)">
        <path id="Path_887213" data-name="Path 887213" d="M12.189,27.249c.37-.033.961.365.978.731l2.577,21.325a29.321,29.321,0,0,0-6.911,4.653A28.782,28.782,0,0,0,3.85,61.527l-.368-.5L0,35.319Z" transform="translate(0 -22.664)" fill="#006543"/>
        <path id="Path_887214" data-name="Path 887214" d="M41.888,163.054h3.047a1.582,1.582,0,0,1,.367.339v11.77a1.583,1.583,0,0,1-.367.339H41.888v-2.607c0-.178-.524-.32-.739-.252v2.607l-.637.261c-4.779-.3-10.079.374-14.793,0-.3-.024-1.1-.1-1.147-.422-.117-.735,3.059-5.639,3.757-6.468,1.053-1.253,6.19-5.565,7.741-5.565h4.8l.277.252v7.906l.28.251.459-.251Z" transform="translate(-20.031 -135.626)" fill="#006543"/>
        <path id="Path_887215" data-name="Path 887215" d="M132.177,68.979a27.072,27.072,0,0,1,2.938,2.959c2.137,3.776-2.77,6.17-4.987,8.6a.944.944,0,0,1-.739.166c-.9-.121-7.572-7.084-8.977-7.986a.761.761,0,0,1,0-1.028c2.719-2,5.015-6.3,9.185-4.647a13.342,13.342,0,0,1,2.579,1.94" transform="translate(-98.011 -55.454)" fill="#006543"/>
        <path id="Path_887216" data-name="Path 887216" d="M12.932,17.242l.177,1.952c-2.548,1.479-4.887,3.255-7.4,4.782-.259.158-1.338.963-1.523.641l-.822-6.561Z" transform="translate(-2.745 -14.342)" fill="#006543"/>
        <path id="Path_887217" data-name="Path 887217" d="M142.345,181.054h5.448a1.684,1.684,0,0,1,.642.761,29.539,29.539,0,0,1,.013,4.715,1.464,1.464,0,0,1-1.21,1.085h-4.617l-.277-.252Z" transform="translate(-116.056 -150.598)" fill="#006543"/>
        <path id="Path_887218" data-name="Path 887218" d="M12.019,2.023l-9.305.994C1.9,2.365,3.06.831,3.888.589A41.015,41.015,0,0,1,10.445.019a1.883,1.883,0,0,1,1.574,2" transform="translate(-1.988 0)" fill="#006543"/>
        <path id="Path_887219" data-name="Path 887219" d="M185.749,196.054h4.986a.821.821,0,0,1-.136,1.39c-.682.29-4.851.311-5.225-.381-.25-.428,0-.75.374-1.01" transform="translate(-151.057 -163.075)" fill="#006543"/>
        <path id="Path_887220" data-name="Path 887220" d="M185.628,178.987c-.43-.388-.162-.979.257-1.281.624-.449,3.734-1.918,4.227-1.033.318.628-.219.911-.708,1.211-.645.395-3.17,1.65-3.776,1.1" transform="translate(-151.168 -146.723)" fill="#006543"/>
        <path id="Path_887221" data-name="Path 887221" d="M189.918,208.653c.617.58.127,1.462-.922,1.272a36.179,36.179,0,0,1-3.327-1.473c-.692-.559-.182-1.493.835-1.327.192.031,3.282,1.4,3.414,1.528" transform="translate(-151.12 -172.268)" fill="#006543"/>
      </g>
    </g>
  </g>
</svg>
