<svg xmlns="http://www.w3.org/2000/svg" xmlns:xlink="http://www.w3.org/1999/xlink" width="72.996" height="73" viewBox="0 0 72.996 73">
  <defs>
    <clipPath id="clip-path">
      <rect id="Rectangle_403416" data-name="Rectangle 403416" width="71.683" height="58.902" fill="#59c4c8"/>
    </clipPath>
    <clipPath id="clip-path-2">
      <path id="Path_875268" data-name="Path 875268" d="M1.1,22.912,0,23.293v7.9a5.187,5.187,0,0,0,2.421,4.17L29.988,55.009a10.8,10.8,0,0,0,11.707,0L69.263,35.37a5.21,5.21,0,0,0,2.42-4.1c0-.066,0-.132,0-.2h0V23.367l-1.728-1.185C69.468,25.819,66,28.217,63.1,28.715L43.345,42.969l-8.621,3.841L7.207,29.288l.636-.453c-2.351-1.356-3.618-4.456-4.89-7.285Z" transform="translate(0 -21.549)" fill="#61dfe4"/>
    </clipPath>
    <clipPath id="clip-path-3">
      <rect id="Rectangle_403409" data-name="Rectangle 403409" width="71.683" height="58.902" fill="none"/>
    </clipPath>
    <clipPath id="clip-path-4">
      <rect id="Rectangle_403408" data-name="Rectangle 403408" width="35.842" height="34.45" fill="none"/>
    </clipPath>
    <clipPath id="clip-path-5">
      <path id="Path_875270" data-name="Path 875270" d="M26.3,6.628,3.311,23.549c1.272,2.829,2.539,5.929,4.89,7.285L34.324,12.221a3.459,3.459,0,0,1,3.749,0L63.74,30.508l-.285.207c2.9-.5,6.37-2.9,6.858-6.533L41.508,4.411,33.126,1.678Z" transform="translate(-3.311 -1.678)" fill="#61dfe4"/>
    </clipPath>
    <clipPath id="clip-path-7">
      <rect id="Rectangle_403411" data-name="Rectangle 403411" width="32.888" height="29.156" fill="none"/>
    </clipPath>
    <clipPath id="clip-path-8">
      <path id="Path_875272" data-name="Path 875272" d="M33.967,46.513,6.4,26.872a1.539,1.539,0,0,1,0-2.672L33.966,4.56a3.457,3.457,0,0,1,3.749,0L65.283,24.2a1.538,1.538,0,0,1,0,2.671L37.716,46.512a3.458,3.458,0,0,1-3.749,0M35.736,0a10.166,10.166,0,0,0-5.749,1.725L2.421,21.365c-3.227,2.3-3.227,6.041,0,8.341L29.989,49.347a10.793,10.793,0,0,0,11.707,0L69.263,29.706c3.227-2.3,3.227-6.041,0-8.341L41.695,1.725A10.166,10.166,0,0,0,35.946,0Z" transform="translate(-0.001)" fill="#98baff"/>
    </clipPath>
    <clipPath id="clip-path-10">
      <path id="Path_875275" data-name="Path 875275" d="M33.322,46.995,5.755,27.355a2.178,2.178,0,0,1,0-3.782L33.321,3.934a4.894,4.894,0,0,1,5.307,0L66.195,23.574a2.177,2.177,0,0,1,0,3.781L38.628,46.995a4.894,4.894,0,0,1-5.306,0M30.9,2.208,3.333,21.847c-2.8,1.994-2.8,5.239,0,7.232L30.9,48.722a9.367,9.367,0,0,0,10.151,0L68.617,29.08c2.8-1.992,2.8-5.237,0-7.231L41.049,2.208a9.359,9.359,0,0,0-10.151,0" transform="translate(-1.234 -0.712)" fill="#98baff"/>
    </clipPath>
    <clipPath id="clip-path-11">
      <rect id="Rectangle_403518" data-name="Rectangle 403518" width="60.873" height="61.12" fill="#fff"/>
    </clipPath>
    <clipPath id="clip-path-12">
      <rect id="Rectangle_403232" data-name="Rectangle 403232" width="72.996" height="50.71" fill="#61dfe4"/>
    </clipPath>
    <clipPath id="clip-path-13">
      <rect id="Rectangle_406757" data-name="Rectangle 406757" width="38.253" height="38.356" fill="#0c2d70"/>
    </clipPath>
  </defs>
  <g id="Group_1113363" data-name="Group 1113363" transform="translate(-207.499 -4641.5)">
    <g id="Group_1113225" data-name="Group 1113225">
      <g id="Group_1108968" data-name="Group 1108968" transform="translate(208.254 4641.5)">
        <g id="Group_1100744" data-name="Group 1100744" transform="translate(0.004 14.098)">
          <g id="Group_1100514" data-name="Group 1100514" clip-path="url(#clip-path)">
            <g id="Group_1100495" data-name="Group 1100495" transform="translate(0 23.717)">
              <g id="Group_1100494" data-name="Group 1100494" clip-path="url(#clip-path-2)">
                <path id="Path_875399" data-name="Path 875399" d="M0,0,71.633-6.175l-7.76,81.049L-7.76,81.049Z" transform="translate(-12.548 26.819) rotate(-60)" fill="#61dfe4"/>
              </g>
            </g>
            <g id="Group_1100500" data-name="Group 1100500" transform="translate(0 0)">
              <g id="Group_1100499" data-name="Group 1100499" clip-path="url(#clip-path-3)">
                <g id="Group_1100498" data-name="Group 1100498" transform="translate(35.841 24.452)" opacity="0.3">
                  <g id="Group_1100497" data-name="Group 1100497">
                    <g id="Group_1100496" data-name="Group 1100496" clip-path="url(#clip-path-4)">
                      <path id="Path_875269" data-name="Path 875269" d="M67.442,28.647,47.689,42.9l-7.5,3.344V56.667a10.2,10.2,0,0,0,5.854-1.725L73.606,35.3a5.208,5.208,0,0,0,2.42-4.1c0-.066,0-.133,0-.2l0,0V23.3l-1.58-1.084h-.165c-.539,3.58-3.968,5.937-6.841,6.431" transform="translate(-40.185 -22.217)" fill="#0f054c"/>
                    </g>
                  </g>
                </g>
              </g>
            </g>
            <g id="Group_1100502" data-name="Group 1100502" transform="translate(2.953 1.847)">
              <g id="Group_1100501" data-name="Group 1100501" clip-path="url(#clip-path-5)">
                <path id="Path_875400" data-name="Path 875400" d="M0,0,63.434-5.469,56.357,68.457-7.078,73.925Z" transform="matrix(0.5, -0.866, 0.866, 0.5, -10.231, 21.867)" fill="#61dfe4"/>
              </g>
            </g>
            <g id="Group_1100507" data-name="Group 1100507" transform="translate(0 0)">
              <g id="Group_1100506" data-name="Group 1100506" clip-path="url(#clip-path-3)">
                <g id="Group_1100505" data-name="Group 1100505" transform="translate(2.953 1.847)" opacity="0.3">
                  <g id="Group_1100504" data-name="Group 1100504">
                    <g id="Group_1100503" data-name="Group 1100503" clip-path="url(#clip-path-7)">
                      <path id="Path_875271" data-name="Path 875271" d="M36.2,2.68l-3.073-1L26.3,6.628,3.311,23.548c1.272,2.829,2.538,5.93,4.89,7.286L34.324,12.221A3.27,3.27,0,0,1,36.2,11.67Z" transform="translate(-3.311 -1.678)" fill="#0f054c"/>
                    </g>
                  </g>
                </g>
              </g>
            </g>
            <g id="Group_1100509" data-name="Group 1100509" transform="translate(0)">
              <g id="Group_1100508" data-name="Group 1100508" clip-path="url(#clip-path-8)">
                <rect id="Rectangle_403413" data-name="Rectangle 403413" width="73.296" height="51.647" transform="translate(-0.807 0)" fill="#98baff"/>
              </g>
            </g>
            <g id="Group_1100511" data-name="Group 1100511" transform="translate(0 0)">
              <g id="Group_1100510" data-name="Group 1100510" clip-path="url(#clip-path-3)">
                <path id="Path_875273" data-name="Path 875273" d="M65.965,23.834,38.4,4.193a3.457,3.457,0,0,0-3.749,0L7.082,23.833A1.547,1.547,0,0,0,6.4,25.649a1.843,1.843,0,0,1,.686-.855L34.649,5.153a3.457,3.457,0,0,1,3.749,0L65.965,24.794a1.846,1.846,0,0,1,.686.856,1.546,1.546,0,0,0-.686-1.816" transform="translate(-0.682 0.367)" fill="#fff"/>
                <path id="Path_875274" data-name="Path 875274" d="M69.263,27.329,41.7,46.968a10.793,10.793,0,0,1-11.707,0L2.422,27.327A5.344,5.344,0,0,1,.03,23.637a5.047,5.047,0,0,0,2.392,4.651L29.989,47.929a10.8,10.8,0,0,0,11.707,0L69.263,28.288a5.045,5.045,0,0,0,2.391-4.65,5.344,5.344,0,0,1-2.391,3.69" transform="translate(0 2.379)" fill="#fff"/>
              </g>
            </g>
            <g id="Group_1100513" data-name="Group 1100513" transform="translate(1.1 0.784)">
              <g id="Group_1100512" data-name="Group 1100512" clip-path="url(#clip-path-10)">
                <rect id="Rectangle_403415" data-name="Rectangle 403415" width="70.881" height="50.002" transform="translate(-0.7 0)" fill="#98baff"/>
              </g>
            </g>
          </g>
        </g>
        <g id="Group_1100749" data-name="Group 1100749" transform="translate(5.307)">
          <g id="Group_1100748" data-name="Group 1100748" clip-path="url(#clip-path-11)">
            <path id="Path_875398" data-name="Path 875398" d="M6.247,0H54.48A6.338,6.338,0,0,1,60.8,6.356l.14,34.756-26.7,18.94a7.554,7.554,0,0,1-7.744,0L-.145,41.219-.072,6.356A6.338,6.338,0,0,1,6.247,0" transform="translate(0.074 0)" fill="#fff"/>
          </g>
        </g>
        <g id="Group_1100745" data-name="Group 1100745" transform="translate(-0.755 6.578)">
          <g id="Group_1100096" data-name="Group 1100096" transform="translate(0 0)" clip-path="url(#clip-path-12)">
            <path id="Path_873771" data-name="Path 873771" d="M36.5,50.711a9.642,9.642,0,0,1-5.42-1.551L2.316,29.276A4.816,4.816,0,0,1,0,25.354a4.813,4.813,0,0,1,2.316-3.921L31.077,1.55a10.26,10.26,0,0,1,10.843,0L70.681,21.434A4.813,4.813,0,0,1,73,25.355a4.816,4.816,0,0,1-2.316,3.922L41.92,49.16A9.645,9.645,0,0,1,36.5,50.711M36.5.595a9.2,9.2,0,0,0-5.169,1.477L2.568,21.955A4.223,4.223,0,0,0,.5,25.354a4.22,4.22,0,0,0,2.064,3.4L31.331,48.638a9.785,9.785,0,0,0,10.337,0L70.429,28.755a4.22,4.22,0,0,0,2.064-3.4,4.22,4.22,0,0,0-2.064-3.4L41.667,2.072A9.2,9.2,0,0,0,36.5.595" transform="translate(0 -0.001)" fill="#61dfe4"/>
          </g>
        </g>
        <rect id="Rectangle_403516" data-name="Rectangle 403516" width="60.873" height="30.446" transform="translate(5.307 4.578)" fill="#fff"/>
      </g>
      <g id="Group_1108972" data-name="Group 1108972" transform="translate(225.166 4646.746)">
        <g id="Group_1099618" data-name="Group 1099618" transform="translate(0 0)">
          <rect id="Rectangle_401104" data-name="Rectangle 401104" width="37.658" height="38.112" transform="translate(0)" fill="none"/>
        </g>
        <g id="Grupo_156261" data-name="Grupo 156261" transform="translate(1.326 -1.071)">
          <rect id="Rectángulo_47312" data-name="Rectángulo 47312" width="5.382" height="2.691" transform="translate(3.519 12.722)" fill="#0c2d70"/>
          <path id="Trazado_198297" data-name="Trazado 198297" d="M10.008,59.838h5.379L12.7,63.2Z" transform="translate(-6.488 -39.711)" fill="#0c2d70"/>
          <g id="Group_1111999" data-name="Group 1111999" transform="translate(-1.748 0.948)">
            <g id="Group_1111998" data-name="Group 1111998" clip-path="url(#clip-path-13)">
              <path id="Path_886676" data-name="Path 886676" d="M133.244,138.405a2.018,2.018,0,0,1-.331.327,34.828,34.828,0,0,1-4.22.057c-.549-.059-.561-.185-.605-.708-.311-3.682.246-7.791,0-11.519.1-.779.832-.589,1.43-.6a8.426,8.426,0,0,1,3.893-10.082c.275-.747-.419-2.822.651-2.967a34.031,34.031,0,0,1,3.6.024c.484.163.226,1.515.3,1.949.39.082.819.075,1.2.165.624.145,1.543.634,2.029.711,1.42.225,3.319-.173,4.793.03.689.2.328,1.183.023,1.183H142.89c.1.183.323.249.5.436a8.512,8.512,0,0,1,1.884,8.356c-.2.614-.579,1.142-.722,1.762a16.29,16.29,0,0,0,1.523,1.561c.317.131.721-.283,1.476.271a43.018,43.018,0,0,1,4.389,4.27,1.3,1.3,0,0,1-.077,1.685,16.767,16.767,0,0,1-1.8,1.813,1.548,1.548,0,0,1-1.8-.368c-1.38-1.088-2.612-2.851-4.054-3.948-.494-.422-.2-1.164-.386-1.587-.166-.369-1.278-1-1.532-1.424L140.5,130.97c-.188,2.26.189,4.774-.012,7-.041.45-.116.757-.6.822a28.441,28.441,0,0,1-4.235-.053.331.331,0,0,1-.218-.134l-.115-7.312-2.069-.836Zm3.507-24.278h-2.083v1.206l2.076-.444Zm-.353,2a7.211,7.211,0,0,0-5.837,5.014,7.106,7.106,0,0,0,10.429,8.127c6.527-3.778,3.233-14.025-4.592-13.141m-7.1,11.04v10.413h2.74v-8.056c-.337-.378-.772-.712-1.093-1.1-.2-.243-.726-1.2-.788-1.239-.146-.091-.645.024-.86-.018m14.413,1.317-.372.585,1.358,1.384.485-.586Zm2.975,1.76-1.6,1.676,4.1,4.022.314.093,1.491-1.674Zm-7.413,7.336v-6.357c-.2.031-.68.219-.822.219h-1.918v6.138Z" transform="translate(-113.962 -100.508)" fill="#0c2d70"/>
              <path id="Path_886677" data-name="Path 886677" d="M7.532.243A8.42,8.42,0,1,1,2.076,14.182,8.428,8.428,0,0,1,7.532.243m.241,1.173a7.227,7.227,0,1,0,2.679,14.133c.174-.051,1.027-.348,1.036-.485L7.773,8.705Zm7.782,6.576A7.2,7.2,0,0,0,8.979,1.416V7.993Zm0,1.206H9.527l3.017,5.264A6.691,6.691,0,0,0,15.555,9.2" transform="translate(0 -0.182)" fill="#0c2d70"/>
              <path id="Path_886678" data-name="Path 886678" d="M67.889,182.134,68,199.9a.705.705,0,0,1-.244.3c-.585.349-3.608-.031-4.477.08l-.413-.574.054-17.388a.334.334,0,0,1,.134-.218,28.973,28.973,0,0,1,4.261-.105,1.06,1.06,0,0,1,.572.14m-1.07,1.07h-2.74V199.1h2.74Z" transform="translate(-55.976 -162.021)" fill="#0c2d70"/>
              <path id="Path_886679" data-name="Path 886679" d="M5.124,228.424a1.06,1.06,0,0,1-.572.14,26.74,26.74,0,0,1-3.847,0,.655.655,0,0,1-.574-.412l.078-14.208a.331.331,0,0,1,.218-.134,28.918,28.918,0,0,1,4.345-.054c.259.031.35.063.438.329Zm-1.07-13.565H1.313v12.5h2.74Z" transform="translate(-0.117 -190.278)" fill="#0c2d70"/>
              <path id="Path_886680" data-name="Path 886680" d="M177.942.051a24.41,24.41,0,0,1,3.646.034.656.656,0,0,1,.337.54,26.866,26.866,0,0,1-.063,3.565.655.655,0,0,1-.54.337,21.123,21.123,0,0,1-3.186,0c-.485-.056-.657-.231-.712-.712a20.138,20.138,0,0,1,0-3.073c.041-.35.15-.6.519-.687m2.771,1.182h-2.083V3.316h2.083Z" transform="translate(-157.924 0.001)" fill="#0c2d70"/>
              <path id="Path_886681" data-name="Path 886681" d="M181.9,60.249a1.062,1.062,0,0,1-.572.14,21.8,21.8,0,0,1-3.189,0,.575.575,0,0,1-.548-.439,20.069,20.069,0,0,1-.051-3.35c.064-.554.294-.656.824-.71a18.616,18.616,0,0,1,3.238.049.575.575,0,0,1,.439.548,21.82,21.82,0,0,1,0,3.189,1.063,1.063,0,0,1-.14.572m-1.07-3.153h-2.083v2.083h2.083Z" transform="translate(-158.042 -49.724)" fill="#0c2d70"/>
              <path id="Path_886682" data-name="Path 886682" d="M233.1,116.262l11.6-.026c.884.019.989,1.1.113,1.214l-11.516,0c-.787-.012-.815-.863-.194-1.184" transform="translate(-207.167 -103.496)" fill="#0c2d70"/>
              <path id="Path_886683" data-name="Path 886683" d="M233.115,60.237l11.709-.03c.891.114.715,1.2-.113,1.213l-11.407,0c-.661-.039-.9-1.032-.189-1.187" transform="translate(-207.178 -53.608)" fill="#0c2d70"/>
              <path id="Path_886684" data-name="Path 886684" d="M233.189,4.258h12.166a.692.692,0,0,1,0,1.1H233.189c-.3,0-.426-.947,0-1.1" transform="translate(-207.385 -3.791)" fill="#0c2d70"/>
              <path id="Path_886685" data-name="Path 886685" d="M233.011,83.258h6.357c.262,0,.7,1.1-.543,1.211a38.615,38.615,0,0,1-5.572-.029.646.646,0,0,1-.243-1.182" transform="translate(-207.207 -74.132)" fill="#0c2d70"/>
              <path id="Path_886686" data-name="Path 886686" d="M232.912,26.692c-.475-.133-.479-1.118.543-1.211a35.351,35.351,0,0,1,5.46.031c.992.176.607,1.18.355,1.18Z" transform="translate(-207.109 -22.608)" fill="#0c2d70"/>
              <path id="Path_886687" data-name="Path 886687" d="M163.077,150.175c8.46-.906,9.322,11.674,1.391,12.352-8.274.707-9.211-11.514-1.391-12.352m4.847,8.846c1.419-1.589,1.068-4.285-.223-5.861-3.936-4.807-11.445.618-8.054,5.859a5.384,5.384,0,0,1,2.245-2.363,2.592,2.592,0,1,1,3.841.009,4.409,4.409,0,0,1,2.191,2.355m-4.416-5.455a1.379,1.379,0,0,0,.606,2.689,1.379,1.379,0,0,0-.606-2.689m-.215,3.949a3.625,3.625,0,0,0-2.214,1.4c-.4.58-.685,1.121-.054,1.575a5.144,5.144,0,0,0,4.891.411c1.07-.482,1.4-.723.782-1.81a3.388,3.388,0,0,0-3.405-1.58" transform="translate(-140.419 -133.673)" fill="#0c2d70"/>
            </g>
          </g>
        </g>
      </g>
    </g>
  </g>
</svg>
