<svg xmlns="http://www.w3.org/2000/svg" xmlns:xlink="http://www.w3.org/1999/xlink" width="122" height="122" viewBox="0 0 122 122">
  <defs>
    <clipPath id="clip-path">
      <rect id="Rectangle_400938" data-name="Rectangle 400938" width="122" height="122" fill="#2bc897"/>
    </clipPath>
    <clipPath id="clip-path-2">
      <path id="Path_873460" data-name="Path 873460" d="M0,1.307A1.349,1.349,0,0,0,1.389,2.613,1.349,1.349,0,0,0,2.778,1.307,1.349,1.349,0,0,0,1.389,0,1.349,1.349,0,0,0,0,1.307" transform="translate(0)" fill="#005865"/>
    </clipPath>
    <clipPath id="clip-path-3">
      <path id="Path_873466" data-name="Path 873466" d="M0,1.307A1.349,1.349,0,0,0,1.39,2.613,1.349,1.349,0,0,0,2.778,1.307,1.349,1.349,0,0,0,1.39,0,1.349,1.349,0,0,0,0,1.307" fill="#005865"/>
    </clipPath>
    <clipPath id="clip-path-4">
      <path id="Path_873467" data-name="Path 873467" d="M0,1.306A1.349,1.349,0,0,0,1.389,2.612,1.349,1.349,0,0,0,2.778,1.306,1.349,1.349,0,0,0,1.389,0,1.349,1.349,0,0,0,0,1.306" transform="translate(0 0)" fill="#005865"/>
    </clipPath>
    <clipPath id="clip-path-5">
      <path id="Path_873468" data-name="Path 873468" d="M0,1.306A1.349,1.349,0,0,0,1.39,2.612,1.349,1.349,0,0,0,2.778,1.306,1.349,1.349,0,0,0,1.39,0,1.349,1.349,0,0,0,0,1.306" transform="translate(0 0)" fill="#005865"/>
    </clipPath>
    <clipPath id="clip-path-6">
      <path id="Path_873469" data-name="Path 873469" d="M0,1.306A1.349,1.349,0,0,0,1.389,2.612,1.349,1.349,0,0,0,2.777,1.306,1.349,1.349,0,0,0,1.389,0,1.349,1.349,0,0,0,0,1.306" transform="translate(0 0)" fill="#005865"/>
    </clipPath>
    <clipPath id="clip-path-9">
      <path id="Path_873473" data-name="Path 873473" d="M0,1.306A1.349,1.349,0,0,0,1.39,2.612,1.348,1.348,0,0,0,2.778,1.306,1.349,1.349,0,0,0,1.39,0,1.349,1.349,0,0,0,0,1.306" transform="translate(0 0)" fill="#005865"/>
    </clipPath>
    <clipPath id="clip-path-22">
      <rect id="Rectangle_401492" data-name="Rectangle 401492" width="54.022" height="54.022" transform="translate(-0.73 -0.516)" fill="#fff" stroke="#707070" stroke-width="1"/>
    </clipPath>
    <clipPath id="clip-path-23">
      <rect id="Rectangle_406441" data-name="Rectangle 406441" width="41.308" height="51.25" fill="#fff"/>
    </clipPath>
  </defs>
  <g id="Group_1111813" data-name="Group 1111813" transform="translate(23057.926 3814.948)">
    <g id="Group_1100237" data-name="Group 1100237" transform="translate(-23054.037 -3797.84)">
      <g id="Group_1099505" data-name="Group 1099505" transform="translate(1.808 8.418)">
        <g id="Group_1099504" data-name="Group 1099504" transform="translate(0)" clip-path="url(#clip-path-2)">
          <rect id="Rectangle_401140" data-name="Rectangle 401140" width="2.777" height="2.613" transform="translate(0)" fill="#005865"/>
        </g>
      </g>
      <g id="Group_1099517" data-name="Group 1099517" transform="translate(37.056 8.418)">
        <g id="Group_1099516" data-name="Group 1099516" transform="translate(0)" clip-path="url(#clip-path-3)">
          <rect id="Rectangle_401146" data-name="Rectangle 401146" width="2.778" height="2.613" transform="translate(0 0)" fill="#005865"/>
        </g>
      </g>
      <g id="Group_1099519" data-name="Group 1099519" transform="translate(30.194 8.418)">
        <g id="Group_1099518" data-name="Group 1099518" transform="translate(0 0)" clip-path="url(#clip-path-4)">
          <rect id="Rectangle_401147" data-name="Rectangle 401147" width="2.778" height="2.612" transform="translate(0 0)" fill="#005865"/>
        </g>
      </g>
      <g id="Group_1099521" data-name="Group 1099521" transform="translate(23.332 8.418)">
        <g id="Group_1099520" data-name="Group 1099520" transform="translate(0 0)" clip-path="url(#clip-path-5)">
          <rect id="Rectangle_401148" data-name="Rectangle 401148" width="2.778" height="2.612" transform="translate(0 0)" fill="#005865"/>
        </g>
      </g>
      <g id="Group_1099523" data-name="Group 1099523" transform="translate(16.47 8.418)">
        <g id="Group_1099522" data-name="Group 1099522" transform="translate(0 0)" clip-path="url(#clip-path-6)">
          <rect id="Rectangle_401149" data-name="Rectangle 401149" width="2.777" height="2.612" transform="translate(0 0)" fill="#005865"/>
        </g>
      </g>
      <g id="Group_1099525" data-name="Group 1099525" transform="translate(34.311 0)">
        <g id="Group_1099524" data-name="Group 1099524" clip-path="url(#clip-path-4)">
          <rect id="Rectangle_401150" data-name="Rectangle 401150" width="2.778" height="2.612" transform="translate(0 0)" fill="#005865"/>
        </g>
      </g>
      <g id="Group_1099529" data-name="Group 1099529" transform="translate(27.448 0)">
        <g id="Group_1099528" data-name="Group 1099528" transform="translate(0)" clip-path="url(#clip-path-5)">
          <rect id="Rectangle_401152" data-name="Rectangle 401152" width="2.778" height="2.612" transform="translate(0 0)" fill="#005865"/>
        </g>
      </g>
      <g id="Group_1099531" data-name="Group 1099531" transform="translate(13.724 0)">
        <g id="Group_1099530" data-name="Group 1099530" transform="translate(0)" clip-path="url(#clip-path-9)">
          <rect id="Rectangle_401153" data-name="Rectangle 401153" width="2.777" height="2.612" transform="translate(0 0)" fill="#005865"/>
        </g>
      </g>
      <g id="Group_1099533" data-name="Group 1099533" transform="translate(6.862 0)">
        <g id="Group_1099532" data-name="Group 1099532" clip-path="url(#clip-path-4)">
          <rect id="Rectangle_401154" data-name="Rectangle 401154" width="2.778" height="2.612" transform="translate(0 0)" fill="#005865"/>
        </g>
      </g>
      <g id="Group_1099535" data-name="Group 1099535" transform="translate(0 0)">
        <g id="Group_1099534" data-name="Group 1099534" transform="translate(0)" clip-path="url(#clip-path-5)">
          <rect id="Rectangle_401155" data-name="Rectangle 401155" width="2.778" height="2.612" transform="translate(0 0)" fill="#005865"/>
        </g>
      </g>
    </g>
    <g id="Group_1100238" data-name="Group 1100238" transform="translate(-22980.445 -3724.661)">
      <g id="Group_1099505-2" data-name="Group 1099505" transform="translate(1.808 8.418)">
        <g id="Group_1099504-2" data-name="Group 1099504" transform="translate(0)" clip-path="url(#clip-path-2)">
          <rect id="Rectangle_401140-2" data-name="Rectangle 401140" width="2.777" height="2.613" transform="translate(0)" fill="#005865"/>
        </g>
      </g>
      <g id="Group_1099517-2" data-name="Group 1099517" transform="translate(37.056 8.418)">
        <g id="Group_1099516-2" data-name="Group 1099516" transform="translate(0)" clip-path="url(#clip-path-3)">
          <rect id="Rectangle_401146-2" data-name="Rectangle 401146" width="2.778" height="2.613" transform="translate(0 0)" fill="#005865"/>
        </g>
      </g>
      <g id="Group_1099519-2" data-name="Group 1099519" transform="translate(30.194 8.418)">
        <g id="Group_1099518-2" data-name="Group 1099518" transform="translate(0 0)" clip-path="url(#clip-path-4)">
          <rect id="Rectangle_401147-2" data-name="Rectangle 401147" width="2.778" height="2.612" transform="translate(0 0)" fill="#005865"/>
        </g>
      </g>
      <g id="Group_1099521-2" data-name="Group 1099521" transform="translate(23.332 8.418)">
        <g id="Group_1099520-2" data-name="Group 1099520" transform="translate(0 0)" clip-path="url(#clip-path-5)">
          <rect id="Rectangle_401148-2" data-name="Rectangle 401148" width="2.778" height="2.612" transform="translate(0 0)" fill="#005865"/>
        </g>
      </g>
      <g id="Group_1099523-2" data-name="Group 1099523" transform="translate(16.47 8.418)">
        <g id="Group_1099522-2" data-name="Group 1099522" transform="translate(0 0)" clip-path="url(#clip-path-6)">
          <rect id="Rectangle_401149-2" data-name="Rectangle 401149" width="2.777" height="2.612" transform="translate(0 0)" fill="#005865"/>
        </g>
      </g>
      <g id="Group_1099525-2" data-name="Group 1099525" transform="translate(34.311 0)">
        <g id="Group_1099524-2" data-name="Group 1099524" clip-path="url(#clip-path-4)">
          <rect id="Rectangle_401150-2" data-name="Rectangle 401150" width="2.778" height="2.612" transform="translate(0 0)" fill="#005865"/>
        </g>
      </g>
      <g id="Group_1099529-2" data-name="Group 1099529" transform="translate(27.448 0)">
        <g id="Group_1099528-2" data-name="Group 1099528" transform="translate(0)" clip-path="url(#clip-path-5)">
          <rect id="Rectangle_401152-2" data-name="Rectangle 401152" width="2.778" height="2.612" transform="translate(0 0)" fill="#005865"/>
        </g>
      </g>
      <g id="Group_1099531-2" data-name="Group 1099531" transform="translate(13.724 0)">
        <g id="Group_1099530-2" data-name="Group 1099530" transform="translate(0)" clip-path="url(#clip-path-9)">
          <rect id="Rectangle_401153-2" data-name="Rectangle 401153" width="2.777" height="2.612" transform="translate(0 0)" fill="#005865"/>
        </g>
      </g>
      <g id="Group_1099533-2" data-name="Group 1099533" transform="translate(6.862 0)">
        <g id="Group_1099532-2" data-name="Group 1099532" clip-path="url(#clip-path-4)">
          <rect id="Rectangle_401154-2" data-name="Rectangle 401154" width="2.778" height="2.612" transform="translate(0 0)" fill="#005865"/>
        </g>
      </g>
      <g id="Group_1099535-2" data-name="Group 1099535" transform="translate(0 0)">
        <g id="Group_1099534-2" data-name="Group 1099534" transform="translate(0)" clip-path="url(#clip-path-5)">
          <rect id="Rectangle_401155-2" data-name="Rectangle 401155" width="2.778" height="2.612" transform="translate(0 0)" fill="#005865"/>
        </g>
      </g>
    </g>
    <path id="Union_17" data-name="Union 17" d="M-4150.107,4311.383l-33.056-32.927a18.528,18.528,0,0,1,0-26.2l33.054-32.926a18.7,18.7,0,0,1,26.3,0l33.056,32.928a18.528,18.528,0,0,1,0,26.2l-33.056,32.927a18.576,18.576,0,0,1-13.15,5.4A18.575,18.575,0,0,1-4150.107,4311.383Z" transform="translate(-18858.305 -8017.512)" fill="#41cee2" stroke="rgba(0,0,0,0)" stroke-miterlimit="10" stroke-width="1"/>
    <circle id="Ellipse_11579" data-name="Ellipse 11579" cx="39.5" cy="39.5" r="39.5" transform="translate(-23034.504 -3791.418)" fill="#005865"/>
    <g id="Mask_Group_1098697" data-name="Mask Group 1098697" transform="translate(-23022.008 -3778.646)" clip-path="url(#clip-path-22)">
      <g id="Group_1111816" data-name="Group 1111816" transform="translate(5.269 0.484)">
        <g id="Group_1111815" data-name="Group 1111815" clip-path="url(#clip-path-23)">
          <path id="Path_886480" data-name="Path 886480" d="M26.784,32.086a4.773,4.773,0,0,0,4.766-4.877c0-2.067-1.673-3.968-3.345-5.869-.251-.331-.5-.579-.752-.909A1.067,1.067,0,0,0,26.7,20.1a.912.912,0,0,0-.752.331c-.083.165-.251.248-.335.413-1.672,1.9-3.763,4.216-3.763,6.365a4.915,4.915,0,0,0,4.934,4.877M26.7,22.663c1.338,1.571,2.843,3.306,2.927,4.546a2.843,2.843,0,0,1-5.686,0c0-1.24,1.505-3.058,2.759-4.546" transform="translate(-3.789 -3.485)" fill="#fff"/>
          <path id="Path_886481" data-name="Path 886481" d="M39.8,36.123a5.442,5.442,0,0,0-3.679-1.488,5.269,5.269,0,0,0-5.268,5.208v1.819a3.292,3.292,0,0,1-1,2.4,3.37,3.37,0,0,1-2.425.992A3.423,3.423,0,0,1,24,41.661V36.626a3.687,3.687,0,0,0,2.615-2.9h2.569a4.791,4.791,0,0,0,4.766-4.712V14.309a1.222,1.222,0,0,0,.083-.256,1.023,1.023,0,0,0-.083-.4V8.927a4.791,4.791,0,0,0-4.766-4.712H25.96a2.974,2.974,0,0,0,.213-1.075,3.178,3.178,0,0,0-6.355,0,3.094,3.094,0,0,0,.2,1.075h-3.3a4.791,4.791,0,0,0-4.766,4.712v.909H9.951V2.728A1.1,1.1,0,0,0,8.864,1.653H5.77A1.1,1.1,0,0,0,4.683,2.728V45.133H2.592a2.608,2.608,0,0,0-1.839.744A2.546,2.546,0,0,0,0,47.7a2.59,2.59,0,0,0,2.592,2.563h9.951a3.027,3.027,0,0,0,1.839-.744,2.549,2.549,0,0,0,.752-1.819,2.59,2.59,0,0,0-2.591-2.562H9.951V26.452h2.007V29.1a4.791,4.791,0,0,0,4.766,4.712h2.661a3.694,3.694,0,0,0,2.439,2.765v5.088a5.483,5.483,0,0,0,5.519,5.456,5.547,5.547,0,0,0,3.846-1.571,5.276,5.276,0,0,0,1.589-3.8V39.925a3.158,3.158,0,0,1,3.178-3.141,3.249,3.249,0,0,1,2.257.909,3.328,3.328,0,0,1,.92,2.232v10.25a1.1,1.1,0,0,0,1.087,1.075,1.12,1.12,0,0,0,1.088-1.157V39.76A5.1,5.1,0,0,0,39.8,36.123m-17.9-32.9a1.087,1.087,0,0,1,2.175,0,1.1,1.1,0,0,1-.683.992h-.809a1.1,1.1,0,0,1-.683-.992M16.724,6.282H29.183a2.626,2.626,0,0,1,2.676,2.645v4.05H14.048V11.311a1,1,0,0,0,0-.8V8.927a2.626,2.626,0,0,1,2.676-2.645M13.045,47.613a.428.428,0,0,1-.167.331.438.438,0,0,1-.335.165H2.592a.536.536,0,0,1-.5-.5.428.428,0,0,1,.167-.331.437.437,0,0,1,.335-.165H5.251A.8.8,0,0,0,5.6,47.2a1.042,1.042,0,0,0,.4-.083h6.536a.537.537,0,0,1,.5.5M6.69,3.72H7.777V45.133H6.69Zm3.261,8.266h2.007V24.3H9.951Zm4.1,17.028V25.777a1,1,0,0,0,0-.8V15.127h17.81v13.8a2.626,2.626,0,0,1-2.676,2.645H20.4a1.058,1.058,0,0,0-.4.083H16.724a2.626,2.626,0,0,1-2.676-2.645m7.442,4.712H24.5a1.616,1.616,0,0,1-1.133,1.017,1.021,1.021,0,0,0-.851-.028,1.841,1.841,0,0,1-1.027-.989" transform="translate(0)" fill="#fff"/>
        </g>
      </g>
    </g>
  </g>
</svg>
