<svg xmlns="http://www.w3.org/2000/svg" xmlns:xlink="http://www.w3.org/1999/xlink" width="158.949" height="159.181" viewBox="0 0 158.949 159.181">
  <defs>
    <clipPath id="clip-path">
      <rect id="Rectangle_400938" data-name="Rectangle 400938" width="152.656" height="152.656" fill="none"/>
    </clipPath>
    <clipPath id="clip-path-2">
      <path id="Path_873460" data-name="Path 873460" d="M0,1.693A1.747,1.747,0,0,0,1.8,3.385,1.747,1.747,0,0,0,3.6,1.693,1.748,1.748,0,0,0,1.8,0,1.748,1.748,0,0,0,0,1.693" transform="translate(0)" fill="#005865"/>
    </clipPath>
    <clipPath id="clip-path-3">
      <path id="Path_873466" data-name="Path 873466" d="M0,1.693A1.748,1.748,0,0,0,1.8,3.385,1.747,1.747,0,0,0,3.6,1.693,1.747,1.747,0,0,0,1.8,0,1.748,1.748,0,0,0,0,1.693" fill="#005865"/>
    </clipPath>
    <clipPath id="clip-path-4">
      <path id="Path_873467" data-name="Path 873467" d="M0,1.692A1.748,1.748,0,0,0,1.8,3.384,1.748,1.748,0,0,0,3.6,1.692,1.748,1.748,0,0,0,1.8,0,1.748,1.748,0,0,0,0,1.692" transform="translate(0 0)" fill="#005865"/>
    </clipPath>
    <clipPath id="clip-path-6">
      <path id="Path_873469" data-name="Path 873469" d="M0,1.692A1.748,1.748,0,0,0,1.8,3.384,1.747,1.747,0,0,0,3.6,1.692,1.747,1.747,0,0,0,1.8,0,1.748,1.748,0,0,0,0,1.692" transform="translate(0 0)" fill="#005865"/>
    </clipPath>
    <clipPath id="clip-path-22">
      <rect id="Rectangle_401492" data-name="Rectangle 401492" width="69.989" height="69.99" transform="translate(-0.016 0.154)" fill="#fff" stroke="#707070" stroke-width="1"/>
    </clipPath>
    <clipPath id="clip-path-23">
      <rect id="Rectangle_406379" data-name="Rectangle 406379" width="53.667" height="65.071" fill="#fff"/>
    </clipPath>
  </defs>
  <g id="Group_1108943" data-name="Group 1108943" transform="translate(-318.664 -4483.287)">
    <g id="Group_1108942" data-name="Group 1108942" transform="translate(318.664 4483.287)">
      <g id="Group_1100237" data-name="Group 1100237" transform="translate(5.038 22.163)">
        <g id="Group_1099505" data-name="Group 1099505" transform="translate(2.342 10.905)">
          <g id="Group_1099504" data-name="Group 1099504" transform="translate(0)" clip-path="url(#clip-path-2)">
            <rect id="Rectangle_401140" data-name="Rectangle 401140" width="3.598" height="3.385" transform="translate(0)" fill="#005865"/>
          </g>
        </g>
        <g id="Group_1099517" data-name="Group 1099517" transform="translate(48.007 10.905)">
          <g id="Group_1099516" data-name="Group 1099516" transform="translate(0)" clip-path="url(#clip-path-3)">
            <rect id="Rectangle_401146" data-name="Rectangle 401146" width="3.599" height="3.385" transform="translate(0 0)" fill="#005865"/>
          </g>
        </g>
        <g id="Group_1099519" data-name="Group 1099519" transform="translate(39.117 10.906)">
          <g id="Group_1099518" data-name="Group 1099518" transform="translate(0 0)" clip-path="url(#clip-path-4)">
            <rect id="Rectangle_401147" data-name="Rectangle 401147" width="3.599" height="3.384" transform="translate(0 0)" fill="#005865"/>
          </g>
        </g>
        <g id="Group_1099521" data-name="Group 1099521" transform="translate(30.227 10.906)">
          <g id="Group_1099520" data-name="Group 1099520" transform="translate(0 0)" clip-path="url(#clip-path-4)">
            <rect id="Rectangle_401148" data-name="Rectangle 401148" width="3.599" height="3.384" transform="translate(0 0)" fill="#005865"/>
          </g>
        </g>
        <g id="Group_1099523" data-name="Group 1099523" transform="translate(21.337 10.906)">
          <g id="Group_1099522" data-name="Group 1099522" transform="translate(0 0)" clip-path="url(#clip-path-6)">
            <rect id="Rectangle_401149" data-name="Rectangle 401149" width="3.598" height="3.384" transform="translate(0 0)" fill="#005865"/>
          </g>
        </g>
        <g id="Group_1099525" data-name="Group 1099525" transform="translate(44.45 0)">
          <g id="Group_1099524" data-name="Group 1099524" clip-path="url(#clip-path-4)">
            <rect id="Rectangle_401150" data-name="Rectangle 401150" width="3.599" height="3.384" transform="translate(0 0)" fill="#005865"/>
          </g>
        </g>
        <g id="Group_1099529" data-name="Group 1099529" transform="translate(35.56 0)">
          <g id="Group_1099528" data-name="Group 1099528" transform="translate(0)" clip-path="url(#clip-path-6)">
            <rect id="Rectangle_401152" data-name="Rectangle 401152" width="3.599" height="3.384" transform="translate(0 0)" fill="#005865"/>
          </g>
        </g>
        <g id="Group_1099531" data-name="Group 1099531" transform="translate(17.78 0)">
          <g id="Group_1099530" data-name="Group 1099530" transform="translate(0)" clip-path="url(#clip-path-6)">
            <rect id="Rectangle_401153" data-name="Rectangle 401153" width="3.598" height="3.384" transform="translate(0 0)" fill="#005865"/>
          </g>
        </g>
        <g id="Group_1099533" data-name="Group 1099533" transform="translate(8.89 0)">
          <g id="Group_1099532" data-name="Group 1099532" clip-path="url(#clip-path-6)">
            <rect id="Rectangle_401154" data-name="Rectangle 401154" width="3.599" height="3.384" transform="translate(0 0)" fill="#005865"/>
          </g>
        </g>
        <g id="Group_1099535" data-name="Group 1099535" transform="translate(0 0)">
          <g id="Group_1099534" data-name="Group 1099534" transform="translate(0)" clip-path="url(#clip-path-6)">
            <rect id="Rectangle_401155" data-name="Rectangle 401155" width="3.599" height="3.384" transform="translate(0 0)" fill="#005865"/>
          </g>
        </g>
      </g>
      <g id="Group_1100238" data-name="Group 1100238" transform="translate(101.296 117.824)">
        <g id="Group_1099505-2" data-name="Group 1099505" transform="translate(2.342 10.905)">
          <g id="Group_1099504-2" data-name="Group 1099504" transform="translate(0)" clip-path="url(#clip-path-2)">
            <rect id="Rectangle_401140-2" data-name="Rectangle 401140" width="3.598" height="3.385" transform="translate(0)" fill="#005865"/>
          </g>
        </g>
        <g id="Group_1099517-2" data-name="Group 1099517" transform="translate(48.007 10.905)">
          <g id="Group_1099516-2" data-name="Group 1099516" transform="translate(0)" clip-path="url(#clip-path-3)">
            <rect id="Rectangle_401146-2" data-name="Rectangle 401146" width="3.599" height="3.385" transform="translate(0 0)" fill="#005865"/>
          </g>
        </g>
        <g id="Group_1099519-2" data-name="Group 1099519" transform="translate(39.117 10.906)">
          <g id="Group_1099518-2" data-name="Group 1099518" transform="translate(0 0)" clip-path="url(#clip-path-4)">
            <rect id="Rectangle_401147-2" data-name="Rectangle 401147" width="3.599" height="3.384" transform="translate(0 0)" fill="#005865"/>
          </g>
        </g>
        <g id="Group_1099521-2" data-name="Group 1099521" transform="translate(30.227 10.906)">
          <g id="Group_1099520-2" data-name="Group 1099520" transform="translate(0 0)" clip-path="url(#clip-path-4)">
            <rect id="Rectangle_401148-2" data-name="Rectangle 401148" width="3.599" height="3.384" transform="translate(0 0)" fill="#005865"/>
          </g>
        </g>
        <g id="Group_1099523-2" data-name="Group 1099523" transform="translate(21.337 10.906)">
          <g id="Group_1099522-2" data-name="Group 1099522" transform="translate(0 0)" clip-path="url(#clip-path-6)">
            <rect id="Rectangle_401149-2" data-name="Rectangle 401149" width="3.598" height="3.384" transform="translate(0 0)" fill="#005865"/>
          </g>
        </g>
        <g id="Group_1099525-2" data-name="Group 1099525" transform="translate(44.45 0)">
          <g id="Group_1099524-2" data-name="Group 1099524" clip-path="url(#clip-path-4)">
            <rect id="Rectangle_401150-2" data-name="Rectangle 401150" width="3.599" height="3.384" transform="translate(0 0)" fill="#005865"/>
          </g>
        </g>
        <g id="Group_1099529-2" data-name="Group 1099529" transform="translate(35.56 0)">
          <g id="Group_1099528-2" data-name="Group 1099528" transform="translate(0)" clip-path="url(#clip-path-6)">
            <rect id="Rectangle_401152-2" data-name="Rectangle 401152" width="3.599" height="3.384" transform="translate(0 0)" fill="#005865"/>
          </g>
        </g>
        <g id="Group_1099531-2" data-name="Group 1099531" transform="translate(17.78 0)">
          <g id="Group_1099530-2" data-name="Group 1099530" transform="translate(0)" clip-path="url(#clip-path-6)">
            <rect id="Rectangle_401153-2" data-name="Rectangle 401153" width="3.598" height="3.384" transform="translate(0 0)" fill="#005865"/>
          </g>
        </g>
        <g id="Group_1099533-2" data-name="Group 1099533" transform="translate(8.89 0)">
          <g id="Group_1099532-2" data-name="Group 1099532" clip-path="url(#clip-path-6)">
            <rect id="Rectangle_401154-2" data-name="Rectangle 401154" width="3.599" height="3.384" transform="translate(0 0)" fill="#005865"/>
          </g>
        </g>
        <g id="Group_1099535-2" data-name="Group 1099535" transform="translate(0 0)">
          <g id="Group_1099534-2" data-name="Group 1099534" transform="translate(0)" clip-path="url(#clip-path-6)">
            <rect id="Rectangle_401155-2" data-name="Rectangle 401155" width="3.599" height="3.384" transform="translate(0 0)" fill="#005865"/>
          </g>
        </g>
      </g>
      <path id="Path_873784" data-name="Path 873784" d="M109.2,24.037A24.184,24.184,0,0,0,85.034-.128L24.2-.036A24.36,24.36,0,0,0-.037,24.2L-.128,85.032A24.184,24.184,0,0,0,24.037,109.2l60.832-.091a24.361,24.361,0,0,0,24.238-24.238Z" transform="translate(81.645 159) rotate(-135)" fill="#41cee2"/>
      <ellipse id="Ellipse_11579" data-name="Ellipse 11579" cx="51.175" cy="51.175" rx="51.175" ry="51.175" transform="translate(30.842 31.057)" fill="#005865"/>
      <g id="Mask_Group_1098697" data-name="Mask Group 1098697" transform="translate(47.016 47.59)" clip-path="url(#clip-path-22)">
        <g id="Group_1111722" data-name="Group 1111722" transform="translate(4.984 2.155)">
          <g id="Group_1111721" data-name="Group 1111721" clip-path="url(#clip-path-23)">
            <path id="Path_886388" data-name="Path 886388" d="M64.49,7.544H59.312A4.263,4.263,0,0,0,55.189,4.48H52.923A7.287,7.287,0,0,0,46.126,0a7.6,7.6,0,0,0-6.8,4.48H36.943a4.26,4.26,0,0,0-4.154,3.183H27.88A5.44,5.44,0,0,0,22.4,13.085V59.649a5.44,5.44,0,0,0,5.485,5.423H64.49a5.3,5.3,0,0,0,5.485-5.423V12.967A5.44,5.44,0,0,0,64.49,7.544m-27.427,0V7.427h3.458a1.319,1.319,0,0,0,1.431-1.062,4.423,4.423,0,0,1,8.586.118,1.429,1.429,0,0,0,1.431,1.061h3.34a1.322,1.322,0,0,1,1.283,1.034,1.421,1.421,0,0,0-.02.944,1.32,1.32,0,0,1-1.263.969H37.063a1.362,1.362,0,0,1-.954-.353,1.2,1.2,0,0,1-.3-.54,1.407,1.407,0,0,0-.042-.929,1.316,1.316,0,0,1,1.294-1.125M61.15,62.124H31.339V20.865H61.15Zm5.843-2.594a2.5,2.5,0,0,1-2.5,2.476h-.358V19.451a1.57,1.57,0,0,0-1.551-1.532H29.788a1.569,1.569,0,0,0-1.55,1.532V62.124H27.88a2.5,2.5,0,0,1-2.5-2.475V13.2a2.5,2.5,0,0,1,2.5-2.476h5.107a4.472,4.472,0,0,0,.975,1.415,4.356,4.356,0,0,0,3.1,1.3H55.308a4.187,4.187,0,0,0,3.954-2.829H64.49a2.5,2.5,0,0,1,2.5,2.476Z" transform="translate(-16.313 0)" fill="#fff"/>
            <path id="Path_886389" data-name="Path 886389" d="M67.416,149.781h4.531a1.656,1.656,0,0,0,1.55-1.532,1.569,1.569,0,0,0-1.55-1.532H67.416a1.532,1.532,0,1,0,0,3.064" transform="translate(-47.978 -106.872)" fill="#fff"/>
            <path id="Path_886390" data-name="Path 886390" d="M67.416,166.157h4.531a1.549,1.549,0,0,0,1.55-1.415,1.569,1.569,0,0,0-1.55-1.532H67.416a1.472,1.472,0,0,0-1.551,1.415,1.57,1.57,0,0,0,1.551,1.532" transform="translate(-47.978 -118.886)" fill="#fff"/>
            <path id="Path_886391" data-name="Path 886391" d="M100.349,165.841h11.925a1.533,1.533,0,1,0,0-3.065H100.349a1.533,1.533,0,1,0,0,3.065" transform="translate(-71.968 -118.57)" fill="#fff"/>
            <path id="Path_886392" data-name="Path 886392" d="M67.416,182.336h4.531A1.759,1.759,0,0,0,73.5,180.8a1.569,1.569,0,0,0-1.55-1.532H67.416a1.532,1.532,0,1,0,0,3.064" transform="translate(-47.978 -130.586)" fill="#fff"/>
            <path id="Path_886393" data-name="Path 886393" d="M100.349,182.336h11.925a1.532,1.532,0,1,0,0-3.064H100.349a1.532,1.532,0,1,0,0,3.064" transform="translate(-71.968 -130.586)" fill="#fff"/>
            <path id="Path_886394" data-name="Path 886394" d="M67.416,198.4h4.531a1.759,1.759,0,0,0,1.55-1.532,1.569,1.569,0,0,0-1.55-1.533H67.416a1.533,1.533,0,1,0,0,3.065" transform="translate(-47.978 -142.284)" fill="#fff"/>
            <path id="Path_886395" data-name="Path 886395" d="M100.349,198.4h11.925a1.533,1.533,0,1,0,0-3.065H100.349a1.533,1.533,0,1,0,0,3.065" transform="translate(-71.968 -142.284)" fill="#fff"/>
            <path id="Path_886396" data-name="Path 886396" d="M113.154,108.133l-.735-1.931h-6.255l-.735,1.973a6.914,6.914,0,0,1-.735,1.559,1.168,1.168,0,0,1-1,.4,1.462,1.462,0,0,1-1.039-.43,1.318,1.318,0,0,1-.451-.976,2.173,2.173,0,0,1,.1-.651q.105-.336.346-.934l3.936-9.992.4-1.034a5.244,5.244,0,0,1,.5-1,2.05,2.05,0,0,1,.7-.646,2.155,2.155,0,0,1,1.076-.247,2.181,2.181,0,0,1,1.086.247,2.094,2.094,0,0,1,.7.635,4.451,4.451,0,0,1,.451.834q.183.446.467,1.191l4.019,9.929a4.988,4.988,0,0,1,.473,1.648,1.365,1.365,0,0,1-.446.981,1.467,1.467,0,0,1-1.076.446,1.393,1.393,0,0,1-.63-.131,1.281,1.281,0,0,1-.441-.357,3.267,3.267,0,0,1-.383-.693q-.2-.467-.352-.824m-6.171-4.272h4.6l-2.319-6.35Z" transform="translate(-74.451 -68.637)" fill="#fff"/>
          </g>
        </g>
      </g>
    </g>
  </g>
</svg>
