<svg xmlns="http://www.w3.org/2000/svg" xmlns:xlink="http://www.w3.org/1999/xlink" width="90.184" height="90.184" viewBox="0 0 90.184 90.184">
  <defs>
    <clipPath id="clip-path">
      <rect id="Rectangle_406401" data-name="Rectangle 406401" width="57.5" height="54.818" fill="none"/>
    </clipPath>
    <clipPath id="clip-path-3">
      <rect id="Rectangle_406390" data-name="Rectangle 406390" width="14.946" height="19.232" fill="none"/>
    </clipPath>
    <clipPath id="clip-path-4">
      <rect id="Rectangle_407852" data-name="Rectangle 407852" width="30.252" height="36.42" fill="none"/>
    </clipPath>
    <clipPath id="clip-path-6">
      <rect id="Rectangle_407829" data-name="Rectangle 407829" width="11.09" height="13.085" fill="none"/>
    </clipPath>
    <clipPath id="clip-path-7">
      <rect id="Rectangle_407835" data-name="Rectangle 407835" width="11.085" height="1.961" fill="none"/>
    </clipPath>
    <clipPath id="clip-path-8">
      <rect id="Rectangle_407836" data-name="Rectangle 407836" width="1.465" height="18.361" fill="none"/>
    </clipPath>
    <clipPath id="clip-path-9">
      <rect id="Rectangle_407838" data-name="Rectangle 407838" width="13.491" height="4.776" fill="none"/>
    </clipPath>
    <clipPath id="clip-path-10">
      <rect id="Rectangle_407840" data-name="Rectangle 407840" width="11.091" height="13.085" fill="none"/>
    </clipPath>
    <clipPath id="clip-path-11">
      <rect id="Rectangle_407847" data-name="Rectangle 407847" width="11.087" height="1.961" fill="none"/>
    </clipPath>
    <clipPath id="clip-path-12">
      <rect id="Rectangle_407848" data-name="Rectangle 407848" width="1.463" height="18.361" fill="none"/>
    </clipPath>
    <clipPath id="clip-path-13">
      <rect id="Rectangle_407850" data-name="Rectangle 407850" width="13.492" height="4.776" fill="none"/>
    </clipPath>
  </defs>
  <g id="Group_1113367" data-name="Group 1113367" transform="translate(-1174.711 -3824)">
    <g id="Group_1109622" data-name="Group 1109622" transform="translate(1174.711 3824)">
      <g id="Group_1073526" data-name="Group 1073526" transform="translate(0 0)">
        <g id="Group_1072785" data-name="Group 1072785" transform="translate(0 0)">
          <path id="Path_608385" data-name="Path 608385" d="M45.092,0A45.092,45.092,0,1,1,0,45.092,45.092,45.092,0,0,1,45.092,0Z" transform="translate(0 0)" fill="none"/>
        </g>
        <g id="Group_1073383" data-name="Group 1073383" transform="translate(0 0)">
          <path id="Path_608385-2" data-name="Path 608385" d="M45.092,0A45.092,45.092,0,1,1,0,45.092,45.092,45.092,0,0,1,45.092,0Z" transform="translate(0 0)" fill="#fff"/>
        </g>
      </g>
    </g>
    <g id="Group_1109625" data-name="Group 1109625" transform="translate(772.574 -2202.469)">
      <rect id="Rectangle_401104" data-name="Rectangle 401104" width="59" height="59" transform="translate(418.137 6042.469)" fill="none"/>
      <g id="Group_1111766" data-name="Group 1111766" transform="translate(418.137 6044.441)">
        <g id="Group_1111765" data-name="Group 1111765" clip-path="url(#clip-path)">
          <g id="Group_1111764" data-name="Group 1111764">
            <g id="Group_1111763" data-name="Group 1111763" clip-path="url(#clip-path)">
              <g id="Group_1111750" data-name="Group 1111750" transform="translate(11.151 25.787)" opacity="0.2" style="mix-blend-mode: overlay;isolation: isolate">
                <g id="Group_1111749" data-name="Group 1111749">
                  <g id="Group_1111748" data-name="Group 1111748" clip-path="url(#clip-path-3)">
                    <path id="Path_886425" data-name="Path 886425" d="M25.674,68.557a11.437,11.437,0,0,1-2.19-.216v1.3a4,4,0,0,0,4.1,3.9h6.754a4,4,0,0,0,4.1-3.9V54.328a.051.051,0,0,0,0-.02c-.054,7.88-5.741,14.249-12.751,14.249" transform="translate(-23.484 -54.308)"/>
                  </g>
                </g>
              </g>
              <path id="Path_886430" data-name="Path 886430" d="M3.719,54.138H5.057L2.528,49.759,0,54.138H1.345A27.436,27.436,0,0,0,28.739,80.949V78.575A25.059,25.059,0,0,1,3.719,54.138" transform="translate(0 -26.131)" fill="#f3a744"/>
              <path id="Path_886431" data-name="Path 886431" d="M87.906,26.354A27.438,27.438,0,0,0,60.524,0V2.374a25.062,25.062,0,0,1,25.008,23.98h-1.3l2.529,4.379,2.528-4.379Z" transform="translate(-31.785)" fill="#f3a744"/>
            </g>
          </g>
          <g id="Group_1113260" data-name="Group 1113260" transform="translate(13.748 10.064)">
            <g id="Group_1113259" data-name="Group 1113259" clip-path="url(#clip-path-4)">
              <g id="Group_1113258" data-name="Group 1113258" transform="translate(0 0)">
                <g id="Group_1113257" data-name="Group 1113257" clip-path="url(#clip-path-4)">
                  <path id="Path_888099" data-name="Path 888099" d="M5.344,35.874H7.7a4.363,4.363,0,0,0,4.365-4.357l.018-29.01L1,2.5.985,31.51a4.362,4.362,0,0,0,4.359,4.364" transform="translate(0.215 0.546)" fill="#9ecde1"/>
                  <rect id="Rectangle_407828" data-name="Rectangle 407828" width="11.085" height="11.12" transform="translate(1.212 8.939)" fill="#eaedfe"/>
                  <g id="Group_1113235" data-name="Group 1113235" transform="translate(1.201 23.335)" opacity="0.2" style="mix-blend-mode: overlay;isolation: isolate">
                    <g id="Group_1113234" data-name="Group 1113234">
                      <g id="Group_1113233" data-name="Group 1113233" clip-path="url(#clip-path-6)">
                        <path id="Path_888100" data-name="Path 888100" d="M.985,26.51v1.363a4.363,4.363,0,0,0,4.359,4.364H7.705A4.362,4.362,0,0,0,12.07,27.88l.006-8.728A15.585,15.585,0,0,1,.985,26.51" transform="translate(-0.985 -19.152)"/>
                      </g>
                    </g>
                  </g>
                  <rect id="Rectangle_407830" data-name="Rectangle 407830" width="9.861" height="2.253" transform="translate(1.215 9.665)" fill="#ff8f18"/>
                  <rect id="Rectangle_407831" data-name="Rectangle 407831" width="8.371" height="0.564" transform="translate(1.214 12.718)" fill="#ff8f18"/>
                  <path id="Path_888101" data-name="Path 888101" d="M10.858,11.722.995,11.714V11.15l9.863.01Z" transform="translate(0.217 2.435)" fill="#ff8f18"/>
                  <rect id="Rectangle_407832" data-name="Rectangle 407832" width="9.861" height="1.127" transform="translate(1.211 16.207)" fill="#ff8f18"/>
                  <rect id="Rectangle_407833" data-name="Rectangle 407833" width="8.372" height="1.127" transform="translate(1.21 17.952)" fill="#ff8f18"/>
                  <g id="Group_1113238" data-name="Group 1113238" transform="translate(1.217 4.51)" opacity="0.3" style="mix-blend-mode: overlay;isolation: isolate">
                    <g id="Group_1113237" data-name="Group 1113237">
                      <g id="Group_1113236" data-name="Group 1113236" clip-path="url(#clip-path-7)">
                        <rect id="Rectangle_407834" data-name="Rectangle 407834" width="11.084" height="1.952" transform="translate(0.001 0.005)"/>
                      </g>
                    </g>
                  </g>
                  <g id="Group_1113241" data-name="Group 1113241" transform="translate(3.045 7.587)" opacity="0.3">
                    <g id="Group_1113240" data-name="Group 1113240">
                      <g id="Group_1113239" data-name="Group 1113239" clip-path="url(#clip-path-8)">
                        <path id="Path_888102" data-name="Path 888102" d="M3.95,23.947a.688.688,0,0,1-.726.64.687.687,0,0,1-.725-.64L2.51,6.866a.688.688,0,0,1,.727-.64.689.689,0,0,1,.726.64Z" transform="translate(-2.499 -6.227)" fill="#fff"/>
                      </g>
                    </g>
                  </g>
                  <rect id="Rectangle_407837" data-name="Rectangle 407837" width="13.491" height="4.776" rx="0.578" transform="translate(0 0)" fill="#fcc922"/>
                  <g id="Group_1113244" data-name="Group 1113244" transform="translate(0 0)" opacity="0.2" style="mix-blend-mode: overlay;isolation: isolate">
                    <g id="Group_1113243" data-name="Group 1113243" transform="translate(0 0)">
                      <g id="Group_1113242" data-name="Group 1113242" clip-path="url(#clip-path-9)">
                        <path id="Path_888103" data-name="Path 888103" d="M12.787,0H10.864c-.743,2.1-3.4,3.655-6.563,3.655A8.567,8.567,0,0,1,0,2.556V4.072a.7.7,0,0,0,.7.7H12.787a.7.7,0,0,0,.7-.7V.707a.706.706,0,0,0-.7-.707" transform="translate(0 0)"/>
                      </g>
                    </g>
                  </g>
                  <path id="Path_888104" data-name="Path 888104" d="M19.1,35.874h2.361a4.361,4.361,0,0,0,4.364-4.357l.019-29.01L14.759,2.5l-.018,29.01A4.363,4.363,0,0,0,19.1,35.874" transform="translate(3.219 0.546)" fill="#9ecde1"/>
                  <rect id="Rectangle_407839" data-name="Rectangle 407839" width="11.085" height="11.12" transform="translate(17.972 8.939)" fill="#eaedfe"/>
                  <g id="Group_1113247" data-name="Group 1113247" transform="translate(17.96 23.335)" opacity="0.2" style="mix-blend-mode: overlay;isolation: isolate">
                    <g id="Group_1113246" data-name="Group 1113246">
                      <g id="Group_1113245" data-name="Group 1113245" clip-path="url(#clip-path-10)">
                        <path id="Path_888105" data-name="Path 888105" d="M14.741,26.51v1.363A4.364,4.364,0,0,0,19.1,32.237h2.362a4.36,4.36,0,0,0,4.363-4.357l.007-8.728A15.59,15.59,0,0,1,14.741,26.51" transform="translate(-14.741 -19.152)"/>
                      </g>
                    </g>
                  </g>
                  <rect id="Rectangle_407841" data-name="Rectangle 407841" width="9.861" height="2.253" transform="translate(17.975 9.665)" fill="#ff8f18"/>
                  <rect id="Rectangle_407842" data-name="Rectangle 407842" width="8.37" height="0.564" transform="translate(17.975 12.718)" fill="#ff8f18"/>
                  <rect id="Rectangle_407843" data-name="Rectangle 407843" width="9.863" height="0.563" transform="translate(17.973 13.59)" fill="#ff8f18"/>
                  <rect id="Rectangle_407844" data-name="Rectangle 407844" width="9.861" height="1.127" transform="translate(17.972 16.207)" fill="#ff8f18"/>
                  <rect id="Rectangle_407845" data-name="Rectangle 407845" width="8.371" height="1.127" transform="translate(17.97 17.952)" fill="#ff8f18"/>
                  <g id="Group_1113250" data-name="Group 1113250" transform="translate(17.977 4.51)" opacity="0.3" style="mix-blend-mode: overlay;isolation: isolate">
                    <g id="Group_1113249" data-name="Group 1113249">
                      <g id="Group_1113248" data-name="Group 1113248" clip-path="url(#clip-path-11)">
                        <rect id="Rectangle_407846" data-name="Rectangle 407846" width="11.085" height="1.952" transform="translate(0.001 0.005)"/>
                      </g>
                    </g>
                  </g>
                  <g id="Group_1113253" data-name="Group 1113253" transform="translate(19.806 7.587)" opacity="0.3">
                    <g id="Group_1113252" data-name="Group 1113252">
                      <g id="Group_1113251" data-name="Group 1113251" clip-path="url(#clip-path-12)">
                        <path id="Path_888106" data-name="Path 888106" d="M17.707,23.947a.731.731,0,0,1-1.451,0l.01-17.081a.733.733,0,0,1,1.454,0Z" transform="translate(-16.256 -6.227)" fill="#fff"/>
                      </g>
                    </g>
                  </g>
                  <path id="Rectangle_407849" data-name="Rectangle 407849" d="M.578,0H12.914a.578.578,0,0,1,.578.578V4.2a.58.58,0,0,1-.58.58H.578A.578.578,0,0,1,0,4.2V.578A.578.578,0,0,1,.578,0Z" transform="translate(16.76 0)" fill="#fcc922"/>
                  <g id="Group_1113256" data-name="Group 1113256" transform="translate(16.76 0)" opacity="0.2" style="mix-blend-mode: overlay;isolation: isolate">
                    <g id="Group_1113255" data-name="Group 1113255" transform="translate(0 0)">
                      <g id="Group_1113254" data-name="Group 1113254" clip-path="url(#clip-path-13)">
                        <path id="Path_888107" data-name="Path 888107" d="M26.544,0H24.62c-.742,2.1-3.394,3.655-6.563,3.655a8.567,8.567,0,0,1-4.3-1.1V4.072a.7.7,0,0,0,.705.7H26.544a.7.7,0,0,0,.7-.7V.707a.706.706,0,0,0-.7-.707" transform="translate(-13.756 0)"/>
                      </g>
                    </g>
                  </g>
                </g>
              </g>
            </g>
          </g>
        </g>
      </g>
    </g>
  </g>
</svg>
