<svg id="Group_1109572" data-name="Group 1109572" xmlns="http://www.w3.org/2000/svg" xmlns:xlink="http://www.w3.org/1999/xlink" width="12.074" height="16.001" viewBox="0 0 12.074 16.001">
  <defs>
    <clipPath id="clip-path">
      <rect id="Rectangle_404557" data-name="Rectangle 404557" width="12.074" height="16.001" fill="#f3a744"/>
    </clipPath>
  </defs>
  <g id="Group_1109002" data-name="Group 1109002" clip-path="url(#clip-path)">
    <path id="Path_883015" data-name="Path 883015" d="M53.2,162.455v10.309a4.829,4.829,0,0,1-.366.825,2.38,2.38,0,0,1-1.784.873,36.472,36.472,0,0,1-6.463-.142,2.235,2.235,0,0,1-1.375-1.649V162.455ZM49.26,167.4v-1.512c0-.022-.008-.289-.222-.327-.267-.048-1.794-.169-1.794.144v1.7h-1.6a.49.49,0,0,0-.327.222c-.155.222-.169,1.794.144,1.794h1.649l.137.137v1.649c.323.368,2.016.385,2.016-.183v-1.6h1.7c.307,0,.265-1.57.1-1.838a.456.456,0,0,0-.371-.178Z" transform="translate(-42.169 -158.534)" fill="#f3a744"/>
    <path id="Path_883016" data-name="Path 883016" d="M.649,0H11.424c.735.164.7,1.535.594,2.112a.98.98,0,0,1-.941.8L.912,2.908C-.287,2.83-.228.261.649,0" transform="translate(0)" fill="#f3a744"/>
  </g>
</svg>
