<svg xmlns="http://www.w3.org/2000/svg" xmlns:xlink="http://www.w3.org/1999/xlink" width="178" height="178" viewBox="0 0 178 178">
  <defs>
    <clipPath id="clip-path">
      <rect id="Rectangle_408196" data-name="Rectangle 408196" width="97.072" height="82.979" fill="none"/>
    </clipPath>
    <clipPath id="clip-path-3">
      <rect id="Rectangle_408167" data-name="Rectangle 408167" width="23.315" height="41.075" fill="none"/>
    </clipPath>
    <clipPath id="clip-path-5">
      <rect id="Rectangle_408182" data-name="Rectangle 408182" width="26.865" height="47.119" fill="none"/>
    </clipPath>
  </defs>
  <g id="Group_1113358" data-name="Group 1113358" transform="translate(-704.711 -1858.881)">
    <g id="Group_1109010" data-name="Group 1109010" transform="translate(704.711 1858.882)">
      <path id="Path_882862" data-name="Path 882862" d="M89,0A89,89,0,1,1,0,89,89,89,0,0,1,89,0Z" transform="translate(0 -0.001)" fill="#005865"/>
      <path id="Path_882863" data-name="Path 882863" d="M78.668,0A78.668,78.668,0,1,1,0,78.668,78.668,78.668,0,0,1,78.668,0Z" transform="translate(10.332 10.331)" fill="#f3f9ff"/>
    </g>
    <g id="Group_1109011" data-name="Group 1109011" transform="translate(743.711 1897.882)">
      <rect id="Rectangle_401104" data-name="Rectangle 401104" width="99.117" height="100.574" fill="none"/>
      <g id="Group_1113335" data-name="Group 1113335" transform="translate(2.045 8.798)">
        <g id="Group_1113334" data-name="Group 1113334" clip-path="url(#clip-path)">
          <path id="Path_888818" data-name="Path 888818" d="M0,0H47.93V60.987H0Z" transform="translate(49.14 21.992)" fill="#e1feff"/>
          <rect id="Rectangle_408155" data-name="Rectangle 408155" width="21.48" height="20.045" transform="translate(51.531 26.208)" fill="#4781cc"/>
          <rect id="Rectangle_408156" data-name="Rectangle 408156" width="39.339" height="2.486" transform="translate(55.153 48.906)" fill="#636363"/>
          <rect id="Rectangle_408157" data-name="Rectangle 408157" width="19.67" height="2.486" transform="translate(74.821 27.442)" fill="#636363"/>
          <rect id="Rectangle_408158" data-name="Rectangle 408158" width="19.67" height="2.486" transform="translate(74.821 32.383)" fill="#636363"/>
          <rect id="Rectangle_408159" data-name="Rectangle 408159" width="19.67" height="2.486" transform="translate(74.821 41.878)" fill="#636363"/>
          <rect id="Rectangle_408160" data-name="Rectangle 408160" width="12.38" height="2.486" transform="translate(74.821 37.324)" fill="#636363"/>
          <rect id="Rectangle_408161" data-name="Rectangle 408161" width="42.96" height="2.486" transform="translate(51.531 53.165)" fill="#636363"/>
          <rect id="Rectangle_408162" data-name="Rectangle 408162" width="42.96" height="2.486" transform="translate(51.531 57.426)" fill="#636363"/>
          <rect id="Rectangle_408163" data-name="Rectangle 408163" width="42.96" height="2.486" transform="translate(51.531 74.553)" fill="#636363"/>
          <rect id="Rectangle_408164" data-name="Rectangle 408164" width="42.96" height="2.486" transform="translate(51.531 61.687)" fill="#636363"/>
          <rect id="Rectangle_408165" data-name="Rectangle 408165" width="21.48" height="2.486" transform="translate(51.531 65.947)" fill="#636363"/>
          <g id="Group_1113326" data-name="Group 1113326" transform="translate(0 0)">
            <g id="Group_1113325" data-name="Group 1113325" clip-path="url(#clip-path)">
              <g id="Group_1113324" data-name="Group 1113324" transform="translate(49.141 21.992)" opacity="0.3">
                <g id="Group_1113323" data-name="Group 1113323">
                  <g id="Group_1113322" data-name="Group 1113322" clip-path="url(#clip-path-3)">
                    <rect id="Rectangle_408166" data-name="Rectangle 408166" width="23.316" height="41.075" transform="translate(0 0)"/>
                  </g>
                </g>
              </g>
            </g>
          </g>
          <rect id="Rectangle_408169" data-name="Rectangle 408169" width="47.93" height="60.987" transform="translate(0 15.948)" fill="#defff4"/>
          <rect id="Rectangle_408170" data-name="Rectangle 408170" width="21.48" height="20.045" transform="translate(2.39 20.164)" fill="#4781cc"/>
          <rect id="Rectangle_408171" data-name="Rectangle 408171" width="39.339" height="2.486" transform="translate(6.012 42.862)" fill="#5d3406"/>
          <rect id="Rectangle_408172" data-name="Rectangle 408172" width="19.67" height="2.486" transform="translate(25.681 21.398)" fill="#b3b3b3"/>
          <rect id="Rectangle_408173" data-name="Rectangle 408173" width="19.67" height="2.486" transform="translate(25.681 26.339)" fill="#b3b3b3"/>
          <rect id="Rectangle_408174" data-name="Rectangle 408174" width="12.38" height="2.486" transform="translate(25.681 31.28)" fill="#b3b3b3"/>
          <rect id="Rectangle_408175" data-name="Rectangle 408175" width="42.96" height="2.486" transform="translate(2.39 47.121)" fill="#5d3406"/>
          <rect id="Rectangle_408176" data-name="Rectangle 408176" width="42.96" height="2.486" transform="translate(2.39 51.382)" fill="#5d3406"/>
          <rect id="Rectangle_408177" data-name="Rectangle 408177" width="42.96" height="2.486" transform="translate(2.39 55.643)" fill="#5d3406"/>
          <rect id="Rectangle_408178" data-name="Rectangle 408178" width="42.96" height="2.486" transform="translate(2.39 64.186)" fill="#5d3406"/>
          <rect id="Rectangle_408179" data-name="Rectangle 408179" width="42.96" height="2.486" transform="translate(2.39 68.509)" fill="#5d3406"/>
          <rect id="Rectangle_408180" data-name="Rectangle 408180" width="21.48" height="2.486" transform="translate(2.39 59.903)" fill="#5d3406"/>
          <g id="Group_1113331" data-name="Group 1113331" transform="translate(0 0)">
            <g id="Group_1113330" data-name="Group 1113330" clip-path="url(#clip-path)">
              <g id="Group_1113329" data-name="Group 1113329" transform="translate(21.066 15.948)" opacity="0.3">
                <g id="Group_1113328" data-name="Group 1113328">
                  <g id="Group_1113327" data-name="Group 1113327" clip-path="url(#clip-path-5)">
                    <rect id="Rectangle_408181" data-name="Rectangle 408181" width="26.865" height="47.119" transform="translate(0 0)"/>
                  </g>
                </g>
              </g>
            </g>
          </g>
          <rect id="Rectangle_408184" data-name="Rectangle 408184" width="2.676" height="3.841" transform="translate(12.026 30.973)" fill="#bf8d7e"/>
          <g id="Group_1113333" data-name="Group 1113333" transform="translate(0 0)">
            <g id="Group_1113332" data-name="Group 1113332" clip-path="url(#clip-path)">
              <path id="Path_888798" data-name="Path 888798" d="M10.714,23.378a.257.257,0,0,1-.19-.083L9.353,21.923c-.057-.065-.134-.015-.221,0l0,0c-.091.015-2.706.712-2.907.852-.73.2-.991,5.165-.991,5.165l5.511,0s.042-4.56-.027-4.56" transform="translate(2.673 11.186)" fill="#fff"/>
              <path id="Path_888799" data-name="Path 888799" d="M8.83,23.378a.257.257,0,0,0,.19-.083l1.171-1.372c.059-.065.134-.015.221,0l0,0c.091.015,2.706.712,2.907.852.727.184.991,5.165.991,5.165l-5.511,0s-.042-4.56.027-4.56" transform="translate(4.491 11.186)" fill="#fff"/>
              <path id="Path_888800" data-name="Path 888800" d="M7.048,19.853a1.063,1.063,0,0,1-.429-2.069c.509-.106.94,1.961.429,2.069" transform="translate(3.008 9.086)" fill="#ffbba8"/>
              <path id="Path_888801" data-name="Path 888801" d="M11.071,19.853a1.063,1.063,0,0,0,.429-2.069c-.509-.106-.938,1.961-.429,2.069" transform="translate(5.54 9.086)" fill="#ffbba8"/>
              <path id="Path_888802" data-name="Path 888802" d="M10.076,24.907c5.033-2.09,3.546-7.244,3.546-7.244s-.174-2.374-3.456-2.374A3.614,3.614,0,0,0,6.6,17.723s-1.357,5.29,3.474,7.185" transform="translate(3.284 7.814)" fill="#ffbba8"/>
              <path id="Path_888803" data-name="Path 888803" d="M6.274,19.509c.345-.077.715.582.715.582l.142-2.511a5.937,5.937,0,0,0,5.612,1.857c-.7-1.614.487-1.866.487-1.866s.3,2.747.289,2.641c.18-.706.683-.635.683-.635s1.076-5.039-3.968-5.039-3.968,4.829-3.959,4.971" transform="translate(3.154 7.429)" fill="#cf7a0b"/>
              <path id="Path_888804" data-name="Path 888804" d="M8.443,22.475H9.774c.082,0,.122.479.065.536l-.663.5a.091.091,0,0,1-.133,0l-.668-.506c-.053-.059-.011-.532.068-.532" transform="translate(4.268 11.485)" fill="#040505"/>
              <path id="Path_888805" data-name="Path 888805" d="M8.27,27.279h1.784l-.84-4.069a.091.091,0,0,0-.133,0Z" transform="translate(4.226 11.847)" fill="#040505"/>
              <path id="Path_888806" data-name="Path 888806" d="M8.91,22.991l1.068.823a.068.068,0,0,0,.109-.036l.47-1.612a.074.074,0,0,0-.011-.059l-.335-.5A.069.069,0,0,0,10.1,21.6L8.9,22.888a.069.069,0,0,0,.008.1" transform="translate(4.539 11.028)" fill="#fff"/>
              <path id="Path_888807" data-name="Path 888807" d="M9.364,22.991,8.3,23.815a.069.069,0,0,1-.109-.036l-.468-1.612a.068.068,0,0,1,.009-.059l.335-.5a.069.069,0,0,1,.109-.009l1.2,1.286a.07.07,0,0,1-.009.1" transform="translate(3.943 11.028)" fill="#fff"/>
              <path id="Path_888808" data-name="Path 888808" d="M9.167,20.99a1.2,1.2,0,0,0,1.011-.477c0-.094-.576-.376-.713-.376s-.24.153-.3.153-.16-.153-.3-.153-.713.283-.713.376a1.2,1.2,0,0,0,1.011.477" transform="translate(4.168 10.29)" fill="#d15e5e"/>
              <path id="Path_888809" data-name="Path 888809" d="M63.338,60.987H15.407V0H57.835l-.062,4.819,5.565.125Z" transform="translate(7.873 0.001)" fill="#e1feff"/>
              <rect id="Rectangle_408185" data-name="Rectangle 408185" width="21.48" height="20.045" transform="translate(25.669 4.216)" fill="#cc1d1d"/>
              <rect id="Rectangle_408186" data-name="Rectangle 408186" width="39.339" height="2.486" transform="translate(29.292 26.914)" fill="#b3b3b3"/>
              <rect id="Rectangle_408187" data-name="Rectangle 408187" width="19.67" height="2.486" transform="translate(48.961 19.945)" fill="#b3b3b3"/>
              <rect id="Rectangle_408188" data-name="Rectangle 408188" width="19.67" height="2.486" transform="translate(48.961 10.393)" fill="#b3b3b3"/>
              <rect id="Rectangle_408189" data-name="Rectangle 408189" width="12.38" height="2.486" transform="translate(48.961 15.334)" fill="#b3b3b3"/>
              <rect id="Rectangle_408190" data-name="Rectangle 408190" width="42.96" height="2.486" transform="translate(25.67 31.175)" fill="#b3b3b3"/>
              <rect id="Rectangle_408191" data-name="Rectangle 408191" width="42.96" height="2.486" transform="translate(25.67 35.436)" fill="#b3b3b3"/>
              <rect id="Rectangle_408192" data-name="Rectangle 408192" width="42.96" height="2.486" transform="translate(25.67 39.695)" fill="#b3b3b3"/>
              <rect id="Rectangle_408193" data-name="Rectangle 408193" width="21.48" height="2.486" transform="translate(25.669 43.956)" fill="#b3b3b3"/>
              <rect id="Rectangle_408194" data-name="Rectangle 408194" width="2.714" height="3.894" transform="translate(35.046 15.998)" fill="#d6a79b"/>
              <path id="Path_888810" data-name="Path 888810" d="M28.133,12.02l-1.142,1.4a.257.257,0,0,1-.384,0l-1.188-1.392c-.059-.065-5.415.819-5.517,1.816a7.391,7.391,0,0,0-1.062,4.285l15.885,0a7.885,7.885,0,0,0-1.085-4.367c-.3-.963-5.272-1.739-5.272-1.739-.088-.014-.178-.073-.236-.006" transform="translate(9.627 6.127)" fill="#ebd667"/>
              <path id="Path_888811" data-name="Path 888811" d="M21.608,8.255c-.585,1.1.724,4.95,1.63,4.95H27.6c.9,0,2.469-4.113,1.667-4.926A20.794,20.794,0,0,0,25.76,6.749s-3.4.852-4.152,1.506" transform="translate(10.967 3.449)"/>
              <path id="Path_888812" data-name="Path 888812" d="M22.27,9.933a1.02,1.02,0,0,1-1.153-.855,1.018,1.018,0,0,1,.718-1.242c.517-.107.952,1.988.435,2.1" transform="translate(10.778 4.002)" fill="#ffc7b8"/>
              <path id="Path_888813" data-name="Path 888813" d="M26.35,9.933A1.018,1.018,0,0,0,27.5,9.077a1.016,1.016,0,0,0-.716-1.242c-.517-.107-.952,1.988-.435,2.1" transform="translate(13.346 4.002)" fill="#ffc7b8"/>
              <path id="Path_888814" data-name="Path 888814" d="M25.3,15.056c4.281,0,3.6-7.343,3.6-7.343s-.177-2.407-3.5-2.407a3.663,3.663,0,0,0-3.614,2.466s-.787,7.284,3.522,7.284" transform="translate(11.099 2.712)" fill="#ffc7b8"/>
              <path id="Path_888815" data-name="Path 888815" d="M25.245,14.664l0-.36,3.96-.012,0,.36Z" transform="translate(12.899 7.303)" fill="#878787"/>
              <path id="Path_888816" data-name="Path 888816" d="M21.486,9.585c.349-.079.725.589.725.589l.144-2.548s.144-1.254,1.509-.8c.511,1.05,2.874,1,3.312-.009,1.136-.452,1.36.8,1.36.8s.305,2.785.293,2.679c.183-.718.692-.644.692-.644s1.092-5.11-4.021-5.11-4.024,4.9-4.015,5.041" transform="translate(10.926 2.322)"/>
              <path id="Path_888817" data-name="Path 888817" d="M49.01,4.944l-5.565-.125L43.507,0Z" transform="translate(22.2 0.001)" fill="#8c8c8c"/>
            </g>
          </g>
        </g>
      </g>
    </g>
  </g>
</svg>
