<svg xmlns="http://www.w3.org/2000/svg" xmlns:xlink="http://www.w3.org/1999/xlink" width="122" height="122" viewBox="0 0 122 122">
  <defs>
    <clipPath id="clip-path">
      <rect id="Rectangle_400938" data-name="Rectangle 400938" width="122" height="122" fill="#2bc897"/>
    </clipPath>
    <clipPath id="clip-path-2">
      <path id="Path_873460" data-name="Path 873460" d="M0,1.307A1.349,1.349,0,0,0,1.389,2.613,1.349,1.349,0,0,0,2.778,1.307,1.349,1.349,0,0,0,1.389,0,1.349,1.349,0,0,0,0,1.307" transform="translate(0)" fill="#005865"/>
    </clipPath>
    <clipPath id="clip-path-3">
      <path id="Path_873466" data-name="Path 873466" d="M0,1.307A1.349,1.349,0,0,0,1.39,2.613,1.349,1.349,0,0,0,2.778,1.307,1.349,1.349,0,0,0,1.39,0,1.349,1.349,0,0,0,0,1.307" fill="#005865"/>
    </clipPath>
    <clipPath id="clip-path-4">
      <path id="Path_873467" data-name="Path 873467" d="M0,1.306A1.349,1.349,0,0,0,1.389,2.612,1.349,1.349,0,0,0,2.778,1.306,1.349,1.349,0,0,0,1.389,0,1.349,1.349,0,0,0,0,1.306" transform="translate(0 0)" fill="#005865"/>
    </clipPath>
    <clipPath id="clip-path-5">
      <path id="Path_873468" data-name="Path 873468" d="M0,1.306A1.349,1.349,0,0,0,1.39,2.612,1.349,1.349,0,0,0,2.778,1.306,1.349,1.349,0,0,0,1.39,0,1.349,1.349,0,0,0,0,1.306" transform="translate(0 0)" fill="#005865"/>
    </clipPath>
    <clipPath id="clip-path-6">
      <path id="Path_873469" data-name="Path 873469" d="M0,1.306A1.349,1.349,0,0,0,1.389,2.612,1.349,1.349,0,0,0,2.777,1.306,1.349,1.349,0,0,0,1.389,0,1.349,1.349,0,0,0,0,1.306" transform="translate(0 0)" fill="#005865"/>
    </clipPath>
    <clipPath id="clip-path-9">
      <path id="Path_873473" data-name="Path 873473" d="M0,1.306A1.349,1.349,0,0,0,1.39,2.612,1.348,1.348,0,0,0,2.778,1.306,1.349,1.349,0,0,0,1.39,0,1.349,1.349,0,0,0,0,1.306" transform="translate(0 0)" fill="#005865"/>
    </clipPath>
    <clipPath id="clip-path-22">
      <rect id="Rectangle_401492" data-name="Rectangle 401492" width="54.022" height="54.022" transform="translate(-0.73 -0.516)" fill="#fff" stroke="#707070" stroke-width="1"/>
    </clipPath>
    <clipPath id="clip-path-23">
      <rect id="Rectangle_406443" data-name="Rectangle 406443" width="49.289" height="47.641" fill="#fff"/>
    </clipPath>
  </defs>
  <g id="Group_1111818" data-name="Group 1111818" transform="translate(23057.926 3814.948)">
    <g id="Group_1100237" data-name="Group 1100237" transform="translate(-23054.037 -3797.84)">
      <g id="Group_1099505" data-name="Group 1099505" transform="translate(1.808 8.418)">
        <g id="Group_1099504" data-name="Group 1099504" transform="translate(0)" clip-path="url(#clip-path-2)">
          <rect id="Rectangle_401140" data-name="Rectangle 401140" width="2.777" height="2.613" transform="translate(0)" fill="#005865"/>
        </g>
      </g>
      <g id="Group_1099517" data-name="Group 1099517" transform="translate(37.056 8.418)">
        <g id="Group_1099516" data-name="Group 1099516" transform="translate(0)" clip-path="url(#clip-path-3)">
          <rect id="Rectangle_401146" data-name="Rectangle 401146" width="2.778" height="2.613" transform="translate(0 0)" fill="#005865"/>
        </g>
      </g>
      <g id="Group_1099519" data-name="Group 1099519" transform="translate(30.194 8.418)">
        <g id="Group_1099518" data-name="Group 1099518" transform="translate(0 0)" clip-path="url(#clip-path-4)">
          <rect id="Rectangle_401147" data-name="Rectangle 401147" width="2.778" height="2.612" transform="translate(0 0)" fill="#005865"/>
        </g>
      </g>
      <g id="Group_1099521" data-name="Group 1099521" transform="translate(23.332 8.418)">
        <g id="Group_1099520" data-name="Group 1099520" transform="translate(0 0)" clip-path="url(#clip-path-5)">
          <rect id="Rectangle_401148" data-name="Rectangle 401148" width="2.778" height="2.612" transform="translate(0 0)" fill="#005865"/>
        </g>
      </g>
      <g id="Group_1099523" data-name="Group 1099523" transform="translate(16.47 8.418)">
        <g id="Group_1099522" data-name="Group 1099522" transform="translate(0 0)" clip-path="url(#clip-path-6)">
          <rect id="Rectangle_401149" data-name="Rectangle 401149" width="2.777" height="2.612" transform="translate(0 0)" fill="#005865"/>
        </g>
      </g>
      <g id="Group_1099525" data-name="Group 1099525" transform="translate(34.311 0)">
        <g id="Group_1099524" data-name="Group 1099524" clip-path="url(#clip-path-4)">
          <rect id="Rectangle_401150" data-name="Rectangle 401150" width="2.778" height="2.612" transform="translate(0 0)" fill="#005865"/>
        </g>
      </g>
      <g id="Group_1099529" data-name="Group 1099529" transform="translate(27.448 0)">
        <g id="Group_1099528" data-name="Group 1099528" transform="translate(0)" clip-path="url(#clip-path-5)">
          <rect id="Rectangle_401152" data-name="Rectangle 401152" width="2.778" height="2.612" transform="translate(0 0)" fill="#005865"/>
        </g>
      </g>
      <g id="Group_1099531" data-name="Group 1099531" transform="translate(13.724 0)">
        <g id="Group_1099530" data-name="Group 1099530" transform="translate(0)" clip-path="url(#clip-path-9)">
          <rect id="Rectangle_401153" data-name="Rectangle 401153" width="2.777" height="2.612" transform="translate(0 0)" fill="#005865"/>
        </g>
      </g>
      <g id="Group_1099533" data-name="Group 1099533" transform="translate(6.862 0)">
        <g id="Group_1099532" data-name="Group 1099532" clip-path="url(#clip-path-4)">
          <rect id="Rectangle_401154" data-name="Rectangle 401154" width="2.778" height="2.612" transform="translate(0 0)" fill="#005865"/>
        </g>
      </g>
      <g id="Group_1099535" data-name="Group 1099535" transform="translate(0 0)">
        <g id="Group_1099534" data-name="Group 1099534" transform="translate(0)" clip-path="url(#clip-path-5)">
          <rect id="Rectangle_401155" data-name="Rectangle 401155" width="2.778" height="2.612" transform="translate(0 0)" fill="#005865"/>
        </g>
      </g>
    </g>
    <g id="Group_1100238" data-name="Group 1100238" transform="translate(-22980.445 -3724.661)">
      <g id="Group_1099505-2" data-name="Group 1099505" transform="translate(1.808 8.418)">
        <g id="Group_1099504-2" data-name="Group 1099504" transform="translate(0)" clip-path="url(#clip-path-2)">
          <rect id="Rectangle_401140-2" data-name="Rectangle 401140" width="2.777" height="2.613" transform="translate(0)" fill="#005865"/>
        </g>
      </g>
      <g id="Group_1099517-2" data-name="Group 1099517" transform="translate(37.056 8.418)">
        <g id="Group_1099516-2" data-name="Group 1099516" transform="translate(0)" clip-path="url(#clip-path-3)">
          <rect id="Rectangle_401146-2" data-name="Rectangle 401146" width="2.778" height="2.613" transform="translate(0 0)" fill="#005865"/>
        </g>
      </g>
      <g id="Group_1099519-2" data-name="Group 1099519" transform="translate(30.194 8.418)">
        <g id="Group_1099518-2" data-name="Group 1099518" transform="translate(0 0)" clip-path="url(#clip-path-4)">
          <rect id="Rectangle_401147-2" data-name="Rectangle 401147" width="2.778" height="2.612" transform="translate(0 0)" fill="#005865"/>
        </g>
      </g>
      <g id="Group_1099521-2" data-name="Group 1099521" transform="translate(23.332 8.418)">
        <g id="Group_1099520-2" data-name="Group 1099520" transform="translate(0 0)" clip-path="url(#clip-path-5)">
          <rect id="Rectangle_401148-2" data-name="Rectangle 401148" width="2.778" height="2.612" transform="translate(0 0)" fill="#005865"/>
        </g>
      </g>
      <g id="Group_1099523-2" data-name="Group 1099523" transform="translate(16.47 8.418)">
        <g id="Group_1099522-2" data-name="Group 1099522" transform="translate(0 0)" clip-path="url(#clip-path-6)">
          <rect id="Rectangle_401149-2" data-name="Rectangle 401149" width="2.777" height="2.612" transform="translate(0 0)" fill="#005865"/>
        </g>
      </g>
      <g id="Group_1099525-2" data-name="Group 1099525" transform="translate(34.311 0)">
        <g id="Group_1099524-2" data-name="Group 1099524" clip-path="url(#clip-path-4)">
          <rect id="Rectangle_401150-2" data-name="Rectangle 401150" width="2.778" height="2.612" transform="translate(0 0)" fill="#005865"/>
        </g>
      </g>
      <g id="Group_1099529-2" data-name="Group 1099529" transform="translate(27.448 0)">
        <g id="Group_1099528-2" data-name="Group 1099528" transform="translate(0)" clip-path="url(#clip-path-5)">
          <rect id="Rectangle_401152-2" data-name="Rectangle 401152" width="2.778" height="2.612" transform="translate(0 0)" fill="#005865"/>
        </g>
      </g>
      <g id="Group_1099531-2" data-name="Group 1099531" transform="translate(13.724 0)">
        <g id="Group_1099530-2" data-name="Group 1099530" transform="translate(0)" clip-path="url(#clip-path-9)">
          <rect id="Rectangle_401153-2" data-name="Rectangle 401153" width="2.777" height="2.612" transform="translate(0 0)" fill="#005865"/>
        </g>
      </g>
      <g id="Group_1099533-2" data-name="Group 1099533" transform="translate(6.862 0)">
        <g id="Group_1099532-2" data-name="Group 1099532" clip-path="url(#clip-path-4)">
          <rect id="Rectangle_401154-2" data-name="Rectangle 401154" width="2.778" height="2.612" transform="translate(0 0)" fill="#005865"/>
        </g>
      </g>
      <g id="Group_1099535-2" data-name="Group 1099535" transform="translate(0 0)">
        <g id="Group_1099534-2" data-name="Group 1099534" transform="translate(0)" clip-path="url(#clip-path-5)">
          <rect id="Rectangle_401155-2" data-name="Rectangle 401155" width="2.778" height="2.612" transform="translate(0 0)" fill="#005865"/>
        </g>
      </g>
    </g>
    <path id="Union_17" data-name="Union 17" d="M-4150.107,4311.383l-33.056-32.927a18.528,18.528,0,0,1,0-26.2l33.054-32.926a18.7,18.7,0,0,1,26.3,0l33.056,32.928a18.528,18.528,0,0,1,0,26.2l-33.056,32.927a18.576,18.576,0,0,1-13.15,5.4A18.575,18.575,0,0,1-4150.107,4311.383Z" transform="translate(-18858.305 -8017.512)" fill="#41cee2" stroke="rgba(0,0,0,0)" stroke-miterlimit="10" stroke-width="1"/>
    <circle id="Ellipse_11579" data-name="Ellipse 11579" cx="39.5" cy="39.5" r="39.5" transform="translate(-23034.504 -3791.418)" fill="#005865"/>
    <g id="Mask_Group_1098697" data-name="Mask Group 1098697" transform="translate(-23022.008 -3778.646)" clip-path="url(#clip-path-22)">
      <g id="Group_1111821" data-name="Group 1111821" transform="translate(1.27 2.485)">
        <g id="Group_1111820" data-name="Group 1111820" transform="translate(0.001 0)" clip-path="url(#clip-path-23)">
          <path id="Path_886482" data-name="Path 886482" d="M53.083,32.6a1.129,1.129,0,0,1,1.189,1.085,1.286,1.286,0,0,1-1.189,1.266,1.175,1.175,0,1,1,0-2.35" transform="translate(-51.894 -3.129)" fill="#fff"/>
          <path id="Path_886483" data-name="Path 886483" d="M45.5,8.65a1.175,1.175,0,1,1,1.19-1.175A1.2,1.2,0,0,1,45.5,8.65" transform="translate(-37.449 -0.605)" fill="#fff"/>
          <path id="Path_886484" data-name="Path 886484" d="M18.891,50.1A1.175,1.175,0,1,1,17.7,51.275,1.2,1.2,0,0,1,18.891,50.1" transform="translate(13.207 -4.81)" fill="#fff"/>
          <path id="Path_886485" data-name="Path 886485" d="M13.834,3.65a1.2,1.2,0,0,1-1.189-1.175A1.2,1.2,0,0,1,13.834,1.3a1.271,1.271,0,0,1,1.189,1.175A1.2,1.2,0,0,1,13.834,3.65" transform="translate(22.836 -0.125)" fill="#fff"/>
          <path id="Path_886486" data-name="Path 886486" d="M13.834,30.1a1.175,1.175,0,1,1-1.189,1.175A1.2,1.2,0,0,1,13.834,30.1" transform="translate(22.836 -2.889)" fill="#fff"/>
          <path id="Path_886487" data-name="Path 886487" d="M1.189,22.6a1.175,1.175,0,1,1,0,2.35,1.175,1.175,0,1,1,0-2.35" transform="translate(46.912 -2.169)" fill="#fff"/>
          <path id="Path_886488" data-name="Path 886488" d="M5.388,37.331a2.853,2.853,0,0,1,2.011.814l1.144,1.13,2.423-2.4-3.2-3.164A3.639,3.639,0,0,1,6.76,31.274a3.473,3.473,0,0,1,1.006-2.441,3.724,3.724,0,0,1,2.469-.994,3.593,3.593,0,0,1,1.487.337l17.9-17.694a1.126,1.126,0,0,1,.824-.362h7.59l6.127-6.057a1.169,1.169,0,0,1,1.646,0,1.136,1.136,0,0,1,0,1.627L39.68,11.748v7.5a1.34,1.34,0,0,1-.365.814l-5.67,5.6h0L31.268,28.02,26.6,32.629a1.125,1.125,0,0,1-.184.272,1.276,1.276,0,0,1-.335.241L21.4,37.771a3.3,3.3,0,0,1,.353,1.458,3.473,3.473,0,0,1-1.006,2.441,3.562,3.562,0,0,1-4.938,0l-3.2-3.164-2.424,2.4,1.235,1.22a2.813,2.813,0,0,1,0,3.978,2.894,2.894,0,0,1-4.024,0L3.376,42.122a2.815,2.815,0,0,1,0-3.978,2.854,2.854,0,0,1,2.012-.814m32.1-24.95H30.993L13.526,29.647l6.493,6.418,1.555-1.537-1.737-1.718a1.136,1.136,0,0,1,0-1.627,1.168,1.168,0,0,1,1.645,0L23.22,32.9,24,32.133l-2.423-2.4a1.136,1.136,0,0,1,0-1.627,1.168,1.168,0,0,1,1.645,0l2.424,2.4.809-.8L24.683,28.02a1.136,1.136,0,0,1,0-1.627,1.169,1.169,0,0,1,1.646,0l1.737,1.718.824-.814-2.47-2.441a1.138,1.138,0,0,1,0-1.627,1.169,1.169,0,0,1,1.646,0l2.469,2.441.731-.723-1.737-1.718a1.138,1.138,0,0,1,0-1.627,1.169,1.169,0,0,1,1.646,0l1.737,1.718,4.572-4.52ZM17.458,40.133a1.124,1.124,0,0,0,.824.362,1.163,1.163,0,0,0,.823-.362,1.1,1.1,0,0,0,.366-.814,1.336,1.336,0,0,0-.366-.814l-8.047-7.955a1.122,1.122,0,0,0-.823-.362,1,1,0,0,0-.824.362,1.1,1.1,0,0,0-.365.814,1.34,1.34,0,0,0,.365.814l3.75,3.706a.831.831,0,0,1,.457.453ZM5.022,40.4l4.024,3.978a.366.366,0,0,0,.365.181c.092,0,.184,0,.366-.181a.468.468,0,0,0,.183-.362c0-.09,0-.181-.183-.362L5.754,39.681a.366.366,0,0,0-.365-.181.366.366,0,0,0-.366.181.36.36,0,0,0-.183.362.683.683,0,0,0,.183.362" transform="translate(0.83 -0.357)" fill="#fff"/>
          <path id="Path_886489" data-name="Path 886489" d="M8.533,38.7a3.435,3.435,0,1,1-3.475,3.435A3.453,3.453,0,0,1,8.533,38.7m0,4.7a1.175,1.175,0,1,0-1.189-1.175A1.2,1.2,0,0,0,8.533,43.4" transform="translate(32.709 -3.715)" fill="#fff"/>
          <path id="Path_886490" data-name="Path 886490" d="M29.314,7.955A4.036,4.036,0,0,1,25.29,3.978a4.024,4.024,0,0,1,8.047,0,4.036,4.036,0,0,1-4.024,3.978m0-5.6a1.672,1.672,0,0,0-1.737,1.718,1.738,1.738,0,0,0,3.475,0A1.726,1.726,0,0,0,29.314,2.35" transform="translate(-6.91 0)" fill="#fff"/>
          <path id="Path_886491" data-name="Path 886491" d="M45.928,25.7a2.8,2.8,0,1,1,2.835-2.8,2.833,2.833,0,0,1-2.835,2.8m0-3.345a.525.525,0,0,0-.549.542.549.549,0,1,0,.549-.542" transform="translate(-38.429 -1.929)" fill="#fff"/>
        </g>
      </g>
    </g>
  </g>
</svg>
