<svg xmlns="http://www.w3.org/2000/svg" xmlns:xlink="http://www.w3.org/1999/xlink" width="122" height="122" viewBox="0 0 122 122">
  <defs>
    <clipPath id="clip-path">
      <rect id="Rectangle_400938" data-name="Rectangle 400938" width="122" height="122" fill="#2bc897"/>
    </clipPath>
    <clipPath id="clip-path-2">
      <path id="Path_873460" data-name="Path 873460" d="M0,1.307A1.349,1.349,0,0,0,1.389,2.613,1.349,1.349,0,0,0,2.778,1.307,1.349,1.349,0,0,0,1.389,0,1.349,1.349,0,0,0,0,1.307" transform="translate(0)" fill="#005865"/>
    </clipPath>
    <clipPath id="clip-path-3">
      <path id="Path_873466" data-name="Path 873466" d="M0,1.307A1.349,1.349,0,0,0,1.39,2.613,1.349,1.349,0,0,0,2.778,1.307,1.349,1.349,0,0,0,1.39,0,1.349,1.349,0,0,0,0,1.307" fill="#005865"/>
    </clipPath>
    <clipPath id="clip-path-4">
      <path id="Path_873467" data-name="Path 873467" d="M0,1.306A1.349,1.349,0,0,0,1.389,2.612,1.349,1.349,0,0,0,2.778,1.306,1.349,1.349,0,0,0,1.389,0,1.349,1.349,0,0,0,0,1.306" transform="translate(0 0)" fill="#005865"/>
    </clipPath>
    <clipPath id="clip-path-5">
      <path id="Path_873468" data-name="Path 873468" d="M0,1.306A1.349,1.349,0,0,0,1.39,2.612,1.349,1.349,0,0,0,2.778,1.306,1.349,1.349,0,0,0,1.39,0,1.349,1.349,0,0,0,0,1.306" transform="translate(0 0)" fill="#005865"/>
    </clipPath>
    <clipPath id="clip-path-6">
      <path id="Path_873469" data-name="Path 873469" d="M0,1.306A1.349,1.349,0,0,0,1.389,2.612,1.349,1.349,0,0,0,2.777,1.306,1.349,1.349,0,0,0,1.389,0,1.349,1.349,0,0,0,0,1.306" transform="translate(0 0)" fill="#005865"/>
    </clipPath>
    <clipPath id="clip-path-9">
      <path id="Path_873473" data-name="Path 873473" d="M0,1.306A1.349,1.349,0,0,0,1.39,2.612,1.348,1.348,0,0,0,2.778,1.306,1.349,1.349,0,0,0,1.39,0,1.349,1.349,0,0,0,0,1.306" transform="translate(0 0)" fill="#005865"/>
    </clipPath>
    <clipPath id="clip-path-22">
      <rect id="Rectangle_401492" data-name="Rectangle 401492" width="54.022" height="54.022" transform="translate(-0.73 -0.541)" fill="#fff" stroke="#707070" stroke-width="1"/>
    </clipPath>
    <clipPath id="clip-path-23">
      <rect id="Rectangle_406439" data-name="Rectangle 406439" width="48.289" height="46.555" fill="#fff"/>
    </clipPath>
  </defs>
  <g id="Group_1111808" data-name="Group 1111808" transform="translate(23057.926 3814.948)">
    <g id="Group_1100237" data-name="Group 1100237" transform="translate(-23054.037 -3797.84)">
      <g id="Group_1099505" data-name="Group 1099505" transform="translate(1.808 8.418)">
        <g id="Group_1099504" data-name="Group 1099504" transform="translate(0)" clip-path="url(#clip-path-2)">
          <rect id="Rectangle_401140" data-name="Rectangle 401140" width="2.777" height="2.613" transform="translate(0)" fill="#005865"/>
        </g>
      </g>
      <g id="Group_1099517" data-name="Group 1099517" transform="translate(37.056 8.418)">
        <g id="Group_1099516" data-name="Group 1099516" transform="translate(0)" clip-path="url(#clip-path-3)">
          <rect id="Rectangle_401146" data-name="Rectangle 401146" width="2.778" height="2.613" transform="translate(0 0)" fill="#005865"/>
        </g>
      </g>
      <g id="Group_1099519" data-name="Group 1099519" transform="translate(30.194 8.418)">
        <g id="Group_1099518" data-name="Group 1099518" transform="translate(0 0)" clip-path="url(#clip-path-4)">
          <rect id="Rectangle_401147" data-name="Rectangle 401147" width="2.778" height="2.612" transform="translate(0 0)" fill="#005865"/>
        </g>
      </g>
      <g id="Group_1099521" data-name="Group 1099521" transform="translate(23.332 8.418)">
        <g id="Group_1099520" data-name="Group 1099520" transform="translate(0 0)" clip-path="url(#clip-path-5)">
          <rect id="Rectangle_401148" data-name="Rectangle 401148" width="2.778" height="2.612" transform="translate(0 0)" fill="#005865"/>
        </g>
      </g>
      <g id="Group_1099523" data-name="Group 1099523" transform="translate(16.47 8.418)">
        <g id="Group_1099522" data-name="Group 1099522" transform="translate(0 0)" clip-path="url(#clip-path-6)">
          <rect id="Rectangle_401149" data-name="Rectangle 401149" width="2.777" height="2.612" transform="translate(0 0)" fill="#005865"/>
        </g>
      </g>
      <g id="Group_1099525" data-name="Group 1099525" transform="translate(34.311 0)">
        <g id="Group_1099524" data-name="Group 1099524" clip-path="url(#clip-path-4)">
          <rect id="Rectangle_401150" data-name="Rectangle 401150" width="2.778" height="2.612" transform="translate(0 0)" fill="#005865"/>
        </g>
      </g>
      <g id="Group_1099529" data-name="Group 1099529" transform="translate(27.448 0)">
        <g id="Group_1099528" data-name="Group 1099528" transform="translate(0)" clip-path="url(#clip-path-5)">
          <rect id="Rectangle_401152" data-name="Rectangle 401152" width="2.778" height="2.612" transform="translate(0 0)" fill="#005865"/>
        </g>
      </g>
      <g id="Group_1099531" data-name="Group 1099531" transform="translate(13.724 0)">
        <g id="Group_1099530" data-name="Group 1099530" transform="translate(0)" clip-path="url(#clip-path-9)">
          <rect id="Rectangle_401153" data-name="Rectangle 401153" width="2.777" height="2.612" transform="translate(0 0)" fill="#005865"/>
        </g>
      </g>
      <g id="Group_1099533" data-name="Group 1099533" transform="translate(6.862 0)">
        <g id="Group_1099532" data-name="Group 1099532" clip-path="url(#clip-path-4)">
          <rect id="Rectangle_401154" data-name="Rectangle 401154" width="2.778" height="2.612" transform="translate(0 0)" fill="#005865"/>
        </g>
      </g>
      <g id="Group_1099535" data-name="Group 1099535" transform="translate(0 0)">
        <g id="Group_1099534" data-name="Group 1099534" transform="translate(0)" clip-path="url(#clip-path-5)">
          <rect id="Rectangle_401155" data-name="Rectangle 401155" width="2.778" height="2.612" transform="translate(0 0)" fill="#005865"/>
        </g>
      </g>
    </g>
    <g id="Group_1100238" data-name="Group 1100238" transform="translate(-22980.445 -3724.661)">
      <g id="Group_1099505-2" data-name="Group 1099505" transform="translate(1.808 8.418)">
        <g id="Group_1099504-2" data-name="Group 1099504" transform="translate(0)" clip-path="url(#clip-path-2)">
          <rect id="Rectangle_401140-2" data-name="Rectangle 401140" width="2.777" height="2.613" transform="translate(0)" fill="#005865"/>
        </g>
      </g>
      <g id="Group_1099517-2" data-name="Group 1099517" transform="translate(37.056 8.418)">
        <g id="Group_1099516-2" data-name="Group 1099516" transform="translate(0)" clip-path="url(#clip-path-3)">
          <rect id="Rectangle_401146-2" data-name="Rectangle 401146" width="2.778" height="2.613" transform="translate(0 0)" fill="#005865"/>
        </g>
      </g>
      <g id="Group_1099519-2" data-name="Group 1099519" transform="translate(30.194 8.418)">
        <g id="Group_1099518-2" data-name="Group 1099518" transform="translate(0 0)" clip-path="url(#clip-path-4)">
          <rect id="Rectangle_401147-2" data-name="Rectangle 401147" width="2.778" height="2.612" transform="translate(0 0)" fill="#005865"/>
        </g>
      </g>
      <g id="Group_1099521-2" data-name="Group 1099521" transform="translate(23.332 8.418)">
        <g id="Group_1099520-2" data-name="Group 1099520" transform="translate(0 0)" clip-path="url(#clip-path-5)">
          <rect id="Rectangle_401148-2" data-name="Rectangle 401148" width="2.778" height="2.612" transform="translate(0 0)" fill="#005865"/>
        </g>
      </g>
      <g id="Group_1099523-2" data-name="Group 1099523" transform="translate(16.47 8.418)">
        <g id="Group_1099522-2" data-name="Group 1099522" transform="translate(0 0)" clip-path="url(#clip-path-6)">
          <rect id="Rectangle_401149-2" data-name="Rectangle 401149" width="2.777" height="2.612" transform="translate(0 0)" fill="#005865"/>
        </g>
      </g>
      <g id="Group_1099525-2" data-name="Group 1099525" transform="translate(34.311 0)">
        <g id="Group_1099524-2" data-name="Group 1099524" clip-path="url(#clip-path-4)">
          <rect id="Rectangle_401150-2" data-name="Rectangle 401150" width="2.778" height="2.612" transform="translate(0 0)" fill="#005865"/>
        </g>
      </g>
      <g id="Group_1099529-2" data-name="Group 1099529" transform="translate(27.448 0)">
        <g id="Group_1099528-2" data-name="Group 1099528" transform="translate(0)" clip-path="url(#clip-path-5)">
          <rect id="Rectangle_401152-2" data-name="Rectangle 401152" width="2.778" height="2.612" transform="translate(0 0)" fill="#005865"/>
        </g>
      </g>
      <g id="Group_1099531-2" data-name="Group 1099531" transform="translate(13.724 0)">
        <g id="Group_1099530-2" data-name="Group 1099530" transform="translate(0)" clip-path="url(#clip-path-9)">
          <rect id="Rectangle_401153-2" data-name="Rectangle 401153" width="2.777" height="2.612" transform="translate(0 0)" fill="#005865"/>
        </g>
      </g>
      <g id="Group_1099533-2" data-name="Group 1099533" transform="translate(6.862 0)">
        <g id="Group_1099532-2" data-name="Group 1099532" clip-path="url(#clip-path-4)">
          <rect id="Rectangle_401154-2" data-name="Rectangle 401154" width="2.778" height="2.612" transform="translate(0 0)" fill="#005865"/>
        </g>
      </g>
      <g id="Group_1099535-2" data-name="Group 1099535" transform="translate(0 0)">
        <g id="Group_1099534-2" data-name="Group 1099534" transform="translate(0)" clip-path="url(#clip-path-5)">
          <rect id="Rectangle_401155-2" data-name="Rectangle 401155" width="2.778" height="2.612" transform="translate(0 0)" fill="#005865"/>
        </g>
      </g>
    </g>
    <path id="Union_17" data-name="Union 17" d="M-4150.107,4311.383l-33.056-32.927a18.528,18.528,0,0,1,0-26.2l33.054-32.926a18.7,18.7,0,0,1,26.3,0l33.056,32.928a18.528,18.528,0,0,1,0,26.2l-33.056,32.927a18.576,18.576,0,0,1-13.15,5.4A18.575,18.575,0,0,1-4150.107,4311.383Z" transform="translate(-18858.305 -8017.512)" fill="#41cee2" stroke="rgba(0,0,0,0)" stroke-miterlimit="10" stroke-width="1"/>
    <circle id="Ellipse_11579" data-name="Ellipse 11579" cx="39.5" cy="39.5" r="39.5" transform="translate(-23034.504 -3791.418)" fill="#005865"/>
    <g id="Mask_Group_1098697" data-name="Mask Group 1098697" transform="translate(-23022.008 -3778.646)" clip-path="url(#clip-path-22)">
      <g id="Group_1111811" data-name="Group 1111811" transform="translate(2.269 3.459)">
        <g id="Group_1111810" data-name="Group 1111810" clip-path="url(#clip-path-23)">
          <path id="Path_886465" data-name="Path 886465" d="M4.494,39.47c-.865-.153-.948-1.323.107-1.471l9.305-.021c1.326-3.728,4.919-5.229,8.622-3.912a6.549,6.549,0,0,0,1.01.463c.169,0,1.341-.608,1.748-.712.291-.074,1.53-.2,1.562-.334l-.072-19.652c-.138-.645-.677-.761-1.261-.811-3.055-.262-6.48.2-9.574,0-1.027-.173-1.3,1.587-2.227.843-.48-.384-.292-.693-1.155-.818a31.294,31.294,0,0,1-3.279-.077c-.661-.3-.455-1.231.443-1.331a14.661,14.661,0,0,1,3.7.149c.19.063.7.415.741.415.083,0,1.117-.71,1.482-.562l9.028-.05.493-1.431c-.873-.051-1.745.309-1.875-.839-.3-2.631.225-5.8,0-8.489a.809.809,0,0,1,.667-.813L44.853,0c.606.011.779.391.839.937.288,2.608-.216,5.725,0,8.388-.13,1.148-1,.789-1.875.839a4.96,4.96,0,0,0,1.045,2.359c.851,1.136,2.334,1.71,2.922,3a10.919,10.919,0,0,1,.378,4.363.722.722,0,0,1-1.332.342,21.611,21.611,0,0,1-.053-3.006c-.157-1.72-1-1.808-2.072-2.763a7.763,7.763,0,0,1-2.377-4.284l-15.519,0-.557,1.565a2.1,2.1,0,0,1,1.334.691h.146c-.012-.4.274-.552.64-.595,2.188-.254,4.86.19,7.1.008a.7.7,0,0,1,.6.98,2.649,2.649,0,0,1-.392.4H28.127l.1,7.3H43.768c.223,0,.517.494.449.735l-.1,15.7a1.907,1.907,0,0,1-.451.339H32.864a7.165,7.165,0,0,1,0,5.723h3.4c.484,0,.844,1.138.078,1.361l-4.5.041a6.62,6.62,0,0,1-7.4,1.634c-.371-.143-.626-.43-1-.47a6.623,6.623,0,0,1-9.587-3.347l-.974.293c-3.449-.231-7.26.291-10.666,0A2.432,2.432,0,0,1,0,40.313L.03,13.692A2.434,2.434,0,0,1,2.418,11.64a28.375,28.375,0,0,1,4.241.009.692.692,0,1,1-.089,1.381c-1.04.1-4.253-.3-4.882.347a1.345,1.345,0,0,0-.279.609v26.2a1.09,1.09,0,0,0,1.111.961c3.123.349,6.876-.262,10.065,0,1.051-.12.982-.8.938-1.677ZM26.549,1.479H24.773v7.3h1.776Zm4.835,0H27.93v7.3h3.454Zm4.835,0H32.765V8.633l.148.148h3.306Zm4.835,0H37.6v7.3h3.454Zm3.158,0H42.436V8.633l.148.148h1.629Zm-15.986,30.2H42.683l.148-.148V22.053l-.148-.148H28.226Zm2.961,3.355c.107.193.646.888.838.888H42.831V33.056h-14.6l0,.687c1.1-.065,2.106,1.029,2.956,1.287-.367-.663-.29-1.193.54-1.285a37.9,37.9,0,0,1,5.621.009.706.706,0,0,1,.2,1.373c-1.892-.108-3.953.153-5.824.006a2.416,2.416,0,0,1-.538-.1m-11.272-.072c-6.666.131-6.52,10.522.47,10.141,6.457-.352,6.1-10.27-.47-10.141m6.535,6.091h2.615a.713.713,0,0,1-.094,1.386,25.832,25.832,0,0,0-2.918.042L24.772,44.55a5.031,5.031,0,1,0,0-8.976,6.715,6.715,0,0,1,1.678,5.475" transform="translate(0 0.001)" fill="#fff"/>
          <path id="Path_886466" data-name="Path 886466" d="M99.221,51.989a.9.9,0,0,1,.232.605c-.317,5.8.4,12.017,0,17.773a3.922,3.922,0,0,1-3.136,3.672,38.931,38.931,0,0,1-5.9.028c-.9-.077-1-.94-.247-1.341,1.826-.236,3.962.176,5.752-.07a2.517,2.517,0,0,0,2.151-2.487l.069-17.989a.774.774,0,0,1,1.083-.191" transform="translate(-51.287 -29.658)" fill="#fff"/>
          <path id="Path_886467" data-name="Path 886467" d="M32.618,34.185a1.353,1.353,0,0,1,.227.709V52.567c0,1.253-1.488,1.253-1.488,0l.052-18.016a.757.757,0,0,1,1.21-.366" transform="translate(-17.935 -19.457)" fill="#fff"/>
          <path id="Path_886468" data-name="Path 886468" d="M43.628,59.071c4.876-.29,5.105,7.28.166,7.284-4.554,0-4.857-7.005-.166-7.284m-.4,1.476c-2.114.43-2.084,3.965.082,4.313a2.22,2.22,0,1,0-.082-4.313" transform="translate(-23.018 -33.784)" fill="#fff"/>
          <path id="Path_886469" data-name="Path 886469" d="M12.33,59.071c4.968-.3,5.091,7.288.265,7.284-4.672,0-4.856-7.011-.265-7.284m-.3,1.477a2.252,2.252,0,0,0-1.3,3.424,2.278,2.278,0,0,0,3.151.5,2.213,2.213,0,0,0-1.851-3.924" transform="translate(-5.14 -33.783)" fill="#fff"/>
          <path id="Path_886470" data-name="Path 886470" d="M43.63,37.861c4.806-.282,5.148,7.14.265,7.283-4.607.134-5.024-7-.265-7.283m-.3,1.477c-2.356.4-2.229,4.279.4,4.391,3.147.134,3.074-4.981-.4-4.391" transform="translate(-23.021 -21.651)" fill="#fff"/>
          <path id="Path_886471" data-name="Path 886471" d="M12.336,37.86c4.895-.291,5.131,7.149.364,7.282-4.719.133-5.023-7.006-.364-7.282m-.3,1.477c-2.352.4-2.193,4.335.5,4.389,3.093.063,2.958-4.984-.5-4.389" transform="translate(-5.146 -21.651)" fill="#fff"/>
          <path id="Path_886472" data-name="Path 886472" d="M9.452,83.667a13.572,13.572,0,0,1,2.425,0c.7.16.568,1.19-.1,1.339a11.74,11.74,0,0,1-2.228,0,.693.693,0,0,1-.1-1.34" transform="translate(-5.134 -47.826)" fill="#fff"/>
          <path id="Path_886473" data-name="Path 886473" d="M86.781,27.655a6.454,6.454,0,0,1,1.88.052.706.706,0,0,1-.229,1.3,7.182,7.182,0,0,1-1.9-.067.705.705,0,0,1,.244-1.288" transform="translate(-49.307 -15.794)" fill="#fff"/>
          <path id="Path_886474" data-name="Path 886474" d="M77.434,56.248a1.832,1.832,0,1,1-.006,3.659,1.832,1.832,0,1,1-3.659.006,1.836,1.836,0,1,1-.005-3.671,1.836,1.836,0,1,1,3.671.006m-2.017-.475c-.37.128-.21,1.125-.262,1.417-.115.64-1.23.532-1.71.559-.153.046-.172.182-.172.332a.442.442,0,0,0,.058.248c.416.413,1.215-.006,1.626.347.439.378-.09,1.738.645,1.733.633,0,.386-.923.45-1.336.138-.9,1.187-.361,1.672-.6.244-.119.305-.638.035-.726-.484-.028-1.592.082-1.71-.56-.074-.4.219-1.711-.631-1.417" transform="translate(-41.109 -31.092)" fill="#fff"/>
          <path id="Path_886475" data-name="Path 886475" d="M43.179,95.449c-.332.33-.713.2-1.051-.029a24.149,24.149,0,0,1-2.476-2.458c-.416-.519-.6-1.377.256-1.433.34-.022,1.421,1.032,1.722,1.329.535.527,1.031,1.232,1.617,1.738a.693.693,0,0,1-.068.852" transform="translate(-22.481 -52.355)" fill="#fff"/>
          <path id="Path_886476" data-name="Path 886476" d="M45.281,65.262c1.147-.231,1.24,1.827.264,1.954-1.065.139-1.093-1.787-.264-1.954" transform="translate(-25.567 -37.319)" fill="#fff"/>
          <path id="Path_886477" data-name="Path 886477" d="M13.682,65.468a1.329,1.329,0,0,1,.608-.222c.948.051.939,2.224-.267,1.953-.607-.137-.6-1.458-.342-1.731" transform="translate(-7.731 -37.32)" fill="#fff"/>
          <path id="Path_886478" data-name="Path 886478" d="M45.281,44.051c1.165-.235,1.219,1.861.263,1.956-1.067.106-1.092-1.789-.263-1.956" transform="translate(-25.567 -25.187)" fill="#fff"/>
          <path id="Path_886479" data-name="Path 886479" d="M13.684,45.786c-.266-.329-.268-1.59.341-1.722,1.211-.264,1.158,1.819.364,1.95a.9.9,0,0,1-.7-.227" transform="translate(-7.73 -25.191)" fill="#fff"/>
        </g>
      </g>
    </g>
  </g>
</svg>
