<svg xmlns="http://www.w3.org/2000/svg" xmlns:xlink="http://www.w3.org/1999/xlink" width="72.996" height="73" viewBox="0 0 72.996 73">
  <defs>
    <clipPath id="clip-path">
      <rect id="Rectangle_403416" data-name="Rectangle 403416" width="71.683" height="58.902" fill="#59c4c8"/>
    </clipPath>
    <clipPath id="clip-path-2">
      <path id="Path_875268" data-name="Path 875268" d="M1.1,22.912,0,23.293v7.9a5.187,5.187,0,0,0,2.421,4.17L29.988,55.009a10.8,10.8,0,0,0,11.707,0L69.263,35.37a5.21,5.21,0,0,0,2.42-4.1c0-.066,0-.132,0-.2h0V23.367l-1.728-1.185C69.468,25.819,66,28.217,63.1,28.715L43.345,42.969l-8.621,3.841L7.207,29.288l.636-.453c-2.351-1.356-3.618-4.456-4.89-7.285Z" transform="translate(0 -21.549)" fill="#61dfe4"/>
    </clipPath>
    <clipPath id="clip-path-3">
      <rect id="Rectangle_403409" data-name="Rectangle 403409" width="71.683" height="58.902" fill="none"/>
    </clipPath>
    <clipPath id="clip-path-4">
      <rect id="Rectangle_403408" data-name="Rectangle 403408" width="35.842" height="34.45" fill="none"/>
    </clipPath>
    <clipPath id="clip-path-5">
      <path id="Path_875270" data-name="Path 875270" d="M26.3,6.628,3.311,23.549c1.272,2.829,2.539,5.929,4.89,7.285L34.324,12.221a3.459,3.459,0,0,1,3.749,0L63.74,30.508l-.285.207c2.9-.5,6.37-2.9,6.858-6.533L41.508,4.411,33.126,1.678Z" transform="translate(-3.311 -1.678)" fill="#61dfe4"/>
    </clipPath>
    <clipPath id="clip-path-7">
      <rect id="Rectangle_403411" data-name="Rectangle 403411" width="32.888" height="29.156" fill="none"/>
    </clipPath>
    <clipPath id="clip-path-8">
      <path id="Path_875272" data-name="Path 875272" d="M33.967,46.513,6.4,26.872a1.539,1.539,0,0,1,0-2.672L33.966,4.56a3.457,3.457,0,0,1,3.749,0L65.283,24.2a1.538,1.538,0,0,1,0,2.671L37.716,46.512a3.458,3.458,0,0,1-3.749,0M35.736,0a10.166,10.166,0,0,0-5.749,1.725L2.421,21.365c-3.227,2.3-3.227,6.041,0,8.341L29.989,49.347a10.793,10.793,0,0,0,11.707,0L69.263,29.706c3.227-2.3,3.227-6.041,0-8.341L41.695,1.725A10.166,10.166,0,0,0,35.946,0Z" transform="translate(-0.001)" fill="#2bc897"/>
    </clipPath>
    <clipPath id="clip-path-10">
      <path id="Path_875275" data-name="Path 875275" d="M33.322,46.995,5.755,27.355a2.178,2.178,0,0,1,0-3.782L33.321,3.934a4.894,4.894,0,0,1,5.307,0L66.195,23.574a2.177,2.177,0,0,1,0,3.781L38.628,46.995a4.894,4.894,0,0,1-5.306,0M30.9,2.208,3.333,21.847c-2.8,1.994-2.8,5.239,0,7.232L30.9,48.722a9.367,9.367,0,0,0,10.151,0L68.617,29.08c2.8-1.992,2.8-5.237,0-7.231L41.049,2.208a9.359,9.359,0,0,0-10.151,0" transform="translate(-1.234 -0.712)" fill="#2bc897"/>
    </clipPath>
    <clipPath id="clip-path-11">
      <rect id="Rectangle_403518" data-name="Rectangle 403518" width="60.873" height="61.12" fill="#fff"/>
    </clipPath>
    <clipPath id="clip-path-12">
      <rect id="Rectangle_403232" data-name="Rectangle 403232" width="72.996" height="50.71" fill="#61dfe4"/>
    </clipPath>
    <clipPath id="clip-path-13">
      <rect id="Rectangle_406931" data-name="Rectangle 406931" width="34.453" height="38.112" fill="#005865"/>
    </clipPath>
  </defs>
  <g id="Group_1112427" data-name="Group 1112427" transform="translate(-207.499 -4907.449)">
    <g id="Group_1109427" data-name="Group 1109427" transform="translate(208.254 4907.449)">
      <g id="Group_1100744" data-name="Group 1100744" transform="translate(0.004 14.098)">
        <g id="Group_1100514" data-name="Group 1100514" clip-path="url(#clip-path)">
          <g id="Group_1100495" data-name="Group 1100495" transform="translate(0 23.717)">
            <g id="Group_1100494" data-name="Group 1100494" clip-path="url(#clip-path-2)">
              <path id="Path_875399" data-name="Path 875399" d="M0,0,71.633-6.175l-7.76,81.049L-7.76,81.049Z" transform="translate(-12.548 26.819) rotate(-60)" fill="#61dfe4"/>
            </g>
          </g>
          <g id="Group_1100500" data-name="Group 1100500" transform="translate(0 0)">
            <g id="Group_1100499" data-name="Group 1100499" clip-path="url(#clip-path-3)">
              <g id="Group_1100498" data-name="Group 1100498" transform="translate(35.841 24.452)" opacity="0.3">
                <g id="Group_1100497" data-name="Group 1100497">
                  <g id="Group_1100496" data-name="Group 1100496" clip-path="url(#clip-path-4)">
                    <path id="Path_875269" data-name="Path 875269" d="M67.442,28.647,47.689,42.9l-7.5,3.344V56.667a10.2,10.2,0,0,0,5.854-1.725L73.606,35.3a5.208,5.208,0,0,0,2.42-4.1c0-.066,0-.133,0-.2l0,0V23.3l-1.58-1.084h-.165c-.539,3.58-3.968,5.937-6.841,6.431" transform="translate(-40.185 -22.217)" fill="#0f054c"/>
                  </g>
                </g>
              </g>
            </g>
          </g>
          <g id="Group_1100502" data-name="Group 1100502" transform="translate(2.953 1.847)">
            <g id="Group_1100501" data-name="Group 1100501" clip-path="url(#clip-path-5)">
              <path id="Path_875400" data-name="Path 875400" d="M0,0,63.434-5.469,56.357,68.457-7.078,73.925Z" transform="matrix(0.5, -0.866, 0.866, 0.5, -10.231, 21.867)" fill="#61dfe4"/>
            </g>
          </g>
          <g id="Group_1100507" data-name="Group 1100507" transform="translate(0 0)">
            <g id="Group_1100506" data-name="Group 1100506" clip-path="url(#clip-path-3)">
              <g id="Group_1100505" data-name="Group 1100505" transform="translate(2.953 1.847)" opacity="0.3">
                <g id="Group_1100504" data-name="Group 1100504">
                  <g id="Group_1100503" data-name="Group 1100503" clip-path="url(#clip-path-7)">
                    <path id="Path_875271" data-name="Path 875271" d="M36.2,2.68l-3.073-1L26.3,6.628,3.311,23.548c1.272,2.829,2.538,5.93,4.89,7.286L34.324,12.221A3.27,3.27,0,0,1,36.2,11.67Z" transform="translate(-3.311 -1.678)" fill="#0f054c"/>
                  </g>
                </g>
              </g>
            </g>
          </g>
          <g id="Group_1100509" data-name="Group 1100509" transform="translate(0)">
            <g id="Group_1100508" data-name="Group 1100508" clip-path="url(#clip-path-8)">
              <rect id="Rectangle_403413" data-name="Rectangle 403413" width="73.296" height="51.647" transform="translate(-0.807 0)" fill="#2bc897"/>
            </g>
          </g>
          <g id="Group_1100511" data-name="Group 1100511" transform="translate(0 0)">
            <g id="Group_1100510" data-name="Group 1100510" clip-path="url(#clip-path-3)">
              <path id="Path_875273" data-name="Path 875273" d="M65.965,23.834,38.4,4.193a3.457,3.457,0,0,0-3.749,0L7.082,23.833A1.547,1.547,0,0,0,6.4,25.649a1.843,1.843,0,0,1,.686-.855L34.649,5.153a3.457,3.457,0,0,1,3.749,0L65.965,24.794a1.846,1.846,0,0,1,.686.856,1.546,1.546,0,0,0-.686-1.816" transform="translate(-0.682 0.367)" fill="#fff"/>
              <path id="Path_875274" data-name="Path 875274" d="M69.263,27.329,41.7,46.968a9.878,9.878,0,0,1-4.163,1.6,10.471,10.471,0,0,1-7.544-1.6L2.422,27.327A5.344,5.344,0,0,1,.03,23.637a5.047,5.047,0,0,0,2.392,4.651L29.989,47.929a10.8,10.8,0,0,0,11.707,0L69.263,28.288a5.045,5.045,0,0,0,2.391-4.65,5.344,5.344,0,0,1-2.391,3.69" transform="translate(0 2.379)" fill="#fff"/>
            </g>
          </g>
          <g id="Group_1100513" data-name="Group 1100513" transform="translate(1.1 0.784)">
            <g id="Group_1100512" data-name="Group 1100512" clip-path="url(#clip-path-10)">
              <rect id="Rectangle_403415" data-name="Rectangle 403415" width="70.881" height="50.002" transform="translate(-0.7 0)" fill="#2bc897"/>
            </g>
          </g>
        </g>
      </g>
      <g id="Group_1100749" data-name="Group 1100749" transform="translate(5.307)">
        <g id="Group_1100748" data-name="Group 1100748" clip-path="url(#clip-path-11)">
          <path id="Path_875398" data-name="Path 875398" d="M6.247,0H54.48A6.338,6.338,0,0,1,60.8,6.356l.14,34.756-26.7,18.94a7.554,7.554,0,0,1-7.744,0L-.145,41.219-.072,6.356A6.338,6.338,0,0,1,6.247,0" transform="translate(0.074 0)" fill="#fff"/>
        </g>
      </g>
      <g id="Group_1100745" data-name="Group 1100745" transform="translate(-0.755 6.578)">
        <g id="Group_1100096" data-name="Group 1100096" transform="translate(0 0)" clip-path="url(#clip-path-12)">
          <path id="Path_873771" data-name="Path 873771" d="M36.5,50.711a9.642,9.642,0,0,1-5.42-1.551L2.316,29.276A4.816,4.816,0,0,1,0,25.354a4.813,4.813,0,0,1,2.316-3.921L31.077,1.55a10.26,10.26,0,0,1,10.843,0L70.681,21.434A4.813,4.813,0,0,1,73,25.355a4.816,4.816,0,0,1-2.316,3.922L41.92,49.16A9.645,9.645,0,0,1,36.5,50.711M36.5.595a9.2,9.2,0,0,0-5.169,1.477L2.568,21.955A4.223,4.223,0,0,0,.5,25.354a4.22,4.22,0,0,0,2.064,3.4L31.331,48.638a9.785,9.785,0,0,0,10.337,0L70.429,28.755a4.22,4.22,0,0,0,2.064-3.4,4.22,4.22,0,0,0-2.064-3.4L41.667,2.072A9.2,9.2,0,0,0,36.5.595" transform="translate(0 -0.001)" fill="#61dfe4"/>
        </g>
      </g>
      <rect id="Rectangle_403516" data-name="Rectangle 403516" width="60.873" height="30.446" transform="translate(5.307 4.578)" fill="#fff"/>
    </g>
    <g id="Group_1112431" data-name="Group 1112431" transform="translate(225.623 4913.695)">
      <g id="Group_1099618" data-name="Group 1099618" transform="translate(-0.455 0.245)">
        <rect id="Rectangle_401104" data-name="Rectangle 401104" width="37.658" height="38.112" transform="translate(0)" fill="none"/>
      </g>
      <g id="Group_1112426" data-name="Group 1112426" transform="translate(1.545 0.245)">
        <g id="Group_1112425" data-name="Group 1112425" clip-path="url(#clip-path-13)">
          <path id="Path_887445" data-name="Path 887445" d="M23.876,0V11.1h7.566c1.222,0,3.037,2.378,2.857,3.645-.352,6.312.475,13.144.006,19.4A3.851,3.851,0,0,1,30.544,38c-4.273.358-9.018-.268-13.342.006a3.628,3.628,0,0,1-3.191-1.91H0V0ZM22.643,1.233H1.233V34.861h12.33c.03-.082-.112-.134-.112-.168V32.4H3.7V21.746l9.752,10.425V14.18a5.1,5.1,0,0,1,.517-1.43,6.037,6.037,0,0,1,1.384-1.365A3.681,3.681,0,0,1,16.87,11.1h5.773Zm-6.2,11.123a2.547,2.547,0,0,0-1.761,2.162L14.68,34.361a2.556,2.556,0,0,0,2.522,2.41c4.223.364,8.957-.283,13.235,0a2.576,2.576,0,0,0,2.634-2.634c.488-6.2-.377-13.024,0-19.288a2.509,2.509,0,0,0-2.077-2.518ZM10.761,31.274,4.932,24.885v2.41l3.979,3.979Zm-3.7,0-2.13-2.13v2.13Z" fill="#005865"/>
          <rect id="Rectangle_406928" data-name="Rectangle 406928" width="8.575" height="1.429" transform="translate(3.394 16.196)" fill="#005865"/>
          <rect id="Rectangle_406929" data-name="Rectangle 406929" width="8.575" transform="translate(3.394 19.055)" fill="#005865"/>
          <path id="Path_887447" data-name="Path 887447" d="M87.778,185.83c.958-.287,1.081,1.017.4,1.2-.785.208-1.057-1-.4-1.2" transform="translate(-77.61 -164.963)" fill="#005865"/>
          <path id="Path_887448" data-name="Path 887448" d="M66.266,186.048a.565.565,0,0,1,.592.931c-.768.9-1.54-.736-.592-.931" transform="translate(-58.448 -165.177)" fill="#005865"/>
          <path id="Path_887449" data-name="Path 887449" d="M142.509,174.078c4.067.226,8.635-.389,12.645-.03A1.877,1.877,0,0,1,157,175.789c-.268,3.937.355,8.342,0,12.223a1.973,1.973,0,0,1-1.962,1.962c-3.848.348-8.212-.274-12.116,0a1.873,1.873,0,0,1-1.849-1.85c-.355-3.956.274-8.435,0-12.447a1.9,1.9,0,0,1,1.427-1.6m5.859,1.207h-5.661a.653.653,0,0,0-.392.392v5.661h6.053Zm7.4,6.053v-5.549a1.894,1.894,0,0,0-.392-.5H149.6v6.053Zm-7.4,1.233h-6.053v5.773a1.894,1.894,0,0,0,.5.392h5.549Zm7.4,0H149.6v6.165h5.661a1.1,1.1,0,0,0,.5-.5Z" transform="translate(-125.164 -154.435)" fill="#005865"/>
          <path id="Path_887450" data-name="Path 887450" d="M143.261,120.241l12.59.023a1.928,1.928,0,0,1,1.676,1.8c.151,1.36-.067,2.815-1.636,3.074l-12.855-.016c-1.494-.4-1.568-1.852-1.428-3.169a1.979,1.979,0,0,1,1.653-1.71m-.281,3.533.585.143,12.221-.007c.737-.142.828-2.541-.22-2.466l-12.1.009c-.88-.124-.71,2.095-.484,2.321" transform="translate(-125.691 -106.763)" fill="#005865"/>
          <rect id="Rectangle_406930" data-name="Rectangle 406930" width="2.858" height="1.429" transform="translate(26.26 23.342)" fill="#005865"/>
          <path id="Path_887451" data-name="Path 887451" d="M229.857,259.068c.127-.022.925.679.776.888l-3.366,3.371c-.256.28-1.013-.585-.907-.79Z" transform="translate(-200.977 -230.027)" fill="#005865"/>
          <path id="Path_887452" data-name="Path 887452" d="M251.433,283.922a.616.616,0,1,1,.284,1.2.616.616,0,0,1-.284-1.2" transform="translate(-222.88 -252.067)" fill="#005865"/>
          <path id="Path_887453" data-name="Path 887453" d="M230.192,263.178c-.5.5-1.463-.248-.921-.865.577-.658,1.459.327.921.865" transform="translate(-203.429 -232.716)" fill="#005865"/>
          <path id="Path_887454" data-name="Path 887454" d="M166.462,196.995v1.234h1.122v1.234h-1.122v1.122h-1.234v-1.122H164v-1.234h1.234v-1.234Z" transform="translate(-145.612 -174.913)" fill="#005865"/>
          <path id="Path_887455" data-name="Path 887455" d="M160.816,259.061c.36-.094,1.1,1.014,1.45,1.213l1.352-1.213c.235-.061,1.051.616.825.944-.147.215-1.238,1.142-1.238,1.23l1.335,1.36c-.908,1.591-1.283.323-2.193-.4l-1.442,1.335c-.163-.244-.936-.724-.791-1.006.12-.232,1.294-1.179,1.294-1.29l-1.335-1.361Z" transform="translate(-142.13 -230.017)" fill="#005865"/>
          <path id="Path_887459" data-name="Path 887459" d="M4.321-1.865A.752.752,0,0,0,4.028-2.5a3.843,3.843,0,0,0-1.055-.469,7.477,7.477,0,0,1-1.206-.486A1.971,1.971,0,0,1,.557-5.22,1.717,1.717,0,0,1,.881-6.248a2.118,2.118,0,0,1,.933-.706,3.51,3.51,0,0,1,1.365-.254,3.2,3.2,0,0,1,1.357.276,2.161,2.161,0,0,1,.925.779,2.038,2.038,0,0,1,.33,1.143H4.326a.959.959,0,0,0-.308-.759,1.265,1.265,0,0,0-.864-.271,1.351,1.351,0,0,0-.835.227.716.716,0,0,0-.3.6.686.686,0,0,0,.349.581A3.944,3.944,0,0,0,3.4-4.194a4.441,4.441,0,0,1,1.821.933,1.857,1.857,0,0,1,.571,1.387,1.711,1.711,0,0,1-.7,1.448A3.057,3.057,0,0,1,3.213.1,3.63,3.63,0,0,1,1.719-.2,2.364,2.364,0,0,1,.691-1.025,2.107,2.107,0,0,1,.337-2.236h1.47q0,1.177,1.406,1.177a1.368,1.368,0,0,0,.815-.212A.691.691,0,0,0,4.321-1.865Zm6.147,0a.752.752,0,0,0-.293-.637,3.843,3.843,0,0,0-1.055-.469,7.477,7.477,0,0,1-1.206-.486A1.971,1.971,0,0,1,6.7-5.22a1.717,1.717,0,0,1,.325-1.028,2.118,2.118,0,0,1,.933-.706,3.51,3.51,0,0,1,1.365-.254,3.2,3.2,0,0,1,1.357.276,2.161,2.161,0,0,1,.925.779,2.038,2.038,0,0,1,.33,1.143H10.474a.959.959,0,0,0-.308-.759A1.265,1.265,0,0,0,9.3-6.04a1.351,1.351,0,0,0-.835.227.716.716,0,0,0-.3.6.686.686,0,0,0,.349.581,3.944,3.944,0,0,0,1.028.439,4.441,4.441,0,0,1,1.821.933,1.857,1.857,0,0,1,.571,1.387,1.711,1.711,0,0,1-.7,1.448A3.057,3.057,0,0,1,9.36.1,3.63,3.63,0,0,1,7.866-.2a2.364,2.364,0,0,1-1.028-.823,2.107,2.107,0,0,1-.354-1.211h1.47q0,1.177,1.406,1.177a1.368,1.368,0,0,0,.815-.212A.691.691,0,0,0,10.469-1.865Z" transform="translate(3.798 10)" fill="#005865"/>
        </g>
      </g>
    </g>
  </g>
</svg>
