<svg xmlns="http://www.w3.org/2000/svg" xmlns:xlink="http://www.w3.org/1999/xlink" width="178" height="178" viewBox="0 0 178 178">
  <defs>
    <clipPath id="clip-path">
      <rect id="Rectangle_408236" data-name="Rectangle 408236" width="97.617" height="88.011" fill="none"/>
    </clipPath>
  </defs>
  <g id="Group_1113361" data-name="Group 1113361" transform="translate(-20839 9894.248)">
    <g id="Group_1113086" data-name="Group 1113086" transform="translate(20839 -9894.247)">
      <path id="Path_882862" data-name="Path 882862" d="M89,0A89,89,0,1,1,0,89,89,89,0,0,1,89,0Z" transform="translate(0 -0.001)" fill="#005865"/>
      <path id="Path_882863" data-name="Path 882863" d="M78.668,0A78.668,78.668,0,1,1,0,78.668,78.668,78.668,0,0,1,78.668,0Z" transform="translate(10.332 10.331)" fill="#f3f9ff"/>
    </g>
    <g id="Group_1113090" data-name="Group 1113090" transform="translate(20878 -9855.247)">
      <rect id="Rectangle_401104" data-name="Rectangle 401104" width="99.117" height="100.574" fill="none"/>
      <g id="Group_1113347" data-name="Group 1113347" transform="translate(1.5 9.857)">
        <path id="Path_888850" data-name="Path 888850" d="M160.021,458.325H140.708l-9.2,6.218h37.72Z" transform="translate(-115.557 -402.743)" fill="#0b2941"/>
        <g id="Group_1113346" data-name="Group 1113346">
          <g id="Group_1113345" data-name="Group 1113345" clip-path="url(#clip-path)">
            <path id="Path_888851" data-name="Path 888851" d="M0,3.518V45.641a3.518,3.518,0,0,0,3.519,3.52H66.1a3.518,3.518,0,0,0,3.518-3.52V3.518A3.518,3.518,0,0,0,66.1,0H3.519A3.517,3.517,0,0,0,0,3.518" transform="translate(0)" fill="#004469"/>
            <path id="Path_888852" data-name="Path 888852" d="M278.031,377.337a1.439,1.439,0,1,1-1.439-1.438,1.438,1.438,0,0,1,1.439,1.438" transform="translate(-241.784 -330.313)" fill="#dadada"/>
            <path id="Path_888853" data-name="Path 888853" d="M226.574,405.991a4.153,4.153,0,0,0-.044-.614H207.269a4.1,4.1,0,0,0-.047.614v1.143h19.352Z" transform="translate(-182.092 -356.216)" fill="#0b2941"/>
            <path id="Path_888854" data-name="Path 888854" d="M207.222,419.86v4.255c0,.139.008.274.021.41h19.312c.013-.136.019-.271.019-.41V419.86Z" transform="translate(-182.092 -368.943)" fill="#004469"/>
            <path id="Path_888855" data-name="Path 888855" d="M97.833,33.348l-61.6,39.793a3.5,3.5,0,0,0,1.422.3H95.638A3.1,3.1,0,0,0,98.9,70.516V35.491a2.771,2.771,0,0,0-1.064-2.143" transform="translate(-31.839 -29.304)" fill="#79b7c1"/>
            <path id="Path_888856" data-name="Path 888856" d="M84.327,27.535a3.461,3.461,0,0,0-2-.633H24.343a3.106,3.106,0,0,0-3.259,2.924V64.852a2.721,2.721,0,0,0,.68,1.769,3.273,3.273,0,0,0,1.157.855l61.6-39.793c-.063-.051-.128-.1-.195-.149" transform="translate(-18.527 -23.64)" fill="#b8fafd"/>
            <rect id="Rectangle_408226" data-name="Rectangle 408226" width="42.922" height="4.841" transform="translate(11.813 9.443)" fill="#fff"/>
            <rect id="Rectangle_408227" data-name="Rectangle 408227" width="42.922" height="0.86" transform="translate(11.813 15.084)" fill="#fff"/>
            <rect id="Rectangle_408228" data-name="Rectangle 408228" width="14.115" height="1.076" transform="translate(11.813 17.94)" fill="#fff"/>
            <rect id="Rectangle_408229" data-name="Rectangle 408229" width="14.115" height="1.076" transform="translate(11.813 20.424)" fill="#fff"/>
            <rect id="Rectangle_408230" data-name="Rectangle 408230" width="6.435" height="6.434" transform="translate(11.813 22.674)" fill="#79b7c1"/>
            <rect id="Rectangle_408231" data-name="Rectangle 408231" width="14.115" height="3.55" transform="translate(11.813 30.006)" fill="#fff"/>
            <path id="Path_888857" data-name="Path 888857" d="M257.844,187.869l-5.839-1.34-4.873,3.836-5.154-2.711-5.308,2.159v4.258h26.463v-11.4Z" transform="translate(-207.969 -160.516)" fill="#fb9a00"/>
            <path id="Path_888858" data-name="Path 888858" d="M247.078,159.263l4.808-3.784,5.8,1.332,5.442-5.352v-3.523H236.67v10.829l5.334-2.17Z" transform="translate(-207.969 -129.996)" fill="#fff"/>
            <path id="Path_888859" data-name="Path 888859" d="M247.132,185.375,252,181.539l5.839,1.34,5.29-5.2v-.689l-5.442,5.352-5.8-1.332-4.808,3.784L242,182.124l-5.334,2.17v.529l5.308-2.159Z" transform="translate(-207.969 -155.525)" fill="#de412a"/>
            <rect id="Rectangle_408232" data-name="Rectangle 408232" width="2.235" height="1.594" transform="translate(11.813 35.503)" fill="#fb9a00"/>
            <rect id="Rectangle_408233" data-name="Rectangle 408233" width="2.235" height="1.839" transform="translate(11.813 38.078)" fill="#de412a"/>
            <rect id="Rectangle_408234" data-name="Rectangle 408234" width="39.511" height="1.076" transform="translate(15.653 35.762)" fill="#fff"/>
            <rect id="Rectangle_408235" data-name="Rectangle 408235" width="39.511" height="1.076" transform="translate(15.653 38.46)" fill="#fff"/>
            <path id="Path_888860" data-name="Path 888860" d="M294.394,157.123a70.03,70.03,0,0,1-6.285-3.929,57.309,57.309,0,0,1-8.361-7.572,62.269,62.269,0,0,1-7.208-10.3,58.218,58.218,0,0,1-5.634-14.934,55.122,55.122,0,0,1-1.572-11.2c-.172-3.8-.4-7.6-.621-11.767,0-.534.019-1.426-.008-2.317-.014-.434.133-.6.571-.675,2.506-.4,5.006-.841,7.51-1.259a59.5,59.5,0,0,0,14.005-4.142c2.528-1.1,5.015-2.3,7.5-3.488a2.086,2.086,0,0,1,.691-.211v-3.3h-.392c-.939.488-1.866,1-2.819,1.461a75.305,75.305,0,0,1-14.839,5.735c-3.428.834-6.92,1.41-10.387,2.081-1.488.288-2.987.523-4.481.782v3.919a5.876,5.876,0,0,1,.1.636c.188,3.824.384,7.647.548,11.472a59.536,59.536,0,0,0,1.7,12.036,63.41,63.41,0,0,0,4.867,13.842,58.862,58.862,0,0,0,14.632,18.828,54.349,54.349,0,0,0,8.757,6.326c.611.326,1.247.611,1.886.879a.954.954,0,0,0,.424.065v-2.807a1.279,1.279,0,0,1-.59-.16" transform="translate(-230.285 -72.081)" fill="#006543"/>
            <path id="Path_888861" data-name="Path 888861" d="M556.959,90.426A68.292,68.292,0,0,1,540,84.982c-1.812-.833-3.605-1.706-5.4-2.57a4.675,4.675,0,0,1-.569-.382h-.522v3.3a1.7,1.7,0,0,1,.964.2A88.3,88.3,0,0,0,548.824,91.5a76.23,76.23,0,0,0,10.3,2.181c1.48.224,2.948.524,4.424.769.358.06.465.221.449.57-.2,4.412-.356,8.826-.585,13.236a67.429,67.429,0,0,1-.567,6.886,61.168,61.168,0,0,1-4.524,15.848A54.419,54.419,0,0,1,545.6,148.979a47.673,47.673,0,0,1-9.475,7.222,17.813,17.813,0,0,1-2.245,1.033,1,1,0,0,1-.375.05v2.807a.628.628,0,0,0,.19-.043,26.753,26.753,0,0,0,2.592-1.209,45.421,45.421,0,0,0,7.163-5.092,60.743,60.743,0,0,0,8.848-8.934,61.354,61.354,0,0,0,10.93-21.449,65.478,65.478,0,0,0,2.376-12.579c.238-3.428.37-6.864.55-10.3q.131-2.5.269-5.006v-3.4c-3.155-.555-6.31-1.118-9.467-1.662" transform="translate(-468.809 -72.082)" fill="#2bc897"/>
            <path id="Path_888862" data-name="Path 888862" d="M534.508,111.418a68.007,68.007,0,0,0,14.817,5.988c3.241.783,6.548,1.3,9.824,1.932.892.173,1.782.349,2.749.538-.072,2.124-.127,4.146-.213,6.166-.1,2.347-.245,4.692-.336,7.04a57.523,57.523,0,0,1-6.038,24,51.42,51.42,0,0,1-13.664,17.026,37.574,37.574,0,0,1-7.368,4.882,1.951,1.951,0,0,1-.772.206v1.96a1,1,0,0,0,.375-.05,17.819,17.819,0,0,0,2.245-1.033,47.682,47.682,0,0,0,9.475-7.222,54.421,54.421,0,0,0,12.722-17.987,61.166,61.166,0,0,0,4.524-15.848,67.465,67.465,0,0,0,.567-6.886c.229-4.41.388-8.824.585-13.236.016-.348-.091-.51-.449-.57-1.477-.245-2.944-.545-4.424-.769a76.263,76.263,0,0,1-10.3-2.181,88.291,88.291,0,0,1-14.353-5.965,1.7,1.7,0,0,0-.964-.2v1.959a2.02,2.02,0,0,1,1,.256" transform="translate(-468.809 -95.954)" fill="#d9d7d8"/>
            <path id="Path_888863" data-name="Path 888863" d="M305.905,112.961A59.5,59.5,0,0,1,291.9,117.1c-2.5.418-5,.856-7.51,1.259-.438.071-.585.24-.571.675.027.891.008,1.783.008,2.317.222,4.163.449,7.963.621,11.767a55.122,55.122,0,0,0,1.572,11.2,58.224,58.224,0,0,0,5.634,14.934,62.273,62.273,0,0,0,7.208,10.3,57.3,57.3,0,0,0,8.361,7.572,69.966,69.966,0,0,0,6.284,3.929,1.28,1.28,0,0,0,.59.16v-1.96a1.834,1.834,0,0,1-.945-.246,35.611,35.611,0,0,1-6.605-4.4,59.722,59.722,0,0,1-6.911-6.548A51.461,51.461,0,0,1,289.3,149.593c-.99-3.34-1.748-6.756-2.473-10.166a28.93,28.93,0,0,1-.418-4.607c-.218-4.5-.423-9-.572-13.5-.052-1.566-.364-1.344,1.39-1.675,3.749-.708,7.527-1.3,11.231-2.191a66.225,66.225,0,0,0,14.749-5.978,2.079,2.079,0,0,1,.889-.258v-1.959a2.093,2.093,0,0,0-.691.211c-2.487,1.191-4.974,2.388-7.5,3.488" transform="translate(-249.4 -96.012)" fill="#e8eaea"/>
            <path id="Path_888864" data-name="Path 888864" d="M327.461,125.67a66.232,66.232,0,0,1-14.749,5.978c-3.7.895-7.483,1.483-11.231,2.191-1.754.332-1.442.11-1.39,1.675.149,4.5.354,9,.572,13.5a28.921,28.921,0,0,0,.418,4.607c.726,3.41,1.483,6.826,2.473,10.166a51.461,51.461,0,0,0,10.335,18.468A59.715,59.715,0,0,0,320.8,188.8a35.611,35.611,0,0,0,6.605,4.4,1.833,1.833,0,0,0,.945.246V125.412a2.078,2.078,0,0,0-.888.258" transform="translate(-263.65 -110.203)" fill="#006543"/>
            <path id="Path_888865" data-name="Path 888865" d="M541.648,188.351a51.419,51.419,0,0,0,13.664-17.026,57.521,57.521,0,0,0,6.038-24c.091-2.347.237-4.693.336-7.04.086-2.02.141-4.042.213-6.166-.967-.19-1.858-.365-2.749-.538-3.277-.635-6.583-1.149-9.825-1.932a68.009,68.009,0,0,1-14.817-5.987,2.019,2.019,0,0,0-1-.256v68.033a1.951,1.951,0,0,0,.772-.206,37.576,37.576,0,0,0,7.368-4.882" transform="translate(-468.809 -110.196)" fill="#2bc897"/>
          </g>
        </g>
      </g>
    </g>
  </g>
</svg>
