<svg xmlns="http://www.w3.org/2000/svg" xmlns:xlink="http://www.w3.org/1999/xlink" width="158.949" height="159.181" viewBox="0 0 158.949 159.181">
  <defs>
    <clipPath id="clip-path">
      <rect id="Rectangle_400938" data-name="Rectangle 400938" width="152.656" height="152.656" fill="none"/>
    </clipPath>
    <clipPath id="clip-path-2">
      <path id="Path_873460" data-name="Path 873460" d="M0,1.693A1.747,1.747,0,0,0,1.8,3.385,1.747,1.747,0,0,0,3.6,1.693,1.748,1.748,0,0,0,1.8,0,1.748,1.748,0,0,0,0,1.693" transform="translate(0)" fill="#005865"/>
    </clipPath>
    <clipPath id="clip-path-3">
      <path id="Path_873466" data-name="Path 873466" d="M0,1.693A1.748,1.748,0,0,0,1.8,3.385,1.747,1.747,0,0,0,3.6,1.693,1.747,1.747,0,0,0,1.8,0,1.748,1.748,0,0,0,0,1.693" fill="#005865"/>
    </clipPath>
    <clipPath id="clip-path-4">
      <path id="Path_873467" data-name="Path 873467" d="M0,1.692A1.748,1.748,0,0,0,1.8,3.384,1.748,1.748,0,0,0,3.6,1.692,1.748,1.748,0,0,0,1.8,0,1.748,1.748,0,0,0,0,1.692" transform="translate(0 0)" fill="#005865"/>
    </clipPath>
    <clipPath id="clip-path-6">
      <path id="Path_873469" data-name="Path 873469" d="M0,1.692A1.748,1.748,0,0,0,1.8,3.384,1.747,1.747,0,0,0,3.6,1.692,1.747,1.747,0,0,0,1.8,0,1.748,1.748,0,0,0,0,1.692" transform="translate(0 0)" fill="#005865"/>
    </clipPath>
    <clipPath id="clip-path-22">
      <rect id="Rectangle_401492" data-name="Rectangle 401492" width="69.989" height="69.99" transform="translate(-0.352 0.154)" fill="#fff" stroke="#707070" stroke-width="1"/>
    </clipPath>
    <clipPath id="clip-path-23">
      <rect id="Rectangle_406381" data-name="Rectangle 406381" width="48.22" height="65.94" fill="#fff"/>
    </clipPath>
  </defs>
  <g id="Group_1108947" data-name="Group 1108947" transform="translate(-318.664 -4483.287)">
    <g id="Group_1108942" data-name="Group 1108942" transform="translate(318.664 4483.287)">
      <g id="Group_1100237" data-name="Group 1100237" transform="translate(5.038 22.163)">
        <g id="Group_1099505" data-name="Group 1099505" transform="translate(2.342 10.905)">
          <g id="Group_1099504" data-name="Group 1099504" transform="translate(0)" clip-path="url(#clip-path-2)">
            <rect id="Rectangle_401140" data-name="Rectangle 401140" width="3.598" height="3.385" transform="translate(0)" fill="#005865"/>
          </g>
        </g>
        <g id="Group_1099517" data-name="Group 1099517" transform="translate(48.007 10.905)">
          <g id="Group_1099516" data-name="Group 1099516" transform="translate(0)" clip-path="url(#clip-path-3)">
            <rect id="Rectangle_401146" data-name="Rectangle 401146" width="3.599" height="3.385" transform="translate(0 0)" fill="#005865"/>
          </g>
        </g>
        <g id="Group_1099519" data-name="Group 1099519" transform="translate(39.117 10.906)">
          <g id="Group_1099518" data-name="Group 1099518" transform="translate(0 0)" clip-path="url(#clip-path-4)">
            <rect id="Rectangle_401147" data-name="Rectangle 401147" width="3.599" height="3.384" transform="translate(0 0)" fill="#005865"/>
          </g>
        </g>
        <g id="Group_1099521" data-name="Group 1099521" transform="translate(30.227 10.906)">
          <g id="Group_1099520" data-name="Group 1099520" transform="translate(0 0)" clip-path="url(#clip-path-4)">
            <rect id="Rectangle_401148" data-name="Rectangle 401148" width="3.599" height="3.384" transform="translate(0 0)" fill="#005865"/>
          </g>
        </g>
        <g id="Group_1099523" data-name="Group 1099523" transform="translate(21.337 10.906)">
          <g id="Group_1099522" data-name="Group 1099522" transform="translate(0 0)" clip-path="url(#clip-path-6)">
            <rect id="Rectangle_401149" data-name="Rectangle 401149" width="3.598" height="3.384" transform="translate(0 0)" fill="#005865"/>
          </g>
        </g>
        <g id="Group_1099525" data-name="Group 1099525" transform="translate(44.45 0)">
          <g id="Group_1099524" data-name="Group 1099524" clip-path="url(#clip-path-4)">
            <rect id="Rectangle_401150" data-name="Rectangle 401150" width="3.599" height="3.384" transform="translate(0 0)" fill="#005865"/>
          </g>
        </g>
        <g id="Group_1099529" data-name="Group 1099529" transform="translate(35.56 0)">
          <g id="Group_1099528" data-name="Group 1099528" transform="translate(0)" clip-path="url(#clip-path-6)">
            <rect id="Rectangle_401152" data-name="Rectangle 401152" width="3.599" height="3.384" transform="translate(0 0)" fill="#005865"/>
          </g>
        </g>
        <g id="Group_1099531" data-name="Group 1099531" transform="translate(17.78 0)">
          <g id="Group_1099530" data-name="Group 1099530" transform="translate(0)" clip-path="url(#clip-path-6)">
            <rect id="Rectangle_401153" data-name="Rectangle 401153" width="3.598" height="3.384" transform="translate(0 0)" fill="#005865"/>
          </g>
        </g>
        <g id="Group_1099533" data-name="Group 1099533" transform="translate(8.89 0)">
          <g id="Group_1099532" data-name="Group 1099532" clip-path="url(#clip-path-6)">
            <rect id="Rectangle_401154" data-name="Rectangle 401154" width="3.599" height="3.384" transform="translate(0 0)" fill="#005865"/>
          </g>
        </g>
        <g id="Group_1099535" data-name="Group 1099535" transform="translate(0 0)">
          <g id="Group_1099534" data-name="Group 1099534" transform="translate(0)" clip-path="url(#clip-path-6)">
            <rect id="Rectangle_401155" data-name="Rectangle 401155" width="3.599" height="3.384" transform="translate(0 0)" fill="#005865"/>
          </g>
        </g>
      </g>
      <g id="Group_1100238" data-name="Group 1100238" transform="translate(101.296 117.824)">
        <g id="Group_1099505-2" data-name="Group 1099505" transform="translate(2.342 10.905)">
          <g id="Group_1099504-2" data-name="Group 1099504" transform="translate(0)" clip-path="url(#clip-path-2)">
            <rect id="Rectangle_401140-2" data-name="Rectangle 401140" width="3.598" height="3.385" transform="translate(0)" fill="#005865"/>
          </g>
        </g>
        <g id="Group_1099517-2" data-name="Group 1099517" transform="translate(48.007 10.905)">
          <g id="Group_1099516-2" data-name="Group 1099516" transform="translate(0)" clip-path="url(#clip-path-3)">
            <rect id="Rectangle_401146-2" data-name="Rectangle 401146" width="3.599" height="3.385" transform="translate(0 0)" fill="#005865"/>
          </g>
        </g>
        <g id="Group_1099519-2" data-name="Group 1099519" transform="translate(39.117 10.906)">
          <g id="Group_1099518-2" data-name="Group 1099518" transform="translate(0 0)" clip-path="url(#clip-path-4)">
            <rect id="Rectangle_401147-2" data-name="Rectangle 401147" width="3.599" height="3.384" transform="translate(0 0)" fill="#005865"/>
          </g>
        </g>
        <g id="Group_1099521-2" data-name="Group 1099521" transform="translate(30.227 10.906)">
          <g id="Group_1099520-2" data-name="Group 1099520" transform="translate(0 0)" clip-path="url(#clip-path-4)">
            <rect id="Rectangle_401148-2" data-name="Rectangle 401148" width="3.599" height="3.384" transform="translate(0 0)" fill="#005865"/>
          </g>
        </g>
        <g id="Group_1099523-2" data-name="Group 1099523" transform="translate(21.337 10.906)">
          <g id="Group_1099522-2" data-name="Group 1099522" transform="translate(0 0)" clip-path="url(#clip-path-6)">
            <rect id="Rectangle_401149-2" data-name="Rectangle 401149" width="3.598" height="3.384" transform="translate(0 0)" fill="#005865"/>
          </g>
        </g>
        <g id="Group_1099525-2" data-name="Group 1099525" transform="translate(44.45 0)">
          <g id="Group_1099524-2" data-name="Group 1099524" clip-path="url(#clip-path-4)">
            <rect id="Rectangle_401150-2" data-name="Rectangle 401150" width="3.599" height="3.384" transform="translate(0 0)" fill="#005865"/>
          </g>
        </g>
        <g id="Group_1099529-2" data-name="Group 1099529" transform="translate(35.56 0)">
          <g id="Group_1099528-2" data-name="Group 1099528" transform="translate(0)" clip-path="url(#clip-path-6)">
            <rect id="Rectangle_401152-2" data-name="Rectangle 401152" width="3.599" height="3.384" transform="translate(0 0)" fill="#005865"/>
          </g>
        </g>
        <g id="Group_1099531-2" data-name="Group 1099531" transform="translate(17.78 0)">
          <g id="Group_1099530-2" data-name="Group 1099530" transform="translate(0)" clip-path="url(#clip-path-6)">
            <rect id="Rectangle_401153-2" data-name="Rectangle 401153" width="3.598" height="3.384" transform="translate(0 0)" fill="#005865"/>
          </g>
        </g>
        <g id="Group_1099533-2" data-name="Group 1099533" transform="translate(8.89 0)">
          <g id="Group_1099532-2" data-name="Group 1099532" clip-path="url(#clip-path-6)">
            <rect id="Rectangle_401154-2" data-name="Rectangle 401154" width="3.599" height="3.384" transform="translate(0 0)" fill="#005865"/>
          </g>
        </g>
        <g id="Group_1099535-2" data-name="Group 1099535" transform="translate(0 0)">
          <g id="Group_1099534-2" data-name="Group 1099534" transform="translate(0)" clip-path="url(#clip-path-6)">
            <rect id="Rectangle_401155-2" data-name="Rectangle 401155" width="3.599" height="3.384" transform="translate(0 0)" fill="#005865"/>
          </g>
        </g>
      </g>
      <path id="Path_873784" data-name="Path 873784" d="M109.2,24.037A24.184,24.184,0,0,0,85.034-.128L24.2-.036A24.36,24.36,0,0,0-.037,24.2L-.128,85.032A24.184,24.184,0,0,0,24.037,109.2l60.832-.091a24.361,24.361,0,0,0,24.238-24.238Z" transform="translate(81.645 159) rotate(-135)" fill="#41cee2"/>
      <ellipse id="Ellipse_11579" data-name="Ellipse 11579" cx="51.175" cy="51.175" rx="51.175" ry="51.175" transform="translate(30.842 31.057)" fill="#005865"/>
      <g id="Mask_Group_1098697" data-name="Mask Group 1098697" transform="translate(47.016 47.59)" clip-path="url(#clip-path-22)">
        <g id="Group_1111726" data-name="Group 1111726" transform="translate(10.648 2.155)">
          <g id="Group_1111725" data-name="Group 1111725" clip-path="url(#clip-path-23)">
            <path id="Path_886406" data-name="Path 886406" d="M42.657,7.645H37.41A4.32,4.32,0,0,0,33.231,4.54h-2.3A7.384,7.384,0,0,0,24.048,0,7.705,7.705,0,0,0,17.16,4.54H14.742a4.317,4.317,0,0,0-4.209,3.225H5.559A5.512,5.512,0,0,0,0,13.26V60.445A5.512,5.512,0,0,0,5.559,65.94h37.1a5.367,5.367,0,0,0,5.559-5.495V13.14a5.512,5.512,0,0,0-5.559-5.5m-27.794,0V7.526h3.5a1.336,1.336,0,0,0,1.45-1.076,4.482,4.482,0,0,1,8.7.12,1.448,1.448,0,0,0,1.45,1.075h3.384a1.34,1.34,0,0,1,1.3,1.047,1.44,1.44,0,0,0-.021.957,1.338,1.338,0,0,1-1.279.982H14.864a1.38,1.38,0,0,1-.967-.358,1.215,1.215,0,0,1-.3-.547,1.426,1.426,0,0,0-.042-.941,1.333,1.333,0,0,1,1.311-1.14M39.273,62.954H9.063V21.144h30.21Zm5.921-2.628a2.538,2.538,0,0,1-2.537,2.509h-.363V19.71a1.591,1.591,0,0,0-1.571-1.553H7.492A1.59,1.59,0,0,0,5.921,19.71V62.954H5.559a2.538,2.538,0,0,1-2.537-2.508V13.379a2.538,2.538,0,0,1,2.537-2.509h5.175a4.532,4.532,0,0,0,.988,1.434,4.414,4.414,0,0,0,3.142,1.314H33.352a4.243,4.243,0,0,0,4.007-2.867h5.3a2.538,2.538,0,0,1,2.537,2.509Z" transform="translate(0 0)" fill="#fff"/>
            <path id="Path_886407" data-name="Path 886407" d="M45.041,149.822h4.591A1.679,1.679,0,0,0,51.2,148.27a1.59,1.59,0,0,0-1.571-1.553H45.041a1.553,1.553,0,1,0,0,3.105" transform="translate(-31.507 -106.34)" fill="#fff"/>
            <path id="Path_886408" data-name="Path 886408" d="M45.041,166.2h4.591a1.57,1.57,0,0,0,1.571-1.434,1.59,1.59,0,0,0-1.571-1.553H45.041a1.492,1.492,0,0,0-1.571,1.434,1.591,1.591,0,0,0,1.571,1.553" transform="translate(-31.507 -118.294)" fill="#fff"/>
            <path id="Path_886409" data-name="Path 886409" d="M77.976,165.882H90.06a1.553,1.553,0,1,0,0-3.106H77.976a1.553,1.553,0,1,0,0,3.106" transform="translate(-55.378 -117.98)" fill="#fff"/>
            <path id="Path_886410" data-name="Path 886410" d="M45.041,182.377h4.591a1.782,1.782,0,0,0,1.571-1.553,1.59,1.59,0,0,0-1.571-1.553H45.041a1.553,1.553,0,1,0,0,3.105" transform="translate(-31.507 -129.936)" fill="#fff"/>
            <path id="Path_886411" data-name="Path 886411" d="M77.976,182.377H90.06a1.553,1.553,0,1,0,0-3.105H77.976a1.553,1.553,0,1,0,0,3.105" transform="translate(-55.378 -129.936)" fill="#fff"/>
            <path id="Path_886412" data-name="Path 886412" d="M45.041,198.437h4.591a1.783,1.783,0,0,0,1.571-1.553,1.59,1.59,0,0,0-1.571-1.553H45.041a1.553,1.553,0,1,0,0,3.106" transform="translate(-31.507 -141.576)" fill="#fff"/>
            <path id="Path_886413" data-name="Path 886413" d="M77.976,198.437H90.06a1.553,1.553,0,1,0,0-3.106H77.976a1.553,1.553,0,1,0,0,3.106" transform="translate(-55.378 -141.576)" fill="#fff"/>
            <path id="Path_886414" data-name="Path 886414" d="M94.53,105.16a4.151,4.151,0,0,1-.367,1.611,5.811,5.811,0,0,1-1.154,1.7A5.884,5.884,0,0,1,91,109.829a7.222,7.222,0,0,1-2.85.521,9.972,9.972,0,0,1-2.244-.234,6.306,6.306,0,0,1-1.835-.728,6.191,6.191,0,0,1-1.516-1.3,7.746,7.746,0,0,1-1.053-1.643,8.567,8.567,0,0,1-.654-1.941,10.581,10.581,0,0,1-.218-2.191,9.713,9.713,0,0,1,.548-3.371,7.192,7.192,0,0,1,1.569-2.547,6.837,6.837,0,0,1,2.393-1.611,7.745,7.745,0,0,1,2.925-.553,7.308,7.308,0,0,1,3.371.755A6.105,6.105,0,0,1,93.7,96.849a3.685,3.685,0,0,1,.787,2.1,1.368,1.368,0,0,1-.383.957,1.214,1.214,0,0,1-.925.415,1.279,1.279,0,0,1-.91-.287,3.985,3.985,0,0,1-.675-.989,4.763,4.763,0,0,0-1.452-1.734,3.547,3.547,0,0,0-2.058-.574,3.73,3.73,0,0,0-3.1,1.478,6.7,6.7,0,0,0-1.154,4.2,7.793,7.793,0,0,0,.511,3.026,3.818,3.818,0,0,0,1.446,1.8,3.991,3.991,0,0,0,2.191.6,3.847,3.847,0,0,0,2.3-.675,4.079,4.079,0,0,0,1.42-1.984,3.361,3.361,0,0,1,.5-1.005,1.131,1.131,0,0,1,.957-.388,1.338,1.338,0,0,1,.968.394,1.31,1.31,0,0,1,.4.978" transform="translate(-58.44 -68.296)" fill="#fff"/>
          </g>
        </g>
      </g>
    </g>
  </g>
</svg>
