<svg xmlns="http://www.w3.org/2000/svg" xmlns:xlink="http://www.w3.org/1999/xlink" width="158.949" height="159.181" viewBox="0 0 158.949 159.181">
  <defs>
    <clipPath id="clip-path">
      <rect id="Rectangle_400938" data-name="Rectangle 400938" width="152.656" height="152.656" fill="none"/>
    </clipPath>
    <clipPath id="clip-path-2">
      <path id="Path_873460" data-name="Path 873460" d="M0,1.693A1.747,1.747,0,0,0,1.8,3.385,1.747,1.747,0,0,0,3.6,1.693,1.748,1.748,0,0,0,1.8,0,1.748,1.748,0,0,0,0,1.693" transform="translate(0)" fill="#005865"/>
    </clipPath>
    <clipPath id="clip-path-3">
      <path id="Path_873466" data-name="Path 873466" d="M0,1.693A1.748,1.748,0,0,0,1.8,3.385,1.747,1.747,0,0,0,3.6,1.693,1.747,1.747,0,0,0,1.8,0,1.748,1.748,0,0,0,0,1.693" fill="#005865"/>
    </clipPath>
    <clipPath id="clip-path-4">
      <path id="Path_873467" data-name="Path 873467" d="M0,1.692A1.748,1.748,0,0,0,1.8,3.384,1.748,1.748,0,0,0,3.6,1.692,1.748,1.748,0,0,0,1.8,0,1.748,1.748,0,0,0,0,1.692" transform="translate(0 0)" fill="#005865"/>
    </clipPath>
    <clipPath id="clip-path-6">
      <path id="Path_873469" data-name="Path 873469" d="M0,1.692A1.748,1.748,0,0,0,1.8,3.384,1.747,1.747,0,0,0,3.6,1.692,1.747,1.747,0,0,0,1.8,0,1.748,1.748,0,0,0,0,1.692" transform="translate(0 0)" fill="#005865"/>
    </clipPath>
    <clipPath id="clip-path-22">
      <rect id="Rectangle_401492" data-name="Rectangle 401492" width="69.989" height="69.99" transform="translate(-0.352 0.154)" fill="#fff" stroke="#707070" stroke-width="1"/>
    </clipPath>
    <clipPath id="clip-path-23">
      <rect id="Rectangle_406380" data-name="Rectangle 406380" width="48.507" height="66.333" fill="#fff"/>
    </clipPath>
  </defs>
  <g id="Group_1108945" data-name="Group 1108945" transform="translate(-318.664 -4483.287)">
    <g id="Group_1108942" data-name="Group 1108942" transform="translate(318.664 4483.287)">
      <g id="Group_1100237" data-name="Group 1100237" transform="translate(5.038 22.163)">
        <g id="Group_1099505" data-name="Group 1099505" transform="translate(2.342 10.905)">
          <g id="Group_1099504" data-name="Group 1099504" transform="translate(0)" clip-path="url(#clip-path-2)">
            <rect id="Rectangle_401140" data-name="Rectangle 401140" width="3.598" height="3.385" transform="translate(0)" fill="#005865"/>
          </g>
        </g>
        <g id="Group_1099517" data-name="Group 1099517" transform="translate(48.007 10.905)">
          <g id="Group_1099516" data-name="Group 1099516" transform="translate(0)" clip-path="url(#clip-path-3)">
            <rect id="Rectangle_401146" data-name="Rectangle 401146" width="3.599" height="3.385" transform="translate(0 0)" fill="#005865"/>
          </g>
        </g>
        <g id="Group_1099519" data-name="Group 1099519" transform="translate(39.117 10.906)">
          <g id="Group_1099518" data-name="Group 1099518" transform="translate(0 0)" clip-path="url(#clip-path-4)">
            <rect id="Rectangle_401147" data-name="Rectangle 401147" width="3.599" height="3.384" transform="translate(0 0)" fill="#005865"/>
          </g>
        </g>
        <g id="Group_1099521" data-name="Group 1099521" transform="translate(30.227 10.906)">
          <g id="Group_1099520" data-name="Group 1099520" transform="translate(0 0)" clip-path="url(#clip-path-4)">
            <rect id="Rectangle_401148" data-name="Rectangle 401148" width="3.599" height="3.384" transform="translate(0 0)" fill="#005865"/>
          </g>
        </g>
        <g id="Group_1099523" data-name="Group 1099523" transform="translate(21.337 10.906)">
          <g id="Group_1099522" data-name="Group 1099522" transform="translate(0 0)" clip-path="url(#clip-path-6)">
            <rect id="Rectangle_401149" data-name="Rectangle 401149" width="3.598" height="3.384" transform="translate(0 0)" fill="#005865"/>
          </g>
        </g>
        <g id="Group_1099525" data-name="Group 1099525" transform="translate(44.45 0)">
          <g id="Group_1099524" data-name="Group 1099524" clip-path="url(#clip-path-4)">
            <rect id="Rectangle_401150" data-name="Rectangle 401150" width="3.599" height="3.384" transform="translate(0 0)" fill="#005865"/>
          </g>
        </g>
        <g id="Group_1099529" data-name="Group 1099529" transform="translate(35.56 0)">
          <g id="Group_1099528" data-name="Group 1099528" transform="translate(0)" clip-path="url(#clip-path-6)">
            <rect id="Rectangle_401152" data-name="Rectangle 401152" width="3.599" height="3.384" transform="translate(0 0)" fill="#005865"/>
          </g>
        </g>
        <g id="Group_1099531" data-name="Group 1099531" transform="translate(17.78 0)">
          <g id="Group_1099530" data-name="Group 1099530" transform="translate(0)" clip-path="url(#clip-path-6)">
            <rect id="Rectangle_401153" data-name="Rectangle 401153" width="3.598" height="3.384" transform="translate(0 0)" fill="#005865"/>
          </g>
        </g>
        <g id="Group_1099533" data-name="Group 1099533" transform="translate(8.89 0)">
          <g id="Group_1099532" data-name="Group 1099532" clip-path="url(#clip-path-6)">
            <rect id="Rectangle_401154" data-name="Rectangle 401154" width="3.599" height="3.384" transform="translate(0 0)" fill="#005865"/>
          </g>
        </g>
        <g id="Group_1099535" data-name="Group 1099535" transform="translate(0 0)">
          <g id="Group_1099534" data-name="Group 1099534" transform="translate(0)" clip-path="url(#clip-path-6)">
            <rect id="Rectangle_401155" data-name="Rectangle 401155" width="3.599" height="3.384" transform="translate(0 0)" fill="#005865"/>
          </g>
        </g>
      </g>
      <g id="Group_1100238" data-name="Group 1100238" transform="translate(101.296 117.824)">
        <g id="Group_1099505-2" data-name="Group 1099505" transform="translate(2.342 10.905)">
          <g id="Group_1099504-2" data-name="Group 1099504" transform="translate(0)" clip-path="url(#clip-path-2)">
            <rect id="Rectangle_401140-2" data-name="Rectangle 401140" width="3.598" height="3.385" transform="translate(0)" fill="#005865"/>
          </g>
        </g>
        <g id="Group_1099517-2" data-name="Group 1099517" transform="translate(48.007 10.905)">
          <g id="Group_1099516-2" data-name="Group 1099516" transform="translate(0)" clip-path="url(#clip-path-3)">
            <rect id="Rectangle_401146-2" data-name="Rectangle 401146" width="3.599" height="3.385" transform="translate(0 0)" fill="#005865"/>
          </g>
        </g>
        <g id="Group_1099519-2" data-name="Group 1099519" transform="translate(39.117 10.906)">
          <g id="Group_1099518-2" data-name="Group 1099518" transform="translate(0 0)" clip-path="url(#clip-path-4)">
            <rect id="Rectangle_401147-2" data-name="Rectangle 401147" width="3.599" height="3.384" transform="translate(0 0)" fill="#005865"/>
          </g>
        </g>
        <g id="Group_1099521-2" data-name="Group 1099521" transform="translate(30.227 10.906)">
          <g id="Group_1099520-2" data-name="Group 1099520" transform="translate(0 0)" clip-path="url(#clip-path-4)">
            <rect id="Rectangle_401148-2" data-name="Rectangle 401148" width="3.599" height="3.384" transform="translate(0 0)" fill="#005865"/>
          </g>
        </g>
        <g id="Group_1099523-2" data-name="Group 1099523" transform="translate(21.337 10.906)">
          <g id="Group_1099522-2" data-name="Group 1099522" transform="translate(0 0)" clip-path="url(#clip-path-6)">
            <rect id="Rectangle_401149-2" data-name="Rectangle 401149" width="3.598" height="3.384" transform="translate(0 0)" fill="#005865"/>
          </g>
        </g>
        <g id="Group_1099525-2" data-name="Group 1099525" transform="translate(44.45 0)">
          <g id="Group_1099524-2" data-name="Group 1099524" clip-path="url(#clip-path-4)">
            <rect id="Rectangle_401150-2" data-name="Rectangle 401150" width="3.599" height="3.384" transform="translate(0 0)" fill="#005865"/>
          </g>
        </g>
        <g id="Group_1099529-2" data-name="Group 1099529" transform="translate(35.56 0)">
          <g id="Group_1099528-2" data-name="Group 1099528" transform="translate(0)" clip-path="url(#clip-path-6)">
            <rect id="Rectangle_401152-2" data-name="Rectangle 401152" width="3.599" height="3.384" transform="translate(0 0)" fill="#005865"/>
          </g>
        </g>
        <g id="Group_1099531-2" data-name="Group 1099531" transform="translate(17.78 0)">
          <g id="Group_1099530-2" data-name="Group 1099530" transform="translate(0)" clip-path="url(#clip-path-6)">
            <rect id="Rectangle_401153-2" data-name="Rectangle 401153" width="3.598" height="3.384" transform="translate(0 0)" fill="#005865"/>
          </g>
        </g>
        <g id="Group_1099533-2" data-name="Group 1099533" transform="translate(8.89 0)">
          <g id="Group_1099532-2" data-name="Group 1099532" clip-path="url(#clip-path-6)">
            <rect id="Rectangle_401154-2" data-name="Rectangle 401154" width="3.599" height="3.384" transform="translate(0 0)" fill="#005865"/>
          </g>
        </g>
        <g id="Group_1099535-2" data-name="Group 1099535" transform="translate(0 0)">
          <g id="Group_1099534-2" data-name="Group 1099534" transform="translate(0)" clip-path="url(#clip-path-6)">
            <rect id="Rectangle_401155-2" data-name="Rectangle 401155" width="3.599" height="3.384" transform="translate(0 0)" fill="#005865"/>
          </g>
        </g>
      </g>
      <path id="Path_873784" data-name="Path 873784" d="M109.2,24.037A24.184,24.184,0,0,0,85.034-.128L24.2-.036A24.36,24.36,0,0,0-.037,24.2L-.128,85.032A24.184,24.184,0,0,0,24.037,109.2l60.832-.091a24.361,24.361,0,0,0,24.238-24.238Z" transform="translate(81.645 159) rotate(-135)" fill="#41cee2"/>
      <ellipse id="Ellipse_11579" data-name="Ellipse 11579" cx="51.175" cy="51.175" rx="51.175" ry="51.175" transform="translate(30.842 31.057)" fill="#005865"/>
      <g id="Mask_Group_1098697" data-name="Mask Group 1098697" transform="translate(47.016 47.59)" clip-path="url(#clip-path-22)">
        <g id="Group_1111724" data-name="Group 1111724" transform="translate(10.648 2.155)">
          <g id="Group_1111723" data-name="Group 1111723" clip-path="url(#clip-path-23)">
            <path id="Path_886397" data-name="Path 886397" d="M42.911,7.691H37.633a4.345,4.345,0,0,0-4.2-3.124H31.12A7.428,7.428,0,0,0,24.191,0a7.751,7.751,0,0,0-6.929,4.567H14.83A4.343,4.343,0,0,0,10.6,7.811h-5A5.545,5.545,0,0,0,0,13.339V60.805a5.545,5.545,0,0,0,5.592,5.528h37.32A5.4,5.4,0,0,0,48.5,60.805V13.219a5.545,5.545,0,0,0-5.592-5.528m-27.959,0v-.12h3.525a1.344,1.344,0,0,0,1.459-1.082,4.509,4.509,0,0,1,8.752.12,1.457,1.457,0,0,0,1.459,1.081h3.4a1.348,1.348,0,0,1,1.308,1.054,1.449,1.449,0,0,0-.021.963,1.346,1.346,0,0,1-1.287.988h-18.6a1.389,1.389,0,0,1-.973-.36,1.222,1.222,0,0,1-.3-.55,1.435,1.435,0,0,0-.043-.947,1.341,1.341,0,0,1,1.319-1.147M39.507,63.329H9.117V21.27h30.39Zm5.957-2.644a2.553,2.553,0,0,1-2.552,2.524h-.365V19.828a1.6,1.6,0,0,0-1.581-1.562H7.537a1.6,1.6,0,0,0-1.58,1.562v43.5H5.592a2.553,2.553,0,0,1-2.552-2.523V13.459a2.553,2.553,0,0,1,2.552-2.524H10.8a4.559,4.559,0,0,0,.994,1.442A4.44,4.44,0,0,0,14.952,13.7h18.6a4.269,4.269,0,0,0,4.031-2.884h5.33a2.553,2.553,0,0,1,2.552,2.524Z" transform="translate(0 0)" fill="#fff"/>
            <path id="Path_886398" data-name="Path 886398" d="M45.051,149.841H49.67a1.689,1.689,0,0,0,1.58-1.562,1.6,1.6,0,0,0-1.58-1.562H45.051a1.562,1.562,0,1,0,0,3.124" transform="translate(-31.436 -106.1)" fill="#fff"/>
            <path id="Path_886399" data-name="Path 886399" d="M45.051,166.214H49.67a1.579,1.579,0,0,0,1.58-1.442,1.6,1.6,0,0,0-1.58-1.562H45.051a1.5,1.5,0,0,0-1.581,1.442,1.6,1.6,0,0,0,1.581,1.562" transform="translate(-31.436 -118.027)" fill="#fff"/>
            <path id="Path_886400" data-name="Path 886400" d="M77.985,165.9H90.141a1.562,1.562,0,1,0,0-3.124H77.985a1.562,1.562,0,1,0,0,3.124" transform="translate(-55.253 -117.713)" fill="#fff"/>
            <path id="Path_886401" data-name="Path 886401" d="M45.051,182.4H49.67a1.793,1.793,0,0,0,1.58-1.562,1.6,1.6,0,0,0-1.58-1.562H45.051a1.562,1.562,0,1,0,0,3.124" transform="translate(-31.436 -129.642)" fill="#fff"/>
            <path id="Path_886402" data-name="Path 886402" d="M77.985,182.4H90.141a1.562,1.562,0,1,0,0-3.124H77.985a1.562,1.562,0,1,0,0,3.124" transform="translate(-55.253 -129.642)" fill="#fff"/>
            <path id="Path_886403" data-name="Path 886403" d="M45.051,198.455H49.67a1.794,1.794,0,0,0,1.58-1.562,1.6,1.6,0,0,0-1.58-1.562H45.051a1.562,1.562,0,1,0,0,3.124" transform="translate(-31.436 -141.255)" fill="#fff"/>
            <path id="Path_886404" data-name="Path 886404" d="M77.985,198.455H90.141a1.562,1.562,0,1,0,0-3.124H77.985a1.562,1.562,0,1,0,0,3.124" transform="translate(-55.253 -141.255)" fill="#fff"/>
            <path id="Path_886405" data-name="Path 886405" d="M89.513,110.877H84.72a1.982,1.982,0,0,1-1.482-.465,2.09,2.09,0,0,1-.444-1.482V97.14a2.053,2.053,0,0,1,.455-1.492,2.018,2.018,0,0,1,1.471-.455H89.8a11.853,11.853,0,0,1,1.947.139,4.154,4.154,0,0,1,1.477.535,3.879,3.879,0,0,1,.984.84,3.7,3.7,0,0,1,.653,1.123,3.76,3.76,0,0,1,.225,1.3,3.606,3.606,0,0,1-2.354,3.445q3.092.985,3.092,3.83a4.3,4.3,0,0,1-.674,2.37,4.043,4.043,0,0,1-1.819,1.557,6.453,6.453,0,0,1-1.647.423,16.8,16.8,0,0,1-2.172.123m-3.541-13.3v4.055h2.91a5.846,5.846,0,0,0,1.835-.225,1.752,1.752,0,0,0,.989-.856,1.929,1.929,0,0,0,.267-1.006,1.561,1.561,0,0,0-.845-1.578,6.46,6.46,0,0,0-2.578-.39Zm3.306,6.334H85.972v4.579h3.413q3.22,0,3.22-2.322a1.894,1.894,0,0,0-.834-1.723,4.676,4.676,0,0,0-2.493-.535" transform="translate(-59.873 -68.84)" fill="#fff"/>
          </g>
        </g>
      </g>
    </g>
  </g>
</svg>
