<svg xmlns="http://www.w3.org/2000/svg" xmlns:xlink="http://www.w3.org/1999/xlink" width="400" height="226.813" viewBox="0 0 400 226.813">
  <defs>
    <clipPath id="clip-path">
      <rect id="Rectangle_406681" data-name="Rectangle 406681" width="400" height="226.813" transform="translate(285 1094.999)" fill="#fff" stroke="#707070" stroke-width="1"/>
    </clipPath>
    <clipPath id="clip-path-2">
      <rect id="Rectangle_406703" data-name="Rectangle 406703" width="359.664" height="208" fill="none"/>
    </clipPath>
    <clipPath id="clip-path-4">
      <rect id="Rectangle_406682" data-name="Rectangle 406682" width="25.399" height="27.55" fill="none"/>
    </clipPath>
    <clipPath id="clip-path-5">
      <rect id="Rectangle_406683" data-name="Rectangle 406683" width="4.807" height="13.113" fill="none"/>
    </clipPath>
    <clipPath id="clip-path-6">
      <rect id="Rectangle_406684" data-name="Rectangle 406684" width="25.4" height="27.552" fill="none"/>
    </clipPath>
    <clipPath id="clip-path-7">
      <rect id="Rectangle_406685" data-name="Rectangle 406685" width="4.805" height="13.112" fill="none"/>
    </clipPath>
    <clipPath id="clip-path-8">
      <rect id="Rectangle_406686" data-name="Rectangle 406686" width="25.4" height="27.549" fill="none"/>
    </clipPath>
    <clipPath id="clip-path-9">
      <rect id="Rectangle_406687" data-name="Rectangle 406687" width="4.806" height="13.113" fill="none"/>
    </clipPath>
    <clipPath id="clip-path-10">
      <rect id="Rectangle_406688" data-name="Rectangle 406688" width="25.399" height="27.549" fill="none"/>
    </clipPath>
    <clipPath id="clip-path-11">
      <rect id="Rectangle_406689" data-name="Rectangle 406689" width="4.807" height="13.112" fill="none"/>
    </clipPath>
    <clipPath id="clip-path-14">
      <rect id="Rectangle_406692" data-name="Rectangle 406692" width="25.399" height="27.548" fill="none"/>
    </clipPath>
    <clipPath id="clip-path-15">
      <rect id="Rectangle_406693" data-name="Rectangle 406693" width="4.806" height="13.11" fill="none"/>
    </clipPath>
    <clipPath id="clip-path-16">
      <rect id="Rectangle_406694" data-name="Rectangle 406694" width="25.397" height="27.549" fill="none"/>
    </clipPath>
    <clipPath id="clip-path-17">
      <rect id="Rectangle_406695" data-name="Rectangle 406695" width="4.806" height="13.114" fill="none"/>
    </clipPath>
    <clipPath id="clip-path-19">
      <rect id="Rectangle_406697" data-name="Rectangle 406697" width="4.806" height="13.111" fill="none"/>
    </clipPath>
    <clipPath id="clip-path-20">
      <rect id="Rectangle_406698" data-name="Rectangle 406698" width="26.035" height="23.609" fill="none"/>
    </clipPath>
    <clipPath id="clip-path-21">
      <rect id="Rectangle_406699" data-name="Rectangle 406699" width="26.837" height="14.707" fill="none"/>
    </clipPath>
    <clipPath id="clip-path-22">
      <rect id="Rectangle_406700" data-name="Rectangle 406700" width="20.591" height="27.309" fill="none"/>
    </clipPath>
    <clipPath id="clip-path-23">
      <rect id="Rectangle_406701" data-name="Rectangle 406701" width="26.565" height="22.691" fill="none"/>
    </clipPath>
  </defs>
  <g id="Mask_Group_1109115" data-name="Mask Group 1109115" transform="translate(-285 -1094.999)" clip-path="url(#clip-path)">
    <path id="Path_886492" data-name="Path 886492" d="M16.525,27.877S51.778-7.115,120.21,1.309s81.911,36.288,173.155,14.9,121.312,64.152,43.548,65.448S263.28,90.5,354.54,152.94s-118.639,90.72-180.113,49.9.3-22.032-108.87-56.376S16.525,27.877,16.525,27.877Z" transform="matrix(0.998, -0.07, 0.07, 0.998, 286.974, 1111.566)" fill="#defff4"/>
    <g id="Group_1111945" data-name="Group 1111945" transform="translate(305.168 1104.655)">
      <g id="Group_1111944" data-name="Group 1111944" clip-path="url(#clip-path-2)">
        <g id="Group_1111943" data-name="Group 1111943">
          <g id="Group_1111942" data-name="Group 1111942" clip-path="url(#clip-path-2)">
            <path id="Path_886493" data-name="Path 886493" d="M298.585,40.672c5.68,3.742,14.378,7.063,15.754,14.436a10.008,10.008,0,0,1-.434,4.466c-17.805-8.942-36.3-17.322-54.464-25.968a7.6,7.6,0,0,1,4.567-4.444c6.233-2.415,14.547,2.318,19.511,4.155,1.665-2.786,3.964-4.969,7.742-4.886,6.066.141,9.955,6,7.325,12.24" transform="translate(30.888 3.385)" fill="#25364f" fill-rule="evenodd"/>
            <path id="Path_886494" data-name="Path 886494" d="M289.3,32.005c6.567.118,3.982,11.922-2.481,9.4-4.909-1.916-2.056-9.481,2.481-9.4" transform="translate(33.842 3.81)" fill="#fff" fill-rule="evenodd"/>
            <path id="Path_886495" data-name="Path 886495" d="M232.753,48.765c.89-2.31,2.45-5.833,4.052-9.2,3.3-6.953,6.028-15.039,12.322-14.773,3.112.133,7.156,1.722,11.148,3.294,3.863,1.52,7.73,3.589,11.387,5.336,16,7.653,27.621,14.744,44.247,22.062,3.658,1.608,7.431,3.551,10.994,5.487,4.97,2.7,10.248,5.046,10.395,9.421.065,1.983-1.59,4.819-2.735,7.686-1.1,2.76-2.626,5.445-3.73,7.727-2.68,5.558-5.177,10.733-7.448,15.462-5.457,11.339-9.529,21.279-14.315,32.15-4.52,10.265-8.734,21.4-13.852,32.194-4.361,9.2-8.64,22.512-15.438,28.1-5.411,4.445-12.846,1.732-21.674-1.783-17.258-6.878-32.219-15.341-48.123-22.8-3.8-1.784-8.259-3.737-12.2-5.69-4.553-2.256-8.993-4.835-9.77-7.535-.787-2.723,1.474-8.115,3.486-12.683,2.1-4.773,4.287-9.278,6.166-13.281,12.311-26.242,23.279-54.338,34.966-80.9.041-.09.086-.179.12-.271" transform="translate(22.365 2.951)" fill="#e8bd54" fill-rule="evenodd"/>
            <path id="Path_886496" data-name="Path 886496" d="M252.451,169.315c.043,2.9-6.738-.313-4.5-2.088,1.16-.924,3.65.965,4.5,2.088" transform="translate(29.466 19.88)" fill="#fff" fill-rule="evenodd"/>
            <path id="Path_886497" data-name="Path 886497" d="M254.336,173.21a1.593,1.593,0,0,1-.046-2.365c1.262-1,4.276.188,5.555.429,1.558.294,4.631.149,5.2,1.835.83,2.415-3.758,1.9-5.329,1.662-.834-.13-1.638-.333-2.341-.478-1.2-.247-2.246-.218-3.043-1.083" transform="translate(30.212 20.293)" fill="#fff" fill-rule="evenodd"/>
            <path id="Path_886498" data-name="Path 886498" d="M275.867,154.9c.179-1.315,1.592-3.052,3.087-4.673.636-.7,1.688-1.8,2.374-1.3.824.6-.169,2.048-.526,2.563a15.15,15.15,0,0,1-4.011,4.048,1.2,1.2,0,0,1-.924-.634" transform="translate(32.844 17.715)" fill="#fff" fill-rule="evenodd"/>
            <path id="Path_886499" data-name="Path 886499" d="M278.648,146.024c-1.939-.913.739-4.758,2.076-3.587.581.509-.02,2.852-.958,3.533a1.121,1.121,0,0,1-1.118.054" transform="translate(33.094 16.932)" fill="#fff" fill-rule="evenodd"/>
            <path id="Path_886500" data-name="Path 886500" d="M282.908,143.328c-.718-.248-.788-1.347-.445-2.4.275-.843,1.183-2.331,2-1.724a2.05,2.05,0,0,1,.273,2.022c-.3,1.028-.9,2.422-1.827,2.1" transform="translate(33.605 16.556)" fill="#fff" fill-rule="evenodd"/>
            <path id="Path_886501" data-name="Path 886501" d="M309.216,85.531c-.036-1.488,1.219-3.657,2.577-5.718.581-.88,1.547-2.287,2.393-1.859,1.018.517.175,2.3-.125,2.927a16.956,16.956,0,0,1-3.711,5.183,1.345,1.345,0,0,1-1.134-.534" transform="translate(36.814 9.271)" fill="#fff" fill-rule="evenodd"/>
            <path id="Path_886502" data-name="Path 886502" d="M311.449,77.1c-2.3-.66-.029-5.385,1.656-4.327.733.46.485,3.155-.426,4.074a1.264,1.264,0,0,1-1.23.253" transform="translate(36.963 8.646)" fill="#fff" fill-rule="evenodd"/>
            <path id="Path_886503" data-name="Path 886503" d="M316.492,69.538c-.838-.149-1.107-1.355-.92-2.569.152-.984.893-2.783,1.908-2.264a2.3,2.3,0,0,1,.661,2.181c-.156,1.193-.572,2.841-1.649,2.652" transform="translate(37.564 7.692)" fill="#fff" fill-rule="evenodd"/>
            <path id="Path_886504" data-name="Path 886504" d="M205.9,116.81c.038,1.506-1.231,3.7-2.61,5.784-.587.891-1.563,2.32-2.418,1.881-1.032-.521-.179-2.32.126-2.961a17.138,17.138,0,0,1,3.754-5.241,1.334,1.334,0,0,1,1.147.536" transform="translate(23.856 13.841)" fill="#fff" fill-rule="evenodd"/>
            <path id="Path_886505" data-name="Path 886505" d="M205.079,123.007c2.329.668.03,5.446-1.677,4.378-.739-.466-.489-3.192.435-4.121a1.264,1.264,0,0,1,1.242-.256" transform="translate(24.165 14.638)" fill="#fff" fill-rule="evenodd"/>
            <path id="Path_886506" data-name="Path 886506" d="M198.009,133.089c.847.147,1.118,1.367.929,2.6-.159.989-.9,2.813-1.929,2.29a2.321,2.321,0,0,1-.667-2.21c.153-1.205.574-2.873,1.667-2.679" transform="translate(23.372 15.843)" fill="#fff" fill-rule="evenodd"/>
            <path id="Path_886507" data-name="Path 886507" d="M245.16,30.826a5.024,5.024,0,0,1,3.048-1.249c1.425-.019,6.205,1.155,5.248,3.2-.883,1.895-8.059.53-8.3-1.948" transform="translate(29.188 3.521)" fill="#fff" fill-rule="evenodd"/>
            <path id="Path_886508" data-name="Path 886508" d="M241.86,32.03c-1.183,1.323-3.453,2.905-4.6,2.087-2.727-1.926,4.673-5.516,4.6-2.087" transform="translate(28.175 3.644)" fill="#fff" fill-rule="evenodd"/>
            <path id="Path_886509" data-name="Path 886509" d="M246.886,35.788a.871.871,0,0,0-.131.873,3.19,3.19,0,0,1-4.23.179,3.271,3.271,0,0,0-.032-.988c1.216-1.115,3.132-1.788,4.393-.064" transform="translate(28.87 4.136)" fill="#fff" fill-rule="evenodd"/>
            <path id="Path_886510" data-name="Path 886510" d="M240.366,60.5c.725-1.857,1.98-4.693,3.264-7.414,2.647-5.6,4.894-12.1,9.544-12.06,2.305.013,5.257,1.163,8.17,2.294,2.817,1.094,5.622,2.622,8.282,3.9,11.636,5.612,20.041,10.905,32.153,16.238,2.66,1.172,5.4,2.6,7.988,4.039,3.6,2,7.445,3.705,7.431,7.172-.01,1.567-1.317,3.867-2.248,6.173-.892,2.218-2.1,4.392-2.978,6.234-2.143,4.485-4.145,8.657-5.962,12.469-4.361,9.149-7.663,17.146-11.517,25.9-3.641,8.269-7.079,17.216-11.179,25.92-3.489,7.419-7.039,18.1-12.238,22.722-4.134,3.679-9.563,1.736-16-.8-12.592-4.962-23.432-11.248-35-16.71-2.77-1.308-6.012-2.729-8.875-4.17-3.309-1.656-6.523-3.574-7.023-5.692-.507-2.141,1.32-6.476,2.942-10.159,1.69-3.841,3.442-7.476,4.947-10.706,9.868-21.155,18.792-43.746,28.2-65.141.034-.072.068-.143.1-.218" transform="translate(24.298 4.884)" fill="#fff" fill-rule="evenodd"/>
            <path id="Path_886511" data-name="Path 886511" d="M249.3,54.072c1.146-.807,2.267-2.033,3.554-3.139,1.09-.94,2.5-2.441,3.923-2.872a1.425,1.425,0,0,1,1.731.961c.257,1.561-3.162,4.562-3.905,5.405-1.653,1.876-2.865,3.613-4.383,4.75a4.24,4.24,0,0,1-2.319.913c-2.257-.241-2.194-4.967-2.2-7.695-.009-1.5.153-4.561,1.59-4.617,2.032-.076,1.831,4.3,2.01,6.292" transform="translate(29.252 5.688)" fill="#2ebca1" fill-rule="evenodd"/>
            <path id="Path_886512" data-name="Path 886512" d="M233.932,85.835c1.145-.81,2.267-2.037,3.552-3.141,1.093-.941,2.5-2.441,3.925-2.871a1.423,1.423,0,0,1,1.73.962c.259,1.559-3.161,4.561-3.9,5.4-1.654,1.876-2.866,3.613-4.386,4.748a4.245,4.245,0,0,1-2.319.917c-2.255-.242-2.192-4.971-2.2-7.7-.006-1.5.157-4.561,1.591-4.616,2.031-.077,1.832,4.3,2.011,6.294" transform="translate(27.422 9.47)" fill="#2ebca1" fill-rule="evenodd"/>
            <path id="Path_886513" data-name="Path 886513" d="M238.987,71.465c1.338-.909,2.789-2.393,4.461-3.609s3.3-2.718,5.075-3.2a1.342,1.342,0,0,1,1.481.952c.177,1.212-1.971,2.8-2.417,3.187a71.288,71.288,0,0,1-6.044,5.061c-1.316.958-3.8,2.621-4.961.544-.626-1.113-.467-3.707-.273-5.455.181-1.643.67-3.293,1.9-2.958,1.328.358.732,3.673.778,5.478" transform="translate(28.113 7.694)" fill="#2ebca1" fill-rule="evenodd"/>
            <path id="Path_886514" data-name="Path 886514" d="M218.159,116.969c1.339-.912,2.794-2.394,4.463-3.61,1.684-1.224,3.3-2.719,5.077-3.2a1.334,1.334,0,0,1,1.479.95c.173,1.209-1.968,2.8-2.417,3.189a71.8,71.8,0,0,1-6.043,5.058c-1.316.959-3.8,2.624-4.964.545-.624-1.111-.464-3.706-.272-5.455.181-1.644.67-3.292,1.9-2.955,1.331.357.732,3.672.776,5.478" transform="translate(25.634 13.111)" fill="#2ebca1" fill-rule="evenodd"/>
            <path id="Path_886515" data-name="Path 886515" d="M230.524,102.216c-.172-.079-.345-.156-.51-.232-.25-.115-.527-.241-.823-.369.285-.743.543-1.458.761-2.089.224-.649.906-2.621-.382-3.071a.851.851,0,0,0-.256-.053c-.878-.038-1.534,1.265-2.165,2.519-.086.169-.171.338-.254.5-.159.306-.337.657-.52,1.026-.126-.047-.25-.094-.37-.137-.226-.081-.471-.172-.718-.266a10.246,10.246,0,0,0-2.785-.788c-.942-.039-1.267.443-1.372.856-.28,1.1,1.6,2.241,3.911,3.209l-.011.025c-.094.226-.2.462-.3.706-.586,1.353-1.193,2.748-.808,3.583a1.046,1.046,0,0,0,.679.572.933.933,0,0,0,.235.041c1.027.046,2.173-1.711,3.178-3.836.723.241,1.421.45,2.047.633a6.809,6.809,0,0,0,1.533.3c1.037.044,1.4-.424,1.519-.824.3-1.021-1.165-1.673-2.584-2.3" transform="translate(26.323 11.477)" fill="#2ebca1"/>
            <path id="Path_886516" data-name="Path 886516" d="M298.9,74.539c-7.773-4.151-14.737-7.842-22.693-11.786-4.84-2.395-9.819-4.665-15.028-7.275-.967-.486-1.936-.966-3-1.484L255.8,58.84c1,.511,1.967,1,2.889,1.449,12.772,6.238,25.047,13.358,37.39,19.746,1.61.835,3.587,1.993,5.177,2.724.885-1.555,1.768-3.112,2.506-4.744.117-.257.234-.523.349-.787-1.7-.94-3.509-1.782-5.21-2.689" transform="translate(30.455 6.428)" fill="#334f70"/>
            <path id="Path_886517" data-name="Path 886517" d="M251.646,69.858c12.773,6.235,25.046,13.359,37.389,19.747,2.4,1.241,5.6,3.209,7.141,3.378.845-1.74,1.644-3.506,2.471-5.258-2.116-1.346-4.553-2.422-6.789-3.616-7.775-4.152-14.737-7.846-22.692-11.787-4.843-2.4-9.821-4.67-15.029-7.277-.368-.185-.741-.368-1.112-.554l-2.394,4.865c.342.17.684.341,1.016.5" transform="translate(29.839 7.678)" fill="#334f70"/>
            <path id="Path_886518" data-name="Path 886518" d="M249.593,81.49c12.771,6.239,25.043,13.359,37.389,19.748,1.1.567,2.363,1.288,3.56,1.917q1.6-2.7,3.122-5.448c-1.289-.664-2.607-1.294-3.863-1.966C282.032,91.59,275.068,87.9,267.11,83.96c-4.841-2.4-9.817-4.672-15.026-7.278-1.282-.643-2.563-1.28-4.071-2.006L245.645,79.5c1.374.711,2.7,1.383,3.948,1.993" transform="translate(29.245 8.89)" fill="#334f70"/>
            <path id="Path_886519" data-name="Path 886519" d="M242.547,91.061c12.772,6.239,25.05,13.359,37.392,19.748,1.361.706,2.981,1.644,4.411,2.356q1.627-2.682,3.262-5.363c-1.595-.861-3.274-1.644-4.854-2.489-7.773-4.156-14.735-7.845-22.691-11.786-4.843-2.4-9.82-4.673-15.029-7.276-.714-.358-1.429-.714-2.183-1.084l-2.387,4.858c.712.359,1.408.712,2.079,1.036" transform="translate(28.629 10.14)" fill="#334f70"/>
            <path id="Path_886520" data-name="Path 886520" d="M238.218,100.545c12.772,6.235,25.048,13.359,37.389,19.746,1.615.836,3.585,2,5.179,2.725.878-1.559,1.764-3.112,2.5-4.741.12-.262.236-.525.353-.791-1.7-.939-3.514-1.778-5.21-2.687-7.775-4.152-14.738-7.845-22.7-11.785-4.838-2.4-9.815-4.67-15.029-7.278-.795-.4-1.592-.795-2.444-1.212l-2.388,4.852c.807.407,1.592.8,2.346,1.172" transform="translate(28.082 11.253)" fill="#334f70"/>
            <path id="Path_886521" data-name="Path 886521" d="M231.169,110.114c12.773,6.234,25.047,13.359,37.392,19.748,2.4,1.241,5.6,3.212,7.138,3.377.846-1.745,1.645-3.506,2.47-5.257-2.113-1.348-4.551-2.423-6.789-3.617-7.773-4.153-14.735-7.843-22.692-11.787-4.839-2.395-9.82-4.671-15.027-7.278-.189-.092-.379-.185-.566-.28l-2.39,4.862c.154.077.312.154.464.232" transform="translate(27.467 12.503)" fill="#334f70"/>
            <path id="Path_886522" data-name="Path 886522" d="M229.117,121.747c12.773,6.238,25.049,13.359,37.394,19.749,1.093.566,2.358,1.288,3.559,1.919,1.062-1.806,2.107-3.618,3.118-5.448-1.288-.666-2.6-1.3-3.859-1.966-7.773-4.155-14.736-7.845-22.693-11.789-4.841-2.394-9.817-4.666-15.029-7.276-1.122-.56-2.246-1.119-3.517-1.738l-2.378,4.834c1.182.608,2.324,1.188,3.405,1.714" transform="translate(26.872 13.715)" fill="#334f70"/>
            <path id="Path_886523" data-name="Path 886523" d="M222.074,131.321c12.77,6.235,25.046,13.359,37.39,19.743,1.361.7,2.981,1.647,4.412,2.356q1.621-2.677,3.263-5.363c-1.6-.857-3.277-1.643-4.857-2.488-7.773-4.154-14.735-7.843-22.692-11.786-4.839-2.4-9.817-4.669-15.029-7.276-.539-.269-1.079-.537-1.63-.814l-2.391,4.862c.521.262,1.036.519,1.534.764" transform="translate(26.257 14.965)" fill="#334f70"/>
            <path id="Path_886524" data-name="Path 886524" d="M134.211.023c3.4-.215,7.293,1.11,10.262,2.422,8.735,3.862,17.108,8.471,25.081,12.97,2.616,1.475,5.3,3.133,8.125,4.561,5.66,2.865,11.012,5.138,16.672,8.693,3.049,1.915,6.346,4.224,7.553,7.266,2.274,5.725-.527,12.849-2.565,16.962-2.425,4.894-4.957,9.472-7.268,13.962-4.873,9.483-9.544,18.084-14.678,27.792-5.158,9.756-9.706,18.957-14.25,28.218-3.382,6.887-7.309,14.035-10.973,20.951-2.061,3.876-3.739,7.688-7.841,9.262a9.883,9.883,0,0,1-3.988.425c-3.325-.339-6.559-2.3-9.549-3.7-3.007-1.417-5.975-3.054-8.693-4.564-10.9-6.048-23.819-11.9-34.631-18.384C82.253,123.732,76,119.971,73.357,114.6c-3.042-6.174.956-14.823,3.423-19.81,2.437-4.932,4.823-9.146,7.267-13.256,2.635-4.429,5.189-8.987,7.554-13.109,4.82-8.4,10.178-17.745,14.249-26.935,2.011-4.538,4.469-9.613,6.7-13.826,3.385-6.388,7.2-13.44,11.259-19.665a26.86,26.86,0,0,1,4.56-5.7A9.883,9.883,0,0,1,134.211.023" transform="translate(8.603 0)" fill="#c1d5e8" fill-rule="evenodd"/>
            <path id="Path_886525" data-name="Path 886525" d="M155.622,21.511c.123.034.308.006.313.148,2.127-.417,3.13-2.707,4.054-4.333.445-.783.951-1.634,1.35-2.529-.564-.329-1.127-.654-1.684-.967-.3-.173-.612-.344-.918-.516-.555.837-1.073,1.755-1.555,2.661-.861,1.636-2.323,3.566-1.56,5.536" transform="translate(18.502 1.585)" fill="#fff"/>
            <path id="Path_886526" data-name="Path 886526" d="M151.468,28.866a50.4,50.4,0,0,0-3.9,6.43c-.69,1.571-.791,3.215.627,3.292,1.079.058,2.036-1.841,2.492-2.542.76-1.169,1.543-2.16,2.03-2.99,1.371-2.351,2.8-4.19,2.648-7.03-1.938-1.436-3.035,1.521-3.9,2.84" transform="translate(17.511 3.053)" fill="#fff"/>
            <path id="Path_886527" data-name="Path 886527" d="M143.55,44.059a35.541,35.541,0,0,0-5.459,8.975c-.387.941-.94,2.276.154,2.99,1.348.083,2.079-1.232,2.653-2.094.685-1.033,1.186-2.154,1.714-3.141,1.106-2.067,2.7-4.305,2.653-6.73-.337-.3-1.437-.506-1.717,0" transform="translate(16.382 5.209)" fill="#fff"/>
            <path id="Path_886528" data-name="Path 886528" d="M132.978,62.163c-.966,1.026-1.713,2.812-2.807,4.785-.5.9-3.06,4.168-1.56,5.083.868.534,2.237-.941,2.651-1.5a28.293,28.293,0,0,0,1.716-2.841c1.248-2.012,2.582-3.779,2.5-6.131-.891-.688-1.923-.01-2.5.6" transform="translate(15.257 7.295)" fill="#fff"/>
            <path id="Path_886529" data-name="Path 886529" d="M125.2,78.907c0,.2-.273.137-.311.3a14.427,14.427,0,0,0-3.9,5.232c-.574,1.116-3.27,5.347-1.714,6.134,1.143.579,2.1-1.03,2.65-1.8a40.993,40.993,0,0,0,3.433-5.977c.511-1.041,1.421-2.141,1.09-3.443a2.067,2.067,0,0,0-1.249-.447" transform="translate(14.144 9.394)" fill="#fff"/>
            <path id="Path_886530" data-name="Path 886530" d="M115.064,97.115a42.987,42.987,0,0,0-3.429,5.234c-.508.9-3.354,5.183-1.251,5.533,1.026.17,1.873-1.281,2.342-1.945.659-.93,1.263-1.978,1.714-2.691,1.251-1.974,2.527-3.741,2.339-6.13-.333-.3-1.435-.506-1.716,0" transform="translate(13.051 11.525)" fill="#fff"/>
            <path id="Path_886531" data-name="Path 886531" d="M106.9,114.755c-.335-.3-1.436-.5-1.718,0a14.653,14.653,0,0,0-2.961,4.483,19.5,19.5,0,0,0-1.353,3.11q1.094.561,2.188,1.116a17.5,17.5,0,0,0,1.97-3.177c1.034-1.83,2.049-3.477,1.874-5.531" transform="translate(12.01 13.626)" fill="#fff"/>
            <g id="Group_1111884" data-name="Group 1111884" transform="translate(130.327 114.297)" opacity="0.38">
              <g id="Group_1111883" data-name="Group 1111883">
                <g id="Group_1111882" data-name="Group 1111882" clip-path="url(#clip-path-4)">
                  <path id="Path_886532" data-name="Path 886532" d="M131.218,102.854c-.267,1.054-1.558.925-2.259,1.129-5.1,1.46-9.877,4.755-10.005,11.457a11.4,11.4,0,0,0,12.912,11.619,10.929,10.929,0,0,0,7.1-3.711c.59-.657,1.073-2.089,2.582-1.451,1.239,2.382-1.458,4.213-3.064,5.323a14.07,14.07,0,0,1-21.949-13.069c.534-5.718,5.251-11.286,11.136-11.944,1.383-.154,2.742-.1,3.55.647" transform="translate(-116.462 -102.137)" fill="#334f70" fill-rule="evenodd"/>
                </g>
              </g>
            </g>
            <path id="Path_886533" data-name="Path 886533" d="M129.12,106.964a10.606,10.606,0,0,1,5.326.807,8.7,8.7,0,0,1,4.034,9.36c-.944,3.594-6.969,8.24-12.264,5.65a8.879,8.879,0,0,1-4.035-5.006,9.046,9.046,0,0,1,4.842-10.488,8.656,8.656,0,0,1,2.1-.323" transform="translate(14.511 12.728)" fill="#fff" fill-rule="evenodd"/>
            <g id="Group_1111887" data-name="Group 1111887" transform="translate(142.574 120.822)" opacity="0.38">
              <g id="Group_1111886" data-name="Group 1111886">
                <g id="Group_1111885" data-name="Group 1111885" clip-path="url(#clip-path-5)">
                  <path id="Path_886534" data-name="Path 886534" d="M128.623,107.968c1.66,2.351,2.647,6.1,3.23,9.681.171,1.062.8,2.47-.162,3.393-1.37.3-1.705-1.209-2.1-2.259-.356-.957-.692-2.2-.969-3.23-.592-2.215-1.5-5.48-1.13-7.1a.444.444,0,0,1,.325-.487Z" transform="translate(-127.406 -107.968)" fill="#334f70" fill-rule="evenodd"/>
                </g>
              </g>
            </g>
            <g id="Group_1111890" data-name="Group 1111890" transform="translate(147.38 86.312)" opacity="0.38">
              <g id="Group_1111889" data-name="Group 1111889">
                <g id="Group_1111888" data-name="Group 1111888" clip-path="url(#clip-path-6)">
                  <path id="Path_886535" data-name="Path 886535" d="M146.457,77.847c-.266,1.054-1.559.928-2.258,1.129-5.1,1.459-9.879,4.756-10.007,11.457a11.4,11.4,0,0,0,12.912,11.62,10.925,10.925,0,0,0,7.1-3.712c.59-.658,1.074-2.087,2.582-1.453,1.238,2.385-1.458,4.215-3.065,5.326A14.07,14.07,0,0,1,131.77,89.145c.535-5.719,5.252-11.287,11.136-11.946,1.384-.156,2.743-.1,3.551.648" transform="translate(-131.7 -77.129)" fill="#334f70" fill-rule="evenodd"/>
                </g>
              </g>
            </g>
            <path id="Path_886536" data-name="Path 886536" d="M144.36,81.958a10.6,10.6,0,0,1,5.326.81,8.7,8.7,0,0,1,4.033,9.356c-.943,3.6-6.969,8.24-12.266,5.65a8.9,8.9,0,0,1-4.033-5,9.052,9.052,0,0,1,4.841-10.49,8.8,8.8,0,0,1,2.1-.323" transform="translate(16.325 9.751)" fill="#fff" fill-rule="evenodd"/>
            <g id="Group_1111893" data-name="Group 1111893" transform="translate(159.629 92.837)" opacity="0.38">
              <g id="Group_1111892" data-name="Group 1111892">
                <g id="Group_1111891" data-name="Group 1111891" clip-path="url(#clip-path-7)">
                  <path id="Path_886537" data-name="Path 886537" d="M143.862,82.96c1.66,2.352,2.648,6.1,3.228,9.684.172,1.06.8,2.469-.162,3.388-1.366.3-1.705-1.206-2.1-2.262-.356-.953-.69-2.191-.968-3.226-.592-2.212-1.5-5.48-1.129-7.1a.446.446,0,0,1,.323-.488Z" transform="translate(-142.646 -82.96)" fill="#334f70" fill-rule="evenodd"/>
                </g>
              </g>
            </g>
            <g id="Group_1111896" data-name="Group 1111896" transform="translate(161.862 58.619)" opacity="0.38">
              <g id="Group_1111895" data-name="Group 1111895">
                <g id="Group_1111894" data-name="Group 1111894" clip-path="url(#clip-path-8)">
                  <path id="Path_886538" data-name="Path 886538" d="M159.4,53.1c-.267,1.059-1.558.929-2.257,1.132-5.1,1.457-9.878,4.756-10.008,11.457a11.4,11.4,0,0,0,12.912,11.619,10.933,10.933,0,0,0,7.1-3.714c.589-.655,1.072-2.085,2.581-1.45,1.239,2.384-1.459,4.218-3.065,5.326a14.071,14.071,0,0,1-21.949-13.072c.534-5.716,5.252-11.283,11.137-11.94,1.385-.158,2.742-.1,3.549.642" transform="translate(-144.642 -52.383)" fill="#334f70" fill-rule="evenodd"/>
                </g>
              </g>
            </g>
            <path id="Path_886539" data-name="Path 886539" d="M157.3,57.209a10.63,10.63,0,0,1,5.326.808,8.7,8.7,0,0,1,4.033,9.361c-.943,3.6-6.968,8.235-12.263,5.646a8.876,8.876,0,0,1-4.036-5,9.049,9.049,0,0,1,4.843-10.49,8.748,8.748,0,0,1,2.1-.323" transform="translate(17.866 6.805)" fill="#fff" fill-rule="evenodd"/>
            <g id="Group_1111899" data-name="Group 1111899" transform="translate(174.111 65.141)" opacity="0.38">
              <g id="Group_1111898" data-name="Group 1111898">
                <g id="Group_1111897" data-name="Group 1111897" clip-path="url(#clip-path-9)">
                  <path id="Path_886540" data-name="Path 886540" d="M156.806,58.211c1.656,2.354,2.644,6.1,3.226,9.685.172,1.061.8,2.468-.163,3.388-1.365.3-1.7-1.206-2.1-2.259-.355-.953-.689-2.194-.966-3.227-.594-2.213-1.505-5.48-1.132-7.1a.449.449,0,0,1,.325-.487Z" transform="translate(-155.587 -58.211)" fill="#334f70" fill-rule="evenodd"/>
                </g>
              </g>
            </g>
            <g id="Group_1111902" data-name="Group 1111902" transform="translate(177.229 28.694)" opacity="0.38">
              <g id="Group_1111901" data-name="Group 1111901">
                <g id="Group_1111900" data-name="Group 1111900" clip-path="url(#clip-path-10)">
                  <path id="Path_886541" data-name="Path 886541" d="M173.13,26.355c-.267,1.06-1.559.93-2.259,1.131-5.1,1.459-9.876,4.755-10.005,11.456a11.4,11.4,0,0,0,12.911,11.621,10.924,10.924,0,0,0,7.1-3.712c.591-.661,1.073-2.087,2.581-1.453,1.241,2.382-1.457,4.217-3.063,5.328a14.072,14.072,0,0,1-21.949-13.074c.534-5.718,5.254-11.282,11.137-11.939,1.381-.158,2.739-.1,3.549.641" transform="translate(-158.374 -25.641)" fill="#334f70" fill-rule="evenodd"/>
                </g>
              </g>
            </g>
            <path id="Path_886542" data-name="Path 886542" d="M171.033,30.469a10.563,10.563,0,0,1,5.324.808,8.692,8.692,0,0,1,4.034,9.359c-.942,3.594-6.971,8.236-12.266,5.648a8.872,8.872,0,0,1-4.033-5,9.05,9.05,0,0,1,4.843-10.488,8.629,8.629,0,0,1,2.1-.323" transform="translate(19.501 3.621)" fill="#fff" fill-rule="evenodd"/>
            <g id="Group_1111905" data-name="Group 1111905" transform="translate(189.476 35.217)" opacity="0.38">
              <g id="Group_1111904" data-name="Group 1111904">
                <g id="Group_1111903" data-name="Group 1111903" clip-path="url(#clip-path-11)">
                  <path id="Path_886543" data-name="Path 886543" d="M170.537,31.47c1.657,2.352,2.647,6.1,3.23,9.684.17,1.061.8,2.469-.163,3.389-1.366.3-1.705-1.209-2.1-2.259-.357-.957-.693-2.2-.969-3.225-.593-2.215-1.5-5.48-1.131-7.1a.449.449,0,0,1,.326-.487Z" transform="translate(-169.318 -31.47)" fill="#334f70" fill-rule="evenodd"/>
                </g>
              </g>
            </g>
            <g id="Group_1111908" data-name="Group 1111908" transform="translate(90.11 92.988)" opacity="0.38">
              <g id="Group_1111907" data-name="Group 1111907">
                <g id="Group_1111906" data-name="Group 1111906" clip-path="url(#clip-path-10)">
                  <path id="Path_886544" data-name="Path 886544" d="M95.279,83.81c-.27,1.056-1.56.931-2.259,1.134C87.919,86.4,83.141,89.7,83.012,96.4A11.4,11.4,0,0,0,95.923,108.02a10.939,10.939,0,0,0,7.1-3.713c.591-.659,1.071-2.087,2.582-1.45,1.238,2.382-1.459,4.214-3.065,5.321A14.068,14.068,0,0,1,80.594,95.109c.533-5.716,5.249-11.286,11.132-11.944,1.384-.154,2.742-.1,3.552.645" transform="translate(-80.523 -83.095)" fill="#334f70" fill-rule="evenodd"/>
                </g>
              </g>
            </g>
            <path id="Path_886545" data-name="Path 886545" d="M93.181,87.924a10.607,10.607,0,0,1,5.326.807,8.7,8.7,0,0,1,4.034,9.359c-.943,3.6-6.973,8.24-12.265,5.648a8.87,8.87,0,0,1-4.034-5,9.046,9.046,0,0,1,4.841-10.488,8.548,8.548,0,0,1,2.1-.323" transform="translate(10.232 10.462)" fill="#fff" fill-rule="evenodd"/>
            <g id="Group_1111911" data-name="Group 1111911" transform="translate(102.356 99.512)" opacity="0.38">
              <g id="Group_1111910" data-name="Group 1111910">
                <g id="Group_1111909" data-name="Group 1111909" clip-path="url(#clip-path-11)">
                  <path id="Path_886546" data-name="Path 886546" d="M92.683,88.925c1.657,2.354,2.647,6.1,3.23,9.684.171,1.062.8,2.471-.162,3.389-1.369.3-1.708-1.209-2.1-2.259-.357-.952-.69-2.194-.968-3.228-.594-2.211-1.5-5.48-1.13-7.1a.445.445,0,0,1,.323-.486Z" transform="translate(-91.467 -88.925)" fill="#334f70" fill-rule="evenodd"/>
                </g>
              </g>
            </g>
            <g id="Group_1111914" data-name="Group 1111914" transform="translate(107.162 65.006)" opacity="0.38">
              <g id="Group_1111913" data-name="Group 1111913">
                <g id="Group_1111912" data-name="Group 1111912" clip-path="url(#clip-path-14)">
                  <path id="Path_886547" data-name="Path 886547" d="M110.517,58.807c-.267,1.054-1.56.927-2.26,1.129-5.1,1.458-9.876,4.756-10,11.455a11.4,11.4,0,0,0,12.912,11.621,10.95,10.95,0,0,0,7.1-3.711c.589-.661,1.071-2.09,2.579-1.454,1.239,2.385-1.458,4.214-3.065,5.326A14.071,14.071,0,0,1,95.831,70.1c.535-5.716,5.251-11.285,11.136-11.941,1.383-.153,2.743-.1,3.55.648" transform="translate(-95.761 -58.09)" fill="#334f70" fill-rule="evenodd"/>
                </g>
              </g>
            </g>
            <path id="Path_886548" data-name="Path 886548" d="M108.419,62.918a10.581,10.581,0,0,1,5.327.807,8.7,8.7,0,0,1,4.033,9.359c-.943,3.6-6.971,8.242-12.266,5.651a8.883,8.883,0,0,1-4.032-5.006,9.052,9.052,0,0,1,4.841-10.489,8.7,8.7,0,0,1,2.1-.322" transform="translate(12.047 7.484)" fill="#fff" fill-rule="evenodd"/>
            <g id="Group_1111917" data-name="Group 1111917" transform="translate(119.41 71.531)" opacity="0.38">
              <g id="Group_1111916" data-name="Group 1111916">
                <g id="Group_1111915" data-name="Group 1111915" clip-path="url(#clip-path-15)">
                  <path id="Path_886549" data-name="Path 886549" d="M107.922,63.921c1.658,2.351,2.647,6.1,3.23,9.681.171,1.062.8,2.471-.162,3.39-1.369.3-1.707-1.205-2.1-2.26-.357-.952-.694-2.192-.97-3.226-.592-2.213-1.5-5.481-1.129-7.1a.442.442,0,0,1,.325-.485Z" transform="translate(-106.706 -63.921)" fill="#334f70" fill-rule="evenodd"/>
                </g>
              </g>
            </g>
            <g id="Group_1111920" data-name="Group 1111920" transform="translate(121.646 37.312)" opacity="0.38">
              <g id="Group_1111919" data-name="Group 1111919">
                <g id="Group_1111918" data-name="Group 1111918" clip-path="url(#clip-path-16)">
                  <path id="Path_886550" data-name="Path 886550" d="M123.459,34.058c-.27,1.055-1.56.929-2.259,1.129-5.1,1.46-9.878,4.757-10.005,11.457A11.4,11.4,0,0,0,124.1,58.266a10.951,10.951,0,0,0,7.1-3.713c.59-.658,1.072-2.088,2.582-1.453,1.237,2.385-1.459,4.214-3.066,5.324a14.067,14.067,0,0,1-21.946-13.069c.533-5.718,5.248-11.283,11.132-11.944,1.384-.153,2.743-.1,3.552.647" transform="translate(-108.704 -33.342)" fill="#334f70" fill-rule="evenodd"/>
                </g>
              </g>
            </g>
            <path id="Path_886551" data-name="Path 886551" d="M121.36,38.171a10.625,10.625,0,0,1,5.326.8,8.7,8.7,0,0,1,4.034,9.362c-.943,3.593-6.972,8.238-12.265,5.648a8.873,8.873,0,0,1-4.033-5,9.052,9.052,0,0,1,4.84-10.49,8.563,8.563,0,0,1,2.1-.321" transform="translate(13.587 4.538)" fill="#fff" fill-rule="evenodd"/>
            <g id="Group_1111923" data-name="Group 1111923" transform="translate(133.892 43.835)" opacity="0.38">
              <g id="Group_1111922" data-name="Group 1111922">
                <g id="Group_1111921" data-name="Group 1111921" clip-path="url(#clip-path-17)">
                  <path id="Path_886552" data-name="Path 886552" d="M120.863,39.171c1.66,2.352,2.645,6.1,3.23,9.684.171,1.06.8,2.47-.162,3.391-1.369.3-1.707-1.209-2.1-2.262-.356-.955-.692-2.2-.97-3.227-.593-2.213-1.5-5.48-1.129-7.1a.446.446,0,0,1,.325-.489Z" transform="translate(-119.647 -39.171)" fill="#334f70" fill-rule="evenodd"/>
                </g>
              </g>
            </g>
            <g id="Group_1111926" data-name="Group 1111926" transform="translate(137.012 7.387)" opacity="0.38">
              <g id="Group_1111925" data-name="Group 1111925">
                <g id="Group_1111924" data-name="Group 1111924" clip-path="url(#clip-path-14)">
                  <path id="Path_886553" data-name="Path 886553" d="M137.19,7.316c-.267,1.058-1.559.93-2.258,1.13-5.1,1.459-9.878,4.756-10,11.457a11.392,11.392,0,0,0,12.907,11.618,10.927,10.927,0,0,0,7.1-3.711c.592-.657,1.073-2.087,2.582-1.451,1.239,2.384-1.459,4.214-3.065,5.323a14.069,14.069,0,0,1-21.948-13.069c.534-5.719,5.251-11.285,11.137-11.941,1.381-.154,2.741-.1,3.547.645" transform="translate(-122.435 -6.601)" fill="#334f70" fill-rule="evenodd"/>
                </g>
              </g>
            </g>
            <path id="Path_886554" data-name="Path 886554" d="M135.091,11.427a10.6,10.6,0,0,1,5.328.808,8.7,8.7,0,0,1,4.035,9.36c-.947,3.593-6.973,8.237-12.266,5.648a8.857,8.857,0,0,1-4.034-5.006A9.047,9.047,0,0,1,133,11.75a8.729,8.729,0,0,1,2.095-.323" transform="translate(15.222 1.354)" fill="#fff" fill-rule="evenodd"/>
            <g id="Group_1111929" data-name="Group 1111929" transform="translate(149.259 13.911)" opacity="0.38">
              <g id="Group_1111928" data-name="Group 1111928">
                <g id="Group_1111927" data-name="Group 1111927" clip-path="url(#clip-path-19)">
                  <path id="Path_886555" data-name="Path 886555" d="M134.6,12.431c1.657,2.35,2.645,6.1,3.229,9.68.17,1.061.8,2.472-.161,3.393-1.37.3-1.708-1.209-2.1-2.263-.357-.955-.692-2.191-.969-3.226-.594-2.211-1.505-5.48-1.13-7.1a.442.442,0,0,1,.325-.483Z" transform="translate(-133.379 -12.431)" fill="#334f70" fill-rule="evenodd"/>
                </g>
              </g>
            </g>
            <path id="Path_886556" data-name="Path 886556" d="M.686,87.9l4.543,5.746c2.238,2.829,8.691,1.453,14.413-3.076s8.55-10.488,6.309-13.318L21.409,71.5Z" transform="translate(0.082 8.513)" fill="#e8bd54" fill-rule="evenodd"/>
            <g id="Group_1111932" data-name="Group 1111932" transform="translate(0.768 80.018)" opacity="0.14">
              <g id="Group_1111931" data-name="Group 1111931">
                <g id="Group_1111930" data-name="Group 1111930" clip-path="url(#clip-path-20)">
                  <path id="Path_886557" data-name="Path 886557" d="M.686,87.9l4.543,5.746c2.238,2.829,8.691,1.453,14.413-3.076s8.55-10.488,6.309-13.318L21.409,71.5Z" transform="translate(-0.686 -71.505)" fill="#334f70" fill-rule="evenodd"/>
                </g>
              </g>
            </g>
            <path id="Path_886558" data-name="Path 886558" d="M21.49,71.661c2.24,2.828-.584,8.795-6.31,13.319S3,90.886.768,88.054s.588-8.792,6.309-13.319,12.176-5.9,14.413-3.074" transform="translate(0 8.357)" fill="#e8bd54" fill-rule="evenodd"/>
            <path id="Path_886559" data-name="Path 886559" d="M19.752,70.548a5.849,5.849,0,0,0-1.808-.349c-1.167,1.068-2.526,2.54-3.85,3.959-2.239,2.394-4.814,5.206-6.874,7.594-1.962,2.274-4.687,5.209-5.726,7.089a4.366,4.366,0,0,0,1.391.539c4-3.255,9.647-9.966,14.092-15.409.837-1.025,2.033-2.3,2.775-3.423" transform="translate(0.178 8.358)" fill="#fff"/>
            <path id="Path_886560" data-name="Path 886560" d="M68.613,54.8l.458,7.311c.224,3.6,6.31,6.148,13.594,5.7s13-3.743,12.78-7.343l-.457-7.312Z" transform="translate(8.169 6.328)" fill="#e8bd54" fill-rule="evenodd"/>
            <g id="Group_1111935" data-name="Group 1111935" transform="translate(76.782 59.482)" opacity="0.14">
              <g id="Group_1111934" data-name="Group 1111934">
                <g id="Group_1111933" data-name="Group 1111933" clip-path="url(#clip-path-21)">
                  <path id="Path_886561" data-name="Path 886561" d="M68.613,54.8l.458,7.311c.235,3.6,6.3,6.15,13.594,5.7s13-3.743,12.78-7.343l-.457-7.312Z" transform="translate(-68.613 -53.154)" fill="#334f70" fill-rule="evenodd"/>
                </g>
              </g>
            </g>
            <path id="Path_886562" data-name="Path 886562" d="M94.989,53.766c.223,3.6-5.5,6.889-12.782,7.342s-13.368-2.094-13.593-5.694,5.5-6.888,12.782-7.344,13.367,2.1,13.593,5.7" transform="translate(8.168 5.717)" fill="#e8bd54" fill-rule="evenodd"/>
            <path id="Path_886563" data-name="Path 886563" d="M94.306,51.682a5.746,5.746,0,0,0-1.286-1.317c-1.566.212-3.522.645-5.417,1.059-3.206.687-6.925,1.529-9.98,2.315-2.908.748-6.818,1.606-8.748,2.557a4.493,4.493,0,0,0,.835,1.238c5.141-.4,13.611-2.687,20.366-4.623,1.275-.366,2.982-.724,4.23-1.229" transform="translate(8.2 5.996)" fill="#fff"/>
            <path id="Path_886564" data-name="Path 886564" d="M34.415,73.181a36.752,36.752,0,0,1-3.424-2.568c-3.24-3.015-5.664-8.433-.711-11.174,1.8-.995,4.734-.874,6.879-.141,2.979,1.017,7.375,3.66,11.027,6.3,3.707,2.68,8.419,6.234,9.6,8.988a6.377,6.377,0,0,1-3.335,8.473c-3.427,1.446-7.2-1.177-11.365-3.828-3.062-1.949-5.728-3.91-8.668-6.047" transform="translate(3.269 6.991)" fill="#334f70" fill-rule="evenodd"/>
            <path id="Path_886565" data-name="Path 886565" d="M30.992,70.613a36.6,36.6,0,0,0,3.424,2.568c1.547,1.125,3.017,2.2,4.51,3.251-.276-4.414.828-10.171,7.965-11.748A46.163,46.163,0,0,0,37.16,59.3c-2.145-.733-5.079-.854-6.88.141-4.952,2.741-2.528,8.159.712,11.174" transform="translate(3.269 6.991)" fill="#2ebca1"/>
            <path id="Path_886566" data-name="Path 886566" d="M42.348,74.418c-.582-1.19-2.468-2.394-4.389-3.46-.824-.458-2.164-1.176-2.659-.487-.591.826.8,1.887,1.306,2.265a15.148,15.148,0,0,0,5.064,2.57,1.2,1.2,0,0,0,.678-.889" transform="translate(4.186 8.356)" fill="#fff" fill-rule="evenodd"/>
            <path id="Path_886567" data-name="Path 886567" d="M39.023,69.61c1.551-1.468-2.192-4.267-3.089-2.742-.389.664.914,2.7,2.012,3.045a1.109,1.109,0,0,0,1.077-.3" transform="translate(4.27 7.908)" fill="#fff" fill-rule="evenodd"/>
            <path id="Path_886568" data-name="Path 886568" d="M65.844,19.58A42.729,42.729,0,0,0,62.97,30.524c-.458,4.074.987,7.264,3.7,8.124,3.006.95,5.78-1.664,7.41-3.705,2.2-2.752,3.819-6.689,5.176-10.62-3.585-6.026-9.7-5.669-13.416-4.744" transform="translate(7.487 2.269)" fill="#2ebca1"/>
            <path id="Path_886569" data-name="Path 886569" d="M76.763,4.859a7.911,7.911,0,0,0-1.852.427c-3.685,1.754-6.037,7.827-7.7,11.831-.58,1.4-1.148,2.773-1.686,4.16,3.715-.925,9.831-1.284,13.416,4.744.544-1.569,1.045-3.139,1.522-4.628.908-2.827,2.061-5.784,2.282-8.694.389-5.151-1.878-8.379-5.986-7.839" transform="translate(7.802 0.572)" fill="#25364f"/>
            <path id="Path_886570" data-name="Path 886570" d="M73.42,10.428c.032,1.468-1.212,3.615-2.563,5.647-.58.867-1.538,2.259-2.372,1.833-1.006-.517-.169-2.271.133-2.9A16.69,16.69,0,0,1,72.3,9.9a1.309,1.309,0,0,1,1.118.53" transform="translate(8.096 1.177)" fill="#fff" fill-rule="evenodd"/>
            <path id="Path_886571" data-name="Path 886571" d="M72.6,16.482c2.28.659.016,5.324-1.648,4.273-.721-.454-.469-3.119.434-4.027a1.233,1.233,0,0,1,1.214-.245" transform="translate(8.397 1.955)" fill="#fff" fill-rule="evenodd"/>
            <path id="Path_886572" data-name="Path 886572" d="M65.666,26.316c.826.15,1.092,1.342.9,2.545-.152.968-.887,2.748-1.89,2.231a2.258,2.258,0,0,1-.646-2.16c.153-1.177.567-2.807,1.635-2.616" transform="translate(7.62 3.131)" fill="#fff" fill-rule="evenodd"/>
            <path id="Path_886573" data-name="Path 886573" d="M179.825,56.1l-6.59,3.2c-3.243,1.575-3.294,8.172-.107,14.738s8.4,10.609,11.644,9.037l6.59-3.2Z" transform="translate(20.331 6.679)" fill="#e8bd54" fill-rule="evenodd"/>
            <g id="Group_1111938" data-name="Group 1111938" transform="translate(191.101 62.78)" opacity="0.14">
              <g id="Group_1111937" data-name="Group 1111937">
                <g id="Group_1111936" data-name="Group 1111936" clip-path="url(#clip-path-22)">
                  <path id="Path_886574" data-name="Path 886574" d="M179.825,56.1l-6.59,3.2c-3.243,1.575-3.294,8.172-.107,14.738s8.4,10.609,11.644,9.037l6.59-3.2Z" transform="translate(-170.77 -56.101)" fill="#334f70" fill-rule="evenodd"/>
                </g>
              </g>
            </g>
            <path id="Path_886575" data-name="Path 886575" d="M190.66,79.908c-3.246,1.576-8.46-2.47-11.644-9.033s-3.138-13.165.107-14.738,8.46,2.471,11.646,9.035,3.136,13.162-.11,14.736" transform="translate(21.032 6.643)" fill="#e8bd54" fill-rule="evenodd"/>
            <path id="Path_886576" data-name="Path 886576" d="M192.01,78.514a5.777,5.777,0,0,0,.732-1.694c-.791-1.367-1.937-3.01-3.035-4.608-1.855-2.7-4.044-5.826-5.93-8.355-1.8-2.4-4.077-5.695-5.688-7.123a4.469,4.469,0,0,0-.828,1.247c2.318,4.606,7.653,11.569,12.009,17.082.82,1.045,1.8,2.484,2.741,3.451" transform="translate(21.104 6.755)" fill="#fff"/>
            <path id="Path_886577" data-name="Path 886577" d="M149.842,140.181l4.128,6.053c2.031,2.978,8.565,2.062,14.594-2.049s9.268-9.857,7.238-12.839l-4.127-6.053Z" transform="translate(17.84 14.917)" fill="#e8bd54" fill-rule="evenodd"/>
            <g id="Group_1111941" data-name="Group 1111941" transform="translate(167.682 140.21)" opacity="0.14">
              <g id="Group_1111940" data-name="Group 1111940">
                <g id="Group_1111939" data-name="Group 1111939" clip-path="url(#clip-path-23)">
                  <path id="Path_886578" data-name="Path 886578" d="M149.842,140.181l4.128,6.053c2.04,2.976,8.56,2.069,14.594-2.049s9.268-9.857,7.238-12.839l-4.127-6.053Z" transform="translate(-149.842 -125.293)" fill="#334f70" fill-rule="evenodd"/>
                </g>
              </g>
            </g>
            <path id="Path_886579" data-name="Path 886579" d="M171.739,125.479c2.03,2.981-1.207,8.732-7.236,12.842s-12.563,5.027-14.6,2.046,1.206-8.73,7.235-12.841,12.565-5.026,14.6-2.047" transform="translate(17.775 14.731)" fill="#e8bd54" fill-rule="evenodd"/>
            <path id="Path_886580" data-name="Path 886580" d="M170.105,124.256a5.845,5.845,0,0,0-1.782-.477c-1.238.985-2.695,2.356-4.116,3.675-2.4,2.235-5.171,4.852-7.4,7.091-2.114,2.13-5.039,4.863-6.213,6.67a4.454,4.454,0,0,0,1.352.633c4.218-2.967,10.327-9.262,15.146-14.375.908-.966,2.191-2.15,3.01-3.217" transform="translate(17.929 14.737)" fill="#fff"/>
            <path id="Path_886581" data-name="Path 886581" d="M152.961,109.517a36.141,36.141,0,0,0-3.437,2.545c-3.26,3-5.716,8.4-.782,11.172,1.793,1.007,4.73.9,6.878.181,2.986-1,7.4-3.616,11.065-6.231,3.725-2.654,8.456-6.183,9.652-8.931a6.374,6.374,0,0,0-3.284-8.489c-3.416-1.468-7.2,1.131-11.389,3.759-3.074,1.928-5.751,3.873-8.7,5.995" transform="translate(17.376 11.827)" fill="#334f70" fill-rule="evenodd"/>
            <path id="Path_886582" data-name="Path 886582" d="M149.525,111.321a36.09,36.09,0,0,1,3.437-2.545c1.553-1.116,3.032-2.183,4.529-3.222-.3,4.407.768,10.173,7.895,11.793a46.2,46.2,0,0,1-9.765,5.327c-2.147.721-5.085.826-6.877-.182-4.935-2.772-2.479-8.174.781-11.17" transform="translate(17.376 12.567)" fill="#2ebca1"/>
            <path id="Path_886583" data-name="Path 886583" d="M160.9,106.251c-.589,1.188-2.48,2.376-4.407,3.434-.827.451-2.173,1.16-2.66.468-.589-.828.815-1.878,1.316-2.252a15.032,15.032,0,0,1,5.078-2.54,1.183,1.183,0,0,1,.673.89" transform="translate(18.298 12.544)" fill="#fff" fill-rule="evenodd"/>
            <path id="Path_886584" data-name="Path 886584" d="M157.55,110.873c1.539,1.476-2.219,4.255-3.107,2.718-.384-.665.931-2.685,2.032-3.03a1.11,1.11,0,0,1,1.074.312" transform="translate(18.379 13.158)" fill="#fff" fill-rule="evenodd"/>
            <path id="Path_886585" data-name="Path 886585" d="M135.982,136.736a42.8,42.8,0,0,1,8.668,7.274c2.725,3.062,3.388,6.5,1.666,8.773-1.9,2.511-5.676,1.98-8.187,1.254-3.383-.977-6.981-3.256-10.36-5.678-.555-6.993,4.645-10.234,8.213-11.624" transform="translate(15.207 16.279)" fill="#2ebca1"/>
            <path id="Path_886586" data-name="Path 886586" d="M118.733,130.642a7.779,7.779,0,0,1,1.76-.72c4.02-.7,9.447,2.9,13.112,5.213,1.28.8,2.541,1.6,3.78,2.423-3.568,1.39-8.768,4.63-8.213,11.623-1.351-.971-2.664-1.962-3.918-2.9-2.37-1.784-5.019-3.53-6.88-5.778-3.294-3.979-3.308-7.926.358-9.859" transform="translate(13.804 15.458)" fill="#25364f"/>
            <path id="Path_886587" data-name="Path 886587" d="M123.846,133.6c.819,1.222,3.075,2.253,5.352,3.131.974.375,2.559.957,3,.128.521-1-1.176-1.951-1.783-2.288a16.7,16.7,0,0,0-5.959-2.046,1.3,1.3,0,0,0-.607,1.075" transform="translate(14.745 15.778)" fill="#fff" fill-rule="evenodd"/>
            <path id="Path_886588" data-name="Path 886588" d="M127.779,138.259c-1.476,1.854,3.066,4.355,3.818,2.541.323-.793-1.419-2.822-2.682-3.043a1.248,1.248,0,0,0-1.136.5" transform="translate(15.178 16.399)" fill="#fff" fill-rule="evenodd"/>
            <path id="Path_886589" data-name="Path 886589" d="M139.085,142.285c-.589.6-.116,1.724.737,2.594.683.7,2.311,1.733,2.83.731a2.258,2.258,0,0,0-.72-2.136c-.807-.871-2.086-1.962-2.848-1.188" transform="translate(16.528 16.908)" fill="#fff" fill-rule="evenodd"/>
            <path id="Path_886590" data-name="Path 886590" d="M46.557,15.166c4.266,1.82,5.809,5.228,3.815,9.525-2.175,4.675-6.8,7.554-9.924,9.537A68.136,68.136,0,0,1,12.2,44.543c-2.18.3-4.276.72-6.082.216a8.344,8.344,0,0,1-4.377-3.239c-1.92-2.884-1.107-7.192,2.134-11.48a23.159,23.159,0,0,1,4.49-3.969A64.686,64.686,0,0,1,22.58,18.236c6.341-2.5,13.727-4.948,20.719-4a12.544,12.544,0,0,1,3.258.928" transform="translate(0.085 1.67)" fill="#c1d5e8" fill-rule="evenodd"/>
            <path id="Path_886591" data-name="Path 886591" d="M55.564,38.031a6.816,6.816,0,0,0,.307-5.97l.006-.006L51,19.118a7.345,7.345,0,0,1-.676,4.967c-2.175,4.677-6.8,7.554-9.924,9.538A68.144,68.144,0,0,1,12.155,43.938c-2.18.3-4.276.721-6.082.217A8.355,8.355,0,0,1,1.7,40.915a5.808,5.808,0,0,1-.592-1.14L6.129,53.04a5.9,5.9,0,0,0,.806,1.816A8.364,8.364,0,0,0,11.31,58.1c1.807.5,3.9.077,6.085-.222A68.106,68.106,0,0,0,45.642,47.566c3.124-1.983,7.751-4.859,9.922-9.534" transform="translate(0.131 2.276)" fill="#334f70"/>
            <path id="Path_886592" data-name="Path 886592" d="M50.568,37.414c.1-.206.173-.405.253-.609-1.727-4-3.27-8.781-5.915-12.5a15.745,15.745,0,0,1-1.839,2.622c.074.165.151.329.216.488a84.079,84.079,0,0,0,4.933,9.841c.372.631.762,1.41,1.23,2.122a14.141,14.141,0,0,0,1.122-1.961" transform="translate(5.127 2.893)" fill="#c1d5e8"/>
            <path id="Path_886593" data-name="Path 886593" d="M39.678,29.884c-.571.423-1.141.816-1.691,1.183a10.907,10.907,0,0,1,1.007,1.225c1.354,2.169,2.3,4.839,3.641,7.193a41.679,41.679,0,0,0,2.37,3.5c.112.154.228.333.346.516.623-.476,1.244-.985,1.845-1.534-.058-.106-.12-.213-.173-.316-1.817-3.434-4.466-8.767-7.345-11.77" transform="translate(4.523 3.558)" fill="#c1d5e8"/>
            <path id="Path_886594" data-name="Path 886594" d="M39.4,40.8c-1.3-2.957-2.6-6.121-4.307-7.918q-.863.522-1.726,1.014c.053,1.166.95,2.243,1.416,3.31,1.271,2.911,2.135,5.725,3.632,8.478.275.5.582,1.134.955,1.711.758-.443,1.519-.9,2.277-1.381-.152-.372-.319-.748-.46-1.1-.535-1.336-1.2-2.78-1.787-4.111" transform="translate(3.973 3.915)" fill="#c1d5e8"/>
            <path id="Path_886595" data-name="Path 886595" d="M34.464,46.928c-1.173-2.539-2.2-5.135-3.4-7.5a11.786,11.786,0,0,0-2.034-3.292c-.637.3-1.276.586-1.92.859a8.017,8.017,0,0,0,.789,2.917,46.117,46.117,0,0,0,4.158,7.946,12.43,12.43,0,0,0,1.6,2.5c.65-.292,1.295-.594,1.944-.914a12.563,12.563,0,0,0-1.139-2.522" transform="translate(3.228 4.303)" fill="#c1d5e8"/>
            <path id="Path_886596" data-name="Path 886596" d="M26.221,45.871a49.757,49.757,0,0,0-3.466-7.211c-.8.266-1.6.511-2.413.746a23.17,23.17,0,0,0,.75,2.444,77.855,77.855,0,0,0,3.637,9.1,21.94,21.94,0,0,0,1.192,2.3c.949-.281,1.89-.589,2.828-.911-.248-.68-.614-1.375-.866-2.024-.562-1.44-1.021-3.015-1.662-4.447" transform="translate(2.422 4.603)" fill="#c1d5e8"/>
            <path id="Path_886597" data-name="Path 886597" d="M18.048,44.034a11.842,11.842,0,0,0-2.01-3.583c-.562.119-1.129.231-1.7.339a10.647,10.647,0,0,0,.921,3.788,67.961,67.961,0,0,0,3.772,8.405c.253.495.516,1.113.849,1.691.8-.151,1.585-.318,2.369-.5-.242-.657-.611-1.334-.858-1.983-1.054-2.79-2.072-5.393-3.347-8.16" transform="translate(1.707 4.816)" fill="#c1d5e8"/>
            <path id="Path_886598" data-name="Path 886598" d="M13.149,52.867c-1.06-2.785-2.086-5.525-3.117-8.254A20.582,20.582,0,0,0,8.777,41.62a12.123,12.123,0,0,1-2.119.06,17.687,17.687,0,0,0,1.073,2.7c1.05,2.954,1.857,5.726,3.074,8.593a15.555,15.555,0,0,0,1.231,2.662,12.432,12.432,0,0,0,2.062-.082,10.846,10.846,0,0,0-.95-2.69" transform="translate(0.793 4.955)" fill="#c1d5e8"/>
            <path id="Path_886599" data-name="Path 886599" d="M5.615,37.058c.283,1.743-4.1.4-2.9-.867.619-.66,2.292.261,2.9.867" transform="translate(0.298 4.281)" fill="#fff" fill-rule="evenodd"/>
            <path id="Path_886600" data-name="Path 886600" d="M7.1,39.254c-.291-.238-.758-.878-.239-1.422.678-.717,2.6-.266,3.4-.234.968.043,2.811-.319,3.309.655.712,1.383-2.1,1.477-3.075,1.47-.517,0-1.022-.059-1.456-.085-.75-.04-1.379.07-1.935-.384" transform="translate(0.788 4.456)" fill="#fff" fill-rule="evenodd"/>
            <path id="Path_886601" data-name="Path 886601" d="M32.835,16.527c1.055-.78,6.334-.1,5.993,1.683-.281,1.453-4.928.744-5.921-.439-.258-.3-.321-.574-.072-1.244" transform="translate(3.89 1.93)" fill="#fff" fill-rule="evenodd"/>
            <path id="Path_886602" data-name="Path 886602" d="M37.424,21.238c-.214-1.747,2.412-1.3,2.521-.256.148,1.407-2.33,1.795-2.521.256" transform="translate(4.454 2.389)" fill="#fff" fill-rule="evenodd"/>
            <path id="Path_886603" data-name="Path 886603" d="M40.246,18.154c.124-1.663,4.117-.953,3.8.544-.13.632-.592.715-1.412.768-1.215.078-2.479-.149-2.391-1.312" transform="translate(4.791 2.047)" fill="#fff" fill-rule="evenodd"/>
            <path id="Path_886604" data-name="Path 886604" d="M71.711,85.472c1.667,2.619,2.711,5.065,5.274,6.271,3.572,1.68,9.654.552,12.966,2.424,2.433,1.371,4.279,4.913,5.986,7.837,1.8,3.074,3.482,6.046,4.988,8.835,3.306,6.131,6.713,12.108,9.976,17.675,1.834,3.126,3.133,6.245,4.561,9.26,2.945,6.219,5.516,12.387,8.263,19.383,1.344,3.411,3.47,9.095,2,13.109-1.529,4.167-7.141,6.872-11.4,8.98-11.948,5.91-22.274,11.019-34.629,16.387-3.249,1.41-7.356,3.136-11.259,1.569a15.246,15.246,0,0,1-4.847-4.134,58.447,58.447,0,0,1-4.7-7.979c-5.905-10.8-11.316-21.956-17.388-33.349-2.95-5.538-5.436-11.1-8.124-17.246-1.512-3.463-2.878-7.106-2.136-10.973.521-2.709,2.252-5.054,3.707-7.123,1.431-2.043,3.4-4.45,3.562-7.271.158-2.746-1-4.644-1.711-6.839,8.352-4.374,17.126-8.4,25.8-12.687a79.418,79.418,0,0,1,9.12-4.132" transform="translate(3.694 10.176)" fill="#2ebca1" fill-rule="evenodd"/>
            <path id="Path_886605" data-name="Path 886605" d="M83.474,170.622c3.292-1.566,6.78-3.315,9.119-5.7a11.7,11.7,0,0,0,2.14-3.134c1.092-2.925-.031-6.467-1-9.264-.74-2.141-1.673-4.217-2.422-5.986-3.566-8.437-6.64-14.919-10.261-23.087-1.935-4.363-4.63-9.911-10.4-9.832-4.085.056-7.911,2.252-11.259,3.561-3.54,1.385-6.975,2.761-10.546,4.417-4.715,2.19-10.318,4.734-14.68,7.7-.424.289-.9.61-1.385.948.128.306.256.607.386.905,2.687,6.145,5.175,11.709,8.124,17.246,6.072,11.393,11.483,22.552,17.388,33.349.114.2.225.417.338.624,4.839-2.31,10.032-5.149,14.342-7.182,3.494-1.647,6.714-2.939,10.117-4.56" transform="translate(3.903 13.527)" fill="#c1d5e8"/>
            <path id="Path_886606" data-name="Path 886606" d="M57.6,132.03c1.8-.482,4.835-2.333,7.547-2.5,1.929-.114,4.349,5.658,3.936,8.322-.224,1.453-4.566,2.781-6.683,4.286.78,2.017,3.007,5.5,1.886,6.511a16.055,16.055,0,0,1-6,3.085c-1.381.25-3.049-4-4.455-6-2.047,1.09-4.792,3.057-6.855,2.058-1.113-.537-3.111-4.229-3.429-5.826-.6-3.009,3.314-4.461,5.484-5.826-.523-1.816-1.77-2.879-1.543-4.972.21-1.925,3.365-4.066,5.655-4.284,3.083-.289,3.431,3.016,4.456,5.141" transform="translate(5.177 15.105)" fill="#fff" fill-rule="evenodd"/>
            <path id="Path_886607" data-name="Path 886607" d="M75.67,147.371C70.923,149.489,64,152.9,59.043,155.388a22.9,22.9,0,0,0-4.2,2.429c.726,1.3,1.428,2.616,2.136,3.914,1.915-.093,4.549-2.173,5.962-2.932,4.386-2.357,8.5-4.247,12.427-6.338.709-.377,1.519-.754,2.263-1.209q-.99-1.93-1.963-3.882" transform="translate(6.529 17.545)" fill="#334f70" fill-rule="evenodd"/>
            <path id="Path_886608" data-name="Path 886608" d="M80.834,157.053c-.524-.857-1.018-1.722-1.505-2.591-1.914.493-3.712,2.02-5.158,2.763-3.381,1.735-8.341,4.2-11.7,5.849-.929.454-2.5,1.066-3.707,1.754.035.055.068.112.1.167q.947,1.526,1.89,3.056c.376-.2.779-.406,1.226-.592,5.745-2.361,10.056-4.971,15.353-7.8a29.7,29.7,0,0,0,3.789-2.122c-.1-.162-.2-.328-.294-.488" transform="translate(6.997 18.39)" fill="#334f70" fill-rule="evenodd"/>
            <path id="Path_886609" data-name="Path 886609" d="M94,121.027c-1.878-1.356-3.381-4.965-4.643-8.593-.546-1.554-1.379-4.086-.043-4.726,1.6-.773,3.007,1.951,3.5,2.926,1.581,3.09,2.863,7.141,2.912,9.494a2.055,2.055,0,0,1-1.73.9" transform="translate(10.548 12.807)" fill="#fff" fill-rule="evenodd"/>
            <path id="Path_886610" data-name="Path 886610" d="M82.9,108.973c-3,2.227-6.7-5.058-3.795-6.144,1.26-.474,4.363,2.38,4.642,4.387a1.948,1.948,0,0,1-.847,1.757" transform="translate(9.292 12.236)" fill="#fff" fill-rule="evenodd"/>
            <path id="Path_886611" data-name="Path 886611" d="M82.3,100.129c-.977.9-2.724.094-4.053-1.291-1.07-1.117-2.605-3.738-1-4.5.706-.345,2.2.114,3.329,1.242,1.335,1.314,2.98,3.39,1.727,4.546" transform="translate(9.114 11.218)" fill="#fff" fill-rule="evenodd"/>
            <path id="Path_886612" data-name="Path 886612" d="M68.345,179.177c-2.478,1.436,3.693,5.558,4.062,2.762.192-1.458-2.678-2.613-4.062-2.762" transform="translate(8.067 21.332)" fill="#fff" fill-rule="evenodd"/>
            <path id="Path_886613" data-name="Path 886613" d="M64.5,180.118c.592.121,1.874.05,2.03-1.158.2-1.583-2.332-3.534-3.19-4.5-1.042-1.173-2.481-3.851-4.21-3.481-2.466.526.3,4.156,1.306,5.366.533.642,1.119,1.221,1.6,1.743.817.891,1.324,1.8,2.466,2.03" transform="translate(6.921 20.352)" fill="#fff" fill-rule="evenodd"/>
            <path id="Path_886614" data-name="Path 886614" d="M72.5,79.075c-.755-1.379-1.24-2.54-2.171-3.975a10.679,10.679,0,0,0-3.769-3.756c-1.82-.789-4.024-.109-6.107.734-4.011,1.628-17.7,8.942-17.7,8.947-3.619,1.679-7,3.26-10.423,5.248-1.939,1.124-3.679,2.407-4.32,4.373-1.154,3.555,1.6,8.384,2.233,9.825,1.285,2.948,2.933,6.89,7.584,6.378a18.471,18.471,0,0,0,5.578-2.081c3.079-1.511,21.829-11.109,24.888-12.608a18.4,18.4,0,0,0,5.064-3.134c3.252-3.359.686-7.133-.857-9.951" transform="translate(3.301 8.452)" fill="#137764" fill-rule="evenodd"/>
            <path id="Path_886615" data-name="Path 886615" d="M30.406,92.25c4.767-2.444,9.354-4.556,14.1-6.9,1.25-.619,2.837-1.534,4.341-2.452.516-.316,2.573-1.15,2.062-2.052-.224-.392-1.058-.341-1.641-.195a10.757,10.757,0,0,0-1.667.623,154.741,154.741,0,0,0-16.724,7.359c-.988.492-2.019.986-3.032,1.522a8.3,8.3,0,0,0,.115,3.278c.915-.425,1.747-.825,2.444-1.182" transform="translate(3.302 9.589)" fill="#2ebca1"/>
            <path id="Path_886616" data-name="Path 886616" d="M61.714,73.625A35.092,35.092,0,0,0,54.993,77.5a3.71,3.71,0,0,0-.715.8.984.984,0,0,0,.027,1.168c.658.717,2.394-.09,3.45-.564,1.325-.6,2.532-1.167,3.486-1.66,1.892-.969,3.75-1.879,5.6-2.777a13.5,13.5,0,0,0-2.068-2.342c-1.028.5-2.052,1-3.063,1.5" transform="translate(6.441 8.587)" fill="#2ebca1"/>
            <path id="Path_886617" data-name="Path 886617" d="M38.718,93.1c1.134-.6,3.833-1.9,3.054-2.977-.6-.835-2.54.087-3.792.62-2.679,1.137-5.441,2.611-7.819,3.835-.378.194-.884.413-1.408.657.32.8.654,1.5.925,2.067a92.665,92.665,0,0,0,9.04-4.2" transform="translate(3.423 10.689)" fill="#2ebca1"/>
            <path id="Path_886618" data-name="Path 886618" d="M66.959,81.633c-2.418,1.141-5.266,2.442-7.8,3.878-1.184.671-3.1,1.646-2.8,2.633.384,1.273,3.056-.081,4.221-.613A93.7,93.7,0,0,0,70.593,82.2c.152-.093.31-.185.466-.272a15.263,15.263,0,0,0-.811-1.839,23.493,23.493,0,0,0-3.289,1.543" transform="translate(6.706 9.535)" fill="#2ebca1"/>
            <path id="Path_886619" data-name="Path 886619" d="M51.59,92.564c.521-.292,2.875-1.578,2.485-2.447-.534-1.193-2.507-.115-3.089.094a85.3,85.3,0,0,0-9.412,4.26,102.275,102.275,0,0,0-9.44,5.078c-.378.244-.838.525-1.293.824a10.916,10.916,0,0,0,1.636,2.459c1.2-.661,2.393-1.364,3.588-2.043,5.262-2.981,10.16-5.207,15.525-8.224" transform="translate(3.672 10.663)" fill="#2ebca1"/>
            <path id="Path_886620" data-name="Path 886620" d="M50.648,85.118c-1.676.812-4.285,1.759-3.542,3.044,1.933.26,16.092-6.882,22.735-10.361-.331-.636-.63-1.246-.971-1.876C63.645,78.5,51.64,84.64,50.648,85.118" transform="translate(5.593 9.039)" fill="#2ebca1"/>
          </g>
        </g>
      </g>
    </g>
  </g>
</svg>
