<svg xmlns="http://www.w3.org/2000/svg" xmlns:xlink="http://www.w3.org/1999/xlink" width="178" height="178" viewBox="0 0 178 178">
  <defs>
    <clipPath id="clip-path">
      <path id="Path_888849" data-name="Path 888849" d="M0,0H96.191V85.088H0Z" fill="#fdeee0"/>
    </clipPath>
    <clipPath id="clip-path-2">
      <rect id="Rectangle_408225" data-name="Rectangle 408225" width="96.192" height="85.087" fill="#fdeee0"/>
    </clipPath>
    <clipPath id="clip-path-3">
      <rect id="Rectangle_408222" data-name="Rectangle 408222" width="87.05" height="51.749" fill="none"/>
    </clipPath>
  </defs>
  <g id="Group_1113360" data-name="Group 1113360" transform="translate(-20494 9894.248)">
    <g id="Group_1113088" data-name="Group 1113088" transform="translate(20494 -9894.247)">
      <path id="Path_882862" data-name="Path 882862" d="M89,0A89,89,0,1,1,0,89,89,89,0,0,1,89,0Z" transform="translate(0 -0.001)" fill="#005865"/>
      <path id="Path_882863" data-name="Path 882863" d="M78.668,0A78.668,78.668,0,1,1,0,78.668,78.668,78.668,0,0,1,78.668,0Z" transform="translate(10.332 10.331)" fill="#f3f9ff"/>
    </g>
    <g id="Group_1113089" data-name="Group 1113089" transform="translate(20532.074 -9855.247)">
      <rect id="Rectangle_401104" data-name="Rectangle 401104" width="99.117" height="100.574" transform="translate(-0.074 0.247)" fill="none"/>
      <g id="Group_1113344" data-name="Group 1113344" transform="translate(1.926 7.247)">
        <g id="Mask_Group_1109147" data-name="Mask Group 1109147" clip-path="url(#clip-path)">
          <g id="Group_1113342" data-name="Group 1113342" transform="translate(0 0.001)">
            <g id="Group_1113341" data-name="Group 1113341" clip-path="url(#clip-path-2)">
              <path id="Path_888838" data-name="Path 888838" d="M95.751,59.913H1.429V6.528C1.429,2.923,4.034,0,7.248,0H89.932c3.214,0,5.819,2.923,5.819,6.528Z" transform="translate(0.441 -0.001)" fill="#fdeee0"/>
              <path id="Path_888839" data-name="Path 888839" d="M95.751,58.374H1.429V4.989Z" transform="translate(0.441 1.539)" fill="#c1b0a1"/>
              <path id="Path_888840" data-name="Path 888840" d="M1.429,45.786H95.751V48.7c0,3.605-2.605,6.528-5.819,6.528H7.248c-3.214,0-5.819-2.923-5.819-6.528Z" transform="translate(0.441 14.127)"/>
              <rect id="Rectangle_408206" data-name="Rectangle 408206" width="87.05" height="51.748" transform="translate(5.611 4.435)" fill="#2c7691"/>
              <rect id="Rectangle_408207" data-name="Rectangle 408207" width="3.117" height="3.846" transform="translate(7.79 10.145)" fill="#db301f"/>
              <rect id="Rectangle_408208" data-name="Rectangle 408208" width="3.117" height="3.846" transform="translate(7.79 15.739)" fill="#1fdbbf"/>
              <rect id="Rectangle_408209" data-name="Rectangle 408209" width="3.117" height="3.846" transform="translate(7.79 21.335)" fill="#1fdb2f"/>
              <rect id="Rectangle_408210" data-name="Rectangle 408210" width="3.117" height="3.846" transform="translate(7.79 26.929)" fill="#db1f93"/>
              <rect id="Rectangle_408211" data-name="Rectangle 408211" width="87.05" height="5.361" transform="translate(5.611 50.821)" fill="#9190ad"/>
              <path id="Path_888841" data-name="Path 888841" d="M8.533,41.354a1.883,1.883,0,0,1-1.765,1.981,1.994,1.994,0,0,1,0-3.962,1.883,1.883,0,0,1,1.765,1.981" transform="translate(1.543 12.148)" fill="#2c5391"/>
              <rect id="Rectangle_408212" data-name="Rectangle 408212" width="53.601" height="38.812" transform="translate(16.102 8.513)" fill="#fff"/>
              <rect id="Rectangle_408213" data-name="Rectangle 408213" width="53.601" height="3.555" transform="translate(16.102 8.512)" fill="#0050ff"/>
              <rect id="Rectangle_408214" data-name="Rectangle 408214" width="22.334" height="23.427" transform="translate(18.593 14.923)" fill="#c9c9c9"/>
              <rect id="Rectangle_408215" data-name="Rectangle 408215" width="25.086" height="1.311" transform="translate(42.409 14.924)" fill="#c9c9c9"/>
              <rect id="Rectangle_408216" data-name="Rectangle 408216" width="25.086" height="1.311" transform="translate(42.409 17.72)" fill="#c9c9c9"/>
              <rect id="Rectangle_408217" data-name="Rectangle 408217" width="25.086" height="1.311" transform="translate(42.409 20.518)" fill="#c9c9c9"/>
              <rect id="Rectangle_408218" data-name="Rectangle 408218" width="25.086" height="1.311" transform="translate(42.409 23.316)" fill="#c9c9c9"/>
              <rect id="Rectangle_408219" data-name="Rectangle 408219" width="13.322" height="1.311" transform="translate(42.409 26.112)" fill="#c9c9c9"/>
              <rect id="Rectangle_408220" data-name="Rectangle 408220" width="25.086" height="1.311" transform="translate(42.409 31.707)" fill="#c9c9c9"/>
              <rect id="Rectangle_408221" data-name="Rectangle 408221" width="13.322" height="1.311" transform="translate(42.409 34.504)" fill="#c9c9c9"/>
              <g id="Group_1113340" data-name="Group 1113340" transform="translate(5.611 4.434)" opacity="0.1">
                <g id="Group_1113339" data-name="Group 1113339">
                  <g id="Group_1113338" data-name="Group 1113338" clip-path="url(#clip-path-3)">
                    <path id="Path_888842" data-name="Path 888842" d="M91.338,55.137,4.288,3.389h87.05Z" transform="translate(-4.288 -3.389)" fill="#fff"/>
                  </g>
                </g>
              </g>
              <rect id="Rectangle_408223" data-name="Rectangle 408223" width="22.282" height="10.604" transform="translate(37.889 69.354)" fill="#fdeee0"/>
              <rect id="Rectangle_408224" data-name="Rectangle 408224" width="22.282" height="4.66" transform="translate(37.889 69.354)" fill="#c7c7c7"/>
              <path id="Path_888843" data-name="Path 888843" d="M71.761,66.234H16.394v-.051a4.825,4.825,0,0,1,4.525-5.077H67.236a4.825,4.825,0,0,1,4.525,5.077Z" transform="translate(5.058 18.854)" fill="#fdeee0"/>
              <path id="Path_888844" data-name="Path 888844" d="M4.272,64.088l-1.032.132L1.3,45.112l1.031-.131Z" transform="translate(0.402 13.878)" fill="#3d448c"/>
              <path id="Path_888845" data-name="Path 888845" d="M8,63.339l-1.034-.11L8.579,44.084l1.034.11Z" transform="translate(2.148 13.601)" fill="#8c3d73"/>
              <path id="Path_888846" data-name="Path 888846" d="M4.922,62.123,3.885,62.2,2.738,43.013l1.036-.077Z" transform="translate(0.845 13.247)" fill="#ff4040"/>
              <path id="Path_888847" data-name="Path 888847" d="M13.089,49.394H0L2.033,69.848h9.022Z" transform="translate(0 15.24)" fill="#ba3232"/>
              <path id="Path_888848" data-name="Path 888848" d="M8.522,49.883h1.35L7.9,69.23Z" transform="translate(2.437 15.391)" fill="#f77"/>
            </g>
          </g>
        </g>
      </g>
    </g>
  </g>
</svg>
