<svg xmlns="http://www.w3.org/2000/svg" xmlns:xlink="http://www.w3.org/1999/xlink" width="100.495" height="150" viewBox="0 0 100.495 150">
  <defs>
    <clipPath id="clip-path">
      <rect id="Rectangle_403416" data-name="Rectangle 403416" width="71.683" height="58.902" fill="#59c4c8"/>
    </clipPath>
    <clipPath id="clip-path-2">
      <path id="Path_875268" data-name="Path 875268" d="M1.1,22.912,0,23.293v7.9a5.187,5.187,0,0,0,2.421,4.17L29.988,55.009a10.8,10.8,0,0,0,11.707,0L69.263,35.37a5.21,5.21,0,0,0,2.42-4.1c0-.066,0-.132,0-.2h0V23.367l-1.728-1.185C69.468,25.819,66,28.217,63.1,28.715L43.345,42.969l-8.621,3.841L7.207,29.288l.636-.453c-2.351-1.356-3.618-4.456-4.89-7.285Z" transform="translate(0 -21.549)" fill="#61dfe4"/>
    </clipPath>
    <clipPath id="clip-path-3">
      <rect id="Rectangle_403409" data-name="Rectangle 403409" width="71.683" height="58.902" fill="none"/>
    </clipPath>
    <clipPath id="clip-path-4">
      <rect id="Rectangle_403408" data-name="Rectangle 403408" width="35.842" height="34.45" fill="none"/>
    </clipPath>
    <clipPath id="clip-path-5">
      <path id="Path_875270" data-name="Path 875270" d="M26.3,6.628,3.311,23.549c1.272,2.829,2.539,5.929,4.89,7.285L34.324,12.221a3.459,3.459,0,0,1,3.749,0L63.74,30.508l-.285.207c2.9-.5,6.37-2.9,6.858-6.533L41.508,4.411,33.126,1.678Z" transform="translate(-3.311 -1.678)" fill="#61dfe4"/>
    </clipPath>
    <clipPath id="clip-path-7">
      <rect id="Rectangle_403411" data-name="Rectangle 403411" width="32.888" height="29.156" fill="none"/>
    </clipPath>
    <clipPath id="clip-path-8">
      <path id="Path_875272" data-name="Path 875272" d="M33.967,46.513,6.4,26.872a1.539,1.539,0,0,1,0-2.672L33.966,4.56a3.457,3.457,0,0,1,3.749,0L65.283,24.2a1.538,1.538,0,0,1,0,2.671L37.716,46.512a3.458,3.458,0,0,1-3.749,0M35.736,0a10.166,10.166,0,0,0-5.749,1.725L2.421,21.365c-3.227,2.3-3.227,6.041,0,8.341L29.989,49.347a10.793,10.793,0,0,0,11.707,0L69.263,29.706c3.227-2.3,3.227-6.041,0-8.341L41.695,1.725A10.166,10.166,0,0,0,35.946,0Z" transform="translate(-0.001)" fill="#98baff"/>
    </clipPath>
    <clipPath id="clip-path-10">
      <path id="Path_875275" data-name="Path 875275" d="M33.322,46.995,5.755,27.355a2.178,2.178,0,0,1,0-3.782L33.321,3.934a4.894,4.894,0,0,1,5.307,0L66.195,23.574a2.177,2.177,0,0,1,0,3.781L38.628,46.995a4.894,4.894,0,0,1-5.306,0M30.9,2.208,3.333,21.847c-2.8,1.994-2.8,5.239,0,7.232L30.9,48.722a9.367,9.367,0,0,0,10.151,0L68.617,29.08c2.8-1.992,2.8-5.237,0-7.231L41.049,2.208a9.359,9.359,0,0,0-10.151,0" transform="translate(-1.234 -0.712)" fill="#98baff"/>
    </clipPath>
    <clipPath id="clip-path-11">
      <rect id="Rectangle_403518" data-name="Rectangle 403518" width="60.873" height="61.12" fill="#fff"/>
    </clipPath>
    <clipPath id="clip-path-12">
      <rect id="Rectangle_403232" data-name="Rectangle 403232" width="72.996" height="50.71" fill="#61dfe4"/>
    </clipPath>
    <clipPath id="clip-path-13">
      <rect id="Rectangle_406759" data-name="Rectangle 406759" width="37.658" height="37.808" fill="#0c2d70"/>
    </clipPath>
  </defs>
  <g id="Group_1113371" data-name="Group 1113371" transform="translate(-180 -4785.256)">
    <rect id="Rectangle_406753" data-name="Rectangle 406753" width="85" height="150" transform="translate(180 4785.256)" fill="#b8fafd"/>
    <g id="Group_1113226" data-name="Group 1113226">
      <g id="Group_1111987" data-name="Group 1111987" transform="translate(208.254 4823.256)">
        <g id="Group_1100744" data-name="Group 1100744" transform="translate(0.004 14.098)">
          <g id="Group_1100514" data-name="Group 1100514" clip-path="url(#clip-path)">
            <g id="Group_1100495" data-name="Group 1100495" transform="translate(0 23.717)">
              <g id="Group_1100494" data-name="Group 1100494" clip-path="url(#clip-path-2)">
                <path id="Path_875399" data-name="Path 875399" d="M0,0,71.633-6.175l-7.76,81.049L-7.76,81.049Z" transform="translate(-12.548 26.819) rotate(-60)" fill="#61dfe4"/>
              </g>
            </g>
            <g id="Group_1100500" data-name="Group 1100500" transform="translate(0 0)">
              <g id="Group_1100499" data-name="Group 1100499" clip-path="url(#clip-path-3)">
                <g id="Group_1100498" data-name="Group 1100498" transform="translate(35.841 24.452)" opacity="0.3">
                  <g id="Group_1100497" data-name="Group 1100497">
                    <g id="Group_1100496" data-name="Group 1100496" clip-path="url(#clip-path-4)">
                      <path id="Path_875269" data-name="Path 875269" d="M67.442,28.647,47.689,42.9l-7.5,3.344V56.667a10.2,10.2,0,0,0,5.854-1.725L73.606,35.3a5.208,5.208,0,0,0,2.42-4.1c0-.066,0-.133,0-.2l0,0V23.3l-1.58-1.084h-.165c-.539,3.58-3.968,5.937-6.841,6.431" transform="translate(-40.185 -22.217)" fill="#0f054c"/>
                    </g>
                  </g>
                </g>
              </g>
            </g>
            <g id="Group_1100502" data-name="Group 1100502" transform="translate(2.953 1.847)">
              <g id="Group_1100501" data-name="Group 1100501" clip-path="url(#clip-path-5)">
                <path id="Path_875400" data-name="Path 875400" d="M0,0,63.434-5.469,56.357,68.457-7.078,73.925Z" transform="matrix(0.5, -0.866, 0.866, 0.5, -10.231, 21.867)" fill="#61dfe4"/>
              </g>
            </g>
            <g id="Group_1100507" data-name="Group 1100507" transform="translate(0 0)">
              <g id="Group_1100506" data-name="Group 1100506" clip-path="url(#clip-path-3)">
                <g id="Group_1100505" data-name="Group 1100505" transform="translate(2.953 1.847)" opacity="0.3">
                  <g id="Group_1100504" data-name="Group 1100504">
                    <g id="Group_1100503" data-name="Group 1100503" clip-path="url(#clip-path-7)">
                      <path id="Path_875271" data-name="Path 875271" d="M36.2,2.68l-3.073-1L26.3,6.628,3.311,23.548c1.272,2.829,2.538,5.93,4.89,7.286L34.324,12.221A3.27,3.27,0,0,1,36.2,11.67Z" transform="translate(-3.311 -1.678)" fill="#0f054c"/>
                    </g>
                  </g>
                </g>
              </g>
            </g>
            <g id="Group_1100509" data-name="Group 1100509" transform="translate(0)">
              <g id="Group_1100508" data-name="Group 1100508" clip-path="url(#clip-path-8)">
                <rect id="Rectangle_403413" data-name="Rectangle 403413" width="73.296" height="51.647" transform="translate(-0.807 0)" fill="#98baff"/>
              </g>
            </g>
            <g id="Group_1100511" data-name="Group 1100511" transform="translate(0 0)">
              <g id="Group_1100510" data-name="Group 1100510" clip-path="url(#clip-path-3)">
                <path id="Path_875273" data-name="Path 875273" d="M65.965,23.834,38.4,4.193a3.457,3.457,0,0,0-3.749,0L7.082,23.833A1.547,1.547,0,0,0,6.4,25.649a1.843,1.843,0,0,1,.686-.855L34.649,5.153a3.457,3.457,0,0,1,3.749,0L65.965,24.794a1.846,1.846,0,0,1,.686.856,1.546,1.546,0,0,0-.686-1.816" transform="translate(-0.682 0.367)" fill="#fff"/>
                <path id="Path_875274" data-name="Path 875274" d="M69.263,27.329,41.7,46.968a10.793,10.793,0,0,1-11.707,0L2.422,27.327A5.344,5.344,0,0,1,.03,23.637a5.047,5.047,0,0,0,2.392,4.651L29.989,47.929a10.8,10.8,0,0,0,11.707,0L69.263,28.288a5.045,5.045,0,0,0,2.391-4.65,5.344,5.344,0,0,1-2.391,3.69" transform="translate(0 2.379)" fill="#fff"/>
              </g>
            </g>
            <g id="Group_1100513" data-name="Group 1100513" transform="translate(1.1 0.784)">
              <g id="Group_1100512" data-name="Group 1100512" clip-path="url(#clip-path-10)">
                <rect id="Rectangle_403415" data-name="Rectangle 403415" width="70.881" height="50.002" transform="translate(-0.7 0)" fill="#98baff"/>
              </g>
            </g>
          </g>
        </g>
        <g id="Group_1100749" data-name="Group 1100749" transform="translate(5.307)">
          <g id="Group_1100748" data-name="Group 1100748" clip-path="url(#clip-path-11)">
            <path id="Path_875398" data-name="Path 875398" d="M6.247,0H54.48A6.338,6.338,0,0,1,60.8,6.356l.14,34.756-26.7,18.94a7.554,7.554,0,0,1-7.744,0L-.145,41.219-.072,6.356A6.338,6.338,0,0,1,6.247,0" transform="translate(0.074 0)" fill="#fff"/>
          </g>
        </g>
        <g id="Group_1100745" data-name="Group 1100745" transform="translate(-0.755 6.578)">
          <g id="Group_1100096" data-name="Group 1100096" transform="translate(0 0)" clip-path="url(#clip-path-12)">
            <path id="Path_873771" data-name="Path 873771" d="M36.5,50.711a9.642,9.642,0,0,1-5.42-1.551L2.316,29.276A4.816,4.816,0,0,1,0,25.354a4.813,4.813,0,0,1,2.316-3.921L31.077,1.55a10.26,10.26,0,0,1,10.843,0L70.681,21.434A4.813,4.813,0,0,1,73,25.355a4.816,4.816,0,0,1-2.316,3.922L41.92,49.16A9.645,9.645,0,0,1,36.5,50.711M36.5.595a9.2,9.2,0,0,0-5.169,1.477L2.568,21.955A4.223,4.223,0,0,0,.5,25.354a4.22,4.22,0,0,0,2.064,3.4L31.331,48.638a9.785,9.785,0,0,0,10.337,0L70.429,28.755a4.22,4.22,0,0,0,2.064-3.4,4.22,4.22,0,0,0-2.064-3.4L41.667,2.072A9.2,9.2,0,0,0,36.5.595" transform="translate(0 -0.001)" fill="#61dfe4"/>
          </g>
        </g>
        <rect id="Rectangle_403516" data-name="Rectangle 403516" width="60.873" height="30.446" transform="translate(5.307 4.578)" fill="#fff"/>
      </g>
      <g id="Group_1111989" data-name="Group 1111989" transform="translate(225.166 4828.502)">
        <g id="Group_1099618" data-name="Group 1099618" transform="translate(0 0)">
          <rect id="Rectangle_401104" data-name="Rectangle 401104" width="37.658" height="38.112" transform="translate(0)" fill="none"/>
        </g>
        <g id="Group_1112003" data-name="Group 1112003" transform="translate(0 0.152)">
          <g id="Group_1112002" data-name="Group 1112002" clip-path="url(#clip-path-13)">
            <path id="Path_886696" data-name="Path 886696" d="M26.788,18.158a6.755,6.755,0,0,1,5.066,10.418l5.522,5.609c1.25,2.281-1.952,4.807-3.821,3.017-1.418-1.358-2.815-4.207-4.2-5.8-.085-.1-.209-.3-.333-.316l-2.244.537c-.086.532.171,2.418-.143,2.731l-.382.131L.065,34.39,0,.3.326.056,21.665,0l.555.135A62.278,62.278,0,0,1,26.751,4.8ZM21.6.925H.793V33.576H25.856V31.622c-8.426-.66-8.417-12.747,0-13.451V5.179H21.89c-.038,0-.175-.152-.287-.115Zm3.564,3.449c.05-.2-.083-.23-.172-.346a25.356,25.356,0,0,0-2.18-2.189.486.486,0,0,0-.408-.109V4.2l.172.172ZM25.138,19.12a6.217,6.217,0,0,0-3.929,2.739,5.856,5.856,0,0,0,6.6,8.669c6.853-1.893,5.019-12.454-2.671-11.408m7.155,11.35c.1-.142-.778-1.037-.977-1.037l-1.409,1.21.835,1.091Zm3.985,5.941A1.588,1.588,0,0,0,36.6,34.62l-3.669-3.577L31.31,32.427l0,.226,2.942,3.964a1.6,1.6,0,0,0,2.025-.207" fill="#0c2d70"/>
            <path id="Path_886697" data-name="Path 886697" d="M39.5,205.723a1.147,1.147,0,0,1,.39-.24,33.061,33.061,0,0,1,4.918-.033.872.872,0,0,1,.862.862,32.148,32.148,0,0,1,0,4.722,1.1,1.1,0,0,1-.981.859,30.175,30.175,0,0,1-4.489,0,1.057,1.057,0,0,1-.98-1.089,31.133,31.133,0,0,1,0-4.494,1.017,1.017,0,0,1,.275-.587m5.363,5.248V206.43l-.172-.172H40.15v4.714Z" transform="translate(-34.643 -181.764)" fill="#0c2d70"/>
            <path id="Path_886698" data-name="Path 886698" d="M39.5,71.761a1.025,1.025,0,0,1-.275-.588,31.133,31.133,0,0,1,0-4.494,1.053,1.053,0,0,1,1.1-1.087,31.935,31.935,0,0,1,4.662.051,1.108,1.108,0,0,1,.686.923,31.156,31.156,0,0,1,0,4.492c-.076.832-.543,1.007-1.329,1.085a20.157,20.157,0,0,1-4.361-.121,1.285,1.285,0,0,1-.484-.262m5.363-5.248H40.207l-.172.172v4.254c0,.038.152.175.115.287h4.541l.172-.172Z" transform="translate(-34.643 -58)" fill="#0c2d70"/>
            <path id="Path_886699" data-name="Path 886699" d="M39.525,141.6a1.494,1.494,0,0,1-.27-.709,30.488,30.488,0,0,1,0-4.377,1.052,1.052,0,0,1,1.092-1.092,30.594,30.594,0,0,1,4.374.006.931.931,0,0,1,.985.969A31.567,31.567,0,0,1,45.7,141a.932.932,0,0,1-.972.868,31.761,31.761,0,0,1-4.611,0,1.076,1.076,0,0,1-.591-.271m5.367-.654V136.4l-.172-.172H40.351c-.538,0-.175,1.68-.168,2.007a21.264,21.264,0,0,0,0,2.534.372.372,0,0,0,.172.288H44.6c.038,0,.175-.152.287-.115" transform="translate(-34.672 -119.785)" fill="#0c2d70"/>
            <path id="Path_886700" data-name="Path 886700" d="M53,37.047l.064.573-.26.208-12.68-.034c-.341-.166-.255-.747-.058-.747Z" transform="translate(-35.304 -32.788)" fill="#0c2d70"/>
            <path id="Path_886701" data-name="Path 886701" d="M126.182,150.419h-8.22c-.151,0-.236-.458-.156-.614l.508-.3c2.33.147,4.946-.222,7.241-.013.7.064.885.219.627.925" transform="translate(-104.235 -132.249)" fill="#0c2d70"/>
            <path id="Path_886702" data-name="Path 886702" d="M118.006,81.047h8.163c.235,0,.235.8,0,.8h-8.163c-.2,0-.279-.69,0-.8" transform="translate(-104.279 -71.729)" fill="#0c2d70"/>
            <path id="Path_886703" data-name="Path 886703" d="M118.14,100.047h4.944a.709.709,0,0,1,.293.408c.061.147-.209.511-.293.511H118.14a.709.709,0,0,1-.293-.408Z" transform="translate(-104.298 -88.545)" fill="#0c2d70"/>
            <path id="Path_886704" data-name="Path 886704" d="M122.739,219.5c.062.01.18.114.269.134v.652c-.083.017-.227.134-.269.134h-4.6a.709.709,0,0,1-.293-.408l.293-.511c1.383.165,3.283-.222,4.6,0" transform="translate(-104.298 -194.204)" fill="#0c2d70"/>
            <path id="Path_886705" data-name="Path 886705" d="M118.006,170.047h5.174c.235,0,.235.8,0,.8h-5.174c-.2,0-.279-.69,0-.8" transform="translate(-104.279 -150.497)" fill="#0c2d70"/>
            <path id="Path_886706" data-name="Path 886706" d="M118.006,240.047h5.174c.235,0,.235.8,0,.8h-5.174c-.2,0-.279-.69,0-.8" transform="translate(-104.279 -212.449)" fill="#0c2d70"/>
            <path id="Path_886707" data-name="Path 886707" d="M184.011,172.224c5.207-5.063,12.437,3.262,6.974,7.721-5.14,4.2-11.607-3.216-6.974-7.721m3.036-.586c-5.342.724-4.6,9.133,1.106,8.579,5.624-.546,4.728-9.369-1.106-8.579" transform="translate(-161.449 -151.024)" fill="#0c2d70"/>
            <path id="Path_886708" data-name="Path 886708" d="M56.391,222.774c.113.071.149.507.075.671a16.983,16.983,0,0,1-1.9,1.8c-.434.121-2.365-1.65-.986-1.8l.91.687c.435-.258,1.351-1.7,1.9-1.355" transform="translate(-46.991 -197.115)" fill="#0c2d70"/>
            <path id="Path_886709" data-name="Path 886709" d="M53.141,84.026c.61-.375.877.582,1.311.558l1.506-1.36c.455.068.642.309.39.733a15.6,15.6,0,0,1-1.909,1.782c-.328.032-1.847-1.376-1.3-1.713" transform="translate(-46.926 -73.656)" fill="#0c2d70"/>
            <path id="Path_886710" data-name="Path 886710" d="M55.838,153.13a.4.4,0,0,1,.436.216.443.443,0,0,1,0,.457,20.97,20.97,0,0,1-1.865,1.825c-.338.1-1.442-.977-1.51-1.215a.451.451,0,0,1,.483-.584c.349.033.695.7.921.657.412-.255,1.1-1.292,1.537-1.356" transform="translate(-46.799 -135.519)" fill="#0c2d70"/>
            <path id="Path_886711" data-name="Path 886711" d="M216.164,190.078a1.53,1.53,0,0,1,1.7,2.05c-.145.465-.794.7-.925.914-.223.365.239,1.573-.462,1.568-.789-.006-.572-1.683-.226-2.141.2-.263.627-.36.777-.727.284-.7-.855-1.078-1.122-.538-.131.264.016.765-.468.808-.952.084-.48-1.725.723-1.933" transform="translate(-190.223 -168.202)" fill="#0c2d70"/>
            <path id="Path_886712" data-name="Path 886712" d="M224.444,235.936c.765-.228.771.633.3.767-.544.154-.824-.61-.3-.767" transform="translate(-198.391 -208.778)" fill="#0c2d70"/>
          </g>
        </g>
      </g>
    </g>
  </g>
</svg>
