<svg xmlns="http://www.w3.org/2000/svg" xmlns:xlink="http://www.w3.org/1999/xlink" width="122" height="122" viewBox="0 0 122 122">
  <defs>
    <clipPath id="clip-path">
      <rect id="Rectangle_400938" data-name="Rectangle 400938" width="122" height="122" fill="#2bc897"/>
    </clipPath>
    <clipPath id="clip-path-2">
      <path id="Path_873460" data-name="Path 873460" d="M0,1.307A1.349,1.349,0,0,0,1.389,2.613,1.349,1.349,0,0,0,2.778,1.307,1.349,1.349,0,0,0,1.389,0,1.349,1.349,0,0,0,0,1.307" transform="translate(0)" fill="#005865"/>
    </clipPath>
    <clipPath id="clip-path-3">
      <path id="Path_873466" data-name="Path 873466" d="M0,1.307A1.349,1.349,0,0,0,1.39,2.613,1.349,1.349,0,0,0,2.778,1.307,1.349,1.349,0,0,0,1.39,0,1.349,1.349,0,0,0,0,1.307" fill="#005865"/>
    </clipPath>
    <clipPath id="clip-path-4">
      <path id="Path_873467" data-name="Path 873467" d="M0,1.306A1.349,1.349,0,0,0,1.389,2.612,1.349,1.349,0,0,0,2.778,1.306,1.349,1.349,0,0,0,1.389,0,1.349,1.349,0,0,0,0,1.306" transform="translate(0 0)" fill="#005865"/>
    </clipPath>
    <clipPath id="clip-path-5">
      <path id="Path_873468" data-name="Path 873468" d="M0,1.306A1.349,1.349,0,0,0,1.39,2.612,1.349,1.349,0,0,0,2.778,1.306,1.349,1.349,0,0,0,1.39,0,1.349,1.349,0,0,0,0,1.306" transform="translate(0 0)" fill="#005865"/>
    </clipPath>
    <clipPath id="clip-path-6">
      <path id="Path_873469" data-name="Path 873469" d="M0,1.306A1.349,1.349,0,0,0,1.389,2.612,1.349,1.349,0,0,0,2.777,1.306,1.349,1.349,0,0,0,1.389,0,1.349,1.349,0,0,0,0,1.306" transform="translate(0 0)" fill="#005865"/>
    </clipPath>
    <clipPath id="clip-path-9">
      <path id="Path_873473" data-name="Path 873473" d="M0,1.306A1.349,1.349,0,0,0,1.39,2.612,1.348,1.348,0,0,0,2.778,1.306,1.349,1.349,0,0,0,1.39,0,1.349,1.349,0,0,0,0,1.306" transform="translate(0 0)" fill="#005865"/>
    </clipPath>
    <clipPath id="clip-path-22">
      <rect id="Rectangle_401492" data-name="Rectangle 401492" width="54.022" height="54.022" transform="translate(0 0)" fill="#fff" stroke="#707070" stroke-width="1"/>
    </clipPath>
    <clipPath id="clip-path-23">
      <rect id="Rectangle_407854" data-name="Rectangle 407854" width="49.167" height="49.178" fill="#fff"/>
    </clipPath>
  </defs>
  <g id="Group_1113028" data-name="Group 1113028" transform="translate(23057.926 3814.948)">
    <g id="Group_1100237" data-name="Group 1100237" transform="translate(-23054.037 -3797.84)">
      <g id="Group_1099505" data-name="Group 1099505" transform="translate(1.808 8.418)">
        <g id="Group_1099504" data-name="Group 1099504" transform="translate(0)" clip-path="url(#clip-path-2)">
          <rect id="Rectangle_401140" data-name="Rectangle 401140" width="2.777" height="2.613" transform="translate(0)" fill="#005865"/>
        </g>
      </g>
      <g id="Group_1099517" data-name="Group 1099517" transform="translate(37.056 8.418)">
        <g id="Group_1099516" data-name="Group 1099516" transform="translate(0)" clip-path="url(#clip-path-3)">
          <rect id="Rectangle_401146" data-name="Rectangle 401146" width="2.778" height="2.613" transform="translate(0 0)" fill="#005865"/>
        </g>
      </g>
      <g id="Group_1099519" data-name="Group 1099519" transform="translate(30.194 8.418)">
        <g id="Group_1099518" data-name="Group 1099518" transform="translate(0 0)" clip-path="url(#clip-path-4)">
          <rect id="Rectangle_401147" data-name="Rectangle 401147" width="2.778" height="2.612" transform="translate(0 0)" fill="#005865"/>
        </g>
      </g>
      <g id="Group_1099521" data-name="Group 1099521" transform="translate(23.332 8.418)">
        <g id="Group_1099520" data-name="Group 1099520" transform="translate(0 0)" clip-path="url(#clip-path-5)">
          <rect id="Rectangle_401148" data-name="Rectangle 401148" width="2.778" height="2.612" transform="translate(0 0)" fill="#005865"/>
        </g>
      </g>
      <g id="Group_1099523" data-name="Group 1099523" transform="translate(16.47 8.418)">
        <g id="Group_1099522" data-name="Group 1099522" transform="translate(0 0)" clip-path="url(#clip-path-6)">
          <rect id="Rectangle_401149" data-name="Rectangle 401149" width="2.777" height="2.612" transform="translate(0 0)" fill="#005865"/>
        </g>
      </g>
      <g id="Group_1099525" data-name="Group 1099525" transform="translate(34.311 0)">
        <g id="Group_1099524" data-name="Group 1099524" clip-path="url(#clip-path-4)">
          <rect id="Rectangle_401150" data-name="Rectangle 401150" width="2.778" height="2.612" transform="translate(0 0)" fill="#005865"/>
        </g>
      </g>
      <g id="Group_1099529" data-name="Group 1099529" transform="translate(27.448 0)">
        <g id="Group_1099528" data-name="Group 1099528" transform="translate(0)" clip-path="url(#clip-path-5)">
          <rect id="Rectangle_401152" data-name="Rectangle 401152" width="2.778" height="2.612" transform="translate(0 0)" fill="#005865"/>
        </g>
      </g>
      <g id="Group_1099531" data-name="Group 1099531" transform="translate(13.724 0)">
        <g id="Group_1099530" data-name="Group 1099530" transform="translate(0)" clip-path="url(#clip-path-9)">
          <rect id="Rectangle_401153" data-name="Rectangle 401153" width="2.777" height="2.612" transform="translate(0 0)" fill="#005865"/>
        </g>
      </g>
      <g id="Group_1099533" data-name="Group 1099533" transform="translate(6.862 0)">
        <g id="Group_1099532" data-name="Group 1099532" clip-path="url(#clip-path-4)">
          <rect id="Rectangle_401154" data-name="Rectangle 401154" width="2.778" height="2.612" transform="translate(0 0)" fill="#005865"/>
        </g>
      </g>
      <g id="Group_1099535" data-name="Group 1099535" transform="translate(0 0)">
        <g id="Group_1099534" data-name="Group 1099534" transform="translate(0)" clip-path="url(#clip-path-5)">
          <rect id="Rectangle_401155" data-name="Rectangle 401155" width="2.778" height="2.612" transform="translate(0 0)" fill="#005865"/>
        </g>
      </g>
    </g>
    <g id="Group_1100238" data-name="Group 1100238" transform="translate(-22980.445 -3724.661)">
      <g id="Group_1099505-2" data-name="Group 1099505" transform="translate(1.808 8.418)">
        <g id="Group_1099504-2" data-name="Group 1099504" transform="translate(0)" clip-path="url(#clip-path-2)">
          <rect id="Rectangle_401140-2" data-name="Rectangle 401140" width="2.777" height="2.613" transform="translate(0)" fill="#005865"/>
        </g>
      </g>
      <g id="Group_1099517-2" data-name="Group 1099517" transform="translate(37.056 8.418)">
        <g id="Group_1099516-2" data-name="Group 1099516" transform="translate(0)" clip-path="url(#clip-path-3)">
          <rect id="Rectangle_401146-2" data-name="Rectangle 401146" width="2.778" height="2.613" transform="translate(0 0)" fill="#005865"/>
        </g>
      </g>
      <g id="Group_1099519-2" data-name="Group 1099519" transform="translate(30.194 8.418)">
        <g id="Group_1099518-2" data-name="Group 1099518" transform="translate(0 0)" clip-path="url(#clip-path-4)">
          <rect id="Rectangle_401147-2" data-name="Rectangle 401147" width="2.778" height="2.612" transform="translate(0 0)" fill="#005865"/>
        </g>
      </g>
      <g id="Group_1099521-2" data-name="Group 1099521" transform="translate(23.332 8.418)">
        <g id="Group_1099520-2" data-name="Group 1099520" transform="translate(0 0)" clip-path="url(#clip-path-5)">
          <rect id="Rectangle_401148-2" data-name="Rectangle 401148" width="2.778" height="2.612" transform="translate(0 0)" fill="#005865"/>
        </g>
      </g>
      <g id="Group_1099523-2" data-name="Group 1099523" transform="translate(16.47 8.418)">
        <g id="Group_1099522-2" data-name="Group 1099522" transform="translate(0 0)" clip-path="url(#clip-path-6)">
          <rect id="Rectangle_401149-2" data-name="Rectangle 401149" width="2.777" height="2.612" transform="translate(0 0)" fill="#005865"/>
        </g>
      </g>
      <g id="Group_1099525-2" data-name="Group 1099525" transform="translate(34.311 0)">
        <g id="Group_1099524-2" data-name="Group 1099524" clip-path="url(#clip-path-4)">
          <rect id="Rectangle_401150-2" data-name="Rectangle 401150" width="2.778" height="2.612" transform="translate(0 0)" fill="#005865"/>
        </g>
      </g>
      <g id="Group_1099529-2" data-name="Group 1099529" transform="translate(27.448 0)">
        <g id="Group_1099528-2" data-name="Group 1099528" transform="translate(0)" clip-path="url(#clip-path-5)">
          <rect id="Rectangle_401152-2" data-name="Rectangle 401152" width="2.778" height="2.612" transform="translate(0 0)" fill="#005865"/>
        </g>
      </g>
      <g id="Group_1099531-2" data-name="Group 1099531" transform="translate(13.724 0)">
        <g id="Group_1099530-2" data-name="Group 1099530" transform="translate(0)" clip-path="url(#clip-path-9)">
          <rect id="Rectangle_401153-2" data-name="Rectangle 401153" width="2.777" height="2.612" transform="translate(0 0)" fill="#005865"/>
        </g>
      </g>
      <g id="Group_1099533-2" data-name="Group 1099533" transform="translate(6.862 0)">
        <g id="Group_1099532-2" data-name="Group 1099532" clip-path="url(#clip-path-4)">
          <rect id="Rectangle_401154-2" data-name="Rectangle 401154" width="2.778" height="2.612" transform="translate(0 0)" fill="#005865"/>
        </g>
      </g>
      <g id="Group_1099535-2" data-name="Group 1099535" transform="translate(0 0)">
        <g id="Group_1099534-2" data-name="Group 1099534" transform="translate(0)" clip-path="url(#clip-path-5)">
          <rect id="Rectangle_401155-2" data-name="Rectangle 401155" width="2.778" height="2.612" transform="translate(0 0)" fill="#005865"/>
        </g>
      </g>
    </g>
    <path id="Union_17" data-name="Union 17" d="M-4150.107,4311.383l-33.056-32.927a18.528,18.528,0,0,1,0-26.2l33.054-32.926a18.7,18.7,0,0,1,26.3,0l33.056,32.928a18.528,18.528,0,0,1,0,26.2l-33.056,32.927a18.576,18.576,0,0,1-13.15,5.4A18.575,18.575,0,0,1-4150.107,4311.383Z" transform="translate(-18858.305 -8017.512)" fill="#41cee2" stroke="rgba(0,0,0,0)" stroke-miterlimit="10" stroke-width="1"/>
    <circle id="Ellipse_11579" data-name="Ellipse 11579" cx="39.5" cy="39.5" r="39.5" transform="translate(-23034.504 -3791.418)" fill="#005865"/>
    <g id="Mask_Group_1098697" data-name="Mask Group 1098697" transform="translate(-23022.008 -3778.646)" clip-path="url(#clip-path-22)">
      <g id="Group_1113267" data-name="Group 1113267" transform="translate(2.959 2.944)">
        <g id="Group_1113266" data-name="Group 1113266" clip-path="url(#clip-path-23)">
          <path id="Path_888126" data-name="Path 888126" d="M25.778,11.968c2.971-.214,3.627,3.026,3.351,5.387-.09.77-.84,1.955-.822,2.387a28.13,28.13,0,0,0,1.115,3.8c.659,1.815,1.889,2.6-.7,3.642-2.765,1.115-5.321.613-8.035-.324l-1.9.98-.025,1.7c.752.378,2.116,1.929,2.8,2.141.638.2,1.976.094,2.821.265a7.4,7.4,0,0,1,5.564,5.1c.5,1.72.507,6.774.32,8.657A3.463,3.463,0,0,1,27.108,49c-5.921-.4-12.546.534-18.384.008-.342-.031-.712-.038-.883-.381-.077-.318-.065-.8.258-.959l18.6-.064a2.079,2.079,0,0,0,2.022-1.486c-.325-3.034.78-7.35-.76-10.028a6,6,0,0,0-6.392-2.733c-.654.673-2.421,3-3.293,3s-2.473-2.143-3.087-2.783c-1.082.788-2.291,3.587-3.864,2.458-.692-.5-2.093-2.41-2.662-2.669a6.978,6.978,0,0,0-1.9-.078,5.936,5.936,0,0,0-5.254,5.549,46.536,46.536,0,0,0,.064,7.227,2.185,2.185,0,0,0,1.473,1.473c1.032.262,2.962-.519,2.648,1.095-.176.511-2.067.432-2.574.375A3.53,3.53,0,0,1,.283,46.652c-.373-1.237-.315-6.744-.177-8.236a7.464,7.464,0,0,1,5.3-6.345c1.03-.279,2.632-.139,3.39-.4a28.235,28.235,0,0,0,2.393-1.816c.648-.649.411-1.15.4-2.014l-1.9-.975c-2.554,1.1-5.938,1.431-8.447.025C-.6,25.86.693,24.822,1.229,23.406a22.456,22.456,0,0,0,.974-3.39c0-.34-.513-1-.665-1.416-.88-2.4-.41-6.787,2.915-6.631-.268-3-.237-5.79,1.566-8.324,2.617-3.68,8.936-4.173,13-3.226,5.634,1.313,7.83,6.09,6.759,11.549m-1.825,1.824C24.969,9.526,25.145,4.336,20.4,2.4a15.1,15.1,0,0,0-10.756.1A6.3,6.3,0,0,0,5.925,8.18c2.813-4.172,11.112-5.141,12.137.983,1.344-.3,2.811-1.151,4-.007s.765,3.646,1.466,4.427c.128.143.2.255.422.208m-7.294-4.35c-.734-4.029-5.4-3.794-8.125-1.88C5.657,9.585,5.661,13.457,6.278,16.6c2.975-2.957,6.058-6.3,10.381-7.156m4.454.739c-.492-.47-2.345.333-3.016.489-.607.142-1.234.17-1.889.355a12.447,12.447,0,0,0-3.477,1.714c.612.184,1.2.733.628,1.33-.519.539-1.563-.307-2.5.162-1.374.685-2.879,3.028-4.085,4.052-.531,8.25,10.256,12.035,15.2,5.375,1.939-2.615,1.772-5.262,1.716-8.379a2.822,2.822,0,0,1-1.58-1.25c-.469-.908-.433-3.319-.989-3.85M4.452,13.371c-3.16-.063-1.885,7.755.759,5.908.353-.907-.272-1.758-.439-2.649a18.5,18.5,0,0,1-.32-3.259m21.065.021a7.737,7.737,0,0,0-.439,1.594,27.413,27.413,0,0,0,0,4.069c.072.364.557.465.895.444,2.3-.144,2.641-6.7-.452-6.107M22.13,25.857c2.17.611,4.484.895,6.534-.278l-1.622-4.847a3.68,3.68,0,0,1-2.243.079l-.914,2.524ZM3.472,20.806,1.851,25.58a7.835,7.835,0,0,0,5.021.662c2.079-.378,1.316-.425.531-1.442a11.168,11.168,0,0,1-1.961-3.937Zm13.886,7.437a8.27,8.27,0,0,1-4.346,0,7.914,7.914,0,0,0,.028,1.3A22.084,22.084,0,0,0,14.9,31.337c.131.088.225.182.4.117.263-.418,1.873-1.562,1.994-1.808.181-.369.018-.99.067-1.4m-5.067,6.434,1.831-2.136L12.238,30.9l-2.174,1.623,1.92,2.149Zm5.72-3.747-1.764,1.713,2,2.043,2.05-2.024Z" transform="translate(0 0)" fill="#fff"/>
          <path id="Path_888127" data-name="Path 888127" d="M235.414,48.018l-11.267-.045a.8.8,0,0,0-.349.633c-.365,2.781.461,6.679-.026,9.374-.178.988-1.674,1.614-2.354,2.276-.151.147-.329.245-.278.492,3.933-.454,2.238,2.611,2.668,4.838.06.314.272.45.551.571l10.466.071a1.066,1.066,0,0,0,.9-.927c.249-1.573-.192-3.664.035-5.3a.712.712,0,0,1,1.383.247,34.913,34.913,0,0,1-.006,5.2,2.33,2.33,0,0,1-2.035,2.174c-3.422-.249-7.3.331-10.67.007-2.693-.259-2.085-3.464-2.229-5.347-.135-.195-2.254-.182-2.753-.334a1.041,1.041,0,0,1-.475-1.614c.5-.618,3.106-2.106,3.26-2.632.24-2.855-.22-5.994.024-8.815a2.552,2.552,0,0,1,2.6-2.588,71.824,71.824,0,0,1,9.683-.007,2.5,2.5,0,0,1,2.6,2.455c.221,2.6-.172,5.506-.008,8.139-.28.778-1.146.849-1.4,0-.215-2.542.274-5.508,0-8a2.235,2.235,0,0,0-.32-.872" transform="translate(-188.067 -39.661)" fill="#fff"/>
          <path id="Path_888128" data-name="Path 888128" d="M268.027,69.163c3.345-.563,5.678,2.811,3.684,5.508a32.591,32.591,0,0,1-3.52,3.5,3.5,3.5,0,0,1-4.9-4.9,34.729,34.729,0,0,1,3.5-3.511,3.056,3.056,0,0,1,1.229-.595m.419,1.4c-.5.093-1.9,1.064-1.771,1.552a19.828,19.828,0,0,0,2.842,2.754c2.242-1.291,1.812-4.838-1.071-4.306m-2.959,2.5c-2.267,1.287-1.7,4.957,1.183,4.278.46-.108,1.778-1.067,1.659-1.524a19.847,19.847,0,0,0-2.842-2.754" transform="translate(-225.732 -59.407)" fill="#fff"/>
          <path id="Path_888129" data-name="Path 888129" d="M26.8,296.458c-.417-.456-.4-2.069-.329-2.695.088-.757.474-.99,1.189-1.056a34.967,34.967,0,0,1,5.06,0,1.083,1.083,0,0,1,.943.6,9.006,9.006,0,0,1,.1,2.552c-.106.673-.563.871-1.178.927a35.023,35.023,0,0,1-5.063,0,1.313,1.313,0,0,1-.721-.331m5.567-2.341H27.874v1.263h4.489Z" transform="translate(-22.72 -251.565)" fill="#fff"/>
          <path id="Path_888130" data-name="Path 888130" d="M146.479,296.457a1.314,1.314,0,0,1-.721.331,35.029,35.029,0,0,1-5.063,0c-.615-.056-1.072-.254-1.178-.927a9.013,9.013,0,0,1,.1-2.552,1.083,1.083,0,0,1,.944-.6,34.823,34.823,0,0,1,5.06,0c.495.046.836.123,1.057.627a4.8,4.8,0,0,1-.2,3.123m-1.077-2.341h-4.489v1.263H145.4Z" transform="translate(-119.905 -251.564)" fill="#fff"/>
          <path id="Path_888131" data-name="Path 888131" d="M93.362,300.071c2.12-1.894,5.356,1.234,3.183,3.393-2.221,2.207-5.445-1.372-3.183-3.393m1.171.961c-.931.286-.371,1.93.644,1.631a.879.879,0,1,0-.644-1.631" transform="translate(-79.601 -257.47)" fill="#fff"/>
          <path id="Path_888132" data-name="Path 888132" d="M94.663,258.088a2.293,2.293,0,1,1,.245,4.46c-2.365-.286-2.465-4-.245-4.46m1.265,2.877a.891.891,0,0,0-1.224-1.294c-.789.769.445,2.035,1.224,1.294" transform="translate(-80.007 -221.817)" fill="#fff"/>
          <path id="Path_888133" data-name="Path 888133" d="M265.049,164.239c-.728-.814-.266-1.322.695-1.41,2.385-.217,5.13.151,7.553.037.944.211.6,1.373.311,1.373Z" transform="translate(-227.557 -139.925)" fill="#fff"/>
          <path id="Path_888134" data-name="Path 888134" d="M270.368,148.1a1.292,1.292,0,0,1-.731.18,29.432,29.432,0,0,1-4.355-.005c-.681-.124-.646-1.252.144-1.4a33.853,33.853,0,0,1,4.483,0c.494.1.836.854.459,1.226" transform="translate(-227.65 -126.206)" fill="#fff"/>
          <path id="Path_888135" data-name="Path 888135" d="M90.6,163.227c.54-.162.777.234,1.158.334a4.373,4.373,0,0,0,1.466.053c.585-.084,2.168-1.025,1.907.5-.216,1.255-4.975,1.481-4.995-.349.1-.2.238-.468.464-.536" transform="translate(-77.493 -140.294)" fill="#fff"/>
          <path id="Path_888136" data-name="Path 888136" d="M120.952,90.362c.728-.1,3.01-.1,2.64,1.085-.275.879-1.379.266-1.98.266-.5,0-1.655.5-1.869-.229-.171-.867.513-1.03,1.209-1.122" transform="translate(-102.921 -77.652)" fill="#fff"/>
          <path id="Path_888137" data-name="Path 888137" d="M98.925,147.525a.775.775,0,0,1,.349-1.207c.327-.088.545.092.81.092.427,0,1.223-.346,1.3.539.089.987-1.936,1.1-2.461.576" transform="translate(-84.899 -125.769)" fill="#fff"/>
          <path id="Path_888138" data-name="Path 888138" d="M74.913,119.383c1.12-.211,1.23,2.079.1,2.025-.812-.039-.971-1.861-.1-2.025" transform="translate(-63.902 -102.622)" fill="#fff"/>
          <path id="Path_888139" data-name="Path 888139" d="M132.027,119.292c1.227-.334,1.293,2.629-.243,1.874-.492-.242-.412-1.7.243-1.874" transform="translate(-113.023 -102.533)" fill="#fff"/>
        </g>
      </g>
    </g>
  </g>
</svg>
