<svg xmlns="http://www.w3.org/2000/svg" xmlns:xlink="http://www.w3.org/1999/xlink" width="85" height="85" viewBox="0 0 85 85">
  <defs>
    <clipPath id="clip-path">
      <rect id="Rectangle_404010" data-name="Rectangle 404010" width="68.541" height="68.541" transform="translate(0.371 0)" fill="#fff" stroke="#707070" stroke-width="1"/>
    </clipPath>
    <clipPath id="clip-path-2">
      <rect id="Rectangle_407794" data-name="Rectangle 407794" width="63.748" height="63.939" fill="#fff"/>
    </clipPath>
  </defs>
  <g id="Group_1113367" data-name="Group 1113367" transform="translate(-285.711 -5336.939)">
    <rect id="Rectangle_404009" data-name="Rectangle 404009" width="85" height="85" transform="translate(285.711 5336.939)" fill="#005865"/>
    <g id="Group_1113366" data-name="Group 1113366">
      <g id="Group_1098861" data-name="Group 1098861" transform="translate(293.34 5344.939)" clip-path="url(#clip-path)">
        <g id="Group_1113135" data-name="Group 1113135" transform="translate(1.371 2)">
          <g id="Group_1113134" data-name="Group 1113134" clip-path="url(#clip-path-2)">
            <path id="Path_887986" data-name="Path 887986" d="M58.544,15.9a3.755,3.755,0,1,1,.462,7.493l-21.545,0c-.411.079-1.3,1.084-1.65,1.454-.644.676-2.87,3.754-3.477,3.843-.936.137-1.387-.795-1.075-1.642s3.382-3.769,3.379-4.118l-.095-.275A3.736,3.736,0,0,1,37.183,15.9,65.6,65.6,0,0,1,33.5,10c-1.062-2.068-3.661-7.4-.866-8.962C34.463.01,36.8,2.412,38.605,2.885,43.438,4.15,43.611-.246,48.235.011c4.172.231,4.277,4.577,9.393,2.652C59.3,2.033,61.021.126,62.9,1.042c3.169,1.54-.263,7.929-1.41,10.052Zm-5.478,0h2.647c.376,0,3.725-5.5,4.139-6.267.586-1.084,2.9-5.554,2.258-6.52-.2-.273-.395-.159-.65-.094-.947.241-2.394,1.438-3.646,1.838a6.55,6.55,0,0,1-5.787-.423c-1.164-.671-1.873-1.94-3.295-2.182-3.642-.619-4.308,2.7-7.623,3.061-3,.324-4.977-1.478-7.577-2.374a9.848,9.848,0,0,0,1.3,4.994c.433.923,4.524,7.967,4.995,7.967h2.647V10.332c0-1.062,2.191-.865,2.191.183V15.9h6.39V10.149c0-.717,2.008-.717,2.008,0ZM36.217,18.129a1.6,1.6,0,0,0-.308,2.97l23.276.1A1.563,1.563,0,0,0,59,18.087Z" transform="translate(-25.472 0)" fill="#fff"/>
            <path id="Path_887987" data-name="Path 887987" d="M189.2,144.268c7.5.359,15.726-.64,23.145-.054,1.64.129,2.955.729,3.428,2.414l.132,31.83a3.3,3.3,0,0,1-3.012,3.012c-7.621-.5-16.037.64-23.564,0a3.2,3.2,0,0,1-3.063-2.413l-.126-31.824a3.3,3.3,0,0,1,3.06-2.965m-.643,34.779,24.986-.03.069-32.053a1.1,1.1,0,0,0-1.08-.563l-23.649.107-.381.35Z" transform="translate(-152.162 -117.732)" fill="#fff"/>
            <path id="Path_887988" data-name="Path 887988" d="M83.329,167c-9.736-1.116-9.7-12.415-.023-13.716-.217-2.806,2.563-2.96,2.238,0a9.818,9.818,0,0,1,5.812,2.86c.893,1.016,2.632,4.334.83,5.034-1.353.525-1.328-1.391-1.545-2.128-.608-2.055-3.112-3.321-5.121-3.551v9.493c3.089.4,6.454,2.192,7.252,5.436,1.1,4.466-3.11,7.974-7.244,8.264.471,2.992-2.565,2.925-2.208,0-3.4-.141-7.814-3.27-7.276-7.026a1.065,1.065,0,0,1,1.765-.605c.189.192.4,1.923.68,2.514a6.081,6.081,0,0,0,4.84,2.919Zm0-11.5c-6.907.9-6.926,8.544,0,9.311Zm2.191,11.684v9.311c7.035-.739,6.93-8.472,0-9.311" transform="translate(-62.125 -123.533)" fill="#fff"/>
            <path id="Path_887989" data-name="Path 887989" d="M3.079,175.09a1.066,1.066,0,0,1,1.293.647c.245.828-.731,2.413-1.006,3.3-1.538,4.958-1.741,11.082.173,15.969,4.142,10.577,18.2,10.664,27.6,8.713,2.23,1.648-.152,2.186-1.686,2.5-6.637,1.379-16.841.743-22.477-3.34C.273,198.023-1.012,188.544.664,180.9c.238-1.085,1.411-5.513,2.415-5.808" transform="translate(0 -143.092)" fill="#fff"/>
            <path id="Path_887990" data-name="Path 887990" d="M217.012,173.544c4.635.212,9.808-.447,14.381-.054,1.245.107,2.414.544,2.629,1.935a27.511,27.511,0,0,1-.074,5.2,2.1,2.1,0,0,1-1.827,1.459L216.316,182a2.645,2.645,0,0,1-1.407-1.7,20.394,20.394,0,0,1,.158-5.416,2.221,2.221,0,0,1,1.947-1.34m14.831,2.143H217.056v4.2h14.788Z" transform="translate(-175.587 -141.713)" fill="#fff"/>
            <path id="Path_887991" data-name="Path 887991" d="M256.942,284.822c.762-.168,3.8-.221,4.231.437,1.355,2.088-3.214,1.91-4.231,1.676a1.075,1.075,0,0,1,0-2.113" transform="translate(-209.319 -232.735)" fill="#fff"/>
            <path id="Path_887992" data-name="Path 887992" d="M215.616,308.145a11.609,11.609,0,0,1,4.012-.2,1.1,1.1,0,0,1,.035,2.147,20.116,20.116,0,0,1-3.607-.034,1.09,1.09,0,0,1-.439-1.912" transform="translate(-175.917 -251.659)" fill="#fff"/>
            <path id="Path_887993" data-name="Path 887993" d="M256.942,307.818c.751-.172,3.807-.217,4.231.437,1.358,2.093-3.211,1.9-4.231,1.676a1.075,1.075,0,0,1,0-2.113" transform="translate(-209.319 -251.532)" fill="#fff"/>
            <path id="Path_887994" data-name="Path 887994" d="M216.082,284.913a20.043,20.043,0,0,1,3.756,0,1.108,1.108,0,0,1,.31,1.876c-.5.392-3.37.394-4.024.195a1.052,1.052,0,0,1-.042-2.07" transform="translate(-175.943 -232.826)" fill="#fff"/>
            <path id="Path_887995" data-name="Path 887995" d="M297.888,307.9a15.8,15.8,0,0,1,3.391,0c1.239.278,1.422,1.826.182,2.113a20.04,20.04,0,0,1-3.756,0,1.1,1.1,0,0,1,.183-2.113" transform="translate(-242.779 -251.614)" fill="#fff"/>
            <path id="Path_887996" data-name="Path 887996" d="M297.7,284.785c.7-.2,4-.2,4.415.439,1.3,1.978-3.269,1.885-4.232,1.674a1.1,1.1,0,0,1-.183-2.113" transform="translate(-242.779 -232.698)" fill="#fff"/>
            <path id="Path_887997" data-name="Path 887997" d="M256.638,238.956a34.4,34.4,0,0,1,4.322,0c.607.2.674,1.428.041,1.807a14.962,14.962,0,0,1-4.171.133c-.862-.248-.872-1.712-.191-1.94" transform="translate(-209.389 -195.276)" fill="#fff"/>
            <path id="Path_887998" data-name="Path 887998" d="M220.316,240.568c-.294.295-3.69.327-4.243.222a1.024,1.024,0,0,1,0-2,24.741,24.741,0,0,1,3.824,0c.807.152.831,1.363.418,1.777" transform="translate(-175.97 -195.136)" fill="#fff"/>
            <path id="Path_887999" data-name="Path 887999" d="M297.2,262.094c.293-.294,3.691-.328,4.243-.222a1.045,1.045,0,0,1,.382,1.836,17.22,17.22,0,0,1-4.207.164c-.807-.152-.831-1.363-.418-1.777" transform="translate(-242.73 -214.019)" fill="#fff"/>
            <path id="Path_888000" data-name="Path 888000" d="M297.2,240.654c-.413-.414-.389-1.625.418-1.777a17.22,17.22,0,0,1,4.207.164,1,1,0,0,1-.417,1.8c-.562.13-3.893.13-4.208-.187" transform="translate(-242.73 -195.222)" fill="#fff"/>
            <path id="Path_888001" data-name="Path 888001" d="M220.4,262.093c.38.549.309,1.649-.412,1.783a17.6,17.6,0,0,1-4.212-.169,1.045,1.045,0,0,1,.382-1.836c.553-.106,3.948-.072,4.243.222" transform="translate(-176.054 -214.018)" fill="#fff"/>
            <path id="Path_888002" data-name="Path 888002" d="M256.83,261.931a23.11,23.11,0,0,1,3.939,0,1.012,1.012,0,0,1,.232,1.8,14.954,14.954,0,0,1-4.172.133,1.027,1.027,0,0,1,0-1.931" transform="translate(-209.39 -214.043)" fill="#fff"/>
          </g>
        </g>
      </g>
    </g>
  </g>
</svg>
