<svg xmlns="http://www.w3.org/2000/svg" xmlns:xlink="http://www.w3.org/1999/xlink" width="122" height="122" viewBox="0 0 122 122">
  <defs>
    <clipPath id="clip-path">
      <rect id="Rectangle_400938" data-name="Rectangle 400938" width="122" height="122" fill="#2bc897"/>
    </clipPath>
    <clipPath id="clip-path-2">
      <path id="Path_873460" data-name="Path 873460" d="M0,1.307A1.349,1.349,0,0,0,1.389,2.613,1.349,1.349,0,0,0,2.778,1.307,1.349,1.349,0,0,0,1.389,0,1.349,1.349,0,0,0,0,1.307" transform="translate(0)" fill="#005865"/>
    </clipPath>
    <clipPath id="clip-path-3">
      <path id="Path_873466" data-name="Path 873466" d="M0,1.307A1.349,1.349,0,0,0,1.39,2.613,1.349,1.349,0,0,0,2.778,1.307,1.349,1.349,0,0,0,1.39,0,1.349,1.349,0,0,0,0,1.307" fill="#005865"/>
    </clipPath>
    <clipPath id="clip-path-4">
      <path id="Path_873467" data-name="Path 873467" d="M0,1.306A1.349,1.349,0,0,0,1.389,2.612,1.349,1.349,0,0,0,2.778,1.306,1.349,1.349,0,0,0,1.389,0,1.349,1.349,0,0,0,0,1.306" transform="translate(0 0)" fill="#005865"/>
    </clipPath>
    <clipPath id="clip-path-5">
      <path id="Path_873468" data-name="Path 873468" d="M0,1.306A1.349,1.349,0,0,0,1.39,2.612,1.349,1.349,0,0,0,2.778,1.306,1.349,1.349,0,0,0,1.39,0,1.349,1.349,0,0,0,0,1.306" transform="translate(0 0)" fill="#005865"/>
    </clipPath>
    <clipPath id="clip-path-6">
      <path id="Path_873469" data-name="Path 873469" d="M0,1.306A1.349,1.349,0,0,0,1.389,2.612,1.349,1.349,0,0,0,2.777,1.306,1.349,1.349,0,0,0,1.389,0,1.349,1.349,0,0,0,0,1.306" transform="translate(0 0)" fill="#005865"/>
    </clipPath>
    <clipPath id="clip-path-9">
      <path id="Path_873473" data-name="Path 873473" d="M0,1.306A1.349,1.349,0,0,0,1.39,2.612,1.348,1.348,0,0,0,2.778,1.306,1.349,1.349,0,0,0,1.39,0,1.349,1.349,0,0,0,0,1.306" transform="translate(0 0)" fill="#005865"/>
    </clipPath>
    <clipPath id="clip-path-22">
      <rect id="Rectangle_401492" data-name="Rectangle 401492" width="54.022" height="54.022" transform="translate(-0.207 -0.301)" fill="#fff" stroke="#707070" stroke-width="1"/>
    </clipPath>
    <clipPath id="clip-path-23">
      <rect id="Rectangle_407853" data-name="Rectangle 407853" width="45.421" height="51.366" fill="#fff"/>
    </clipPath>
  </defs>
  <g id="Group_1108951" data-name="Group 1108951" transform="translate(23057.926 3814.948)">
    <g id="Group_1100237" data-name="Group 1100237" transform="translate(-23054.037 -3797.84)">
      <g id="Group_1099505" data-name="Group 1099505" transform="translate(1.808 8.418)">
        <g id="Group_1099504" data-name="Group 1099504" transform="translate(0)" clip-path="url(#clip-path-2)">
          <rect id="Rectangle_401140" data-name="Rectangle 401140" width="2.777" height="2.613" transform="translate(0)" fill="#005865"/>
        </g>
      </g>
      <g id="Group_1099517" data-name="Group 1099517" transform="translate(37.056 8.418)">
        <g id="Group_1099516" data-name="Group 1099516" transform="translate(0)" clip-path="url(#clip-path-3)">
          <rect id="Rectangle_401146" data-name="Rectangle 401146" width="2.778" height="2.613" transform="translate(0 0)" fill="#005865"/>
        </g>
      </g>
      <g id="Group_1099519" data-name="Group 1099519" transform="translate(30.194 8.418)">
        <g id="Group_1099518" data-name="Group 1099518" transform="translate(0 0)" clip-path="url(#clip-path-4)">
          <rect id="Rectangle_401147" data-name="Rectangle 401147" width="2.778" height="2.612" transform="translate(0 0)" fill="#005865"/>
        </g>
      </g>
      <g id="Group_1099521" data-name="Group 1099521" transform="translate(23.332 8.418)">
        <g id="Group_1099520" data-name="Group 1099520" transform="translate(0 0)" clip-path="url(#clip-path-5)">
          <rect id="Rectangle_401148" data-name="Rectangle 401148" width="2.778" height="2.612" transform="translate(0 0)" fill="#005865"/>
        </g>
      </g>
      <g id="Group_1099523" data-name="Group 1099523" transform="translate(16.47 8.418)">
        <g id="Group_1099522" data-name="Group 1099522" transform="translate(0 0)" clip-path="url(#clip-path-6)">
          <rect id="Rectangle_401149" data-name="Rectangle 401149" width="2.777" height="2.612" transform="translate(0 0)" fill="#005865"/>
        </g>
      </g>
      <g id="Group_1099525" data-name="Group 1099525" transform="translate(34.311 0)">
        <g id="Group_1099524" data-name="Group 1099524" clip-path="url(#clip-path-4)">
          <rect id="Rectangle_401150" data-name="Rectangle 401150" width="2.778" height="2.612" transform="translate(0 0)" fill="#005865"/>
        </g>
      </g>
      <g id="Group_1099529" data-name="Group 1099529" transform="translate(27.448 0)">
        <g id="Group_1099528" data-name="Group 1099528" transform="translate(0)" clip-path="url(#clip-path-5)">
          <rect id="Rectangle_401152" data-name="Rectangle 401152" width="2.778" height="2.612" transform="translate(0 0)" fill="#005865"/>
        </g>
      </g>
      <g id="Group_1099531" data-name="Group 1099531" transform="translate(13.724 0)">
        <g id="Group_1099530" data-name="Group 1099530" transform="translate(0)" clip-path="url(#clip-path-9)">
          <rect id="Rectangle_401153" data-name="Rectangle 401153" width="2.777" height="2.612" transform="translate(0 0)" fill="#005865"/>
        </g>
      </g>
      <g id="Group_1099533" data-name="Group 1099533" transform="translate(6.862 0)">
        <g id="Group_1099532" data-name="Group 1099532" clip-path="url(#clip-path-4)">
          <rect id="Rectangle_401154" data-name="Rectangle 401154" width="2.778" height="2.612" transform="translate(0 0)" fill="#005865"/>
        </g>
      </g>
      <g id="Group_1099535" data-name="Group 1099535" transform="translate(0 0)">
        <g id="Group_1099534" data-name="Group 1099534" transform="translate(0)" clip-path="url(#clip-path-5)">
          <rect id="Rectangle_401155" data-name="Rectangle 401155" width="2.778" height="2.612" transform="translate(0 0)" fill="#005865"/>
        </g>
      </g>
    </g>
    <g id="Group_1100238" data-name="Group 1100238" transform="translate(-22980.445 -3724.661)">
      <g id="Group_1099505-2" data-name="Group 1099505" transform="translate(1.808 8.418)">
        <g id="Group_1099504-2" data-name="Group 1099504" transform="translate(0)" clip-path="url(#clip-path-2)">
          <rect id="Rectangle_401140-2" data-name="Rectangle 401140" width="2.777" height="2.613" transform="translate(0)" fill="#005865"/>
        </g>
      </g>
      <g id="Group_1099517-2" data-name="Group 1099517" transform="translate(37.056 8.418)">
        <g id="Group_1099516-2" data-name="Group 1099516" transform="translate(0)" clip-path="url(#clip-path-3)">
          <rect id="Rectangle_401146-2" data-name="Rectangle 401146" width="2.778" height="2.613" transform="translate(0 0)" fill="#005865"/>
        </g>
      </g>
      <g id="Group_1099519-2" data-name="Group 1099519" transform="translate(30.194 8.418)">
        <g id="Group_1099518-2" data-name="Group 1099518" transform="translate(0 0)" clip-path="url(#clip-path-4)">
          <rect id="Rectangle_401147-2" data-name="Rectangle 401147" width="2.778" height="2.612" transform="translate(0 0)" fill="#005865"/>
        </g>
      </g>
      <g id="Group_1099521-2" data-name="Group 1099521" transform="translate(23.332 8.418)">
        <g id="Group_1099520-2" data-name="Group 1099520" transform="translate(0 0)" clip-path="url(#clip-path-5)">
          <rect id="Rectangle_401148-2" data-name="Rectangle 401148" width="2.778" height="2.612" transform="translate(0 0)" fill="#005865"/>
        </g>
      </g>
      <g id="Group_1099523-2" data-name="Group 1099523" transform="translate(16.47 8.418)">
        <g id="Group_1099522-2" data-name="Group 1099522" transform="translate(0 0)" clip-path="url(#clip-path-6)">
          <rect id="Rectangle_401149-2" data-name="Rectangle 401149" width="2.777" height="2.612" transform="translate(0 0)" fill="#005865"/>
        </g>
      </g>
      <g id="Group_1099525-2" data-name="Group 1099525" transform="translate(34.311 0)">
        <g id="Group_1099524-2" data-name="Group 1099524" clip-path="url(#clip-path-4)">
          <rect id="Rectangle_401150-2" data-name="Rectangle 401150" width="2.778" height="2.612" transform="translate(0 0)" fill="#005865"/>
        </g>
      </g>
      <g id="Group_1099529-2" data-name="Group 1099529" transform="translate(27.448 0)">
        <g id="Group_1099528-2" data-name="Group 1099528" transform="translate(0)" clip-path="url(#clip-path-5)">
          <rect id="Rectangle_401152-2" data-name="Rectangle 401152" width="2.778" height="2.612" transform="translate(0 0)" fill="#005865"/>
        </g>
      </g>
      <g id="Group_1099531-2" data-name="Group 1099531" transform="translate(13.724 0)">
        <g id="Group_1099530-2" data-name="Group 1099530" transform="translate(0)" clip-path="url(#clip-path-9)">
          <rect id="Rectangle_401153-2" data-name="Rectangle 401153" width="2.777" height="2.612" transform="translate(0 0)" fill="#005865"/>
        </g>
      </g>
      <g id="Group_1099533-2" data-name="Group 1099533" transform="translate(6.862 0)">
        <g id="Group_1099532-2" data-name="Group 1099532" clip-path="url(#clip-path-4)">
          <rect id="Rectangle_401154-2" data-name="Rectangle 401154" width="2.778" height="2.612" transform="translate(0 0)" fill="#005865"/>
        </g>
      </g>
      <g id="Group_1099535-2" data-name="Group 1099535" transform="translate(0 0)">
        <g id="Group_1099534-2" data-name="Group 1099534" transform="translate(0)" clip-path="url(#clip-path-5)">
          <rect id="Rectangle_401155-2" data-name="Rectangle 401155" width="2.778" height="2.612" transform="translate(0 0)" fill="#005865"/>
        </g>
      </g>
    </g>
    <path id="Union_17" data-name="Union 17" d="M-4150.107,4311.383l-33.056-32.927a18.528,18.528,0,0,1,0-26.2l33.054-32.926a18.7,18.7,0,0,1,26.3,0l33.056,32.928a18.528,18.528,0,0,1,0,26.2l-33.056,32.927a18.576,18.576,0,0,1-13.15,5.4A18.575,18.575,0,0,1-4150.107,4311.383Z" transform="translate(-18858.305 -8017.512)" fill="#41cee2" stroke="rgba(0,0,0,0)" stroke-miterlimit="10" stroke-width="1"/>
    <circle id="Ellipse_11579" data-name="Ellipse 11579" cx="39.5" cy="39.5" r="39.5" transform="translate(-23034.504 -3791.418)" fill="#005865"/>
    <g id="Mask_Group_1098697" data-name="Mask Group 1098697" transform="translate(-23022.008 -3778.646)" clip-path="url(#clip-path-22)">
      <g id="Group_1113265" data-name="Group 1113265" transform="translate(4.793 1.699)">
        <g id="Group_1113264" data-name="Group 1113264" clip-path="url(#clip-path-23)">
          <path id="Path_888108" data-name="Path 888108" d="M58.753,19.792a1.136,1.136,0,1,0,0-2.271A1.228,1.228,0,0,0,57.6,18.657a1.163,1.163,0,0,0,1.149,1.135" transform="translate(-28.884 -8.786)" fill="#fff"/>
          <path id="Path_888109" data-name="Path 888109" d="M58.753,26.451A1.136,1.136,0,1,0,57.6,25.315a1.164,1.164,0,0,0,1.149,1.136" transform="translate(-28.884 -12.124)" fill="#fff"/>
          <path id="Path_888110" data-name="Path 888110" d="M58.753,32.933a1.136,1.136,0,1,0,0-2.271A1.228,1.228,0,0,0,57.6,31.8a1.163,1.163,0,0,0,1.149,1.135" transform="translate(-28.884 -15.375)" fill="#fff"/>
          <path id="Path_888111" data-name="Path 888111" d="M12.135,51.41a1.149,1.149,0,0,0,2.3,0V50.362h1.06a1.136,1.136,0,1,0,0-2.271h-1.06V47.042a1.149,1.149,0,0,0-2.3,0v1.048h-1.06a1.136,1.136,0,1,0,0,2.271h1.06Z" transform="translate(-4.977 -23.019)" fill="#fff"/>
          <path id="Path_888112" data-name="Path 888112" d="M44.273,7.6H40.914V4.368a1.162,1.162,0,0,0-1.148-1.135H36.408V2.708a2.69,2.69,0,0,0-.8-1.921,2.756,2.756,0,0,0-4.684,1.921v.525H6.627A1.163,1.163,0,0,0,5.478,4.368v10.92H3.358A3.337,3.337,0,0,0,0,18.607v2.1a1.162,1.162,0,0,0,1.148,1.135v8.314a1.056,1.056,0,0,0,0,.843v.452a3.525,3.525,0,0,0,3.535,3.494h.883v10.92A1.163,1.163,0,0,0,6.715,47h3.27V50.23a1.163,1.163,0,0,0,1.149,1.135H44.273a1.3,1.3,0,0,0,1.148-1.135V8.736A1.163,1.163,0,0,0,44.273,7.6M33.226,2.708a.567.567,0,0,1,.53-.523.461.461,0,0,1,.353.174.451.451,0,0,1,.176.349v.525h-1.06ZM2.3,18.607a1.163,1.163,0,0,1,1.149-1.136H6.2a1.085,1.085,0,0,0,.853,0h6.289a1.164,1.164,0,0,1,1.149,1.136v1.048H11.135v-.087a1.149,1.149,0,0,0-2.3,0v.087H7.864v-.087a1.149,1.149,0,0,0-2.3,0v.087H2.3Zm1.179,13.1H5.567a1.136,1.136,0,1,0,0-2.271H3.447v-7.6h9.9v7.6h-2.3a1.136,1.136,0,1,0,0,2.271h2.267a1.362,1.362,0,0,1-1.3,1.048H4.771a1.362,1.362,0,0,1-1.3-1.048m4.388,3.232H11.93a3.742,3.742,0,0,0,3.711-3.494v-9.62a1.018,1.018,0,0,0,.883-1.125v-2.1a3.337,3.337,0,0,0-3.357-3.319H7.776V5.5H34.287V9.784a1.163,1.163,0,0,0,1.149,1.135,1.02,1.02,0,0,0,.972-1.135V5.5h2.386V8.315a1.05,1.05,0,0,0,0,.843V44.814H11.561a1.093,1.093,0,0,0-.854,0H7.864ZM43.213,49.182H12.283V47H39.854a1.149,1.149,0,0,0,1.06-1.136V9.871h2.3Z" fill="#fff"/>
          <path id="Path_888113" data-name="Path 888113" d="M42.082,52.39H38.724a1.136,1.136,0,1,0,0,2.271h3.358a1.136,1.136,0,1,0,0-2.271" transform="translate(-18.841 -26.27)" fill="#fff"/>
          <path id="Path_888114" data-name="Path 888114" d="M42.082,59.048H38.724a1.136,1.136,0,1,0,0,2.271h3.358a1.136,1.136,0,1,0,0-2.271" transform="translate(-18.841 -29.608)" fill="#fff"/>
          <path id="Path_888115" data-name="Path 888115" d="M42.082,65.531H38.724a1.136,1.136,0,1,0,0,2.271h3.358a1.136,1.136,0,1,0,0-2.271" transform="translate(-18.841 -32.859)" fill="#fff"/>
          <path id="Path_888116" data-name="Path 888116" d="M42.082,72.189H38.724a1.136,1.136,0,1,0,0,2.271h3.358a1.136,1.136,0,1,0,0-2.271" transform="translate(-18.841 -36.198)" fill="#fff"/>
          <path id="Path_888117" data-name="Path 888117" d="M42.082,78.672H38.724a1.136,1.136,0,1,0,0,2.271h3.358a1.136,1.136,0,1,0,0-2.271" transform="translate(-18.841 -39.448)" fill="#fff"/>
          <path id="Path_888118" data-name="Path 888118" d="M51.047,53.525A1.162,1.162,0,0,0,52.2,54.66h8.837a1.228,1.228,0,0,0,1.149-1.135,1.163,1.163,0,0,0-1.149-1.135H52.2a1.162,1.162,0,0,0-1.148,1.135" transform="translate(-25.596 -26.27)" fill="#fff"/>
          <path id="Path_888119" data-name="Path 888119" d="M61.032,59.048H52.2a1.136,1.136,0,1,0,0,2.271h8.837a1.229,1.229,0,0,0,1.149-1.136,1.163,1.163,0,0,0-1.149-1.135" transform="translate(-25.596 -29.608)" fill="#fff"/>
          <path id="Path_888120" data-name="Path 888120" d="M61.032,65.531H52.2a1.136,1.136,0,1,0,0,2.271h8.837a1.229,1.229,0,0,0,1.149-1.136,1.163,1.163,0,0,0-1.149-1.135" transform="translate(-25.596 -32.859)" fill="#fff"/>
          <path id="Path_888121" data-name="Path 888121" d="M61.032,72.189H52.2a1.136,1.136,0,1,0,0,2.271h8.837a1.229,1.229,0,0,0,1.149-1.136,1.163,1.163,0,0,0-1.149-1.135" transform="translate(-25.596 -36.198)" fill="#fff"/>
          <path id="Path_888122" data-name="Path 888122" d="M61.032,78.672H52.2a1.136,1.136,0,1,0,0,2.271h8.837a1.305,1.305,0,0,0,1.149-1.136,1.163,1.163,0,0,0-1.149-1.135" transform="translate(-25.596 -39.448)" fill="#fff"/>
          <path id="Path_888123" data-name="Path 888123" d="M36.6,32.759h7.776a1.3,1.3,0,0,0,1.149-1.135,1.163,1.163,0,0,0-1.149-1.136H36.6a1.136,1.136,0,1,0,0,2.271" transform="translate(-17.775 -15.288)" fill="#fff"/>
          <path id="Path_888124" data-name="Path 888124" d="M36.6,26.276h7.776a1.3,1.3,0,0,0,1.149-1.135,1.163,1.163,0,0,0-1.149-1.136H36.6a1.136,1.136,0,1,0,0,2.271" transform="translate(-17.775 -12.037)" fill="#fff"/>
          <path id="Path_888125" data-name="Path 888125" d="M36.6,19.618h7.776a1.3,1.3,0,0,0,1.149-1.135,1.163,1.163,0,0,0-1.149-1.136H36.6a1.136,1.136,0,1,0,0,2.271" transform="translate(-17.775 -8.698)" fill="#fff"/>
        </g>
      </g>
    </g>
  </g>
</svg>
