<svg xmlns="http://www.w3.org/2000/svg" xmlns:xlink="http://www.w3.org/1999/xlink" width="70" height="70" viewBox="0 0 70 70">
  <defs>
    <clipPath id="clip-path">
      <rect id="Rectangle_406705" data-name="Rectangle 406705" width="36" height="35.961" fill="#006543"/>
    </clipPath>
  </defs>
  <g id="Group_1072265" data-name="Group 1072265" transform="translate(-268.711 -957.971)">
    <circle id="Ellipse_5614" data-name="Ellipse 5614" cx="35" cy="35" r="35" transform="translate(268.711 957.971)" fill="#fff"/>
    <g id="Group_1111950" data-name="Group 1111950" transform="translate(285.711 974.97)">
      <g id="Group_1111949" data-name="Group 1111949" clip-path="url(#clip-path)">
        <path id="Path_886623" data-name="Path 886623" d="M5.466.025,30.41,0A6.257,6.257,0,0,1,36,5.67V30.286a6.255,6.255,0,0,1-5.675,5.675H5.709a6.273,6.273,0,0,1-5.521-4.74c-.25-8.789-.25-17.7,0-26.487A6.241,6.241,0,0,1,5.466.025M7.3,6.174l4.035-.1a.7.7,0,0,0,.184-1.354L5.8,4.811a1.553,1.553,0,0,0-.678.23c-.438.4-.249,2.513-.271,3.18a20.3,20.3,0,0,0-.1,3.179.679.679,0,0,0,1.322.044c.126-1.291.042-2.67.135-3.954.01-.135-.071-.263.135-.225l6.176,6.174a.675.675,0,0,0,.953-.953L7.437,6.446ZM29.82,7.263l.1,3.942a.728.728,0,1,0,1.449-.086c.005-.213-.1-.41-.1-.628-.021-1.48.075-3.383-.087-4.816-.084-.747-.461-.814-1.132-.866-1.69-.131-3.566,0-5.274-.092a.679.679,0,0,0-.228,1.326c1.294.111,2.668.037,3.956.131.135.01.263-.071.225.135l-6.174,6.176c-.632.9.551,1.549,1.224.77,1.975-2.033,3.951-4.082,6.04-5.991M17.909,15c-3.816.147-3.629,6.01.143,5.962,3.876-.049,3.749-6.111-.143-5.962m-4.459,7.541a.691.691,0,0,0-.928-.025L6.347,28.692c-.206.038-.125-.09-.135-.225-.047-.649.033-1.347,0-2-.212-.641.041-1.56-.205-2.156a.7.7,0,0,0-1.253.342,22.569,22.569,0,0,0,.1,3.267c.021.655-.156,2.529.215,2.963s1.955.237,2.554.261c.937.036,1.867.076,2.815.091.245,0,.459.111.719.1.907-.044,1.152-1.025.326-1.416-1.314-.079-2.643-.035-3.956-.131-.135-.01-.263.071-.225-.135l6.174-6.176a.691.691,0,0,0-.025-.928m16.37,6.149-.273-.135-6.037-6.039c-.692-.485-1.5.252-.954.954l6.174,6.176c.038.206-.09.125-.225.135-1.308.1-2.629.042-3.937.151a.721.721,0,0,0-.245,1.214c.418.338.853.091,1.27.084,1.7-.027,3.424-.019,5.111-.156a.907.907,0,0,0,.478-.794c.165-1.461.085-3.487.087-5,0-.188.1-.363.089-.534a.725.725,0,0,0-1.441-.093Z" transform="translate(0)" fill="#006543"/>
      </g>
    </g>
  </g>
</svg>
