<svg xmlns="http://www.w3.org/2000/svg" xmlns:xlink="http://www.w3.org/1999/xlink" width="122" height="122" viewBox="0 0 122 122">
  <defs>
    <clipPath id="clip-path">
      <rect id="Rectangle_400938" data-name="Rectangle 400938" width="122" height="122" fill="#2bc897"/>
    </clipPath>
    <clipPath id="clip-path-2">
      <path id="Path_873460" data-name="Path 873460" d="M0,1.307A1.349,1.349,0,0,0,1.389,2.613,1.349,1.349,0,0,0,2.778,1.307,1.349,1.349,0,0,0,1.389,0,1.349,1.349,0,0,0,0,1.307" transform="translate(0)" fill="#005865"/>
    </clipPath>
    <clipPath id="clip-path-3">
      <path id="Path_873466" data-name="Path 873466" d="M0,1.307A1.349,1.349,0,0,0,1.39,2.613,1.349,1.349,0,0,0,2.778,1.307,1.349,1.349,0,0,0,1.39,0,1.349,1.349,0,0,0,0,1.307" fill="#005865"/>
    </clipPath>
    <clipPath id="clip-path-4">
      <path id="Path_873467" data-name="Path 873467" d="M0,1.306A1.349,1.349,0,0,0,1.389,2.612,1.349,1.349,0,0,0,2.778,1.306,1.349,1.349,0,0,0,1.389,0,1.349,1.349,0,0,0,0,1.306" transform="translate(0 0)" fill="#005865"/>
    </clipPath>
    <clipPath id="clip-path-5">
      <path id="Path_873468" data-name="Path 873468" d="M0,1.306A1.349,1.349,0,0,0,1.39,2.612,1.349,1.349,0,0,0,2.778,1.306,1.349,1.349,0,0,0,1.39,0,1.349,1.349,0,0,0,0,1.306" transform="translate(0 0)" fill="#005865"/>
    </clipPath>
    <clipPath id="clip-path-6">
      <path id="Path_873469" data-name="Path 873469" d="M0,1.306A1.349,1.349,0,0,0,1.389,2.612,1.349,1.349,0,0,0,2.777,1.306,1.349,1.349,0,0,0,1.389,0,1.349,1.349,0,0,0,0,1.306" transform="translate(0 0)" fill="#005865"/>
    </clipPath>
    <clipPath id="clip-path-9">
      <path id="Path_873473" data-name="Path 873473" d="M0,1.306A1.349,1.349,0,0,0,1.39,2.612,1.348,1.348,0,0,0,2.778,1.306,1.349,1.349,0,0,0,1.39,0,1.349,1.349,0,0,0,0,1.306" transform="translate(0 0)" fill="#005865"/>
    </clipPath>
    <clipPath id="clip-path-22">
      <rect id="Rectangle_401492" data-name="Rectangle 401492" width="54.022" height="54.022" transform="translate(0 0)" fill="#fff" stroke="#707070" stroke-width="1"/>
    </clipPath>
    <clipPath id="clip-path-23">
      <rect id="Rectangle_406752" data-name="Rectangle 406752" width="50.137" height="49.364" fill="none"/>
    </clipPath>
  </defs>
  <g id="Group_1102317" data-name="Group 1102317" transform="translate(23057.926 3814.948)">
    <g id="Group_1100237" data-name="Group 1100237" transform="translate(-23054.037 -3797.84)">
      <g id="Group_1099505" data-name="Group 1099505" transform="translate(1.808 8.418)">
        <g id="Group_1099504" data-name="Group 1099504" transform="translate(0)" clip-path="url(#clip-path-2)">
          <rect id="Rectangle_401140" data-name="Rectangle 401140" width="2.777" height="2.613" transform="translate(0)" fill="#005865"/>
        </g>
      </g>
      <g id="Group_1099517" data-name="Group 1099517" transform="translate(37.056 8.418)">
        <g id="Group_1099516" data-name="Group 1099516" transform="translate(0)" clip-path="url(#clip-path-3)">
          <rect id="Rectangle_401146" data-name="Rectangle 401146" width="2.778" height="2.613" transform="translate(0 0)" fill="#005865"/>
        </g>
      </g>
      <g id="Group_1099519" data-name="Group 1099519" transform="translate(30.194 8.418)">
        <g id="Group_1099518" data-name="Group 1099518" transform="translate(0 0)" clip-path="url(#clip-path-4)">
          <rect id="Rectangle_401147" data-name="Rectangle 401147" width="2.778" height="2.612" transform="translate(0 0)" fill="#005865"/>
        </g>
      </g>
      <g id="Group_1099521" data-name="Group 1099521" transform="translate(23.332 8.418)">
        <g id="Group_1099520" data-name="Group 1099520" transform="translate(0 0)" clip-path="url(#clip-path-5)">
          <rect id="Rectangle_401148" data-name="Rectangle 401148" width="2.778" height="2.612" transform="translate(0 0)" fill="#005865"/>
        </g>
      </g>
      <g id="Group_1099523" data-name="Group 1099523" transform="translate(16.47 8.418)">
        <g id="Group_1099522" data-name="Group 1099522" transform="translate(0 0)" clip-path="url(#clip-path-6)">
          <rect id="Rectangle_401149" data-name="Rectangle 401149" width="2.777" height="2.612" transform="translate(0 0)" fill="#005865"/>
        </g>
      </g>
      <g id="Group_1099525" data-name="Group 1099525" transform="translate(34.311 0)">
        <g id="Group_1099524" data-name="Group 1099524" clip-path="url(#clip-path-4)">
          <rect id="Rectangle_401150" data-name="Rectangle 401150" width="2.778" height="2.612" transform="translate(0 0)" fill="#005865"/>
        </g>
      </g>
      <g id="Group_1099529" data-name="Group 1099529" transform="translate(27.448 0)">
        <g id="Group_1099528" data-name="Group 1099528" transform="translate(0)" clip-path="url(#clip-path-5)">
          <rect id="Rectangle_401152" data-name="Rectangle 401152" width="2.778" height="2.612" transform="translate(0 0)" fill="#005865"/>
        </g>
      </g>
      <g id="Group_1099531" data-name="Group 1099531" transform="translate(13.724 0)">
        <g id="Group_1099530" data-name="Group 1099530" transform="translate(0)" clip-path="url(#clip-path-9)">
          <rect id="Rectangle_401153" data-name="Rectangle 401153" width="2.777" height="2.612" transform="translate(0 0)" fill="#005865"/>
        </g>
      </g>
      <g id="Group_1099533" data-name="Group 1099533" transform="translate(6.862 0)">
        <g id="Group_1099532" data-name="Group 1099532" clip-path="url(#clip-path-4)">
          <rect id="Rectangle_401154" data-name="Rectangle 401154" width="2.778" height="2.612" transform="translate(0 0)" fill="#005865"/>
        </g>
      </g>
      <g id="Group_1099535" data-name="Group 1099535" transform="translate(0 0)">
        <g id="Group_1099534" data-name="Group 1099534" transform="translate(0)" clip-path="url(#clip-path-5)">
          <rect id="Rectangle_401155" data-name="Rectangle 401155" width="2.778" height="2.612" transform="translate(0 0)" fill="#005865"/>
        </g>
      </g>
    </g>
    <g id="Group_1100238" data-name="Group 1100238" transform="translate(-22980.445 -3724.661)">
      <g id="Group_1099505-2" data-name="Group 1099505" transform="translate(1.808 8.418)">
        <g id="Group_1099504-2" data-name="Group 1099504" transform="translate(0)" clip-path="url(#clip-path-2)">
          <rect id="Rectangle_401140-2" data-name="Rectangle 401140" width="2.777" height="2.613" transform="translate(0)" fill="#005865"/>
        </g>
      </g>
      <g id="Group_1099517-2" data-name="Group 1099517" transform="translate(37.056 8.418)">
        <g id="Group_1099516-2" data-name="Group 1099516" transform="translate(0)" clip-path="url(#clip-path-3)">
          <rect id="Rectangle_401146-2" data-name="Rectangle 401146" width="2.778" height="2.613" transform="translate(0 0)" fill="#005865"/>
        </g>
      </g>
      <g id="Group_1099519-2" data-name="Group 1099519" transform="translate(30.194 8.418)">
        <g id="Group_1099518-2" data-name="Group 1099518" transform="translate(0 0)" clip-path="url(#clip-path-4)">
          <rect id="Rectangle_401147-2" data-name="Rectangle 401147" width="2.778" height="2.612" transform="translate(0 0)" fill="#005865"/>
        </g>
      </g>
      <g id="Group_1099521-2" data-name="Group 1099521" transform="translate(23.332 8.418)">
        <g id="Group_1099520-2" data-name="Group 1099520" transform="translate(0 0)" clip-path="url(#clip-path-5)">
          <rect id="Rectangle_401148-2" data-name="Rectangle 401148" width="2.778" height="2.612" transform="translate(0 0)" fill="#005865"/>
        </g>
      </g>
      <g id="Group_1099523-2" data-name="Group 1099523" transform="translate(16.47 8.418)">
        <g id="Group_1099522-2" data-name="Group 1099522" transform="translate(0 0)" clip-path="url(#clip-path-6)">
          <rect id="Rectangle_401149-2" data-name="Rectangle 401149" width="2.777" height="2.612" transform="translate(0 0)" fill="#005865"/>
        </g>
      </g>
      <g id="Group_1099525-2" data-name="Group 1099525" transform="translate(34.311 0)">
        <g id="Group_1099524-2" data-name="Group 1099524" clip-path="url(#clip-path-4)">
          <rect id="Rectangle_401150-2" data-name="Rectangle 401150" width="2.778" height="2.612" transform="translate(0 0)" fill="#005865"/>
        </g>
      </g>
      <g id="Group_1099529-2" data-name="Group 1099529" transform="translate(27.448 0)">
        <g id="Group_1099528-2" data-name="Group 1099528" transform="translate(0)" clip-path="url(#clip-path-5)">
          <rect id="Rectangle_401152-2" data-name="Rectangle 401152" width="2.778" height="2.612" transform="translate(0 0)" fill="#005865"/>
        </g>
      </g>
      <g id="Group_1099531-2" data-name="Group 1099531" transform="translate(13.724 0)">
        <g id="Group_1099530-2" data-name="Group 1099530" transform="translate(0)" clip-path="url(#clip-path-9)">
          <rect id="Rectangle_401153-2" data-name="Rectangle 401153" width="2.777" height="2.612" transform="translate(0 0)" fill="#005865"/>
        </g>
      </g>
      <g id="Group_1099533-2" data-name="Group 1099533" transform="translate(6.862 0)">
        <g id="Group_1099532-2" data-name="Group 1099532" clip-path="url(#clip-path-4)">
          <rect id="Rectangle_401154-2" data-name="Rectangle 401154" width="2.778" height="2.612" transform="translate(0 0)" fill="#005865"/>
        </g>
      </g>
      <g id="Group_1099535-2" data-name="Group 1099535" transform="translate(0 0)">
        <g id="Group_1099534-2" data-name="Group 1099534" transform="translate(0)" clip-path="url(#clip-path-5)">
          <rect id="Rectangle_401155-2" data-name="Rectangle 401155" width="2.778" height="2.612" transform="translate(0 0)" fill="#005865"/>
        </g>
      </g>
    </g>
    <path id="Union_17" data-name="Union 17" d="M-4150.107,4311.383l-33.056-32.927a18.528,18.528,0,0,1,0-26.2l33.054-32.926a18.7,18.7,0,0,1,26.3,0l33.056,32.928a18.528,18.528,0,0,1,0,26.2l-33.056,32.927a18.576,18.576,0,0,1-13.15,5.4A18.575,18.575,0,0,1-4150.107,4311.383Z" transform="translate(-18858.305 -8017.512)" fill="#41cee2" stroke="rgba(0,0,0,0)" stroke-miterlimit="10" stroke-width="1"/>
    <circle id="Ellipse_11579" data-name="Ellipse 11579" cx="39.5" cy="39.5" r="39.5" transform="translate(-23034.504 -3791.418)" fill="#005865"/>
    <g id="Mask_Group_1098697" data-name="Mask Group 1098697" transform="translate(-23022.008 -3778.646)" clip-path="url(#clip-path-22)">
      <g id="Group_1111983" data-name="Group 1111983" transform="translate(2 3.074)">
        <g id="Group_1111982" data-name="Group 1111982" clip-path="url(#clip-path-23)">
          <path id="Path_886659" data-name="Path 886659" d="M21.58,42.045a2.651,2.651,0,0,1,.287.932,24.963,24.963,0,0,1-.033,4.27,2.694,2.694,0,0,1-2.615,1.975c-5.269.452-11.17-.353-16.507,0A2.6,2.6,0,0,1,.063,46.851,18.109,18.109,0,0,1,.244,42.3c.094-.235.484-.631.491-.756A8.758,8.758,0,0,1,.076,40.1,16.082,16.082,0,0,1,.321,35.2c.1-.219.429-.45.449-.565.036-.2-.343-.434-.449-.668a16.086,16.086,0,0,1-.245-4.894c.268-1.963,2.168-2.384,3.861-2.236V2.094c0-1.008,1.789-2.209,2.792-2.085H47.335c1.563.135,2.651.862,2.8,2.51V39.54a2.734,2.734,0,0,1-2.229,2.5ZM26.314,1.592H6.016a2.177,2.177,0,0,0-.646.932V7.76H26.314ZM48.692,7.76V2.381a3.068,3.068,0,0,0-.646-.789h-20.3V7.76ZM26.314,15.937V9.41L26.1,9.195H5.586l-.215.215v6.527Zm22.378,0V9.41l-.215-.215H27.964l-.215.215v6.527H40.731c.733,0,.88,1.578-.143,1.578H27.749v6.6H48.692v-6.6H44.03c-1.023,0-.876-1.578-.143-1.578ZM26.314,17.515H5.371v6.6H26.314Zm0,8.177H5.371v1.148H19.5c.8,0,2.367,1.12,2.367,1.937V32.29h4.447Zm22.378,0H27.749v6.6H48.692ZM2.173,28.447a1.287,1.287,0,0,0-.667.911A21.164,21.164,0,0,0,1.494,32.8a1.1,1.1,0,0,0,.823,1.042l17.043.034a1.1,1.1,0,0,0,1.042-.823,21.724,21.724,0,0,0,.023-3.691,1.287,1.287,0,0,0-.667-.911Zm24.141,5.421H21.58c-.038,0-.168.556-.4.644,1.192,1.607.6,3.914.607,5.805,0,.167.01.186.156.293H26.1l.215-.215Zm22.378,0H27.749v6.527l.215.215H47.473c.342,0,1.219-.585,1.219-.932ZM5.336,40.931c.257.257.273,1-.109,1.186-1.154.564-3.539-.9-3.735,1.428-.072.858-.255,3.791.681,4.064l17.335.037a1.208,1.208,0,0,0,.9-.683,25.9,25.9,0,0,0,.021-3.835c-.118-.758-.68-.884-1.349-.946-3.391-.316-7.634.445-10.914.012-.916-.121-.987-1.315.148-1.444,3.381-.384,7.476.323,10.911.009.629-.057,1.1-.259,1.2-.948a16.193,16.193,0,0,0-.151-3.992,1.116,1.116,0,0,0-.55-.454H2.207a1.1,1.1,0,0,0-.7.877,19.074,19.074,0,0,0,.1,3.9c.519,1.216,3.138.193,3.731.788" transform="translate(0 0)" fill="#fff"/>
          <path id="Path_886660" data-name="Path 886660" d="M97.268,70.237c-.067-.074-.7-.089-.819-.553-.27-1.073,2.033-1.237,2.246-.514a35.671,35.671,0,0,1-.042,4.777.739.739,0,0,1-1.331-.248c-.125-.576.076-3.319-.054-3.462" transform="translate(-82.595 -58.87)" fill="#fff"/>
          <path id="Path_886661" data-name="Path 886661" d="M52.97,298.095c3.31-.542,3.492,4.417.395,4.384-2.6-.028-2.859-3.98-.395-4.384m.419,1.43c-.709.065-.966,1.169-.28,1.376a.723.723,0,1,0,.28-1.376" transform="translate(-43.907 -255.298)" fill="#fff"/>
          <path id="Path_886662" data-name="Path 886662" d="M20.864,301.487c-2,2.232-5.282-1-3.25-3.035,2.081-2.084,5.079,1,3.25,3.035m-1.721-2.216a.718.718,0,1,0,.257,1.4c.9-.151.513-1.474-.257-1.4" transform="translate(-14.539 -255.044)" fill="#fff"/>
          <path id="Path_886663" data-name="Path 886663" d="M19.049,249.917a2.193,2.193,0,1,1,.12,4.26c-2.155-.34-2.194-3.829-.12-4.26M20.2,251.5c-.791-.79-1.926.875-.723,1.229.848.25,1.144-.809.723-1.229" transform="translate(-15.009 -214.007)" fill="#fff"/>
          <path id="Path_886664" data-name="Path 886664" d="M52.953,249.92c3.591-.746,3.718,4.828.12,4.26-2.173-.343-2.219-3.824-.12-4.26m.434,1.424a.719.719,0,0,0,.242,1.416.719.719,0,1,0-.242-1.416" transform="translate(-44.036 -214.011)" fill="#fff"/>
          <path id="Path_886665" data-name="Path 886665" d="M97.76,309.081a2.1,2.1,0,0,1-.89.328,25.37,25.37,0,0,1-3.876,0c-1.364-.155-1.56-1.388-.421-1.568a30.041,30.041,0,0,1,4.905.1.755.755,0,0,1,.282,1.148" transform="translate(-78.658 -263.631)" fill="#fff"/>
          <path id="Path_886666" data-name="Path 886666" d="M92.324,259.8a44.386,44.386,0,0,1,4.989-.024.719.719,0,0,1,0,1.427,37.5,37.5,0,0,1-4.871,0,.734.734,0,0,1-.119-1.4" transform="translate(-78.677 -222.461)" fill="#fff"/>
          <path id="Path_886667" data-name="Path 886667" d="M97.7,130.33c.838-.078,1.506,0,1.229,1.017-.177.645-2.893.534-3.236.2-.864-.837,1.51-2.663,1.676-3.587l-.316-.354c-1.71,2.481-2.547-1.074-.25-1.406a1.793,1.793,0,0,1,1.975,2.268c-.09.346-1.161,1.79-1.079,1.86" transform="translate(-81.718 -108.082)" fill="#fff"/>
          <path id="Path_886668" data-name="Path 886668" d="M102.724,26.435a1.321,1.321,0,0,1,.747-.184,52.357,52.357,0,0,1,7.472,0,.661.661,0,0,1,.509.208.8.8,0,0,1-.519,1.23l-7.958-.068c-.352-.245-.584-.857-.251-1.185" transform="translate(-87.85 -22.37)" fill="#fff"/>
          <path id="Path_886669" data-name="Path 886669" d="M57.585,26.82a32.67,32.67,0,0,1,4.131-.029c.7.127.66,1.28-.147,1.431a23.709,23.709,0,0,1-3.716-.006.732.732,0,0,1-.268-1.4" transform="translate(-48.958 -22.904)" fill="#fff"/>
          <path id="Path_886670" data-name="Path 886670" d="M293.387,26.828a33.844,33.844,0,0,1,4.132-.028c.7.127.66,1.28-.147,1.431a23.833,23.833,0,0,1-3.716-.006.724.724,0,0,1-.269-1.4" transform="translate(-250.907 -22.913)" fill="#fff"/>
          <path id="Path_886671" data-name="Path 886671" d="M249.482,27.963a.764.764,0,0,1,.328-1.253,28.823,28.823,0,0,1,4.009,0c.809.155.609,1.286-.143,1.427a22.242,22.242,0,0,1-3.445.009c-.222-.019-.59-.025-.748-.183" transform="translate(-213.522 -22.819)" fill="#fff"/>
          <path id="Path_886672" data-name="Path 886672" d="M206.481,27.963a.764.764,0,0,1,.328-1.253,28.823,28.823,0,0,1,4.009,0c.809.155.609,1.286-.143,1.427a22.241,22.241,0,0,1-3.445.009c-.222-.019-.59-.025-.748-.183" transform="translate(-176.69 -22.819)" fill="#fff"/>
          <path id="Path_886673" data-name="Path 886673" d="M20.922,201.95c1.866,2.079-1.279,5.1-3.248,3.033-2.021-2.125,1.276-5.23,3.248-3.033m-2.006.834a.718.718,0,0,0,.088,1.3c1.186.506,1.383-1.813-.088-1.3" transform="translate(-14.597 -172.336)" fill="#fff"/>
          <path id="Path_886674" data-name="Path 886674" d="M53.348,201.318c3.162-.163,3.1,4.927-.289,4.377-2.481-.4-2.113-4.253.289-4.377m-.15,1.571c-.744.224-.341,1.489.368,1.388a.73.73,0,1,0-.368-1.388" transform="translate(-43.996 -172.436)" fill="#fff"/>
          <path id="Path_886675" data-name="Path 886675" d="M92.387,211.8a44.736,44.736,0,0,1,4.989-.024c.884.166.819,1.27-.149,1.422a28.939,28.939,0,0,1-4.572,0,.724.724,0,0,1-.269-1.4" transform="translate(-78.74 -181.349)" fill="#fff"/>
        </g>
      </g>
    </g>
  </g>
</svg>
