<svg xmlns="http://www.w3.org/2000/svg" xmlns:xlink="http://www.w3.org/1999/xlink" width="122" height="122" viewBox="0 0 122 122">
  <defs>
    <clipPath id="clip-path">
      <rect id="Rectangle_400938" data-name="Rectangle 400938" width="122" height="122" fill="#2bc897"/>
    </clipPath>
    <clipPath id="clip-path-2">
      <path id="Path_873460" data-name="Path 873460" d="M0,1.307A1.349,1.349,0,0,0,1.389,2.613,1.349,1.349,0,0,0,2.778,1.307,1.349,1.349,0,0,0,1.389,0,1.349,1.349,0,0,0,0,1.307" transform="translate(0)" fill="#005865"/>
    </clipPath>
    <clipPath id="clip-path-3">
      <path id="Path_873466" data-name="Path 873466" d="M0,1.307A1.349,1.349,0,0,0,1.39,2.613,1.349,1.349,0,0,0,2.778,1.307,1.349,1.349,0,0,0,1.39,0,1.349,1.349,0,0,0,0,1.307" fill="#005865"/>
    </clipPath>
    <clipPath id="clip-path-4">
      <path id="Path_873467" data-name="Path 873467" d="M0,1.306A1.349,1.349,0,0,0,1.389,2.612,1.349,1.349,0,0,0,2.778,1.306,1.349,1.349,0,0,0,1.389,0,1.349,1.349,0,0,0,0,1.306" transform="translate(0 0)" fill="#005865"/>
    </clipPath>
    <clipPath id="clip-path-5">
      <path id="Path_873468" data-name="Path 873468" d="M0,1.306A1.349,1.349,0,0,0,1.39,2.612,1.349,1.349,0,0,0,2.778,1.306,1.349,1.349,0,0,0,1.39,0,1.349,1.349,0,0,0,0,1.306" transform="translate(0 0)" fill="#005865"/>
    </clipPath>
    <clipPath id="clip-path-6">
      <path id="Path_873469" data-name="Path 873469" d="M0,1.306A1.349,1.349,0,0,0,1.389,2.612,1.349,1.349,0,0,0,2.777,1.306,1.349,1.349,0,0,0,1.389,0,1.349,1.349,0,0,0,0,1.306" transform="translate(0 0)" fill="#005865"/>
    </clipPath>
    <clipPath id="clip-path-9">
      <path id="Path_873473" data-name="Path 873473" d="M0,1.306A1.349,1.349,0,0,0,1.39,2.612,1.348,1.348,0,0,0,2.778,1.306,1.349,1.349,0,0,0,1.39,0,1.349,1.349,0,0,0,0,1.306" transform="translate(0 0)" fill="#005865"/>
    </clipPath>
    <clipPath id="clip-path-22">
      <rect id="Rectangle_401492" data-name="Rectangle 401492" width="54.022" height="54.022" transform="translate(0 0)" fill="#fff" stroke="#707070" stroke-width="1"/>
    </clipPath>
    <clipPath id="clip-path-23">
      <rect id="Rectangle_406751" data-name="Rectangle 406751" width="51.565" height="51.541" fill="none"/>
    </clipPath>
  </defs>
  <g id="Group_1108949" data-name="Group 1108949" transform="translate(23057.926 3814.948)">
    <g id="Group_1100237" data-name="Group 1100237" transform="translate(-23054.037 -3797.84)">
      <g id="Group_1099505" data-name="Group 1099505" transform="translate(1.808 8.418)">
        <g id="Group_1099504" data-name="Group 1099504" transform="translate(0)" clip-path="url(#clip-path-2)">
          <rect id="Rectangle_401140" data-name="Rectangle 401140" width="2.777" height="2.613" transform="translate(0)" fill="#005865"/>
        </g>
      </g>
      <g id="Group_1099517" data-name="Group 1099517" transform="translate(37.056 8.418)">
        <g id="Group_1099516" data-name="Group 1099516" transform="translate(0)" clip-path="url(#clip-path-3)">
          <rect id="Rectangle_401146" data-name="Rectangle 401146" width="2.778" height="2.613" transform="translate(0 0)" fill="#005865"/>
        </g>
      </g>
      <g id="Group_1099519" data-name="Group 1099519" transform="translate(30.194 8.418)">
        <g id="Group_1099518" data-name="Group 1099518" transform="translate(0 0)" clip-path="url(#clip-path-4)">
          <rect id="Rectangle_401147" data-name="Rectangle 401147" width="2.778" height="2.612" transform="translate(0 0)" fill="#005865"/>
        </g>
      </g>
      <g id="Group_1099521" data-name="Group 1099521" transform="translate(23.332 8.418)">
        <g id="Group_1099520" data-name="Group 1099520" transform="translate(0 0)" clip-path="url(#clip-path-5)">
          <rect id="Rectangle_401148" data-name="Rectangle 401148" width="2.778" height="2.612" transform="translate(0 0)" fill="#005865"/>
        </g>
      </g>
      <g id="Group_1099523" data-name="Group 1099523" transform="translate(16.47 8.418)">
        <g id="Group_1099522" data-name="Group 1099522" transform="translate(0 0)" clip-path="url(#clip-path-6)">
          <rect id="Rectangle_401149" data-name="Rectangle 401149" width="2.777" height="2.612" transform="translate(0 0)" fill="#005865"/>
        </g>
      </g>
      <g id="Group_1099525" data-name="Group 1099525" transform="translate(34.311 0)">
        <g id="Group_1099524" data-name="Group 1099524" clip-path="url(#clip-path-4)">
          <rect id="Rectangle_401150" data-name="Rectangle 401150" width="2.778" height="2.612" transform="translate(0 0)" fill="#005865"/>
        </g>
      </g>
      <g id="Group_1099529" data-name="Group 1099529" transform="translate(27.448 0)">
        <g id="Group_1099528" data-name="Group 1099528" transform="translate(0)" clip-path="url(#clip-path-5)">
          <rect id="Rectangle_401152" data-name="Rectangle 401152" width="2.778" height="2.612" transform="translate(0 0)" fill="#005865"/>
        </g>
      </g>
      <g id="Group_1099531" data-name="Group 1099531" transform="translate(13.724 0)">
        <g id="Group_1099530" data-name="Group 1099530" transform="translate(0)" clip-path="url(#clip-path-9)">
          <rect id="Rectangle_401153" data-name="Rectangle 401153" width="2.777" height="2.612" transform="translate(0 0)" fill="#005865"/>
        </g>
      </g>
      <g id="Group_1099533" data-name="Group 1099533" transform="translate(6.862 0)">
        <g id="Group_1099532" data-name="Group 1099532" clip-path="url(#clip-path-4)">
          <rect id="Rectangle_401154" data-name="Rectangle 401154" width="2.778" height="2.612" transform="translate(0 0)" fill="#005865"/>
        </g>
      </g>
      <g id="Group_1099535" data-name="Group 1099535" transform="translate(0 0)">
        <g id="Group_1099534" data-name="Group 1099534" transform="translate(0)" clip-path="url(#clip-path-5)">
          <rect id="Rectangle_401155" data-name="Rectangle 401155" width="2.778" height="2.612" transform="translate(0 0)" fill="#005865"/>
        </g>
      </g>
    </g>
    <g id="Group_1100238" data-name="Group 1100238" transform="translate(-22980.445 -3724.661)">
      <g id="Group_1099505-2" data-name="Group 1099505" transform="translate(1.808 8.418)">
        <g id="Group_1099504-2" data-name="Group 1099504" transform="translate(0)" clip-path="url(#clip-path-2)">
          <rect id="Rectangle_401140-2" data-name="Rectangle 401140" width="2.777" height="2.613" transform="translate(0)" fill="#005865"/>
        </g>
      </g>
      <g id="Group_1099517-2" data-name="Group 1099517" transform="translate(37.056 8.418)">
        <g id="Group_1099516-2" data-name="Group 1099516" transform="translate(0)" clip-path="url(#clip-path-3)">
          <rect id="Rectangle_401146-2" data-name="Rectangle 401146" width="2.778" height="2.613" transform="translate(0 0)" fill="#005865"/>
        </g>
      </g>
      <g id="Group_1099519-2" data-name="Group 1099519" transform="translate(30.194 8.418)">
        <g id="Group_1099518-2" data-name="Group 1099518" transform="translate(0 0)" clip-path="url(#clip-path-4)">
          <rect id="Rectangle_401147-2" data-name="Rectangle 401147" width="2.778" height="2.612" transform="translate(0 0)" fill="#005865"/>
        </g>
      </g>
      <g id="Group_1099521-2" data-name="Group 1099521" transform="translate(23.332 8.418)">
        <g id="Group_1099520-2" data-name="Group 1099520" transform="translate(0 0)" clip-path="url(#clip-path-5)">
          <rect id="Rectangle_401148-2" data-name="Rectangle 401148" width="2.778" height="2.612" transform="translate(0 0)" fill="#005865"/>
        </g>
      </g>
      <g id="Group_1099523-2" data-name="Group 1099523" transform="translate(16.47 8.418)">
        <g id="Group_1099522-2" data-name="Group 1099522" transform="translate(0 0)" clip-path="url(#clip-path-6)">
          <rect id="Rectangle_401149-2" data-name="Rectangle 401149" width="2.777" height="2.612" transform="translate(0 0)" fill="#005865"/>
        </g>
      </g>
      <g id="Group_1099525-2" data-name="Group 1099525" transform="translate(34.311 0)">
        <g id="Group_1099524-2" data-name="Group 1099524" clip-path="url(#clip-path-4)">
          <rect id="Rectangle_401150-2" data-name="Rectangle 401150" width="2.778" height="2.612" transform="translate(0 0)" fill="#005865"/>
        </g>
      </g>
      <g id="Group_1099529-2" data-name="Group 1099529" transform="translate(27.448 0)">
        <g id="Group_1099528-2" data-name="Group 1099528" transform="translate(0)" clip-path="url(#clip-path-5)">
          <rect id="Rectangle_401152-2" data-name="Rectangle 401152" width="2.778" height="2.612" transform="translate(0 0)" fill="#005865"/>
        </g>
      </g>
      <g id="Group_1099531-2" data-name="Group 1099531" transform="translate(13.724 0)">
        <g id="Group_1099530-2" data-name="Group 1099530" transform="translate(0)" clip-path="url(#clip-path-9)">
          <rect id="Rectangle_401153-2" data-name="Rectangle 401153" width="2.777" height="2.612" transform="translate(0 0)" fill="#005865"/>
        </g>
      </g>
      <g id="Group_1099533-2" data-name="Group 1099533" transform="translate(6.862 0)">
        <g id="Group_1099532-2" data-name="Group 1099532" clip-path="url(#clip-path-4)">
          <rect id="Rectangle_401154-2" data-name="Rectangle 401154" width="2.778" height="2.612" transform="translate(0 0)" fill="#005865"/>
        </g>
      </g>
      <g id="Group_1099535-2" data-name="Group 1099535" transform="translate(0 0)">
        <g id="Group_1099534-2" data-name="Group 1099534" transform="translate(0)" clip-path="url(#clip-path-5)">
          <rect id="Rectangle_401155-2" data-name="Rectangle 401155" width="2.778" height="2.612" transform="translate(0 0)" fill="#005865"/>
        </g>
      </g>
    </g>
    <path id="Union_17" data-name="Union 17" d="M-4150.107,4311.383l-33.056-32.927a18.528,18.528,0,0,1,0-26.2l33.054-32.926a18.7,18.7,0,0,1,26.3,0l33.056,32.928a18.528,18.528,0,0,1,0,26.2l-33.056,32.927a18.576,18.576,0,0,1-13.15,5.4A18.575,18.575,0,0,1-4150.107,4311.383Z" transform="translate(-18858.305 -8017.512)" fill="#41cee2" stroke="rgba(0,0,0,0)" stroke-miterlimit="10" stroke-width="1"/>
    <circle id="Ellipse_11579" data-name="Ellipse 11579" cx="39.5" cy="39.5" r="39.5" transform="translate(-23034.504 -3791.418)" fill="#005865"/>
    <g id="Mask_Group_1098697" data-name="Mask Group 1098697" transform="translate(-23022.008 -3778.646)" clip-path="url(#clip-path-22)">
      <g id="Group_1100236" data-name="Group 1100236" transform="translate(5.504 2.064)">
        <g id="Group_1111985" data-name="Group 1111985" transform="translate(-6.504 -1.899)">
          <g id="Group_1111980" data-name="Group 1111980" transform="translate(1.228 1.228)" clip-path="url(#clip-path-23)">
            <path id="Path_886649" data-name="Path 886649" d="M56.2,42.763v1.579H29.51v5.211H54.46V51.29H50.2v3.474l.792.091,0,1.647H50.2v3.474H70.331a4.087,4.087,0,0,1,.471.477l.011,26.376c-.148.356-.369.646-.789.632-3.26-.241-6.91.295-10.121,0-.508-.047-1.177-.236-1.177-.876V82.241H45.933V80.5H48.46V77.978H50.2V80.5h8.527V77.188H50.2V75.451h8.527V71.977H50.2l-.091,1.74-1.647,0V71.977H44.2V70.24H48.46V66.766H39.932v2.448c-.416.449-1.173.166-1.737.237V66.766H29.51V69.45H27.773V43.316a2.421,2.421,0,0,1,.395-.553Zm-18,8.527H29.51v3.474H38.2Zm10.264,0H39.932v3.474H48.46ZM38.2,56.5H29.51v3.474h8.448l.237-.237Zm10.264,0H39.932v3.474H48.46ZM38.2,61.713H29.51v3.316H38.2Zm10.264,0H39.932v3.316H48.46Zm10.264,0H50.2v3.316h8.527Zm10.422,0H60.461v3.316h8.685ZM58.724,66.766H50.2V70.24h8.527Zm10.422,0H60.461V70.24h8.685Zm0,5.211H60.461v3.474h8.685Zm0,5.211H60.461V80.5h8.685Zm0,5.053H60.7l-.237.237v3.237h8.685Z" transform="translate(-23.387 -36.01)" fill="#fff"/>
            <path id="Path_886650" data-name="Path 886650" d="M208.1,0l-.033,21.921a1.4,1.4,0,0,1-.949.315c-4.746.448-10.191-.353-15.012,0-1.013-.045-1.1-.884-1.023-1.741-1-.164-4.369.357-4.968-.321a.77.77,0,0,1,0-1.091l4.933-5.015.024-13.4.31-.637Zm-1.542,1.542H192.816V14.728l-3.948,4.027h3.4c.472,0,.687,1.337.553,1.737h13.738Z" transform="translate(-156.532)" fill="#fff"/>
            <path id="Path_886651" data-name="Path 886651" d="M19.071,225.424H23.73a1.623,1.623,0,0,1,.519.735,1.8,1.8,0,0,1-.372.834c-.7,1.026-4.577,4.2-4.773,4.859-.247,1.456.222,3.479-.036,4.859a1.006,1.006,0,0,1-.473.632L.317,237.23a1.53,1.53,0,0,1-.2-.824c-.371-4.561.3-9.612,0-14.226-.022-.964.5-1.112,1.344-1.183,5.206-.436,11.007.343,16.277,0,.4-.056,1.336.273,1.336.717Zm-1.737-2.685H1.859v12.949H17.334v-4.5l3.79-4.027H18.045a1.542,1.542,0,0,1-.711-.711Z" transform="translate(0 -185.983)" fill="#fff"/>
            <rect id="Rectangle_406719" data-name="Rectangle 406719" width="1.739" height="1.739" transform="translate(32.02 21.28)" fill="#fff"/>
            <rect id="Rectangle_406720" data-name="Rectangle 406720" width="1.739" height="1.739" transform="translate(7.859 31.703)" fill="#fff"/>
            <rect id="Rectangle_406721" data-name="Rectangle 406721" width="1.739" height="1.739" transform="translate(21.598 31.703)" fill="#fff"/>
            <rect id="Rectangle_406722" data-name="Rectangle 406722" width="1.739" height="1.739" transform="translate(21.598 36.756)" fill="#fff"/>
            <rect id="Rectangle_406723" data-name="Rectangle 406723" width="1.739" height="1.739" transform="translate(28.546 36.756)" fill="#fff"/>
            <rect id="Rectangle_406724" data-name="Rectangle 406724" width="1.739" height="1.739" transform="translate(28.546 41.967)" fill="#fff"/>
            <rect id="Rectangle_406725" data-name="Rectangle 406725" width="1.739" height="1.739" transform="translate(32.02 41.967)" fill="#fff"/>
            <rect id="Rectangle_406726" data-name="Rectangle 406726" width="1.739" height="1.739" transform="translate(28.546 21.28)" fill="#fff"/>
            <path id="Path_886652" data-name="Path 886652" d="M73.508,200.758l-.07,1.59c-.208.3-1.279.09-1.669.149v-1.739Z" transform="translate(-60.436 -169.056)" fill="#fff"/>
            <path id="Path_886653" data-name="Path 886653" d="M116.417,200.758V202.5l-1.59-.07c-.3-.208-.09-1.279-.149-1.669Z" transform="translate(-96.555 -169.056)" fill="#fff"/>
            <path id="Path_886654" data-name="Path 886654" d="M204.507,234.407h-1.739v-1.739c.39.059,1.461-.15,1.669.149Z" transform="translate(-170.748 -195.912)" fill="#fff"/>
            <rect id="Rectangle_406727" data-name="Rectangle 406727" width="1.739" height="1.581" transform="translate(11.333 16.227)" fill="#fff"/>
            <rect id="Rectangle_406728" data-name="Rectangle 406728" width="1.739" height="1.581" transform="translate(7.859 16.227)" fill="#fff"/>
            <rect id="Rectangle_406729" data-name="Rectangle 406729" width="1.739" height="1.739" transform="translate(42.284 31.703)" fill="#fff"/>
            <path id="Path_886655" data-name="Path 886655" d="M247.507,200.758V202.5c-.39-.059-1.461.15-1.669-.149l-.07-1.59Z" transform="translate(-206.958 -169.056)" fill="#fff"/>
            <rect id="Rectangle_406730" data-name="Rectangle 406730" width="1.739" height="1.581" transform="translate(18.123 16.227)" fill="#fff"/>
            <rect id="Rectangle_406731" data-name="Rectangle 406731" width="1.739" height="1.581" transform="translate(21.598 16.227)" fill="#fff"/>
            <rect id="Rectangle_406732" data-name="Rectangle 406732" width="1.739" height="1.739" transform="translate(38.81 36.756)" fill="#fff"/>
            <rect id="Rectangle_406733" data-name="Rectangle 406733" width="1.739" height="1.739" transform="translate(42.284 36.756)" fill="#fff"/>
            <rect id="Rectangle_406734" data-name="Rectangle 406734" width="1.739" height="1.739" transform="translate(7.859 21.28)" fill="#fff"/>
            <rect id="Rectangle_406735" data-name="Rectangle 406735" width="1.739" height="1.739" transform="translate(11.333 21.28)" fill="#fff"/>
            <rect id="Rectangle_406736" data-name="Rectangle 406736" width="1.739" height="1.739" transform="translate(38.81 47.178)" fill="#fff"/>
            <rect id="Rectangle_406737" data-name="Rectangle 406737" width="1.739" height="1.739" transform="translate(42.284 47.178)" fill="#fff"/>
            <rect id="Rectangle_406738" data-name="Rectangle 406738" width="1.739" height="1.739" transform="translate(28.546 31.703)" fill="#fff"/>
            <path id="Path_886656" data-name="Path 886656" d="M204.507,200.758l-.07,1.59c-.208.3-1.279.09-1.669.149v-1.739Z" transform="translate(-170.748 -169.056)" fill="#fff"/>
            <rect id="Rectangle_406739" data-name="Rectangle 406739" width="1.739" height="1.739" transform="translate(18.123 21.28)" fill="#fff"/>
            <rect id="Rectangle_406740" data-name="Rectangle 406740" width="1.739" height="1.739" transform="translate(21.598 21.28)" fill="#fff"/>
            <rect id="Rectangle_406741" data-name="Rectangle 406741" width="1.739" height="1.739" transform="translate(38.81 26.491)" fill="#fff"/>
            <rect id="Rectangle_406742" data-name="Rectangle 406742" width="1.739" height="1.739" transform="translate(42.284 26.491)" fill="#fff"/>
            <rect id="Rectangle_406743" data-name="Rectangle 406743" width="1.739" height="1.739" transform="translate(7.859 26.491)" fill="#fff"/>
            <rect id="Rectangle_406744" data-name="Rectangle 406744" width="1.739" height="1.739" transform="translate(11.333 26.491)" fill="#fff"/>
            <rect id="Rectangle_406745" data-name="Rectangle 406745" width="1.739" height="1.739" transform="translate(38.81 41.967)" fill="#fff"/>
            <rect id="Rectangle_406746" data-name="Rectangle 406746" width="1.739" height="1.739" transform="translate(42.284 41.967)" fill="#fff"/>
            <rect id="Rectangle_406747" data-name="Rectangle 406747" width="1.739" height="1.739" transform="translate(28.546 26.491)" fill="#fff"/>
            <rect id="Rectangle_406748" data-name="Rectangle 406748" width="1.739" height="1.739" transform="translate(32.02 26.491)" fill="#fff"/>
            <rect id="Rectangle_406749" data-name="Rectangle 406749" width="1.739" height="1.739" transform="translate(18.123 26.491)" fill="#fff"/>
            <rect id="Rectangle_406750" data-name="Rectangle 406750" width="1.739" height="1.739" transform="translate(21.598 26.491)" fill="#fff"/>
            <path id="Path_886657" data-name="Path 886657" d="M237.565,27.372c-.059-.432-.067-2.527.553-2.527h2.921V21.135a1.062,1.062,0,0,1,.266-.406,17.07,17.07,0,0,1,4.468-.064,1.116,1.116,0,0,1,.444.5l-.036,14.267c-.2.538-.594.583-1.107.63a72.534,72.534,0,0,1-9.805,0c-.764-.069-1.085-.213-1.18-1.031a45.246,45.246,0,0,1-.005-6.644c.033-.244.5-1.018.719-1.018Zm6.948-5.053h-1.737v12h1.737Zm-3.474,4.264H239.3V34.32h1.737Zm-3.474,2.527h-1.737V34.32h1.737Z" transform="translate(-197.017 -17.303)" fill="#fff"/>
            <path id="Path_886658" data-name="Path 886658" d="M28.839,247.948c.589-.541,1.275-1.416,1.873-2l1.338,1.188L29.6,249.591c.043.985.27,1.768-.317,2.67a2.627,2.627,0,0,1-4.776-1.222c-.053-.7.675-1.733-.464-2.061-.4-.116-.813.146-1.228.146s-.824-.263-1.227-.147c-.357.1-1.464,1.551-1.615,1.551l-1.181-1.182,1.655-1.653a2.617,2.617,0,0,1,4.572-2.524c.769,1.182.065,1.85.27,2.562.339,1.177,2,.309,2.876.707.215-.164.477-.31.674-.491m-6.146-2.286a.869.869,0,0,0,.27,1.716c1.115-.161.789-1.878-.27-1.716m4.383,4.3a.856.856,0,1,0,.31,1.674c.923-.152.726-1.717-.31-1.674" transform="translate(-15.824 -205.405)" fill="#fff"/>
          </g>
        </g>
      </g>
    </g>
  </g>
</svg>
