<svg xmlns="http://www.w3.org/2000/svg" xmlns:xlink="http://www.w3.org/1999/xlink" width="100.499" height="150" viewBox="0 0 100.499 150">
  <defs>
    <clipPath id="clip-path">
      <rect id="Rectangle_403416" data-name="Rectangle 403416" width="71.683" height="58.902" fill="#59c4c8"/>
    </clipPath>
    <clipPath id="clip-path-2">
      <path id="Path_875268" data-name="Path 875268" d="M1.1,22.912,0,23.293v7.9a5.187,5.187,0,0,0,2.421,4.17L29.988,55.009a10.8,10.8,0,0,0,11.707,0L69.263,35.37a5.21,5.21,0,0,0,2.42-4.1c0-.066,0-.132,0-.2h0V23.367l-1.728-1.185C69.468,25.819,66,28.217,63.1,28.715L43.345,42.969l-8.621,3.841L7.207,29.288l.636-.453c-2.351-1.356-3.618-4.456-4.89-7.285Z" transform="translate(0 -21.549)" fill="#61dfe4"/>
    </clipPath>
    <clipPath id="clip-path-3">
      <rect id="Rectangle_403409" data-name="Rectangle 403409" width="71.683" height="58.902" fill="none"/>
    </clipPath>
    <clipPath id="clip-path-4">
      <rect id="Rectangle_403408" data-name="Rectangle 403408" width="35.842" height="34.45" fill="none"/>
    </clipPath>
    <clipPath id="clip-path-5">
      <path id="Path_875270" data-name="Path 875270" d="M26.3,6.628,3.311,23.549c1.272,2.829,2.539,5.929,4.89,7.285L34.324,12.221a3.459,3.459,0,0,1,3.749,0L63.74,30.508l-.285.207c2.9-.5,6.37-2.9,6.858-6.533L41.508,4.411,33.126,1.678Z" transform="translate(-3.311 -1.678)" fill="#61dfe4"/>
    </clipPath>
    <clipPath id="clip-path-7">
      <rect id="Rectangle_403411" data-name="Rectangle 403411" width="32.888" height="29.156" fill="none"/>
    </clipPath>
    <clipPath id="clip-path-8">
      <path id="Path_875272" data-name="Path 875272" d="M33.967,46.513,6.4,26.872a1.539,1.539,0,0,1,0-2.672L33.966,4.56a3.457,3.457,0,0,1,3.749,0L65.283,24.2a1.538,1.538,0,0,1,0,2.671L37.716,46.512a3.458,3.458,0,0,1-3.749,0M35.736,0a10.166,10.166,0,0,0-5.749,1.725L2.421,21.365c-3.227,2.3-3.227,6.041,0,8.341L29.989,49.347a10.793,10.793,0,0,0,11.707,0L69.263,29.706c3.227-2.3,3.227-6.041,0-8.341L41.695,1.725A10.166,10.166,0,0,0,35.946,0Z" transform="translate(-0.001)" fill="#98baff"/>
    </clipPath>
    <clipPath id="clip-path-10">
      <path id="Path_875275" data-name="Path 875275" d="M33.322,46.995,5.755,27.355a2.178,2.178,0,0,1,0-3.782L33.321,3.934a4.894,4.894,0,0,1,5.307,0L66.195,23.574a2.177,2.177,0,0,1,0,3.781L38.628,46.995a4.894,4.894,0,0,1-5.306,0M30.9,2.208,3.333,21.847c-2.8,1.994-2.8,5.239,0,7.232L30.9,48.722a9.367,9.367,0,0,0,10.151,0L68.617,29.08c2.8-1.992,2.8-5.237,0-7.231L41.049,2.208a9.359,9.359,0,0,0-10.151,0" transform="translate(-1.234 -0.712)" fill="#98baff"/>
    </clipPath>
    <clipPath id="clip-path-11">
      <rect id="Rectangle_403518" data-name="Rectangle 403518" width="60.873" height="61.12" fill="#fff"/>
    </clipPath>
    <clipPath id="clip-path-12">
      <rect id="Rectangle_403232" data-name="Rectangle 403232" width="72.996" height="50.71" fill="#61dfe4"/>
    </clipPath>
    <clipPath id="clip-path-13">
      <rect id="Rectangle_406760" data-name="Rectangle 406760" width="36.653" height="36.668" fill="#0c2d70"/>
    </clipPath>
  </defs>
  <g id="Group_1113369" data-name="Group 1113369" transform="translate(-600 -4603)">
    <rect id="Rectangle_404549" data-name="Rectangle 404549" width="85" height="150" transform="translate(600 4603)" fill="#b8fafd"/>
    <g id="Group_1113227" data-name="Group 1113227">
      <g id="Group_1108969" data-name="Group 1108969" transform="translate(628.258 4641.5)">
        <g id="Group_1100744" data-name="Group 1100744" transform="translate(0.004 14.098)">
          <g id="Group_1100514" data-name="Group 1100514" clip-path="url(#clip-path)">
            <g id="Group_1100495" data-name="Group 1100495" transform="translate(0 23.717)">
              <g id="Group_1100494" data-name="Group 1100494" clip-path="url(#clip-path-2)">
                <path id="Path_875399" data-name="Path 875399" d="M0,0,71.633-6.175l-7.76,81.049L-7.76,81.049Z" transform="translate(-12.548 26.819) rotate(-60)" fill="#61dfe4"/>
              </g>
            </g>
            <g id="Group_1100500" data-name="Group 1100500" transform="translate(0 0)">
              <g id="Group_1100499" data-name="Group 1100499" clip-path="url(#clip-path-3)">
                <g id="Group_1100498" data-name="Group 1100498" transform="translate(35.841 24.452)" opacity="0.3">
                  <g id="Group_1100497" data-name="Group 1100497">
                    <g id="Group_1100496" data-name="Group 1100496" clip-path="url(#clip-path-4)">
                      <path id="Path_875269" data-name="Path 875269" d="M67.442,28.647,47.689,42.9l-7.5,3.344V56.667a10.2,10.2,0,0,0,5.854-1.725L73.606,35.3a5.208,5.208,0,0,0,2.42-4.1c0-.066,0-.133,0-.2l0,0V23.3l-1.58-1.084h-.165c-.539,3.58-3.968,5.937-6.841,6.431" transform="translate(-40.185 -22.217)" fill="#0f054c"/>
                    </g>
                  </g>
                </g>
              </g>
            </g>
            <g id="Group_1100502" data-name="Group 1100502" transform="translate(2.953 1.847)">
              <g id="Group_1100501" data-name="Group 1100501" clip-path="url(#clip-path-5)">
                <path id="Path_875400" data-name="Path 875400" d="M0,0,63.434-5.469,56.357,68.457-7.078,73.925Z" transform="matrix(0.5, -0.866, 0.866, 0.5, -10.231, 21.867)" fill="#61dfe4"/>
              </g>
            </g>
            <g id="Group_1100507" data-name="Group 1100507" transform="translate(0 0)">
              <g id="Group_1100506" data-name="Group 1100506" clip-path="url(#clip-path-3)">
                <g id="Group_1100505" data-name="Group 1100505" transform="translate(2.953 1.847)" opacity="0.3">
                  <g id="Group_1100504" data-name="Group 1100504">
                    <g id="Group_1100503" data-name="Group 1100503" clip-path="url(#clip-path-7)">
                      <path id="Path_875271" data-name="Path 875271" d="M36.2,2.68l-3.073-1L26.3,6.628,3.311,23.548c1.272,2.829,2.538,5.93,4.89,7.286L34.324,12.221A3.27,3.27,0,0,1,36.2,11.67Z" transform="translate(-3.311 -1.678)" fill="#0f054c"/>
                    </g>
                  </g>
                </g>
              </g>
            </g>
            <g id="Group_1100509" data-name="Group 1100509" transform="translate(0)">
              <g id="Group_1100508" data-name="Group 1100508" clip-path="url(#clip-path-8)">
                <rect id="Rectangle_403413" data-name="Rectangle 403413" width="73.296" height="51.647" transform="translate(-0.807 0)" fill="#98baff"/>
              </g>
            </g>
            <g id="Group_1100511" data-name="Group 1100511" transform="translate(0 0)">
              <g id="Group_1100510" data-name="Group 1100510" clip-path="url(#clip-path-3)">
                <path id="Path_875273" data-name="Path 875273" d="M65.965,23.834,38.4,4.193a3.457,3.457,0,0,0-3.749,0L7.082,23.833A1.547,1.547,0,0,0,6.4,25.649a1.843,1.843,0,0,1,.686-.855L34.649,5.153a3.457,3.457,0,0,1,3.749,0L65.965,24.794a1.846,1.846,0,0,1,.686.856,1.546,1.546,0,0,0-.686-1.816" transform="translate(-0.682 0.367)" fill="#fff"/>
                <path id="Path_875274" data-name="Path 875274" d="M69.263,27.329,41.7,46.968a10.793,10.793,0,0,1-11.707,0L2.422,27.327A5.344,5.344,0,0,1,.03,23.637a5.047,5.047,0,0,0,2.392,4.651L29.989,47.929a10.8,10.8,0,0,0,11.707,0L69.263,28.288a5.045,5.045,0,0,0,2.391-4.65,5.344,5.344,0,0,1-2.391,3.69" transform="translate(0 2.379)" fill="#fff"/>
              </g>
            </g>
            <g id="Group_1100513" data-name="Group 1100513" transform="translate(1.1 0.784)">
              <g id="Group_1100512" data-name="Group 1100512" clip-path="url(#clip-path-10)">
                <rect id="Rectangle_403415" data-name="Rectangle 403415" width="70.881" height="50.002" transform="translate(-0.7 0)" fill="#98baff"/>
              </g>
            </g>
          </g>
        </g>
        <g id="Group_1100749" data-name="Group 1100749" transform="translate(5.307)">
          <g id="Group_1100748" data-name="Group 1100748" clip-path="url(#clip-path-11)">
            <path id="Path_875398" data-name="Path 875398" d="M6.247,0H54.48A6.338,6.338,0,0,1,60.8,6.356l.14,34.756-26.7,18.94a7.554,7.554,0,0,1-7.744,0L-.145,41.219-.072,6.356A6.338,6.338,0,0,1,6.247,0" transform="translate(0.074 0)" fill="#fff"/>
          </g>
        </g>
        <g id="Group_1100745" data-name="Group 1100745" transform="translate(-0.755 6.578)">
          <g id="Group_1100096" data-name="Group 1100096" transform="translate(0 0)" clip-path="url(#clip-path-12)">
            <path id="Path_873771" data-name="Path 873771" d="M36.5,50.711a9.642,9.642,0,0,1-5.42-1.551L2.316,29.276A4.816,4.816,0,0,1,0,25.354a4.813,4.813,0,0,1,2.316-3.921L31.077,1.55a10.26,10.26,0,0,1,10.843,0L70.681,21.434A4.813,4.813,0,0,1,73,25.355a4.816,4.816,0,0,1-2.316,3.922L41.92,49.16A9.645,9.645,0,0,1,36.5,50.711M36.5.595a9.2,9.2,0,0,0-5.169,1.477L2.568,21.955A4.223,4.223,0,0,0,.5,25.354a4.22,4.22,0,0,0,2.064,3.4L31.331,48.638a9.785,9.785,0,0,0,10.337,0L70.429,28.755a4.22,4.22,0,0,0,2.064-3.4,4.22,4.22,0,0,0-2.064-3.4L41.667,2.072A9.2,9.2,0,0,0,36.5.595" transform="translate(0 -0.001)" fill="#61dfe4"/>
          </g>
        </g>
        <rect id="Rectangle_403516" data-name="Rectangle 403516" width="60.873" height="30.446" transform="translate(5.307 4.578)" fill="#fff"/>
      </g>
      <g id="Group_1108973" data-name="Group 1108973" transform="translate(645.17 4646.746)">
        <g id="Group_1099618" data-name="Group 1099618" transform="translate(0 0)">
          <rect id="Rectangle_401104" data-name="Rectangle 401104" width="37.658" height="38.112" transform="translate(0)" fill="none"/>
        </g>
        <g id="Group_1112005" data-name="Group 1112005" transform="translate(1.005 -0.827)">
          <g id="Group_1112004" data-name="Group 1112004" clip-path="url(#clip-path-13)">
            <path id="Path_886713" data-name="Path 886713" d="M62.341,32.128a.659.659,0,0,1-.107,1.313L30.05,33.39l-.492-.492L29.508.715a.671.671,0,0,1,1.067-.57,4.425,4.425,0,0,1,.246.463V32.128Z" transform="translate(-26.282 0.001)" fill="#0c2d70"/>
            <path id="Path_886714" data-name="Path 886714" d="M54.64,83.529a27.385,27.385,0,0,1,4.134-.029c.284.025.641.034.705.387a11.325,11.325,0,0,1-.051,2.025,1.384,1.384,0,0,1-.765.219,28.337,28.337,0,0,1-4.185-.085c-.52-.239-.614-2.34.161-2.518" transform="translate(-48.166 -74.32)" fill="#0c2d70"/>
            <path id="Path_886715" data-name="Path 886715" d="M200.721,83.519a26.767,26.767,0,0,1,4.132-.029c.45.041.729.114.807.613a5.265,5.265,0,0,1-.072,1.662c-.129.271-.47.324-.74.352a29.66,29.66,0,0,1-4.29-.08.347.347,0,0,1-.244-.3,7.013,7.013,0,0,1,.107-2.079.7.7,0,0,1,.3-.137" transform="translate(-178.403 -74.31)" fill="#0c2d70"/>
            <path id="Path_886716" data-name="Path 886716" d="M54.64,113.529a27.384,27.384,0,0,1,4.134-.029c.284.025.641.034.705.387a11.325,11.325,0,0,1-.051,2.025,1.384,1.384,0,0,1-.765.219,28.337,28.337,0,0,1-4.185-.085c-.52-.239-.614-2.34.161-2.518" transform="translate(-48.166 -101.043)" fill="#0c2d70"/>
            <path id="Path_886717" data-name="Path 886717" d="M200.721,113.519a26.767,26.767,0,0,1,4.132-.029c.45.041.729.114.807.613a5.265,5.265,0,0,1-.072,1.662c-.129.271-.47.324-.74.352a29.662,29.662,0,0,1-4.29-.08.347.347,0,0,1-.244-.3,7.013,7.013,0,0,1,.107-2.079.7.7,0,0,1,.3-.137" transform="translate(-178.403 -101.032)" fill="#0c2d70"/>
            <path id="Path_886718" data-name="Path 886718" d="M54.64,143.529a27.386,27.386,0,0,1,4.134-.029c.284.025.641.034.705.387a11.325,11.325,0,0,1-.051,2.025,1.383,1.383,0,0,1-.765.219,28.337,28.337,0,0,1-4.185-.085c-.52-.239-.614-2.34.161-2.518" transform="translate(-48.166 -127.765)" fill="#0c2d70"/>
            <path id="Path_886719" data-name="Path 886719" d="M200.721,143.519a26.768,26.768,0,0,1,4.132-.029c.45.041.729.114.807.613a5.265,5.265,0,0,1-.072,1.662c-.129.271-.47.324-.74.352a29.662,29.662,0,0,1-4.29-.08.347.347,0,0,1-.244-.3,7.013,7.013,0,0,1,.107-2.079.7.7,0,0,1,.3-.137" transform="translate(-178.403 -127.754)" fill="#0c2d70"/>
            <path id="Path_886720" data-name="Path 886720" d="M131.375,143.761a4.708,4.708,0,0,1,.14,1.781c-.046.661-.184.661-.82.71a27.037,27.037,0,0,1-3.83,0c-.3-.036-.558-.118-.66-.433-.152-.468-.188-1.959.382-2.143a29.047,29.047,0,0,1,4.218-.053,1.06,1.06,0,0,1,.57.14" transform="translate(-112.33 -127.885)" fill="#0c2d70"/>
            <path id="Path_886721" data-name="Path 886721" d="M54.329,204.065h4.807c.361,0,.33,1.8.27,2.127a.425.425,0,0,1-.215.331,42.63,42.63,0,0,1-4.432.061c-1.257-.121-.629-2.52-.43-2.52" transform="translate(-48.096 -181.77)" fill="#0c2d70"/>
            <path id="Path_886722" data-name="Path 886722" d="M54.605,233.277l4.73.031c.31.151.294,1.973.164,2.241-.088.181-.257.2-.432.223-1.377.178-3.154-.127-4.576-.023-.4-.135-.526-2.306.114-2.472" transform="translate(-48.24 -207.79)" fill="#0c2d70"/>
            <path id="Path_886723" data-name="Path 886723" d="M54.329,174.065h4.807c.361,0,.33,1.8.27,2.127a.425.425,0,0,1-.215.331,42.634,42.634,0,0,1-4.432.061c-1.257-.121-.629-2.52-.43-2.52" transform="translate(-48.096 -155.047)" fill="#0c2d70"/>
            <path id="Path_886724" data-name="Path 886724" d="M54.605,263.277l4.73.031c.31.151.294,1.973.164,2.241-.088.181-.257.2-.432.223-1.377.178-3.154-.127-4.576-.023-.4-.135-.526-2.306.114-2.472" transform="translate(-48.24 -234.512)" fill="#0c2d70"/>
            <path id="Path_886725" data-name="Path 886725" d="M126.667,235c-.342-.11-.31-1.672-.263-2.015.066-.476.264-.466.7-.5a29.351,29.351,0,0,1,3.943,0c.291.026.641.036.705.387.057.312.087,2.131-.273,2.131Z" transform="translate(-112.568 -207.021)" fill="#0c2d70"/>
            <path id="Path_886726" data-name="Path 886726" d="M126.383,204.065h4.807c.358,0,.332,1.807.273,2.131-.064.351-.414.361-.705.387a28.412,28.412,0,0,1-3.945,0c-1.221-.121-.652-2.519-.431-2.519" transform="translate(-112.284 -181.77)" fill="#0c2d70"/>
            <path id="Path_886727" data-name="Path 886727" d="M200.82,233.065h4.7c.535,0,.535,2.513,0,2.513h-4.807l-.164-.164v-2.076c0-.035.224-.2.273-.273" transform="translate(-178.636 -207.601)" fill="#0c2d70"/>
            <path id="Path_886728" data-name="Path 886728" d="M126.383,174.065h4.807c.358,0,.332,1.807.273,2.131-.064.351-.414.361-.705.387a28.412,28.412,0,0,1-3.945,0c-1.221-.121-.652-2.519-.431-2.519" transform="translate(-112.284 -155.047)" fill="#0c2d70"/>
            <path id="Path_886729" data-name="Path 886729" d="M126.657,262.558c1.013.146,3.92-.307,4.7.057a.347.347,0,0,1,.244.3,9.1,9.1,0,0,1-.054,1.913c-.088.181-.257.2-.432.223-1.379.178-3.155-.13-4.579-.02-.362-.122-.541-2.33.117-2.475" transform="translate(-112.425 -233.793)" fill="#0c2d70"/>
            <path id="Path_886730" data-name="Path 886730" d="M200.82,263.065h4.7c.535,0,.535,2.513,0,2.513h-4.807l-.164-.164v-2.076c0-.035.224-.2.273-.273" transform="translate(-178.636 -234.323)" fill="#0c2d70"/>
            <path id="Path_886731" data-name="Path 886731" d="M200.547,176.469v-2.131a1.824,1.824,0,0,1,.273-.273h4.7c.535,0,.535,2.513,0,2.513h-4.7c-.036,0-.166-.145-.273-.109" transform="translate(-178.636 -155.047)" fill="#0c2d70"/>
            <path id="Path_886732" data-name="Path 886732" d="M200.563,204.065h4.7c.535,0,.535,2.513,0,2.513h-4.7a.976.976,0,0,1-.217-.22c-.132-.282-.155-2.293.217-2.293" transform="translate(-178.379 -181.77)" fill="#0c2d70"/>
            <path id="Path_886733" data-name="Path 886733" d="M272.82,233.065h4.7a.976.976,0,0,1,.217.22c.132.282.155,2.293-.217,2.293h-4.807l-.164-.164v-2.076c0-.035.224-.2.273-.273" transform="translate(-242.769 -207.601)" fill="#0c2d70"/>
            <path id="Path_886734" data-name="Path 886734" d="M272.711,204.065h4.807a.976.976,0,0,1,.217.22c.132.282.155,2.293-.217,2.293h-4.7a1.823,1.823,0,0,1-.273-.273v-2.076Z" transform="translate(-242.769 -181.77)" fill="#0c2d70"/>
            <path id="Path_886735" data-name="Path 886735" d="M272.711,174.065h4.807a.976.976,0,0,1,.217.22c.132.282.155,2.293-.217,2.293h-4.7a1.823,1.823,0,0,1-.273-.273v-2.076Z" transform="translate(-242.769 -155.047)" fill="#0c2d70"/>
            <path id="Path_886736" data-name="Path 886736" d="M272.82,263.065h4.7a.976.976,0,0,1,.217.22c.132.282.155,2.293-.217,2.293h-4.807l-.164-.164v-2.076c0-.035.224-.2.273-.273" transform="translate(-242.769 -234.323)" fill="#0c2d70"/>
            <path id="Path_886737" data-name="Path 886737" d="M54.559,56.23l4.844.036c.311.151.293,1.867.164,2.131-.088.181-.257.2-.433.223-1.377.178-3.154-.127-4.576-.023-.434-.145-.433-2.222,0-2.368" transform="translate(-48.308 -50.086)" fill="#0c2d70"/>
            <path id="Path_886738" data-name="Path 886738" d="M.88,25.967c.61-.136,2.044.072,1.443.9-.181.249-1.478.247-1.74.119-.444-.217-.232-.9.3-1.015" transform="translate(-0.305 -23.096)" fill="#0c2d70"/>
            <path id="Path_886739" data-name="Path 886739" d="M299.611,316.182c1.161-.168.785,2.785-.255,1.958-.221-.442-.381-1.866.255-1.958" transform="translate(-266.476 -281.631)" fill="#0c2d70"/>
            <path id="Path_886740" data-name="Path 886740" d="M.88,268.967c.61-.136,2.044.072,1.443.9-.181.249-1.478.247-1.74.119-.444-.217-.232-.9.3-1.015" transform="translate(-0.305 -239.547)" fill="#0c2d70"/>
            <path id="Path_886741" data-name="Path 886741" d="M56.611,316.182c1.161-.168.785,2.785-.255,1.958-.221-.442-.381-1.866.255-1.958" transform="translate(-50.025 -281.631)" fill="#0c2d70"/>
            <path id="Path_886742" data-name="Path 886742" d="M104.295,317.958c-.234-.234-.405-2.175.55-1.923.872.229.37,2.845-.55,1.923" transform="translate(-92.737 -281.485)" fill="#0c2d70"/>
            <path id="Path_886743" data-name="Path 886743" d="M128.765,316.177c.891-.134.655,1.856.358,2-1.042.521-1.23-1.873-.358-2" transform="translate(-114.204 -281.627)" fill="#0c2d70"/>
            <path id="Path_886744" data-name="Path 886744" d="M.719,196.687c.378-.111,1.6-.145,1.737.3.239.8-1.056.884-1.6.717-.522-.161-.611-.881-.136-1.021" transform="translate(-0.364 -175.135)" fill="#0c2d70"/>
            <path id="Path_886745" data-name="Path 886745" d="M2.36,172.847c-.219.216-1.788.285-1.921-.161-.4-1.357,2.923-.828,1.921.161" transform="translate(-0.361 -153.091)" fill="#0c2d70"/>
            <path id="Path_886746" data-name="Path 886746" d="M.608,99.712a.57.57,0,0,1,.268-.931c.5-.1,1.563-.18,1.658.491.108.758-1.666.7-1.926.44" transform="translate(-0.412 -87.931)" fill="#0c2d70"/>
            <path id="Path_886747" data-name="Path 886747" d="M2.194,51.03c1.119,1.117-2.738,1.44-1.838.047a2.443,2.443,0,0,1,1.838-.047" transform="translate(-0.194 -45.316)" fill="#0c2d70"/>
            <path id="Path_886748" data-name="Path 886748" d="M.2,244.857c.274-.274,2.162-.327,1.924.55s-2.844.368-1.924-.55" transform="translate(0 -217.946)" fill="#0c2d70"/>
            <path id="Path_886749" data-name="Path 886749" d="M178.4,315.634a2.443,2.443,0,0,1-.047,1.838c-1.393.9-1.07-2.957.047-1.838" transform="translate(-158.046 -280.966)" fill="#0c2d70"/>
            <path id="Path_886750" data-name="Path 886750" d="M227.245,317.987c-.229.23-.811.171-.91-.182-.115-.415-.181-1.606.358-1.742.86-.217.837,1.638.552,1.924" transform="translate(-201.536 -281.514)" fill="#0c2d70"/>
            <path id="Path_886751" data-name="Path 886751" d="M250.41,316.229c.31-.314.839-.025.934.379.132.561.064,1.791-.773,1.542-.446-.133-.377-1.7-.161-1.921" transform="translate(-222.9 -281.56)" fill="#0c2d70"/>
            <path id="Path_886752" data-name="Path 886752" d="M275.4,315.634a2.443,2.443,0,0,1-.047,1.838c-1.393.9-1.07-2.957.047-1.838" transform="translate(-244.448 -280.966)" fill="#0c2d70"/>
            <path id="Path_886753" data-name="Path 886753" d="M153.41,316.229c.31-.314.839-.025.934.379.132.561.064,1.791-.773,1.542-.446-.133-.377-1.7-.161-1.921" transform="translate(-136.498 -281.56)" fill="#0c2d70"/>
            <path id="Path_886754" data-name="Path 886754" d="M2.663,148.03c1.02,1.018-2.483,1.565-1.838.047a2.443,2.443,0,0,1,1.838-.047" transform="translate(-0.663 -131.718)" fill="#0c2d70"/>
            <path id="Path_886755" data-name="Path 886755" d="M.941,123.013c.469-.084,1.441-.069,1.44.574s-1.1.56-1.58.5c-.744-.1-.669-.926.14-1.071" transform="translate(-0.255 -109.54)" fill="#0c2d70"/>
            <path id="Path_886756" data-name="Path 886756" d="M202.611,316.186c1.133-.164.777,2.777-.255,1.958-.221-.441-.381-1.866.255-1.958" transform="translate(-180.073 -281.635)" fill="#0c2d70"/>
            <path id="Path_886757" data-name="Path 886757" d="M2.685,75.78a2.439,2.439,0,0,1-1.838-.047c-.629-1.548,2.831-.933,1.838.047" transform="translate(-0.686 -66.622)" fill="#0c2d70"/>
            <path id="Path_886758" data-name="Path 886758" d="M81.166,317.977a.7.7,0,0,1-.55.12c-.779-.2-.492-2.737.462-1.89a2.052,2.052,0,0,1,.088,1.771" transform="translate(-71.409 -281.505)" fill="#0c2d70"/>
            <path id="Path_886759" data-name="Path 886759" d="M.973,220.771c.378-.109,1.435-.112,1.619.309.393.9-1.71.76-1.925.5a.536.536,0,0,1,.306-.807" transform="translate(-0.508 -196.595)" fill="#0c2d70"/>
          </g>
        </g>
      </g>
    </g>
  </g>
</svg>
