<svg xmlns="http://www.w3.org/2000/svg" xmlns:xlink="http://www.w3.org/1999/xlink" width="99" height="99" viewBox="0 0 99 99">
  <defs>
    <clipPath id="clip-path">
      <rect id="Rectangle_401223" data-name="Rectangle 401223" width="99" height="99" transform="translate(0)" fill="#f3a744"/>
    </clipPath>
    <clipPath id="clip-path-2">
      <rect id="Rectangle_401223-2" data-name="Rectangle 401223" width="88.539" height="88.539" fill="#f3f9ff"/>
    </clipPath>
    <clipPath id="clip-path-3">
      <rect id="Rectangle_406818" data-name="Rectangle 406818" width="64.814" height="64.695" fill="none"/>
    </clipPath>
  </defs>
  <g id="Group_1112237" data-name="Group 1112237" transform="translate(-619.921 -5755.871)">
    <g id="Group_1100724" data-name="Group 1100724" transform="translate(619.921 5755.871)">
      <g id="Group_1099654" data-name="Group 1099654" transform="translate(0 0)">
        <g id="Mask_Group_1099652" data-name="Mask Group 1099652" clip-path="url(#clip-path)">
          <path id="Path_873521" data-name="Path 873521" d="M99,77.066A22,22,0,0,1,77.066,99H21.934A22,22,0,0,1,0,77.066V21.933A22,22,0,0,1,21.934,0H77.066A22,22,0,0,1,99,21.934Z" transform="translate(0)" fill="#005865"/>
        </g>
      </g>
      <g id="Group_1099659" data-name="Group 1099659" transform="translate(4.77 5.723)">
        <g id="Group_1099652" data-name="Group 1099652" transform="translate(0 0)" clip-path="url(#clip-path-2)">
          <path id="Path_873521-2" data-name="Path 873521" d="M88.539,68.922A19.674,19.674,0,0,1,68.923,88.539H19.616A19.674,19.674,0,0,1,0,68.922V19.616A19.674,19.674,0,0,1,19.616,0H68.923A19.674,19.674,0,0,1,88.539,19.616Z" fill="#f3f9ff"/>
        </g>
      </g>
    </g>
    <g id="Group_1100725" data-name="Group 1100725" transform="translate(636.343 5771.293)">
      <rect id="Rectangle_401104" data-name="Rectangle 401104" width="68" height="69" transform="translate(-0.421 0.438)" fill="none"/>
      <g id="Group_1112240" data-name="Group 1112240" transform="translate(1.579 2.438)">
        <g id="Group_1112084" data-name="Group 1112084" clip-path="url(#clip-path-3)">
          <path id="Path_887013" data-name="Path 887013" d="M80.335,22v4.681H76.08l6.6,10.745V52.215H61.824V63.7H82.676V80.089H45.44V63.811a5.409,5.409,0,0,0-2.234-2.234h-11.6V22Z" transform="translate(-24.883 -17.319)" fill="#41cee2"/>
          <path id="Path_887014" data-name="Path 887014" d="M210.142,175v6.7a2.135,2.135,0,0,1-.319.319H184.609V175Z" transform="translate(-145.328 -137.764)" fill="#f3a744"/>
          <path id="Path_887015" data-name="Path 887015" d="M264.507,0V11.7c.646.059,1.4-.083,2.025,0,.3.039.368-.117.313.316l-3.508,5.425-3.723-5.635,2.552-.105V0Z" transform="translate(-204.374)" fill="#b3dc7e"/>
          <rect id="Rectangle_406795" data-name="Rectangle 406795" width="25.533" height="11.703" transform="translate(29.919 48.726)" fill="#0c2d70"/>
          <rect id="Rectangle_406796" data-name="Rectangle 406796" width="25.533" height="7.022" transform="translate(9.066 7.022)" fill="#0c2d70"/>
          <rect id="Rectangle_406797" data-name="Rectangle 406797" width="46.386" height="2.341" transform="translate(9.066 25.533)" fill="#0c2d70"/>
          <rect id="Rectangle_406798" data-name="Rectangle 406798" width="41.705" height="2.128" transform="translate(13.747 21.065)" fill="#0c2d70"/>
          <rect id="Rectangle_406799" data-name="Rectangle 406799" width="27.874" height="2.341" transform="translate(9.066 16.384)" fill="#0c2d70"/>
          <rect id="Rectangle_406800" data-name="Rectangle 406800" width="25.533" height="2.341" transform="translate(16.088 30.215)" fill="#0c2d70"/>
          <rect id="Rectangle_406801" data-name="Rectangle 406801" width="23.193" height="2.341" transform="translate(9.066 34.896)" fill="#0c2d70"/>
          <rect id="Rectangle_406802" data-name="Rectangle 406802" width="23.193" height="2.341" transform="translate(9.066 39.577)" fill="#0c2d70"/>
          <rect id="Rectangle_406803" data-name="Rectangle 406803" width="11.703" height="2.341" transform="translate(43.749 30.215)" fill="#0c2d70"/>
          <rect id="Rectangle_406804" data-name="Rectangle 406804" width="4.681" height="2.341" transform="translate(9.066 30.215)" fill="#0c2d70"/>
          <rect id="Rectangle_406805" data-name="Rectangle 406805" width="2.343" height="2.13" transform="translate(9.065 21.064)" fill="#0c2d70"/>
          <rect id="Rectangle_406806" data-name="Rectangle 406806" width="2.343" height="2.343" transform="translate(50.77 39.576)" fill="#0c2d70"/>
          <rect id="Rectangle_406807" data-name="Rectangle 406807" width="2.343" height="2.343" transform="translate(55.451 39.576)" fill="#0c2d70"/>
          <rect id="Rectangle_406808" data-name="Rectangle 406808" width="2.343" height="2.343" transform="translate(60.132 39.576)" fill="#0c2d70"/>
          <path id="Path_887016" data-name="Path 887016" d="M218.742,185.995v2.343c-2.389.179-2.522.049-2.343-2.343Z" transform="translate(-170.311 -146.419)" fill="#0c2d70"/>
          <rect id="Rectangle_406809" data-name="Rectangle 406809" width="2.13" height="2.343" transform="translate(41.62 39.576)" fill="#0c2d70"/>
          <path id="Path_887017" data-name="Path 887017" d="M153.949,240v4.681h2.341V240h2.341v4.681h2.341V240H163.1v4.681h2.341V240h2.341v4.681h2.341V240h2.341v7.022H151.609V240Z" transform="translate(-119.349 -188.933)" fill="#fe816e"/>
          <rect id="Rectangle_406810" data-name="Rectangle 406810" width="2.343" height="2.343" transform="translate(11.406 9.361)" fill="#e5cb82"/>
          <rect id="Rectangle_406811" data-name="Rectangle 406811" width="2.343" height="2.343" transform="translate(16.087 9.361)" fill="#e5cb82"/>
          <rect id="Rectangle_406812" data-name="Rectangle 406812" width="2.343" height="2.343" transform="translate(20.555 9.361)" fill="#e5cb82"/>
          <rect id="Rectangle_406813" data-name="Rectangle 406813" width="2.343" height="2.343" transform="translate(25.236 9.361)" fill="#e5cb82"/>
          <rect id="Rectangle_406814" data-name="Rectangle 406814" width="2.343" height="2.343" transform="translate(29.918 9.361)" fill="#e5cb82"/>
          <rect id="Rectangle_406815" data-name="Rectangle 406815" width="17.684" height="10.875" transform="translate(2.675 43.679)" fill="#8e5f39"/>
          <path id="Path_887018" data-name="Path 887018" d="M4.692,204.963v7.022H16.4v-7.022h3.3c.757,0,1.435,1.066,1.383,1.809l.008,17.243c-.106,1.149-.32,1.87-1.6,2.018l-17.891.009A1.578,1.578,0,0,1,0,224.656l.007-18.1c.065-.554.612-1.591,1.175-1.591Z" transform="translate(0 -161.351)" fill="#e7c69a"/>
          <path id="Path_887019" data-name="Path 887019" d="M40.075,209.644H37.733l-.121-2.345-2.219,0,0,2.343H33.053v-4.681h6.7a2.135,2.135,0,0,1,.319.319Z" transform="translate(-26.02 -161.351)" fill="#b17845"/>
          <rect id="Rectangle_406816" data-name="Rectangle 406816" width="2.343" height="2.343" transform="translate(11.713 59.995)" fill="#5d3406"/>
          <rect id="Rectangle_406817" data-name="Rectangle 406817" width="2.343" height="2.343" transform="translate(16.394 59.995)" fill="#5d3406"/>
        </g>
      </g>
    </g>
  </g>
</svg>
