<svg xmlns="http://www.w3.org/2000/svg" xmlns:xlink="http://www.w3.org/1999/xlink" width="99" height="99" viewBox="0 0 99 99">
  <defs>
    <clipPath id="clip-path">
      <rect id="Rectangle_401223" data-name="Rectangle 401223" width="99" height="99" transform="translate(0)" fill="#006543"/>
    </clipPath>
    <clipPath id="clip-path-2">
      <rect id="Rectangle_401223-2" data-name="Rectangle 401223" width="88.539" height="88.539" fill="#f3f9ff"/>
    </clipPath>
    <clipPath id="clip-path-3">
      <rect id="Rectangle_406791" data-name="Rectangle 406791" width="66.173" height="66.264" fill="none"/>
    </clipPath>
  </defs>
  <g id="Group_1112233" data-name="Group 1112233" transform="translate(-619.921 -5755.871)">
    <g id="Group_1100724" data-name="Group 1100724" transform="translate(619.921 5755.871)">
      <g id="Group_1099654" data-name="Group 1099654" transform="translate(0 0)">
        <g id="Group_1099652" data-name="Group 1099652" clip-path="url(#clip-path)">
          <path id="Path_873521" data-name="Path 873521" d="M99,77.066A22,22,0,0,1,77.066,99H21.934A22,22,0,0,1,0,77.066V21.933A22,22,0,0,1,21.934,0H77.066A22,22,0,0,1,99,21.934Z" transform="translate(0)" fill="#005865"/>
        </g>
      </g>
      <g id="Group_1099659" data-name="Group 1099659" transform="translate(4.77 5.723)">
        <g id="Group_1099652-2" data-name="Group 1099652" transform="translate(0 0)" clip-path="url(#clip-path-2)">
          <path id="Path_873521-2" data-name="Path 873521" d="M88.539,68.922A19.674,19.674,0,0,1,68.923,88.539H19.616A19.674,19.674,0,0,1,0,68.922V19.616A19.674,19.674,0,0,1,19.616,0H68.923A19.674,19.674,0,0,1,88.539,19.616Z" fill="#f3f9ff"/>
        </g>
      </g>
    </g>
    <g id="Group_1100725" data-name="Group 1100725" transform="translate(636.343 5771.293)">
      <rect id="Rectangle_401104" data-name="Rectangle 401104" width="68" height="69" transform="translate(-0.421 0.438)" fill="none"/>
      <g id="Group_1109455" data-name="Group 1109455" transform="translate(5.81 1.818)">
        <rect id="Rectangle_401104-2" data-name="Rectangle 401104" width="64.023" height="64.964" transform="translate(-2.254 -0.38)" fill="none"/>
        <g id="Group_1112077" data-name="Group 1112077" transform="translate(-6.231 -0.38)">
          <rect id="Rectangle_406787" data-name="Rectangle 406787" width="19.339" height="15.926" transform="translate(37.734 50.243)" fill="#e7c69a"/>
          <g id="Group_1112076" data-name="Group 1112076">
            <g id="Group_1112075" data-name="Group 1112075" clip-path="url(#clip-path-3)">
              <path id="Path_886905" data-name="Path 886905" d="M165.469,0c.657.22-.1,12.177.192,13.652,2.695,0,30.057,0,30.057,0,0,1.514,0,3.036,0,4.55l-.135.379H165.9l-.238-.379.385.132c0,7.524-.385,22.809-.385,22.809l26.35.009H195.8a27.614,27.614,0,0,1-.227,4.255l-6.109-.094A4.421,4.421,0,0,1,187,45.236a4.841,4.841,0,0,1-2.89,0,4.014,4.014,0,0,1-2.731,0,4.762,4.762,0,0,1-2.89,0,2.987,2.987,0,0,1-2.191.065l-10.165.011a.984.984,0,0,1-.468.383c-.39,6.535.092,20.384-.193,20.476Z" transform="translate(-134.097)" fill="#b3b3b3"/>
              <path id="Path_886906" data-name="Path 886906" d="M13.655,40.379c0,1.135,0,2.278,0,3.413l-.169.379H10.635l-.016,1.42,2.786.089.25.387c-.005,1.893,0,3.795,0,5.688H0c.011-3.789-.014-7.587,0-11.376L.182,40H13.425Z" transform="translate(0 -32.416)" fill="#fdeee0"/>
              <path id="Path_886907" data-name="Path 886907" d="M25.351,221.533v19.149a55.776,55.776,0,0,1-6.655.029q-.115-9.627.019-19.178a16.213,16.213,0,0,1,6.636,0" transform="translate(-15.109 -179.254)" fill="#327495"/>
              <path id="Path_886908" data-name="Path 886908" d="M5.9,127c.258.465-.833,1.558-1.327,1.612l.379.175V140.14l-.379.227.34-.149a55.913,55.913,0,0,0,8.287.059l.473.375V145.2c-1.135,0-2.279-.008-3.414,0-2.208.014-4.428.012-6.636,0-.035.169-.1.162-.19,0-1.135-.007-2.279,0-3.414,0V127Z" transform="translate(-0.015 -102.921)" fill="#f3a744"/>
              <path id="Path_886909" data-name="Path 886909" d="M25.351,126.756c1.154-.137,3.725-.151,3.223,1.422.147,0,.374.036.379.129.049.855.134,6.8,0,7.134l-.379.226c.021-.148.07-.361.183-.375a30.215,30.215,0,0,1,4.295.089c.059,0,.108.15.154.337a38.853,38.853,0,0,1,4.469.139v4.551c-1.514,0-3.037-.007-4.551,0a82.67,82.67,0,0,1-8.447.01c-.191-.022-.654-.086-.654-.294V128.367c0-.36.964-1.386,1.327-1.612" transform="translate(-19.469 -102.677)" fill="#e5cb82"/>
              <path id="Path_886910" data-name="Path 886910" d="M210.759,24.56q5.557-.131,11.257-.095.117,4.542-.071,9.006c-3.726,0-7.461.011-11.186,0-.242-2.816.326-6.162,0-8.911" transform="translate(-170.75 -19.82)" fill="#e7c69a"/>
              <path id="Path_886911" data-name="Path 886911" d="M201.11,4.55c-.693-.01-1.393.007-2.086,0V0H214.95V4.55c-.756.007-1.519-.009-2.275,0-3.848.178-7.717.182-11.565,0" transform="translate(-161.29)" fill="#bea37f"/>
              <path id="Path_886912" data-name="Path 886912" d="M89.852,45.033c-.086.666-2.118.646-2.275,0A5.645,5.645,0,0,1,84.45,42a4.6,4.6,0,0,1,7.58-4.736c2.382,2.427,1.176,7.173-2.178,7.771" transform="translate(-68.234 -29.107)" fill="#87cde8"/>
              <path id="Path_886913" data-name="Path 886913" d="M.019,22.55c.006-1.514,0-3.036,0-4.55H13.67c0,1.514-.006,3.036,0,4.55Z" transform="translate(-0.015 -14.587)" fill="#636363"/>
              <path id="Path_886914" data-name="Path 886914" d="M75.869,106.171a1.726,1.726,0,0,1,2.275,0c.378.013.761-.011,1.139,0v7.964q-4.587.121-9.1,0c-.148-.04-.364-.1-.379-.219a36.256,36.256,0,0,1,0-3.869l.379-.273q2.292-.04,4.55-.19c.161-.492-.146-3.274,0-3.414.378-.01.761.014,1.139,0" transform="translate(-56.526 -85.695)" fill="#e5cb82"/>
              <path id="Path_886915" data-name="Path 886915" d="M18.225,126c-.063.192-.082.17-.275.195-1.306.167-2.931-.133-4.276-.005v4.361h9.1l-9.1.19V135.1c1.472.117,3.138-.245,4.55.19l-9.1-.19v-7.489a3.535,3.535,0,0,0-.561-.766c-.853-.912-1.542-.623-2.662-.656-1.953-.058-3.924.042-5.877,0Z" transform="translate(-0.019 -102.111)" fill="#f3a744"/>
              <path id="Path_886916" data-name="Path 886916" d="M25.58,324.514c.756.009,1.519-.007,2.275,0v4.55H18.944l-.019-4.582a56.994,56.994,0,0,1,6.655.032" transform="translate(-15.337 -262.896)" fill="#394d5c"/>
              <path id="Path_886917" data-name="Path 886917" d="M198.519,221.477H168.942c.013-.217-.1-.729.111-.762l10.417,0c.532.105.392.566.564.576.334-.832,2.571-.9,2.844,0,.334-.832,2.572-.9,2.844,0,.334-.832,2.571-.9,2.844,0,.334-.832,2.572-.9,2.844,0,.191-.491.429-.522.944-.57l5.975.189c.091-1.286-.121-2.716,0-3.982-.294-.282.188,2.973.19,4.55" transform="translate(-136.896 -175.784)" fill="#a9bdcd"/>
              <path id="Path_886918" data-name="Path 886918" d="M104.3,84v4.55c-.747-.026-1.528-.026-2.275,0V84a12.718,12.718,0,0,0,2.275,0" transform="translate(-82.681 -68.074)" fill="#ad6328"/>
              <path id="Path_886919" data-name="Path 886919" d="M57.423,60c0,.756,0,1.519,0,2.275l-3.416-.109,0-2.167Z" transform="translate(-43.768 -48.62)" fill="#3b4e5c"/>
              <path id="Path_886920" data-name="Path 886920" d="M18.214,223v19.15h6.637v.19c-2.209-.028-4.428.021-6.637,0v4.551L18.024,223h.19" transform="translate(-14.607 -180.72)" fill="#49809c"/>
              <path id="Path_886921" data-name="Path 886921" d="M221.589,24v9.1h-.19V24.189H210.214c0-.035-.154-.117-.19-.19,3.843.055,7.722.048,11.565,0" transform="translate(-170.204 -19.45)" fill="#d0b1a1"/>
              <path id="Path_886922" data-name="Path 886922" d="M256.063,280.95l-2.658,5.686a16.7,16.7,0,0,0-3.41-1.519,7.693,7.693,0,0,1,.947-2c.424-.267,1.166.486,1.234.484a19.4,19.4,0,0,0,1.8-3.6Z" transform="translate(-202.592 -226.913)" fill="#2bc897"/>
              <rect id="Rectangle_406788" data-name="Rectangle 406788" width="2.277" height="2.277" transform="translate(45.696 60.48)" fill="#fdd582"/>
              <rect id="Rectangle_406789" data-name="Rectangle 406789" width="2.277" height="2.277" transform="translate(41.567 60.48)" fill="#fdd582"/>
              <path id="Path_886923" data-name="Path 886923" d="M208.14,120.19l-.176.379H192.442l-.228-.379c.147.04.362.1.379.219a32.267,32.267,0,0,1,0,3.868l-.379.273.176-.379h15.522l.228.379-2.276.189v13.652c-3.852,0-7.714.016-11.565,0l.191-13.652h-2.466V120Z" transform="translate(-155.617 -97.249)" fill="#e7c69a"/>
              <path id="Path_886924" data-name="Path 886924" d="M232.077,34.836l-2.657,5.685L226.011,39a10.813,10.813,0,0,1,.94-2c.373-.267,1.068.573,1.339.408.4-.245,1.277-2.978,1.7-3.248.512-.328,1.477.671,2.087.677" transform="translate(-183.157 -27.629)" fill="#2bc897"/>
              <rect id="Rectangle_406790" data-name="Rectangle 406790" width="17.443" height="4.776" transform="translate(35.838 22.733)" fill="#b18b79"/>
              <path id="Path_886925" data-name="Path 886925" d="M223.505,166.529a11.037,11.037,0,0,1-3.378-1.6,13.435,13.435,0,0,0,.932-1.995c.077-.06.835.525,1.075.545.661.057,1.545-3.427,2.2-3.366a8.491,8.491,0,0,1,1.817,1.016Z" transform="translate(-178.392 -129.76)" fill="#2bc897"/>
              <path id="Path_886926" data-name="Path 886926" d="M324.806,0h4.55V66.169h-4.55q-.007-10.233,0-20.476c-.113-1.58,0-41.145,0-45.692" transform="translate(-263.183)" fill="#a29fa5"/>
              <path id="Path_886927" data-name="Path 886927" d="M148.574,0c.155,4.375.113,59.267,0,66.169-.9.3-3.445-.221-4.55,0V0Z" transform="translate(-116.718)" fill="#a29fa5"/>
            </g>
          </g>
        </g>
      </g>
    </g>
  </g>
</svg>
