<svg xmlns="http://www.w3.org/2000/svg" xmlns:xlink="http://www.w3.org/1999/xlink" width="99" height="99" viewBox="0 0 99 99">
  <defs>
    <clipPath id="clip-path">
      <rect id="Rectangle_401223" data-name="Rectangle 401223" width="99" height="99" transform="translate(0)" fill="#844804"/>
    </clipPath>
    <clipPath id="clip-path-2">
      <rect id="Rectangle_401223-2" data-name="Rectangle 401223" width="88.539" height="88.539" fill="#f3f9ff"/>
    </clipPath>
    <clipPath id="clip-path-3">
      <rect id="Rectangle_406793" data-name="Rectangle 406793" width="53.421" height="69" fill="none"/>
    </clipPath>
  </defs>
  <g id="Group_1112235" data-name="Group 1112235" transform="translate(-619.921 -5755.871)">
    <g id="Group_1100724" data-name="Group 1100724" transform="translate(619.921 5755.871)">
      <g id="Group_1099654" data-name="Group 1099654" transform="translate(0 0)">
        <g id="Group_1099652" data-name="Group 1099652" clip-path="url(#clip-path)">
          <path id="Path_873521" data-name="Path 873521" d="M99,77.066A22,22,0,0,1,77.066,99H21.934A22,22,0,0,1,0,77.066V21.933A22,22,0,0,1,21.934,0H77.066A22,22,0,0,1,99,21.934Z" transform="translate(0)" fill="#005865"/>
        </g>
      </g>
      <g id="Group_1099659" data-name="Group 1099659" transform="translate(4.77 5.723)">
        <g id="Group_1099652-2" data-name="Group 1099652" transform="translate(0 0)" clip-path="url(#clip-path-2)">
          <path id="Path_873521-2" data-name="Path 873521" d="M88.539,68.922A19.674,19.674,0,0,1,68.923,88.539H19.616A19.674,19.674,0,0,1,0,68.922V19.616A19.674,19.674,0,0,1,19.616,0H68.923A19.674,19.674,0,0,1,88.539,19.616Z" fill="#f3f9ff"/>
        </g>
      </g>
    </g>
    <g id="Group_1100725" data-name="Group 1100725" transform="translate(636.343 5771.293)">
      <rect id="Rectangle_401104" data-name="Rectangle 401104" width="68" height="69" transform="translate(-0.421 0.438)" fill="none"/>
      <g id="Group_1112081" data-name="Group 1112081" transform="translate(6.579 0.438)">
        <g id="Group_1112080" data-name="Group 1112080" clip-path="url(#clip-path-3)">
          <path id="Path_886981" data-name="Path 886981" d="M16.644,32.139l.383.515v3.452l-.384.515-.531.448q-3.136.013-6.272-.15c-.914-.177-3.753.17-3.759,1.329l-.066,38.5c-.008,1.842-.19,3.678-.374,5.508l.407.272-.1,3.981c-.164,1.128.253,3.058,1.68,3.072q19.38.194,38.77-.2c.3-.007,1.148-.99,1.024-1.406L47.4,38.417c-.438-1.363-1.563-1.54-2.823-1.476l-3.229.084-.258-.405a7.767,7.767,0,0,1-4.278,0,5.93,5.93,0,0,1,0-4.482c3.652.326,8.1-.462,11.661.053a4.516,4.516,0,0,1,3.732,3.195,30.461,30.461,0,0,1,.3,3.569c.17,3.682-.1,7.516-.017,11.222.245,11.362.676,22.835.832,34.21.058,4.2,1.016,9.58-4.6,10.09l-43.6.013C2.828,94.531.4,92.911.142,90.508-.41,85.4.868,79.424.338,74.2c.209-8.057.454-16.174.628-24.227.1-4.451-.474-10.16.244-14.424a4.506,4.506,0,0,1,3.773-3.357c3.557-.515,8.009.273,11.661-.053" transform="translate(0 -25.49)" fill="#4fa0ca"/>
          <path id="Path_886982" data-name="Path 886982" d="M97.047,20.526l-.981.29c-4.912.188-9.895.226-14.822.1-1.24-.031-2.021-1.9-1.106-2.632-.074-1.376-.076-3.107,0-4.482.2-3.686,3.032-1.8,5.705-2.24a3.252,3.252,0,0,1,.61-2.242c1.272-.966,3.387.353,4.346,1.431A3.711,3.711,0,0,0,93.3,13.4a6.736,6.736,0,0,1,3.729.482c.7.608.5,5.2.388,6.284Z" transform="translate(-63.493 -7.155)" fill="#b0c0d2"/>
          <path id="Path_886983" data-name="Path 886983" d="M112.7,2.167c2.171-3.862,8.33-2.22,8.148,2.242.169.178,4.045-.189,4.9.089.979.317.767,1.377.8,2.151.065,1.408.065,3.074,0,4.482.752.391.225,1.97-.37,2.4-.475.346-2.641.515-2.89-.163-.215-1.223.368-5.443-.189-6.229-.685-.965-3.28-.178-4.445-.648-.957-.387-1.188-1.6-1.715-2.359A4.943,4.943,0,0,0,112.7,2.167" transform="translate(-89.737 0)" fill="#636363"/>
          <path id="Path_886984" data-name="Path 886984" d="M38.526,54.2c.051.96-.084,2.071,1.134,2.227,5.254-.063,10.526.132,15.776.014,2.477-.056,3.131.559,3.26-2.241h4.278a.639.639,0,0,1,.271.016c.416.14.2,7.745.136,8.709l-.407.239a26.344,26.344,0,0,1-9.983,0c.16.018.4.072.407.188a71.784,71.784,0,0,1,0,9.552l-.407.243a28.373,28.373,0,0,1,9.983,0c.157,0,.4.035.407.137a49.46,49.46,0,0,1,0,7.365l-.407.239a26.348,26.348,0,0,1-9.983,0c.16.018.4.072.407.188a71.784,71.784,0,0,1,0,9.552l-.407.243a26.348,26.348,0,0,1,9.983,0l.408.281c.149,1.445.351,6.465-.188,7.585a2.92,2.92,0,0,1-1.909,1.4l-33.508.109-.252-.407c-.125-14.682.058-29.38.043-44.065a2.342,2.342,0,0,1,1.911-1.552c2.739-.387,6.226.249,9.047-.019" transform="translate(-21.882 -43.073)" fill="#e1feff"/>
          <path id="Path_886985" data-name="Path 886985" d="M27.288,99.93l33.465-.049a2.413,2.413,0,0,0,1.941-1.522c.361-1.61.03-5.5.043-7.393a1.706,1.706,0,0,1,2.241,0c-.161-.018-.4-.075-.407-.188-.051-1.183-.292-9.174,0-9.552l.407-.243a1.706,1.706,0,0,1-2.241,0V73.241q1.1-.092,2.241-.2l-.407-.188V63.632a2.182,2.182,0,0,1-1.835-.373V54.294a33.3,33.3,0,0,1,5.152.043,2.522,2.522,0,0,1,1.559,1.7l.021,49.5a2.018,2.018,0,0,1-1.354,1.905c-12.9.511-25.932.095-38.879.211a2.556,2.556,0,0,1-1.905-1.558c-.312-1.392-.029-4.547-.043-6.171" transform="translate(-21.646 -43.164)" fill="#b8fafd"/>
          <path id="Path_886986" data-name="Path 886986" d="M104.5,38.7l9.527-.038c1.534.509.947,2.01-.414,2.224a57.528,57.528,0,0,1-8.534,0c-1.239-.2-1.943-1.535-.58-2.186" transform="translate(-82.622 -30.783)" fill="#636363"/>
          <path id="Path_886987" data-name="Path 886987" d="M162.68,98.575a3.085,3.085,0,0,1,0,2.648l-.4.2c-.743-.485-1.534.123-2.115.576a6,6,0,0,1-3.071,1.945c-3.574-2.346-.637,3.732,1.427,1.226l3.53-2.833c.2-.149.431-.042.628.105a16.954,16.954,0,0,1,.334,5.5q1.385-.249,1.907.407c-.537.375-1.537.2-2.241.2-3.324.016-6.659-.012-9.983,0V98.575c3.323.035,6.66-.047,9.983,0" transform="translate(-121.588 -78.481)" fill="#e5cb82"/>
          <path id="Path_886988" data-name="Path 886988" d="M162.68,185.574a3.072,3.072,0,0,1,0,2.648l-1.589.134a35.813,35.813,0,0,1-3.585,2.681c-4.071-2.291-1.275,3.682,1.079,1.125l3.554-2.858.541.14a11.205,11.205,0,0,1,0,6.112c-3.323.048-6.66-.035-9.983,0v-9.983c3.323.035,6.66-.048,9.983,0" transform="translate(-121.588 -147.755)" fill="#e5cb82"/>
          <path id="Path_886989" data-name="Path 886989" d="M44.8,92.663l15.647-.047a1.126,1.126,0,1,1,0,2.248l-15.687-.008a1.117,1.117,0,0,1,.04-2.193" transform="translate(-34.94 -73.747)" fill="#39548b"/>
          <path id="Path_886990" data-name="Path 886990" d="M44.426,181.138c-1.01-.281-1.059-1.979.631-2.221,4.453-.64,10.262.445,14.863-.029,2.3.208,1.5,2.251,1.009,2.251Z" transform="translate(-34.811 -142.3)" fill="#39548b"/>
          <path id="Path_886991" data-name="Path 886991" d="M44.8,201.176c2.768.217,6.455-.449,9.111-.031a1.124,1.124,0,0,1,.212,2.224H44.764a1.117,1.117,0,0,1,.04-2.193" transform="translate(-34.941 -160.053)" fill="#39548b"/>
          <path id="Path_886992" data-name="Path 886992" d="M44.767,114.177c2.77.217,6.453-.448,9.111-.031a1.108,1.108,0,0,1,0,2.215,60.408,60.408,0,0,1-8.938,0,1.1,1.1,0,0,1-.173-2.185" transform="translate(-34.905 -90.779)" fill="#39548b"/>
          <path id="Path_886993" data-name="Path 886993" d="M44.8,223.368a36.719,36.719,0,0,1,6.023,0,1.131,1.131,0,0,1,.3,2.046,33.8,33.8,0,0,1-6.326.106,1.089,1.089,0,0,1,0-2.154" transform="translate(-34.933 -177.763)" fill="#39548b"/>
          <path id="Path_886994" data-name="Path 886994" d="M44.579,136.634H51.1c.468,0,.966,1.615-.155,2.086a28.709,28.709,0,0,1-6.275.065c-1.06-.347-.934-1.569-.09-2.151" transform="translate(-34.964 -108.798)" fill="#39548b"/>
          <path id="Path_886995" data-name="Path 886995" d="M109.881,114.446c.433-.434,4.807-.937,3.991,1.446-.241.7-2.862.68-3.488.5a1.273,1.273,0,0,1-.5-1.946" transform="translate(-87.28 -90.839)" fill="#39548b"/>
          <path id="Path_886996" data-name="Path 886996" d="M110.312,201.363c1.071-.307,4.573-.154,3.422,1.793-.345.584-3.351.547-3.857.186a1.215,1.215,0,0,1,.435-1.979" transform="translate(-87.208 -160.242)" fill="#39548b"/>
          <path id="Path_886997" data-name="Path 886997" d="M199.948,185.626c.744.011,1.5-.008,2.241,0v9.983c-.745.008-1.5-.011-2.241,0,.013-2.034,0-4.078,0-6.112-.612.074-.581-1.114,0-1.222Z" transform="translate(-158.856 -147.807)" fill="#f3a744"/>
          <path id="Path_886998" data-name="Path 886998" d="M200.529,98.624c.745.011,1.5-.008,2.242,0v9.78h-2.242c0-1.967.007-3.942,0-5.909a.774.774,0,0,1,0-1.222c0-.881,0-1.768,0-2.648" transform="translate(-159.437 -78.53)" fill="#f3a744"/>
          <path id="Path_886999" data-name="Path 886999" d="M186,273.779a1.331,1.331,0,0,1-.221-1.022c.313-1.676,3.476-.5,4.2-1.219.815-.815-.708-4.432,1.567-4.026,1.242.222,1.042,2.567.908,3.547a3.536,3.536,0,0,1-2.542,2.959c-.621.1-3.556.113-3.91-.239" transform="translate(-147.915 -212.986)" fill="#e8effc"/>
          <path id="Path_887000" data-name="Path 887000" d="M153.475,290.749a1.612,1.612,0,0,1-.685-1.281c.281-1.1,2.406-1.068,3.285-.911a1.208,1.208,0,0,1,.66,2.193,23.559,23.559,0,0,1-3.26,0" transform="translate(-121.653 -229.704)" fill="#e7eefc"/>
          <path id="Path_887001" data-name="Path 887001" d="M171.4,110.106c0,.407,0,.815,0,1.222-1.215.575-4.195,3.629-5.243,3.842-.672.136-2.451-1.624-2.5-2.117a1.2,1.2,0,0,1,1.439-1.233c.395.11.719.73,1.021.651,1.432-.374,3.52-3.918,5.287-2.366" transform="translate(-130.305 -87.363)" fill="#2bc897"/>
          <path id="Path_887002" data-name="Path 887002" d="M171.637,196.966v1.222c-1.171.648-4.154,3.639-5.243,3.84-1.058.195-3.3-1.951-2.108-2.94,1.125-.933,1.8.366,2.127.308.569-.1,2.916-2.573,3.747-2.79a1.449,1.449,0,0,1,1.477.36" transform="translate(-130.545 -156.498)" fill="#2bc897"/>
        </g>
      </g>
    </g>
  </g>
</svg>
