<svg xmlns="http://www.w3.org/2000/svg" xmlns:xlink="http://www.w3.org/1999/xlink" width="100.499" height="150" viewBox="0 0 100.499 150">
  <defs>
    <clipPath id="clip-path">
      <rect id="Rectangle_403416" data-name="Rectangle 403416" width="71.683" height="58.902" fill="#59c4c8"/>
    </clipPath>
    <clipPath id="clip-path-2">
      <path id="Path_875268" data-name="Path 875268" d="M1.1,22.912,0,23.293v7.9a5.187,5.187,0,0,0,2.421,4.17L29.988,55.009a10.8,10.8,0,0,0,11.707,0L69.263,35.37a5.21,5.21,0,0,0,2.42-4.1c0-.066,0-.132,0-.2h0V23.367l-1.728-1.185C69.468,25.819,66,28.217,63.1,28.715L43.345,42.969l-8.621,3.841L7.207,29.288l.636-.453c-2.351-1.356-3.618-4.456-4.89-7.285Z" transform="translate(0 -21.549)" fill="#61dfe4"/>
    </clipPath>
    <clipPath id="clip-path-3">
      <rect id="Rectangle_403409" data-name="Rectangle 403409" width="71.683" height="58.902" fill="none"/>
    </clipPath>
    <clipPath id="clip-path-4">
      <rect id="Rectangle_403408" data-name="Rectangle 403408" width="35.842" height="34.45" fill="none"/>
    </clipPath>
    <clipPath id="clip-path-5">
      <path id="Path_875270" data-name="Path 875270" d="M26.3,6.628,3.311,23.549c1.272,2.829,2.539,5.929,4.89,7.285L34.324,12.221a3.459,3.459,0,0,1,3.749,0L63.74,30.508l-.285.207c2.9-.5,6.37-2.9,6.858-6.533L41.508,4.411,33.126,1.678Z" transform="translate(-3.311 -1.678)" fill="#61dfe4"/>
    </clipPath>
    <clipPath id="clip-path-7">
      <rect id="Rectangle_403411" data-name="Rectangle 403411" width="32.888" height="29.156" fill="none"/>
    </clipPath>
    <clipPath id="clip-path-8">
      <path id="Path_875272" data-name="Path 875272" d="M33.967,46.513,6.4,26.872a1.539,1.539,0,0,1,0-2.672L33.966,4.56a3.457,3.457,0,0,1,3.749,0L65.283,24.2a1.538,1.538,0,0,1,0,2.671L37.716,46.512a3.458,3.458,0,0,1-3.749,0M35.736,0a10.166,10.166,0,0,0-5.749,1.725L2.421,21.365c-3.227,2.3-3.227,6.041,0,8.341L29.989,49.347a10.793,10.793,0,0,0,11.707,0L69.263,29.706c3.227-2.3,3.227-6.041,0-8.341L41.695,1.725A10.166,10.166,0,0,0,35.946,0Z" transform="translate(-0.001)" fill="#98baff"/>
    </clipPath>
    <clipPath id="clip-path-10">
      <path id="Path_875275" data-name="Path 875275" d="M33.322,46.995,5.755,27.355a2.178,2.178,0,0,1,0-3.782L33.321,3.934a4.894,4.894,0,0,1,5.307,0L66.195,23.574a2.177,2.177,0,0,1,0,3.781L38.628,46.995a4.894,4.894,0,0,1-5.306,0M30.9,2.208,3.333,21.847c-2.8,1.994-2.8,5.239,0,7.232L30.9,48.722a9.367,9.367,0,0,0,10.151,0L68.617,29.08c2.8-1.992,2.8-5.237,0-7.231L41.049,2.208a9.359,9.359,0,0,0-10.151,0" transform="translate(-1.234 -0.712)" fill="#98baff"/>
    </clipPath>
    <clipPath id="clip-path-11">
      <rect id="Rectangle_403518" data-name="Rectangle 403518" width="60.873" height="61.12" fill="#fff"/>
    </clipPath>
    <clipPath id="clip-path-12">
      <rect id="Rectangle_403232" data-name="Rectangle 403232" width="72.996" height="50.71" fill="#61dfe4"/>
    </clipPath>
    <clipPath id="clip-path-13">
      <rect id="Rectangle_406761" data-name="Rectangle 406761" width="27.767" height="37.678" fill="#0c2d70"/>
    </clipPath>
  </defs>
  <g id="Group_1113372" data-name="Group 1113372" transform="translate(-600 -4787.348)">
    <rect id="Rectangle_404550" data-name="Rectangle 404550" width="85" height="150" transform="translate(600 4787.348)" fill="#b8fafd"/>
    <g id="Group_1113228" data-name="Group 1113228">
      <g id="Group_1108970" data-name="Group 1108970" transform="translate(628.258 4825.848)">
        <g id="Group_1100744" data-name="Group 1100744" transform="translate(0.004 14.098)">
          <g id="Group_1100514" data-name="Group 1100514" clip-path="url(#clip-path)">
            <g id="Group_1100495" data-name="Group 1100495" transform="translate(0 23.717)">
              <g id="Group_1100494" data-name="Group 1100494" clip-path="url(#clip-path-2)">
                <path id="Path_875399" data-name="Path 875399" d="M0,0,71.633-6.175l-7.76,81.049L-7.76,81.049Z" transform="translate(-12.548 26.819) rotate(-60)" fill="#61dfe4"/>
              </g>
            </g>
            <g id="Group_1100500" data-name="Group 1100500" transform="translate(0 0)">
              <g id="Group_1100499" data-name="Group 1100499" clip-path="url(#clip-path-3)">
                <g id="Group_1100498" data-name="Group 1100498" transform="translate(35.841 24.452)" opacity="0.3">
                  <g id="Group_1100497" data-name="Group 1100497">
                    <g id="Group_1100496" data-name="Group 1100496" clip-path="url(#clip-path-4)">
                      <path id="Path_875269" data-name="Path 875269" d="M67.442,28.647,47.689,42.9l-7.5,3.344V56.667a10.2,10.2,0,0,0,5.854-1.725L73.606,35.3a5.208,5.208,0,0,0,2.42-4.1c0-.066,0-.133,0-.2l0,0V23.3l-1.58-1.084h-.165c-.539,3.58-3.968,5.937-6.841,6.431" transform="translate(-40.185 -22.217)" fill="#0f054c"/>
                    </g>
                  </g>
                </g>
              </g>
            </g>
            <g id="Group_1100502" data-name="Group 1100502" transform="translate(2.953 1.847)">
              <g id="Group_1100501" data-name="Group 1100501" clip-path="url(#clip-path-5)">
                <path id="Path_875400" data-name="Path 875400" d="M0,0,63.434-5.469,56.357,68.457-7.078,73.925Z" transform="matrix(0.5, -0.866, 0.866, 0.5, -10.231, 21.867)" fill="#61dfe4"/>
              </g>
            </g>
            <g id="Group_1100507" data-name="Group 1100507" transform="translate(0 0)">
              <g id="Group_1100506" data-name="Group 1100506" clip-path="url(#clip-path-3)">
                <g id="Group_1100505" data-name="Group 1100505" transform="translate(2.953 1.847)" opacity="0.3">
                  <g id="Group_1100504" data-name="Group 1100504">
                    <g id="Group_1100503" data-name="Group 1100503" clip-path="url(#clip-path-7)">
                      <path id="Path_875271" data-name="Path 875271" d="M36.2,2.68l-3.073-1L26.3,6.628,3.311,23.548c1.272,2.829,2.538,5.93,4.89,7.286L34.324,12.221A3.27,3.27,0,0,1,36.2,11.67Z" transform="translate(-3.311 -1.678)" fill="#0f054c"/>
                    </g>
                  </g>
                </g>
              </g>
            </g>
            <g id="Group_1100509" data-name="Group 1100509" transform="translate(0)">
              <g id="Group_1100508" data-name="Group 1100508" clip-path="url(#clip-path-8)">
                <rect id="Rectangle_403413" data-name="Rectangle 403413" width="73.296" height="51.647" transform="translate(-0.807 0)" fill="#98baff"/>
              </g>
            </g>
            <g id="Group_1100511" data-name="Group 1100511" transform="translate(0 0)">
              <g id="Group_1100510" data-name="Group 1100510" clip-path="url(#clip-path-3)">
                <path id="Path_875273" data-name="Path 875273" d="M65.965,23.834,38.4,4.193a3.457,3.457,0,0,0-3.749,0L7.082,23.833A1.547,1.547,0,0,0,6.4,25.649a1.843,1.843,0,0,1,.686-.855L34.649,5.153a3.457,3.457,0,0,1,3.749,0L65.965,24.794a1.846,1.846,0,0,1,.686.856,1.546,1.546,0,0,0-.686-1.816" transform="translate(-0.682 0.367)" fill="#fff"/>
                <path id="Path_875274" data-name="Path 875274" d="M69.263,27.329,41.7,46.968a10.793,10.793,0,0,1-11.707,0L2.422,27.327A5.344,5.344,0,0,1,.03,23.637a5.047,5.047,0,0,0,2.392,4.651L29.989,47.929a10.8,10.8,0,0,0,11.707,0L69.263,28.288a5.045,5.045,0,0,0,2.391-4.65,5.344,5.344,0,0,1-2.391,3.69" transform="translate(0 2.379)" fill="#fff"/>
              </g>
            </g>
            <g id="Group_1100513" data-name="Group 1100513" transform="translate(1.1 0.784)">
              <g id="Group_1100512" data-name="Group 1100512" clip-path="url(#clip-path-10)">
                <rect id="Rectangle_403415" data-name="Rectangle 403415" width="70.881" height="50.002" transform="translate(-0.7 0)" fill="#98baff"/>
              </g>
            </g>
          </g>
        </g>
        <g id="Group_1100749" data-name="Group 1100749" transform="translate(5.307)">
          <g id="Group_1100748" data-name="Group 1100748" clip-path="url(#clip-path-11)">
            <path id="Path_875398" data-name="Path 875398" d="M6.247,0H54.48A6.338,6.338,0,0,1,60.8,6.356l.14,34.756-26.7,18.94a7.554,7.554,0,0,1-7.744,0L-.145,41.219-.072,6.356A6.338,6.338,0,0,1,6.247,0" transform="translate(0.074 0)" fill="#fff"/>
          </g>
        </g>
        <g id="Group_1100745" data-name="Group 1100745" transform="translate(-0.755 6.578)">
          <g id="Group_1100096" data-name="Group 1100096" transform="translate(0 0)" clip-path="url(#clip-path-12)">
            <path id="Path_873771" data-name="Path 873771" d="M36.5,50.711a9.642,9.642,0,0,1-5.42-1.551L2.316,29.276A4.816,4.816,0,0,1,0,25.354a4.813,4.813,0,0,1,2.316-3.921L31.077,1.55a10.26,10.26,0,0,1,10.843,0L70.681,21.434A4.813,4.813,0,0,1,73,25.355a4.816,4.816,0,0,1-2.316,3.922L41.92,49.16A9.645,9.645,0,0,1,36.5,50.711M36.5.595a9.2,9.2,0,0,0-5.169,1.477L2.568,21.955A4.223,4.223,0,0,0,.5,25.354a4.22,4.22,0,0,0,2.064,3.4L31.331,48.638a9.785,9.785,0,0,0,10.337,0L70.429,28.755a4.22,4.22,0,0,0,2.064-3.4,4.22,4.22,0,0,0-2.064-3.4L41.667,2.072A9.2,9.2,0,0,0,36.5.595" transform="translate(0 -0.001)" fill="#61dfe4"/>
          </g>
        </g>
        <rect id="Rectangle_403516" data-name="Rectangle 403516" width="60.873" height="30.446" transform="translate(5.307 4.578)" fill="#fff"/>
      </g>
      <g id="Group_1108974" data-name="Group 1108974" transform="translate(645.17 4831.094)">
        <g id="Group_1099618" data-name="Group 1099618" transform="translate(0 0)">
          <rect id="Rectangle_401104" data-name="Rectangle 401104" width="37.658" height="38.112" transform="translate(0)" fill="none"/>
        </g>
        <g id="Group_1112007" data-name="Group 1112007" transform="translate(4.946 -0.624)">
          <g id="Group_1112006" data-name="Group 1112006" clip-path="url(#clip-path-13)">
            <path id="Path_886760" data-name="Path 886760" d="M1.6,0,20.341,0c2.51,2.165,4.758,4.684,7.144,7.005l.227.421.055,28.036c-.078.988-.384,1.86-1.428,2.136L1.89,37.678C.627,37.565.1,36.764,0,35.572V2.081A2.023,2.023,0,0,1,1.6,0m17.958,1.27H1.678a1.235,1.235,0,0,0-.3.352L1.295,35.573l.329.751,24.254.059c.213.076.589-.36.589-.491V8.187H21.228c-.539,0-1.674-.915-1.674-1.458Zm5.941,5.617L20.85,2.246V6.513a.63.63,0,0,0,.378.378Z" transform="translate(0 -0.001)" fill="#0c2d70"/>
            <path id="Path_886761" data-name="Path 886761" d="M43.519,278.913l14.326-.016a2.538,2.538,0,0,1,0,5.053H43.611a2.534,2.534,0,0,1-.092-5.037m0,1.293a1.252,1.252,0,0,0,.189,2.462H57.751a1.25,1.25,0,0,0,0-2.489Z" transform="translate(-36.845 -248.773)" fill="#0c2d70"/>
            <path id="Path_886762" data-name="Path 886762" d="M46.619,197.977c.2-.119.448-1.034,1.165-.524.618.44-.023.916-.045,1.159a6.458,6.458,0,0,1,.416,1.063,23.649,23.649,0,0,1,0,3.567,2.012,2.012,0,0,1-1.19,1.51,16.047,16.047,0,0,1-5.165-.021,1.6,1.6,0,0,1-.963-.873,12.688,12.688,0,0,1-.246-4.076,2.045,2.045,0,0,1,1.466-1.775c.775-.12,4.245.154,4.561-.03m-1.058,1.212H42.375c-.27,0-.459.455-.488.7a20.8,20.8,0,0,0,0,3.14.612.612,0,0,0,.594.594,34.97,34.97,0,0,0,4.054-.062,1.87,1.87,0,0,0,.326-.322v-3.51c-.578.384-1.778,2.5-2.327,2.593-.521.091-1.358-.742-1.351-1.239.014-1.085,1.147-.313,1.289-.4Z" transform="translate(-36.16 -175.989)" fill="#0c2d70"/>
            <path id="Path_886763" data-name="Path 886763" d="M35.933,86.767l18.993-.028c.87.18.858,1.134,0,1.307h-18.8c-.751-.163-.9-.893-.188-1.279" transform="translate(-31.641 -77.37)" fill="#0c2d70"/>
            <path id="Path_886764" data-name="Path 886764" d="M36.111,144.793l18.773-.026a.7.7,0,0,1,.59,1.135l-.483.165h-18.8l-.483-.165a.684.684,0,0,1,.4-1.11" transform="translate(-31.709 -129.131)" fill="#0c2d70"/>
            <path id="Path_886765" data-name="Path 886765" d="M55.5,116.93a.957.957,0,0,1-.562.14l-19.1-.1a.69.69,0,0,1,.519-1.2l18.931.084a.677.677,0,0,1,.216,1.079" transform="translate(-31.764 -103.263)" fill="#0c2d70"/>
            <path id="Path_886766" data-name="Path 886766" d="M36.207,173.774l18.448-.03c.7-.022,1.255.483.8,1.137l-.483.165h-18.8l-.483-.165a.671.671,0,0,1,.51-1.107" transform="translate(-31.695 -154.977)" fill="#0c2d70"/>
            <path id="Path_886767" data-name="Path 886767" d="M123.078,240.286c-.192-.193-.219-.855.082-1l10.217.044a.679.679,0,0,1,.043.927l-.483.165c-3.008-.195-6.325.253-9.3,0-.167-.014-.445-.019-.564-.138" transform="translate(-109.655 -213.44)" fill="#0c2d70"/>
            <path id="Path_886768" data-name="Path 886768" d="M35.908,40.828l5.486-.018a.608.608,0,0,1,0,1.184H36a.634.634,0,0,1-.09-1.165" transform="translate(-31.725 -36.402)" fill="#0c2d70"/>
            <path id="Path_886769" data-name="Path 886769" d="M126.366,215.566a10.991,10.991,0,0,1-3.028.113.638.638,0,0,1,.091-1.267,16.447,16.447,0,0,1,2.583,0,.7.7,0,0,1,.353,1.157" transform="translate(-109.54 -191.206)" fill="#0c2d70"/>
          </g>
        </g>
      </g>
    </g>
  </g>
</svg>
