<svg xmlns="http://www.w3.org/2000/svg" xmlns:xlink="http://www.w3.org/1999/xlink" width="100.499" height="150" viewBox="0 0 100.499 150">
  <defs>
    <clipPath id="clip-path">
      <rect id="Rectangle_403416" data-name="Rectangle 403416" width="71.683" height="58.902" fill="#59c4c8"/>
    </clipPath>
    <clipPath id="clip-path-2">
      <path id="Path_875268" data-name="Path 875268" d="M1.1,22.912,0,23.293v7.9a5.187,5.187,0,0,0,2.421,4.17L29.988,55.009a10.8,10.8,0,0,0,11.707,0L69.263,35.37a5.21,5.21,0,0,0,2.42-4.1c0-.066,0-.132,0-.2h0V23.367l-1.728-1.185C69.468,25.819,66,28.217,63.1,28.715L43.345,42.969l-8.621,3.841L7.207,29.288l.636-.453c-2.351-1.356-3.618-4.456-4.89-7.285Z" transform="translate(0 -21.549)" fill="#61dfe4"/>
    </clipPath>
    <clipPath id="clip-path-3">
      <rect id="Rectangle_403409" data-name="Rectangle 403409" width="71.683" height="58.902" fill="none"/>
    </clipPath>
    <clipPath id="clip-path-4">
      <rect id="Rectangle_403408" data-name="Rectangle 403408" width="35.842" height="34.45" fill="none"/>
    </clipPath>
    <clipPath id="clip-path-5">
      <path id="Path_875270" data-name="Path 875270" d="M26.3,6.628,3.311,23.549c1.272,2.829,2.539,5.929,4.89,7.285L34.324,12.221a3.459,3.459,0,0,1,3.749,0L63.74,30.508l-.285.207c2.9-.5,6.37-2.9,6.858-6.533L41.508,4.411,33.126,1.678Z" transform="translate(-3.311 -1.678)" fill="#61dfe4"/>
    </clipPath>
    <clipPath id="clip-path-7">
      <rect id="Rectangle_403411" data-name="Rectangle 403411" width="32.888" height="29.156" fill="none"/>
    </clipPath>
    <clipPath id="clip-path-8">
      <path id="Path_875272" data-name="Path 875272" d="M33.967,46.513,6.4,26.872a1.539,1.539,0,0,1,0-2.672L33.966,4.56a3.457,3.457,0,0,1,3.749,0L65.283,24.2a1.538,1.538,0,0,1,0,2.671L37.716,46.512a3.458,3.458,0,0,1-3.749,0M35.736,0a10.166,10.166,0,0,0-5.749,1.725L2.421,21.365c-3.227,2.3-3.227,6.041,0,8.341L29.989,49.347a10.793,10.793,0,0,0,11.707,0L69.263,29.706c3.227-2.3,3.227-6.041,0-8.341L41.695,1.725A10.166,10.166,0,0,0,35.946,0Z" transform="translate(-0.001)" fill="#98baff"/>
    </clipPath>
    <clipPath id="clip-path-10">
      <path id="Path_875275" data-name="Path 875275" d="M33.322,46.995,5.755,27.355a2.178,2.178,0,0,1,0-3.782L33.321,3.934a4.894,4.894,0,0,1,5.307,0L66.195,23.574a2.177,2.177,0,0,1,0,3.781L38.628,46.995a4.894,4.894,0,0,1-5.306,0M30.9,2.208,3.333,21.847c-2.8,1.994-2.8,5.239,0,7.232L30.9,48.722a9.367,9.367,0,0,0,10.151,0L68.617,29.08c2.8-1.992,2.8-5.237,0-7.231L41.049,2.208a9.359,9.359,0,0,0-10.151,0" transform="translate(-1.234 -0.712)" fill="#98baff"/>
    </clipPath>
    <clipPath id="clip-path-11">
      <rect id="Rectangle_403518" data-name="Rectangle 403518" width="60.873" height="61.12" fill="#fff"/>
    </clipPath>
    <clipPath id="clip-path-12">
      <rect id="Rectangle_403232" data-name="Rectangle 403232" width="72.996" height="50.71" fill="#61dfe4"/>
    </clipPath>
    <clipPath id="clip-path-13">
      <rect id="Rectangle_406762" data-name="Rectangle 406762" width="34.141" height="33.779" transform="translate(0 0)" fill="#0c2d70"/>
    </clipPath>
  </defs>
  <g id="Group_1113373" data-name="Group 1113373" transform="translate(-1020 -4787.348)">
    <rect id="Rectangle_406754" data-name="Rectangle 406754" width="85" height="150" transform="translate(1020 4787.348)" fill="#b8fafd"/>
    <g id="Group_1113230" data-name="Group 1113230">
      <g id="Group_1111988" data-name="Group 1111988" transform="translate(1048.258 4825.848)">
        <g id="Group_1100744" data-name="Group 1100744" transform="translate(0.004 14.098)">
          <g id="Group_1100514" data-name="Group 1100514" clip-path="url(#clip-path)">
            <g id="Group_1100495" data-name="Group 1100495" transform="translate(0 23.717)">
              <g id="Group_1100494" data-name="Group 1100494" clip-path="url(#clip-path-2)">
                <path id="Path_875399" data-name="Path 875399" d="M0,0,71.633-6.175l-7.76,81.049L-7.76,81.049Z" transform="translate(-12.548 26.819) rotate(-60)" fill="#61dfe4"/>
              </g>
            </g>
            <g id="Group_1100500" data-name="Group 1100500" transform="translate(0 0)">
              <g id="Group_1100499" data-name="Group 1100499" clip-path="url(#clip-path-3)">
                <g id="Group_1100498" data-name="Group 1100498" transform="translate(35.841 24.452)" opacity="0.3">
                  <g id="Group_1100497" data-name="Group 1100497">
                    <g id="Group_1100496" data-name="Group 1100496" clip-path="url(#clip-path-4)">
                      <path id="Path_875269" data-name="Path 875269" d="M67.442,28.647,47.689,42.9l-7.5,3.344V56.667a10.2,10.2,0,0,0,5.854-1.725L73.606,35.3a5.208,5.208,0,0,0,2.42-4.1c0-.066,0-.133,0-.2l0,0V23.3l-1.58-1.084h-.165c-.539,3.58-3.968,5.937-6.841,6.431" transform="translate(-40.185 -22.217)" fill="#0f054c"/>
                    </g>
                  </g>
                </g>
              </g>
            </g>
            <g id="Group_1100502" data-name="Group 1100502" transform="translate(2.953 1.847)">
              <g id="Group_1100501" data-name="Group 1100501" clip-path="url(#clip-path-5)">
                <path id="Path_875400" data-name="Path 875400" d="M0,0,63.434-5.469,56.357,68.457-7.078,73.925Z" transform="matrix(0.5, -0.866, 0.866, 0.5, -10.231, 21.867)" fill="#61dfe4"/>
              </g>
            </g>
            <g id="Group_1100507" data-name="Group 1100507" transform="translate(0 0)">
              <g id="Group_1100506" data-name="Group 1100506" clip-path="url(#clip-path-3)">
                <g id="Group_1100505" data-name="Group 1100505" transform="translate(2.953 1.847)" opacity="0.3">
                  <g id="Group_1100504" data-name="Group 1100504">
                    <g id="Group_1100503" data-name="Group 1100503" clip-path="url(#clip-path-7)">
                      <path id="Path_875271" data-name="Path 875271" d="M36.2,2.68l-3.073-1L26.3,6.628,3.311,23.548c1.272,2.829,2.538,5.93,4.89,7.286L34.324,12.221A3.27,3.27,0,0,1,36.2,11.67Z" transform="translate(-3.311 -1.678)" fill="#0f054c"/>
                    </g>
                  </g>
                </g>
              </g>
            </g>
            <g id="Group_1100509" data-name="Group 1100509" transform="translate(0)">
              <g id="Group_1100508" data-name="Group 1100508" clip-path="url(#clip-path-8)">
                <rect id="Rectangle_403413" data-name="Rectangle 403413" width="73.296" height="51.647" transform="translate(-0.807 0)" fill="#98baff"/>
              </g>
            </g>
            <g id="Group_1100511" data-name="Group 1100511" transform="translate(0 0)">
              <g id="Group_1100510" data-name="Group 1100510" clip-path="url(#clip-path-3)">
                <path id="Path_875273" data-name="Path 875273" d="M65.965,23.834,38.4,4.193a3.457,3.457,0,0,0-3.749,0L7.082,23.833A1.547,1.547,0,0,0,6.4,25.649a1.843,1.843,0,0,1,.686-.855L34.649,5.153a3.457,3.457,0,0,1,3.749,0L65.965,24.794a1.846,1.846,0,0,1,.686.856,1.546,1.546,0,0,0-.686-1.816" transform="translate(-0.682 0.367)" fill="#fff"/>
                <path id="Path_875274" data-name="Path 875274" d="M69.263,27.329,41.7,46.968a10.793,10.793,0,0,1-11.707,0L2.422,27.327A5.344,5.344,0,0,1,.03,23.637a5.047,5.047,0,0,0,2.392,4.651L29.989,47.929a10.8,10.8,0,0,0,11.707,0L69.263,28.288a5.045,5.045,0,0,0,2.391-4.65,5.344,5.344,0,0,1-2.391,3.69" transform="translate(0 2.379)" fill="#fff"/>
              </g>
            </g>
            <g id="Group_1100513" data-name="Group 1100513" transform="translate(1.1 0.784)">
              <g id="Group_1100512" data-name="Group 1100512" clip-path="url(#clip-path-10)">
                <rect id="Rectangle_403415" data-name="Rectangle 403415" width="70.881" height="50.002" transform="translate(-0.7 0)" fill="#98baff"/>
              </g>
            </g>
          </g>
        </g>
        <g id="Group_1100749" data-name="Group 1100749" transform="translate(5.307)">
          <g id="Group_1100748" data-name="Group 1100748" clip-path="url(#clip-path-11)">
            <path id="Path_875398" data-name="Path 875398" d="M6.247,0H54.48A6.338,6.338,0,0,1,60.8,6.356l.14,34.756-26.7,18.94a7.554,7.554,0,0,1-7.744,0L-.145,41.219-.072,6.356A6.338,6.338,0,0,1,6.247,0" transform="translate(0.074 0)" fill="#fff"/>
          </g>
        </g>
        <g id="Group_1100745" data-name="Group 1100745" transform="translate(-0.755 6.578)">
          <g id="Group_1100096" data-name="Group 1100096" transform="translate(0 0)" clip-path="url(#clip-path-12)">
            <path id="Path_873771" data-name="Path 873771" d="M36.5,50.711a9.642,9.642,0,0,1-5.42-1.551L2.316,29.276A4.816,4.816,0,0,1,0,25.354a4.813,4.813,0,0,1,2.316-3.921L31.077,1.55a10.26,10.26,0,0,1,10.843,0L70.681,21.434A4.813,4.813,0,0,1,73,25.355a4.816,4.816,0,0,1-2.316,3.922L41.92,49.16A9.645,9.645,0,0,1,36.5,50.711M36.5.595a9.2,9.2,0,0,0-5.169,1.477L2.568,21.955A4.223,4.223,0,0,0,.5,25.354a4.22,4.22,0,0,0,2.064,3.4L31.331,48.638a9.785,9.785,0,0,0,10.337,0L70.429,28.755a4.22,4.22,0,0,0,2.064-3.4,4.22,4.22,0,0,0-2.064-3.4L41.667,2.072A9.2,9.2,0,0,0,36.5.595" transform="translate(0 -0.001)" fill="#61dfe4"/>
          </g>
        </g>
        <rect id="Rectangle_403516" data-name="Rectangle 403516" width="60.873" height="30.446" transform="translate(5.307 4.578)" fill="#fff"/>
      </g>
      <g id="Group_1111990" data-name="Group 1111990" transform="translate(1065.17 4831.094)">
        <g id="Group_1099618" data-name="Group 1099618" transform="translate(0 0)">
          <rect id="Rectangle_401104" data-name="Rectangle 401104" width="37.658" height="38.112" transform="translate(0)" fill="none"/>
        </g>
        <g id="Grupo_156261" data-name="Grupo 156261" transform="translate(0.754 0.223)">
          <g id="Grupo_156260" data-name="Grupo 156260" transform="translate(0 0)">
            <g id="Group_1112009" data-name="Group 1112009" transform="translate(0.733 3.59)">
              <g id="Group_1112008" data-name="Group 1112008" transform="translate(0 -0.001)" clip-path="url(#clip-path-13)">
                <path id="Path_886770" data-name="Path 886770" d="M17.782,6.734A7.314,7.314,0,0,1,28.069.627a7.239,7.239,0,0,1,4.265,6.108c.479.069,1.57-.221,1.8.311l0,23.84-.285.231-8.369.074a3.537,3.537,0,0,1-2.709,2.473c-3.583-.231-7.612.337-11.143.013a3.49,3.49,0,0,1-2.9-2.486c-3.4.124-7.269.373-8.528-3.527C-.2,20.029.128,12.3.042,4.631.517,1.206,3.731-.235,6.9.428A1.928,1.928,0,0,1,7.151.9V6.734Zm6.271-5.547a6.33,6.33,0,0,0-4.878,4.2A6.188,6.188,0,0,0,28.3,12.557C33.965,9.173,30.957.322,24.053,1.187M6.016,1.47H4.21C3.09,1.47,1.165,3.4,1.165,4.515V23.041a7.889,7.889,0,0,1,1.376-1.05,6.249,6.249,0,0,1,1.669-.6H6.016Zm11.766,6.4H7.151V21.957a4.245,4.245,0,0,1-.232.438c-.265.256-1.9.085-2.4.131a3.782,3.782,0,0,0-2.573,6.079c1.584,2.038,4.494,1.334,6.747,1.449.359-1.748,1.623-3.255,2.48-4.8.026-.208-.006-.136-.151-.154-.445-.055-1.149.184-1.186-.474-.057-1.02,1.47-.516,2.062-.711l.928-1.6H10.2c-.255,0-.622-.828-.049-1.081.61-.269,2.571.087,3.335-.05l1-1.656H10.3c-.435,0-.75-.983-.083-1.11,1.92-.055,3.843-.015,5.764-.021.748,0,1.518,0,2.262,0q5.832-.005,11.665,0c.755.141.415,1.133,0,1.133H19.743l1,1.656h9.166a.58.58,0,0,1,0,1.133H21.394l1,1.635,7.408.023a.594.594,0,0,1,.213,1.129H23.046c.735,1.667,2.153,3.137,2.477,4.954h7.534V7.869h-.723a7.291,7.291,0,0,1-2.373,4.9c-.017.044.607.22.362.77s-1.431.239-1.956.319c-.366.056-.95.37-1.377.48a7.446,7.446,0,0,1-4.023-.047c-.236-.064-1.036-.44-1.109-.44H10.093c-.355,0-.422-1.135.31-1.135h9.753l-.972-1.041a7.224,7.224,0,0,1-1.4-3.81m5.949,24.114a2.368,2.368,0,0,0,.606-2.235L19,20.428a2.24,2.24,0,0,0-3.782,0L9.915,29.675a2.255,2.255,0,0,0,1.724,2.864H22.584a2.412,2.412,0,0,0,1.147-.556" transform="translate(0 0)" fill="#0c2d70"/>
                <path id="Path_886771" data-name="Path 886771" d="M95.315,151.243h19.92a1.553,1.553,0,0,1,.346.384c.175.634-.514.725-.961.756-6.086.42-12.652-.324-18.789,0-.721-.012-1.1-.614-.516-1.135" transform="translate(-85.223 -135.633)" fill="#0c2d70"/>
                <path id="Path_886772" data-name="Path 886772" d="M152.529,213.334a1.554,1.554,0,0,1,1.678,1.268,21.479,21.479,0,0,1-.236,4,1.341,1.341,0,0,1-2.032.641c-.868-.574-.573-1.71-.62-2.579-.066-1.221-.572-3.08,1.21-3.33m.326,5.032a2.261,2.261,0,0,0,.111-.458,21.309,21.309,0,0,0,.108-3c-.028-.207-.111-.462-.366-.462-.652,0-.279,1.721-.259,2.12a6.838,6.838,0,0,0,.095,1.745Z" transform="translate(-135.597 -191.305)" fill="#0c2d70"/>
                <path id="Path_886773" data-name="Path 886773" d="M153.927,275.324a1.375,1.375,0,0,1,.877,2.536c-1.975,1.073-2.972-2.249-.877-2.536" transform="translate(-136.995 -246.895)" fill="#0c2d70"/>
                <path id="Path_886774" data-name="Path 886774" d="M204.244,40.332a34.463,34.463,0,0,1-2.778,2.741,1.467,1.467,0,0,1-1.958-.105,26.434,26.434,0,0,1-2.429-2.422,1.455,1.455,0,0,1,1.958-2.061c.267.162,1.368,1.421,1.59,1.382l3.316-3.3a1.456,1.456,0,0,1,2.3,1.579c-.139.613-1.518,1.7-2,2.183m-5.263.529c.192.188,1.315,1.294,1.4,1.336a.388.388,0,0,0,.409,0l4.239-4.227c.177-.183.139-.581-.16-.578-.827.39-3.7,3.823-4.255,3.91s-1.63-1.542-2.163-1.832c-.419-.228-.566.115-.391.5a12.034,12.034,0,0,0,.917.886" transform="translate(-176.511 -32.521)" fill="#0c2d70"/>
              </g>
            </g>
          </g>
        </g>
      </g>
    </g>
  </g>
</svg>
