<svg xmlns="http://www.w3.org/2000/svg" xmlns:xlink="http://www.w3.org/1999/xlink" width="99" height="99" viewBox="0 0 99 99">
  <defs>
    <clipPath id="clip-path">
      <rect id="Rectangle_401223" data-name="Rectangle 401223" width="99" height="99" transform="translate(0)" fill="#844804"/>
    </clipPath>
    <clipPath id="clip-path-2">
      <rect id="Rectangle_401223-2" data-name="Rectangle 401223" width="88.539" height="88.539" fill="#f3f9ff"/>
    </clipPath>
    <clipPath id="clip-path-3">
      <rect id="Rectangle_406915" data-name="Rectangle 406915" width="59.044" height="66.015" fill="none"/>
    </clipPath>
    <clipPath id="clip-path-4">
      <rect id="Rectangle_406914" data-name="Rectangle 406914" width="59.045" height="66.016" fill="none"/>
    </clipPath>
    <clipPath id="clip-path-5">
      <rect id="Rectangle_406905" data-name="Rectangle 406905" width="29.471" height="37.923" fill="none"/>
    </clipPath>
    <clipPath id="clip-path-6">
      <rect id="Rectangle_406906" data-name="Rectangle 406906" width="26.431" height="2.051" fill="none"/>
    </clipPath>
    <clipPath id="clip-path-7">
      <rect id="Rectangle_406912" data-name="Rectangle 406912" width="23.086" height="1.998" fill="none"/>
    </clipPath>
    <clipPath id="clip-path-8">
      <rect id="Rectangle_406913" data-name="Rectangle 406913" width="29.273" height="3.553" fill="none"/>
    </clipPath>
  </defs>
  <g id="Group_1100727" data-name="Group 1100727" transform="translate(-619.921 -5755.871)">
    <g id="Group_1100724" data-name="Group 1100724" transform="translate(619.921 5755.871)">
      <g id="Group_1099654" data-name="Group 1099654" transform="translate(0 0)">
        <g id="Group_1099652" data-name="Group 1099652" clip-path="url(#clip-path)">
          <path id="Path_873521" data-name="Path 873521" d="M99,77.066A22,22,0,0,1,77.066,99H21.934A22,22,0,0,1,0,77.066V21.933A22,22,0,0,1,21.934,0H77.066A22,22,0,0,1,99,21.934Z" transform="translate(0)" fill="#005865"/>
        </g>
      </g>
      <g id="Group_1099659" data-name="Group 1099659" transform="translate(4.77 5.723)">
        <g id="Group_1099652-2" data-name="Group 1099652" transform="translate(0 0)" clip-path="url(#clip-path-2)">
          <path id="Path_873521-2" data-name="Path 873521" d="M88.539,68.922A19.674,19.674,0,0,1,68.923,88.539H19.616A19.674,19.674,0,0,1,0,68.922V19.616A19.674,19.674,0,0,1,19.616,0H68.923A19.674,19.674,0,0,1,88.539,19.616Z" fill="#f3f9ff"/>
        </g>
      </g>
    </g>
    <g id="Group_1100725" data-name="Group 1100725" transform="translate(636.343 5771.293)">
      <rect id="Rectangle_401104" data-name="Rectangle 401104" width="68" height="69" transform="translate(-0.421 0.438)" fill="none"/>
      <g id="Group_1112387" data-name="Group 1112387" transform="translate(4.579 1.438)">
        <g id="Group_1112386" data-name="Group 1112386" clip-path="url(#clip-path-3)">
          <g id="Group_1112385" data-name="Group 1112385" transform="translate(0 -0.001)">
            <g id="Group_1112384" data-name="Group 1112384" clip-path="url(#clip-path-4)">
              <path id="Path_887370" data-name="Path 887370" d="M26.279,17.943v-.881a4.592,4.592,0,0,0-4.7-4.475H7.892a4.592,4.592,0,0,0-4.7,4.475v.881a4.664,4.664,0,0,1-1.957,3.63A3.142,3.142,0,0,0,0,24.049V54.243a7.89,7.89,0,0,0,8.077,7.689H21.395a7.89,7.89,0,0,0,8.077-7.689V24.049a3.137,3.137,0,0,0-1.238-2.477,4.661,4.661,0,0,1-1.955-3.63" transform="translate(0 4.083)" fill="#9ecde1"/>
              <path id="Path_887371" data-name="Path 887371" d="M27.581,16.129a1.092,1.092,0,0,1-1.118,1.065H2.27a1.094,1.094,0,0,1-1.12-1.065V9.8A1.094,1.094,0,0,1,2.27,8.738H26.463A1.092,1.092,0,0,1,27.581,9.8Z" transform="translate(0.373 2.835)" fill="#cf5c25"/>
              <path id="Path_887372" data-name="Path 887372" d="M29.35,11.081a1.089,1.089,0,0,1-1.116,1.065H1.195A1.092,1.092,0,0,1,.077,11.081V7.733A1.088,1.088,0,0,1,1.195,6.672H28.234A1.085,1.085,0,0,1,29.35,7.733Z" transform="translate(0.025 2.165)" fill="#9ecde1"/>
              <g id="Group_1112374" data-name="Group 1112374" transform="translate(0 28.092)" opacity="0.2" style="mix-blend-mode: overlay;isolation: isolate">
                <g id="Group_1112373" data-name="Group 1112373">
                  <g id="Group_1112372" data-name="Group 1112372" clip-path="url(#clip-path-5)">
                    <path id="Path_887373" data-name="Path 887373" d="M4.319,49.308A22.589,22.589,0,0,1,0,48.883v2.563a7.889,7.889,0,0,0,8.076,7.689H21.393a7.889,7.889,0,0,0,8.077-7.689V21.252a.093.093,0,0,0-.009-.041c-.106,15.54-11.319,28.1-25.143,28.1" transform="translate(0 -21.212)"/>
                  </g>
                </g>
              </g>
              <g id="Group_1112377" data-name="Group 1112377" transform="translate(1.523 17.977)" opacity="0.5" style="mix-blend-mode: overlay;isolation: isolate">
                <g id="Group_1112376" data-name="Group 1112376">
                  <g id="Group_1112375" data-name="Group 1112375" clip-path="url(#clip-path-6)">
                    <path id="Path_887374" data-name="Path 887374" d="M2.27,15.624H26.463a1.093,1.093,0,0,0,1.118-1.065v-.987H1.15v.987a1.093,1.093,0,0,0,1.12,1.065" transform="translate(-1.15 -13.574)"/>
                  </g>
                </g>
              </g>
              <rect id="Rectangle_406907" data-name="Rectangle 406907" width="23.278" height="3.239" transform="translate(1.533 35.677)" fill="#f5a4b7"/>
              <rect id="Rectangle_406908" data-name="Rectangle 406908" width="19.765" height="0.813" transform="translate(1.529 40.063)" fill="#f5a4b7"/>
              <rect id="Rectangle_406909" data-name="Rectangle 406909" width="23.279" height="0.807" transform="translate(1.528 41.322)" fill="#f5a4b7"/>
              <path id="Path_887375" data-name="Path 887375" d="M24.435,35.669,1.15,35.657l0-1.62,23.278.012Z" transform="translate(0.373 11.041)" fill="#f5a4b7"/>
              <rect id="Rectangle_406910" data-name="Rectangle 406910" width="19.765" height="1.62" transform="translate(1.523 47.591)" fill="#f5a4b7"/>
              <g id="Group_1112380" data-name="Group 1112380" transform="translate(3.193 20.028)" opacity="0.5" style="mix-blend-mode: overlay;isolation: isolate">
                <g id="Group_1112379" data-name="Group 1112379">
                  <g id="Group_1112378" data-name="Group 1112378" clip-path="url(#clip-path-7)">
                    <rect id="Rectangle_406911" data-name="Rectangle 406911" width="23.086" height="1.998" transform="translate(0 0)"/>
                  </g>
                </g>
              </g>
              <g id="Group_1112383" data-name="Group 1112383" transform="translate(0.102 10.756)" opacity="0.5" style="mix-blend-mode: overlay;isolation: isolate">
                <g id="Group_1112382" data-name="Group 1112382">
                  <g id="Group_1112381" data-name="Group 1112381" clip-path="url(#clip-path-8)">
                    <path id="Path_887376" data-name="Path 887376" d="M1.194,11.674H28.234a1.089,1.089,0,0,0,1.116-1.065V8.121H.078v2.488a1.09,1.09,0,0,0,1.116,1.065" transform="translate(-0.077 -8.122)"/>
                  </g>
                </g>
              </g>
              <path id="Path_887377" data-name="Path 887377" d="M37.532,15.251s-1.663-.706-1.04-2.183c.546-1.289,1.311.918,3.756-.629,1.335-.846,4.294-.246,3.042,1.851-1.31,2.2,2.167.352,2.6,2.884.279,1.633-3.034,2.486-1.108,2.974s3.178,1.953,2.028,3.8c-1.131,1.824-4.519,1.875-5.859.26s-4.871-4.062-3.186-6.669c2.055-3.192-.236-2.291-.236-2.291" transform="translate(11.791 3.915)" fill="#353a66"/>
              <path id="Path_887378" data-name="Path 887378" d="M40.357,18.488s-.874-.461-1.785.8c-1.053,1.469-.861,5.819-2.9,7.336s-3.683.863-4.842.563-1.493-.934-2.184-1.037-.765.681.98,1.583c.838.436,4.719,3.031,7.506,1.666,3.653-1.794,5.443-10,3.223-10.91" transform="translate(9.144 5.97)" fill="#e28c71"/>
              <path id="Path_887379" data-name="Path 887379" d="M32.739,34.587c.359,5.538,2.23,14.156,2.494,18.818.017.323.065.383-1.014.657-1.246.315-.287.968,1.661.95,1.834-.019,2.651-8.746,2.827-13.36.054-1.3-.4-5.222.22-8.923.075,1.384.181,2.959.339,4.684.467,5.051,5.965,11.675,6.378,15.923.034.328-.008.453-.972.784s-.029.936,1.645.89.652-8.844-.22-12.961c-.758-3.6-13.771-13.849-13.357-7.46" transform="translate(10.616 10.553)" fill="#ee9d7f"/>
              <path id="Path_887380" data-name="Path 887380" d="M34.624,26.337c3.335,2.684,7.62,1.851,9.433,1.425.491,4.79,3.36,22.742,3.7,25.209a6.9,6.9,0,0,1-2.375.711c-7.069-11.016-6.258-15.736-6.329-17.12-.269,1.6.605,9.433-.923,17.12a2.75,2.75,0,0,1-3.169,0c-.054-.494-2.912-12.208-2.48-17.081a37.933,37.933,0,0,1,2.147-10.264" transform="translate(10.519 8.543)" fill="#fcc922"/>
              <path id="Path_887381" data-name="Path 887381" d="M36.7,48.714s-1.454.7-2.353,0c0,0-1.641.266-.613.747s3.026.885,2.967-.747" transform="translate(10.83 15.801)" fill="#ec364f"/>
              <path id="Path_887382" data-name="Path 887382" d="M44.334,48.833s-1.457.7-2.353,0c0,0-1.644.269-.605.75s3.021.882,2.959-.75" transform="translate(13.308 15.839)" fill="#ec364f"/>
              <path id="Path_887383" data-name="Path 887383" d="M34.2,29.578s1.05-.442.577-4.64c-.222-2.005-.987-2.141.671-4.329,1.715-2.263,4.819-3.2,5.8-1.734,1.85,2.757,1.143,4.12.968,6.038-.1,1.108-1.056,2.443.452,5.266Z" transform="translate(11.094 5.894)" fill="#f27851"/>
              <path id="Path_887384" data-name="Path 887384" d="M43.553,30.543s-5.8,1.845-9.64-.942c0,0-.952-6.353,1.184-8.375a2.375,2.375,0,0,0,3.208-.96,3.7,3.7,0,0,1,2.45-1.743,2.6,2.6,0,0,1,1.164.405,2.937,2.937,0,0,1,.928,1.258Z" transform="translate(10.931 6.008)" fill="#9696ea"/>
              <path id="Path_887385" data-name="Path 887385" d="M43.042,30.117s.192,1.64-6.532.445c-1.018-.181.939-2.008,2.165-2.09,1.4-.093.181-1.658-1.449-1.7s-2.359-1.2-.8-1a2.047,2.047,0,0,0,2.25-2.633c-.413-1.421,1.609-4.059,1.609-4.059l1.938.862c.016.041.024.069.024.069Z" transform="translate(11.534 6.188)" fill="#7878d6"/>
              <path id="Path_887386" data-name="Path 887386" d="M36.02,21.547s-3.189,18.815-.135,26.508c0,0,7.712,1.13,10.732-1.424,0,0-1.764-25.659-4.966-27.871-.507-.348-1.381-1-3.3,1.136-.479.53-1.351,1.691-2.328,1.65" transform="translate(11.21 5.964)" fill="#f5a4b7"/>
              <path id="Path_887387" data-name="Path 887387" d="M35.253,21.477a9.507,9.507,0,0,1,1.195-1.544c1.9-1.953,2.68-1.583,2.68-1.583a6.953,6.953,0,0,0-2.83,3.181C34.583,27.591,33.853,46.6,33.853,46.6l-1.694-.662s.362-19.713,3.094-24.465" transform="translate(10.431 5.943)" fill="#f5a4b7"/>
              <path id="Path_887388" data-name="Path 887388" d="M40.4,15.308s-1.466,2.736-.985,3.792c.152.336-2.806,1.7-2.465,1.056A2.254,2.254,0,0,0,36.87,17.4Z" transform="translate(11.959 4.966)" fill="#e0623f"/>
              <path id="Path_887389" data-name="Path 887389" d="M38.087,13.972c-.98.836-2.225,4.651-1.3,5.553.4.4,2.193.711,3.38-1.577a3.63,3.63,0,0,0,.523-3.308,1.69,1.69,0,0,0-2.6-.667" transform="translate(11.826 4.403)" fill="#f3b294"/>
              <path id="Path_887390" data-name="Path 887390" d="M37.166,14.253c-.123.518-.162.82,1.032.773,1.47-.057,1.16.955.989,1.3-.5,1,1.291.078.686,1.273s1.1-.185,1.248-.362.685-.947-.029-2.76-3.547-1.8-3.925-.22" transform="translate(12.036 4.246)" fill="#353a66"/>
              <path id="Path_887391" data-name="Path 887391" d="M44.4,30.232a2.045,2.045,0,1,1-2.331,3.36l-13.786-9.55a2.044,2.044,0,1,1,2.328-3.36Z" transform="translate(8.889 6.591)" fill="#353a66"/>
              <path id="Path_887392" data-name="Path 887392" d="M33.039,21.029a3.212,3.212,0,0,1-3.66,5.279l-4.4-3.049a3.212,3.212,0,1,1,3.658-5.28Z" transform="translate(7.652 5.647)" fill="#353a66"/>
              <path id="Path_887393" data-name="Path 887393" d="M23.085.36A16.8,16.8,0,1,0,36.071,20.252,16.8,16.8,0,0,0,23.085.36M17,29.354a12.826,12.826,0,1,1,15.192-9.917A12.83,12.83,0,0,1,17,29.354" transform="translate(0.92 0.001)" fill="#353a66"/>
              <path id="Path_887394" data-name="Path 887394" d="M41.921,18.856s-.807-.358-1.542.82c-.852,1.371-.432,5.24-2.157,6.709a4.356,4.356,0,0,1-4.286.789c-1.05-.2-1.381-.747-2.005-.8s-.644.654.968,1.355c.772.339,4.384,2.424,6.789,1.042,3.151-1.81,4.263-9.231,2.233-9.917" transform="translate(10.229 6.1)" fill="#e28c71"/>
            </g>
          </g>
        </g>
      </g>
    </g>
  </g>
</svg>
