<svg xmlns="http://www.w3.org/2000/svg" xmlns:xlink="http://www.w3.org/1999/xlink" width="99" height="99" viewBox="0 0 99 99">
  <defs>
    <clipPath id="clip-path">
      <rect id="Rectangle_401223" data-name="Rectangle 401223" width="99" height="99" transform="translate(0)" fill="#006543"/>
    </clipPath>
    <clipPath id="clip-path-2">
      <rect id="Rectangle_401223-2" data-name="Rectangle 401223" width="88.539" height="88.539" fill="#f3f9ff"/>
    </clipPath>
    <clipPath id="clip-path-3">
      <rect id="Rectangle_406904" data-name="Rectangle 406904" width="68" height="37.948" fill="none"/>
    </clipPath>
  </defs>
  <g id="Group_1112283" data-name="Group 1112283" transform="translate(-619.921 -5755.871)">
    <g id="Group_1100724" data-name="Group 1100724" transform="translate(619.921 5755.871)">
      <g id="Group_1099654" data-name="Group 1099654" transform="translate(0 0)">
        <g id="Group_1099652" data-name="Group 1099652" clip-path="url(#clip-path)">
          <path id="Path_873521" data-name="Path 873521" d="M99,77.066A22,22,0,0,1,77.066,99H21.934A22,22,0,0,1,0,77.066V21.933A22,22,0,0,1,21.934,0H77.066A22,22,0,0,1,99,21.934Z" transform="translate(0)" fill="#005865"/>
        </g>
      </g>
      <g id="Group_1099659" data-name="Group 1099659" transform="translate(4.77 5.723)">
        <g id="Group_1099652-2" data-name="Group 1099652" transform="translate(0 0)" clip-path="url(#clip-path-2)">
          <path id="Path_873521-2" data-name="Path 873521" d="M88.539,68.922A19.674,19.674,0,0,1,68.923,88.539H19.616A19.674,19.674,0,0,1,0,68.922V19.616A19.674,19.674,0,0,1,19.616,0H68.923A19.674,19.674,0,0,1,88.539,19.616Z" fill="#f3f9ff"/>
        </g>
      </g>
    </g>
    <g id="Group_1100725" data-name="Group 1100725" transform="translate(636.343 5771.293)">
      <rect id="Rectangle_401104" data-name="Rectangle 401104" width="68" height="69" fill="none"/>
      <g id="Group_1112371" data-name="Group 1112371" transform="translate(-3.416 16.438)">
        <g id="Group_1112370" data-name="Group 1112370" transform="translate(3.416 0)" clip-path="url(#clip-path-3)">
          <path id="Path_887355" data-name="Path 887355" d="M42.01,16.227a.976.976,0,0,0,.105.484c.176.283.569.315.9.314,4-.008,7.993-.075,11.989-.165a4.279,4.279,0,0,0-.505-.835c-3.068-4.1-7.313-7.159-10.741-10.959-.629,0-1.26.015-1.891.025-.058,3.713-.024,7.426.14,11.137" transform="translate(12.621 1.963)" fill="#e4dbcf"/>
          <path id="Path_887356" data-name="Path 887356" d="M56.637,16.933c-.011-.029-.036-.051-.049-.08-4,.09-7.991.157-11.989.165-.333,0-.727-.029-.9-.314a.991.991,0,0,1-.105-.484c-.164-3.709-.2-7.424-.14-11.137-1.779.028-3.562.072-5.335.072.411,5.728-.5,11.475-.332,17.216a44.422,44.422,0,0,0,.525,5.575H55.3A4.6,4.6,0,0,0,56.8,26.174a4.787,4.787,0,0,0,.16-1.653q-.06-3.076-.122-6.153a4.2,4.2,0,0,0-.2-1.436" transform="translate(11.039 1.97)" fill="#006543"/>
          <path id="Path_887357" data-name="Path 887357" d="M7.414,29.918Q6.91,15.171,7.252.411C20.764-.212,35.814.034,49.752.129c.429,9.327.944,20.466.436,29.789Z" transform="translate(-0.84 0)" fill="#f3a744"/>
          <path id="Path_887358" data-name="Path 887358" d="M20.311,25.435a4.287,4.287,0,0,0,3.157,4.109,7.266,7.266,0,0,0,1.923.148,4.547,4.547,0,0,0,2.036-.613,2.989,2.989,0,0,0,1.554-2.253,5.172,5.172,0,0,0,0-2.13c-1.086-4.848-8.578-4.46-8.668.74" transform="translate(4.275 8.25)" fill="#5d3406"/>
          <path id="Path_887359" data-name="Path 887359" d="M22.4,24.7a1.462,1.462,0,0,0,1.077,1.4,2.539,2.539,0,0,0,.656.051,1.573,1.573,0,0,0,.694-.21,1.022,1.022,0,0,0,.531-.769,1.759,1.759,0,0,0,0-.727A1.5,1.5,0,0,0,22.4,24.7" transform="translate(5.083 9.024)" fill="#ccb497"/>
          <path id="Path_887360" data-name="Path 887360" d="M12.465,25.435a4.287,4.287,0,0,0,3.157,4.109,7.266,7.266,0,0,0,1.923.148,4.547,4.547,0,0,0,2.036-.613,2.989,2.989,0,0,0,1.554-2.253,5.172,5.172,0,0,0,0-2.13c-1.086-4.848-8.578-4.46-8.668.74" transform="translate(1.234 8.25)" fill="#7a614c"/>
          <path id="Path_887361" data-name="Path 887361" d="M14.549,24.7a1.462,1.462,0,0,0,1.077,1.4,2.539,2.539,0,0,0,.656.051,1.573,1.573,0,0,0,.694-.21,1.022,1.022,0,0,0,.531-.769,1.759,1.759,0,0,0,0-.727,1.5,1.5,0,0,0-2.957.253" transform="translate(2.042 9.024)" fill="#ccb497"/>
          <path id="Path_887362" data-name="Path 887362" d="M40.044,25.435A4.287,4.287,0,0,0,43.2,29.544a7.266,7.266,0,0,0,1.923.148,4.547,4.547,0,0,0,2.036-.613,2.989,2.989,0,0,0,1.554-2.253,5.172,5.172,0,0,0,0-2.13c-1.086-4.848-8.578-4.46-8.668.74" transform="translate(11.924 8.25)" fill="#5d3406"/>
          <path id="Path_887363" data-name="Path 887363" d="M42.129,24.7a1.462,1.462,0,0,0,1.077,1.4,2.539,2.539,0,0,0,.656.051,1.573,1.573,0,0,0,.694-.21,1.022,1.022,0,0,0,.531-.769,1.759,1.759,0,0,0,0-.727,1.5,1.5,0,0,0-2.957.253" transform="translate(12.732 9.024)" fill="#ccb497"/>
          <path id="Path_887364" data-name="Path 887364" d="M52.675,18.449c0-1.2-.069-2.228-.069-3.468-.906,0-1.94.039-2.86.094-.347.019-.752.076-.917.38a1.014,1.014,0,0,0-.09.4,14.738,14.738,0,0,0-.024,2.026.345.345,0,0,0,.323.4,12.517,12.517,0,0,0,3.637.167" transform="translate(15.275 5.807)" fill="#e5ae40"/>
          <path id="Path_887365" data-name="Path 887365" d="M15.535,10.522a97.706,97.706,0,0,1,5.94,9.506c1.941-.024,4.017.105,5.9.089-2.271-3.72-4.142-7.239-6.2-11.078Z" transform="translate(2.424 3.504)" fill="#006543"/>
          <path id="Path_887366" data-name="Path 887366" d="M29.965,15.176c2.7-1.9,5.226-4.167,7.77-6.275-2.79-1.582-5.614-3.072-8.437-4.594a8.149,8.149,0,0,1,.075,2.85l-10.311.105A9.546,9.546,0,0,0,17.215,9.52q-.841,1.42-1.68,2.836c4.743-.06,9.359.268,14.1.208a20.162,20.162,0,0,0,.326,2.611" transform="translate(2.424 1.669)" fill="#2bc897"/>
          <path id="Path_887367" data-name="Path 887367" d="M0,15.16c5.155.064,10.5,0,15.656-.18" transform="translate(3.747 8.438)" fill="none" stroke="#e4dbcf" stroke-miterlimit="10" stroke-width="0.75"/>
          <path id="Path_887368" data-name="Path 887368" d="M5.3,12.367c5.155.064,5.081,0,10.233-.18" transform="translate(-1.544 4.724)" fill="none" stroke="#e4dbcf" stroke-miterlimit="10" stroke-width="0.75"/>
          <path id="Path_887369" data-name="Path 887369" d="M2.592,5.543c5.155.064,5.081,0,10.233-.18" transform="translate(-2.592 2.079)" fill="none" stroke="#e4dbcf" stroke-miterlimit="10" stroke-width="0.75"/>
        </g>
      </g>
    </g>
  </g>
</svg>
