<svg xmlns="http://www.w3.org/2000/svg" xmlns:xlink="http://www.w3.org/1999/xlink" width="70" height="70" viewBox="0 0 70 70">
  <defs>
    <clipPath id="clip-path">
      <rect id="Rectangle_406854" data-name="Rectangle 406854" width="40" height="40" fill="#006543"/>
    </clipPath>
  </defs>
  <g id="Group_1112264" data-name="Group 1112264" transform="translate(-268.711 -957.546)">
    <circle id="Ellipse_5614" data-name="Ellipse 5614" cx="35" cy="35" r="35" transform="translate(268.711 957.546)" fill="#fff"/>
    <g id="Group_1111948" data-name="Group 1111948" transform="translate(285.711 974.971)">
      <g id="Group_1112279" data-name="Group 1112279" transform="translate(-2 -2.425)">
        <g id="Group_1112278" data-name="Group 1112278" clip-path="url(#clip-path)">
          <path id="Path_887226" data-name="Path 887226" d="M18.918,132.982H0V121.788H18.918Zm-3.634-6.655c.48-.635-.029-1.741-.674-1.66-3.291.335-7.066-.436-10.3,0-.492.067-.9.217-.967.949a.863.863,0,0,0,.7.925c3.42-.3,7.188.374,10.565,0,.2-.022.529-.029.671-.217M3.506,128.952a.971.971,0,0,0,.541,1.495c1.978.343,4.525-.27,6.568-.012a.905.905,0,0,0-.12-1.7,33.582,33.582,0,0,0-6.318,0c-.2.022-.527.028-.671.217m8.913,1.486a16.275,16.275,0,0,0,2.7,0c.42,0,.42-1.7,0-1.7H12.29c-.437.407-.425,1.575.129,1.7" transform="translate(0 -101.133)" fill="#006543"/>
          <path id="Path_887227" data-name="Path 887227" d="M181.733,132.982H162.815V121.788h18.918Zm-15.284-6.655c.142.188.472.195.671.217,3.377.376,7.145-.3,10.565,0a.863.863,0,0,0,.7-.925c-.071-.732-.475-.882-.967-.949-3.232-.44-7.007.331-10.3,0-.645-.082-1.154,1.025-.674,1.66m.162,2.415c-.5.23-.353,1.7,0,1.7h7.078c.435-.285.383-1.7,0-1.7Zm11.325,0a15.625,15.625,0,0,0-2.7,0c-.42,0-.42,1.7,0,1.7h2.7c.359,0,.747-1.517,0-1.7" transform="translate(-141.862 -101.133)" fill="#006543"/>
          <path id="Path_887228" data-name="Path 887228" d="M162.815,197.788h18.854l.193.254v2.883c0,.087-.183,1.071-.227,1.227a2.662,2.662,0,0,1-2.149,1.917c-4.615.544-9.853-.4-14.533-.026-.792.081-2.138-1.464-2.138-2.44Z" transform="translate(-141.862 -164.243)" fill="#006543"/>
          <path id="Path_887229" data-name="Path 887229" d="M18.918,197.788V201.6c0,.058-.3.923-.359,1.053a2.421,2.421,0,0,1-2.017,1.412c-4.6.525-9.761-.405-14.419-.006C1.478,204.175,0,202.673,0,201.943v-4.155Z" transform="translate(0 -164.243)" fill="#006543"/>
          <path id="Path_887230" data-name="Path 887230" d="M18.918,80.048H0V76.741c0-.936,1.593-2.815,2.392-2.784,4.428.371,9.4-.545,13.764-.022a2.932,2.932,0,0,1,2.225,1.647,8.851,8.851,0,0,1,.536,1.668Z" transform="translate(0 -61.258)" fill="#006543"/>
          <path id="Path_887231" data-name="Path 887231" d="M181.733,80.048H162.815v-2.8a8.849,8.849,0,0,1,.536-1.668,2.932,2.932,0,0,1,2.225-1.647c4.364-.523,9.336.393,13.764.022.876.027,2.392,1.865,2.392,2.953Z" transform="translate(-141.862 -61.258)" fill="#006543"/>
          <path id="Path_887232" data-name="Path 887232" d="M11.224,0H26.612a.664.664,0,0,1,.407.311,21.567,21.567,0,0,1,.144,5.26c-.115.631-.3.766-.779.84L11.224,6.373a1.031,1.031,0,0,1-.474-.732A48.057,48.057,0,0,1,10.813.477,1.045,1.045,0,0,1,11.224,0" transform="translate(-9.33)" fill="#006543"/>
          <path id="Path_887233" data-name="Path 887233" d="M174.176,0h15.388a1.031,1.031,0,0,1,.474.732c.073.516.069,4.622-.024,5.048-.071.327-.407.654-.674.638l-15.165-.046c-.59-.172-.579-.922-.613-1.567-.042-.815-.087-3.979.206-4.492A.663.663,0,0,1,174.176,0" transform="translate(-151.2)" fill="#006543"/>
          <path id="Path_887234" data-name="Path 887234" d="M43.682,47.788V50.5H33V48.043l.193-.254Z" transform="translate(-28.753 -39.683)" fill="#006543"/>
          <path id="Path_887235" data-name="Path 887235" d="M207.5,50.5H196.815V47.788H207.3l.193.254Z" transform="translate(-171.486 -39.683)" fill="#006543"/>
        </g>
      </g>
    </g>
  </g>
</svg>
