<svg xmlns="http://www.w3.org/2000/svg" xmlns:xlink="http://www.w3.org/1999/xlink" width="70" height="70" viewBox="0 0 70 70">
  <defs>
    <clipPath id="clip-path">
      <rect id="Rectangle_406852" data-name="Rectangle 406852" width="40" height="39.998" fill="#006543"/>
    </clipPath>
  </defs>
  <g id="Group_1112266" data-name="Group 1112266" transform="translate(-268.711 -957.546)">
    <circle id="Ellipse_5614" data-name="Ellipse 5614" cx="35" cy="35" r="35" transform="translate(268.711 957.546)" fill="#fff"/>
    <g id="Group_1112275" data-name="Group 1112275" transform="translate(283.711 972.546)">
      <g id="Group_1112274" data-name="Group 1112274" clip-path="url(#clip-path)">
        <path id="Path_887222" data-name="Path 887222" d="M169.718,159.933a10.846,10.846,0,1,1-7.194,17.786,10.854,10.854,0,0,1,7.194-17.786m2.315,5.813c.259-1.185-.883-2.21-1.941-1.426-.761.563-.277,1.143-.521,1.542-.051.084-.72.414-.916.574a3.14,3.14,0,0,0,1.194,5.448c.526.108,1.587-.118,1.793.5.4,1.2-2.067.739-2.759.809-.986.1-1.7.827-1.262,1.832.353.8,1.172.649,1.9.738.224.158-.115.959.64,1.423a1.129,1.129,0,0,0,1.267.039c.94-.5.4-1.2.663-1.629.077-.126,1.136-.658,1.485-1.152a3.17,3.17,0,0,0-1.763-4.871c-.515-.105-2.258.1-1.784-.964.271-.607,2.25-.268,2.951-.378a1.253,1.253,0,0,0,.233-2.465,8.592,8.592,0,0,0-1.178-.026" transform="translate(-141.658 -141.555)" fill="#006543"/>
        <path id="Path_887223" data-name="Path 887223" d="M32.981.033a1.712,1.712,0,0,1,1.465,2.955L29.593,7.857a4.58,4.58,0,0,1,.21,5.732,11.08,11.08,0,0,1-1.264,1.372,8.73,8.73,0,0,1-1.628.206A14.247,14.247,0,0,0,15.012,30.1c.011.356.3,1.116.006,1.372a2.013,2.013,0,0,1-1.711-.01l-3.5-3.493-.326-.1L6.2,31.148c-.1.38,1.09,1.1,1.221,1.609a1.684,1.684,0,0,1-2.665,1.863A49.352,49.352,0,0,1,.345,30.209,1.69,1.69,0,0,1,2.1,27.541c.627.127,1.152.954,1.631,1.347l3.494-3.494L3.574,21.707a1.667,1.667,0,0,1,2.146-2.376c.252.112.716.635.856.61L7.952,18.7c1.166.932,3.575,4.609,5.117,2.227,1.2-1.848-1.994-3.33-2.743-4.684L12.9,13.648l4.261,4.219a1.684,1.684,0,0,0,2.582-2.124l-4.271-4.329c-.112-.1-.127-.155-.057-.289s2.113-2.18,2.294-2.3c.075-.05.133-.119.234-.112.348,0,2.313,2.4,2.883,2.738a1.68,1.68,0,0,0,2.048-2.622A32.334,32.334,0,0,1,20.343,6.2,4.853,4.853,0,0,1,26.351,4.89c.25.117.666.582.926.452L32.094.521a2.074,2.074,0,0,1,.887-.488" transform="translate(0 0)" fill="#006543"/>
      </g>
    </g>
  </g>
</svg>
