<svg xmlns="http://www.w3.org/2000/svg" xmlns:xlink="http://www.w3.org/1999/xlink" width="99" height="99" viewBox="0 0 99 99">
  <defs>
    <clipPath id="clip-path">
      <rect id="Rectangle_401223" data-name="Rectangle 401223" width="99" height="99" transform="translate(0)" fill="#f3a744"/>
    </clipPath>
    <clipPath id="clip-path-2">
      <rect id="Rectangle_401223-2" data-name="Rectangle 401223" width="88.539" height="88.539" fill="#f3f9ff"/>
    </clipPath>
  </defs>
  <g id="Group_1100726" data-name="Group 1100726" transform="translate(-619.921 -5755.871)">
    <g id="Group_1100724" data-name="Group 1100724" transform="translate(619.921 5755.871)">
      <g id="Group_1099654" data-name="Group 1099654" transform="translate(0 0)">
        <g id="Mask_Group_1099652" data-name="Mask Group 1099652" clip-path="url(#clip-path)">
          <path id="Path_873521" data-name="Path 873521" d="M99,77.066A22,22,0,0,1,77.066,99H21.934A22,22,0,0,1,0,77.066V21.933A22,22,0,0,1,21.934,0H77.066A22,22,0,0,1,99,21.934Z" transform="translate(0)" fill="#005865"/>
        </g>
      </g>
      <g id="Group_1099659" data-name="Group 1099659" transform="translate(4.77 5.723)">
        <g id="Group_1099652" data-name="Group 1099652" transform="translate(0 0)" clip-path="url(#clip-path-2)">
          <path id="Path_873521-2" data-name="Path 873521" d="M88.539,68.922A19.674,19.674,0,0,1,68.923,88.539H19.616A19.674,19.674,0,0,1,0,68.922V19.616A19.674,19.674,0,0,1,19.616,0H68.923A19.674,19.674,0,0,1,88.539,19.616Z" fill="#f3f9ff"/>
        </g>
      </g>
    </g>
    <g id="Group_1100725" data-name="Group 1100725" transform="translate(636.343 5771.293)">
      <rect id="Rectangle_401104" data-name="Rectangle 401104" width="68" height="69" fill="none"/>
      <g id="Group_1112388" data-name="Group 1112388" transform="translate(6.579 3.104)">
        <path id="Path_887395" data-name="Path 887395" d="M19.751,0,5.84,8.234l.043.028,4.462-2.641,27.6,16.449L47.4,16.475,33.572,8.234Z" transform="translate(8.078)" fill="#d98e39"/>
        <path id="Path_887396" data-name="Path 887396" d="M0,12.042l13.821,8.234,13.823,8.241,9.543-5.649L9.586,6.421,13.962,3.83,13.916,3.8Z" transform="translate(0 4.432)" fill="#d98e39"/>
        <path id="Path_887397" data-name="Path 887397" d="M19.638,13.449l0,0L5.858,5.239,10.319,2.6l27.6,16.449-4.462,2.641Z" transform="translate(8.103 3.024)" fill="#befed9"/>
        <path id="Path_887398" data-name="Path 887398" d="M4.022,6.406,8.4,3.817l13.776,8.208,0,0h.01L36,20.263l-4.376,2.592Z" transform="translate(5.564 4.447)" fill="#befed9"/>
        <path id="Path_887399" data-name="Path 887399" d="M0,40.556l13.821,8.236,13.823,8.238V24.081L13.821,15.843,0,7.609Z" transform="translate(0 8.865)" fill="#a7600f"/>
        <path id="Path_887400" data-name="Path 887400" d="M29.98,13.2l.045.028v8.821L21.14,27.4V18.582l8.885-5.35L21.188,18.46l-.045-.024L11.6,24.083V57.03l.184-.106,13.733-8.13L39.43,40.556V7.609Z" transform="translate(16.046 8.865)" fill="#844804"/>
        <path id="Path_887401" data-name="Path 887401" d="M15.6,24.378V15.557l8.885-5.352v8.821Z" transform="translate(21.583 11.89)" fill="#2bc897"/>
      </g>
    </g>
  </g>
</svg>
