<svg xmlns="http://www.w3.org/2000/svg" xmlns:xlink="http://www.w3.org/1999/xlink" width="99" height="99" viewBox="0 0 99 99">
  <defs>
    <clipPath id="clip-path">
      <rect id="Rectangle_401223" data-name="Rectangle 401223" width="99" height="99" transform="translate(0)" fill="#006543"/>
    </clipPath>
    <clipPath id="clip-path-2">
      <rect id="Rectangle_401223-2" data-name="Rectangle 401223" width="88.539" height="88.539" fill="#f3f9ff"/>
    </clipPath>
    <clipPath id="clip-path-3">
      <rect id="Rectangle_406898" data-name="Rectangle 406898" width="64.4" height="59.462" fill="none"/>
    </clipPath>
  </defs>
  <g id="Group_1100724" data-name="Group 1100724" transform="translate(-619.921 -5755.871)">
    <g id="Group_1100724-2" data-name="Group 1100724" transform="translate(619.921 5755.871)">
      <g id="Group_1099654" data-name="Group 1099654" transform="translate(0 0)">
        <g id="Group_1099652" data-name="Group 1099652" clip-path="url(#clip-path)">
          <path id="Path_873521" data-name="Path 873521" d="M99,77.066A22,22,0,0,1,77.066,99H21.934A22,22,0,0,1,0,77.066V21.933A22,22,0,0,1,21.934,0H77.066A22,22,0,0,1,99,21.934Z" transform="translate(0)" fill="#005865"/>
        </g>
      </g>
      <g id="Group_1099659" data-name="Group 1099659" transform="translate(4.77 5.723)">
        <g id="Group_1099652-2" data-name="Group 1099652" transform="translate(0 0)" clip-path="url(#clip-path-2)">
          <path id="Path_873521-2" data-name="Path 873521" d="M88.539,68.922A19.674,19.674,0,0,1,68.923,88.539H19.616A19.674,19.674,0,0,1,0,68.922V19.616A19.674,19.674,0,0,1,19.616,0H68.923A19.674,19.674,0,0,1,88.539,19.616Z" fill="#f3f9ff"/>
        </g>
      </g>
    </g>
    <g id="Group_1100725" data-name="Group 1100725" transform="translate(636.343 5771.293)">
      <rect id="Rectangle_401104" data-name="Rectangle 401104" width="68" height="69" transform="translate(-0.421 0.438)" fill="none"/>
      <g id="Group_1112358" data-name="Group 1112358" transform="translate(1.579 4.438)">
        <rect id="Rectangle_406894" data-name="Rectangle 406894" width="58.697" height="27.631" transform="translate(2.908 31.831)" fill="#a85120"/>
        <g id="Group_1112357" data-name="Group 1112357" transform="translate(0 0)">
          <g id="Group_1112356" data-name="Group 1112356" clip-path="url(#clip-path-3)">
            <path id="Path_887269" data-name="Path 887269" d="M16.414,2.5a5.527,5.527,0,1,1-5.59,5.526A5.559,5.559,0,0,1,16.414,2.5" transform="translate(1.139 0.263)" fill="#ffd5ab"/>
            <path id="Path_887270" data-name="Path 887270" d="M2.124,5A2.112,2.112,0,0,1,4.25,7.1,2.045,2.045,0,0,1,2.124,9.2,2.045,2.045,0,0,1,0,7.1,2.111,2.111,0,0,1,2.124,5" transform="translate(0 0.526)" fill="#fb2b3a"/>
            <path id="Path_887271" data-name="Path 887271" d="M34.458,1.3a2.763,2.763,0,1,1-2.8,2.763,2.752,2.752,0,0,1,2.8-2.763" transform="translate(3.332 0.137)" fill="#fb2b3a"/>
            <rect id="Rectangle_406895" data-name="Rectangle 406895" width="15.429" height="9.726" transform="translate(47.629)" fill="#bdf9ff"/>
            <rect id="Rectangle_406896" data-name="Rectangle 406896" width="7.044" height="5.526" transform="translate(47.629 19.342)" fill="#07cc66"/>
            <path id="Path_887272" data-name="Path 887272" d="M43.764,17.889v5.526H36.721V13.8h7.044Z" transform="translate(3.865 1.453)" fill="#ffd400"/>
            <path id="Path_887273" data-name="Path 887273" d="M31.514,18.8v4.089H20.333V18.8H31.514Z" transform="translate(2.14 1.979)" fill="#fb2b3a"/>
            <path id="Path_887274" data-name="Path 887274" d="M11.964,23.552H6.373l.9-4.753A7,7,0,0,1,14.2,12.5h5.367A7,7,0,0,1,26.5,18.8l.113.663H21.8v4.089Z" transform="translate(0.671 1.316)" fill="#4a78ff"/>
            <path id="Path_887275" data-name="Path 887275" d="M30.2,33.8a11.053,11.053,0,1,1-11.18,11.052A11.15,11.15,0,0,1,30.2,33.8" transform="translate(2.002 3.557)" fill="#313a52"/>
            <path id="Path_887276" data-name="Path 887276" d="M36.114,42.421v3.868H31.641V50.71h-3.8V46.289H23.368V42.421H27.84V38h3.8v4.421Z" transform="translate(2.459 3.999)" fill="#5cbeff"/>
            <rect id="Rectangle_406897" data-name="Rectangle 406897" width="64.288" height="6.963" transform="translate(0.113 24.868)" fill="#c86d36"/>
          </g>
        </g>
      </g>
    </g>
  </g>
</svg>
