<svg xmlns="http://www.w3.org/2000/svg" xmlns:xlink="http://www.w3.org/1999/xlink" width="99" height="99" viewBox="0 0 99 99">
  <defs>
    <clipPath id="clip-path">
      <rect id="Rectangle_401223" data-name="Rectangle 401223" width="99" height="99" transform="translate(0)" fill="#844804"/>
    </clipPath>
    <clipPath id="clip-path-2">
      <rect id="Rectangle_401223-2" data-name="Rectangle 401223" width="88.539" height="88.539" fill="#f3f9ff"/>
    </clipPath>
    <clipPath id="clip-path-3">
      <rect id="Rectangle_406899" data-name="Rectangle 406899" width="65.245" height="65.989" fill="none"/>
    </clipPath>
  </defs>
  <g id="Group_1112284" data-name="Group 1112284" transform="translate(-619.921 -5755.871)">
    <g id="Group_1100724" data-name="Group 1100724" transform="translate(619.921 5755.871)">
      <g id="Group_1099654" data-name="Group 1099654" transform="translate(0 0)">
        <g id="Group_1099652" data-name="Group 1099652" clip-path="url(#clip-path)">
          <path id="Path_873521" data-name="Path 873521" d="M99,77.066A22,22,0,0,1,77.066,99H21.934A22,22,0,0,1,0,77.066V21.933A22,22,0,0,1,21.934,0H77.066A22,22,0,0,1,99,21.934Z" transform="translate(0)" fill="#005865"/>
        </g>
      </g>
      <g id="Group_1099659" data-name="Group 1099659" transform="translate(4.77 5.723)">
        <g id="Group_1099652-2" data-name="Group 1099652" transform="translate(0 0)" clip-path="url(#clip-path-2)">
          <path id="Path_873521-2" data-name="Path 873521" d="M88.539,68.922A19.674,19.674,0,0,1,68.923,88.539H19.616A19.674,19.674,0,0,1,0,68.922V19.616A19.674,19.674,0,0,1,19.616,0H68.923A19.674,19.674,0,0,1,88.539,19.616Z" fill="#f3f9ff"/>
        </g>
      </g>
    </g>
    <g id="Group_1100725" data-name="Group 1100725" transform="translate(636.343 5771.293)">
      <rect id="Rectangle_401104" data-name="Rectangle 401104" width="68" height="69" transform="translate(-0.421 0.438)" fill="none"/>
      <g id="Group_1112360" data-name="Group 1112360" transform="translate(1.579 1.437)">
        <g id="Group_1112359" data-name="Group 1112359" clip-path="url(#clip-path-3)">
          <path id="Path_887277" data-name="Path 887277" d="M56.11,36.2V54.562a6.159,6.159,0,0,1-6.152,6.082H38.927a6.159,6.159,0,0,1-6.152-6.082V36.2Z" transform="translate(4.839 5.344)" fill="#cfe0e9"/>
          <path id="Path_887278" data-name="Path 887278" d="M54.179,8.7a3.558,3.558,0,1,1-3.6,3.558,3.523,3.523,0,0,1,3.6-3.558" transform="translate(7.467 1.284)" fill="#fb2b3a"/>
          <path id="Path_887279" data-name="Path 887279" d="M18.076,27.5a2.869,2.869,0,1,1-2.9,2.869,2.858,2.858,0,0,1,2.9-2.869" transform="translate(2.24 4.06)" fill="#fb2b3a"/>
          <path id="Path_887280" data-name="Path 887280" d="M43.561,32.4a4.361,4.361,0,1,1-4.413,4.361A4.386,4.386,0,0,1,43.561,32.4" transform="translate(5.78 4.783)" fill="#bdf9ff"/>
          <path id="Path_887281" data-name="Path 887281" d="M54.616,33.482V37.5H47.3a4.385,4.385,0,0,0-4.412-4.361V27.4h5.457a6.26,6.26,0,0,1,6.268,6.082" transform="translate(6.332 4.045)" fill="#414a56"/>
          <path id="Path_887282" data-name="Path 887282" d="M44.5,27.515v5.738a4.385,4.385,0,0,0-4.413,4.361H32.775V33.482A6.159,6.159,0,0,1,38.929,27.4H44.5Z" transform="translate(4.839 4.045)" fill="#57606f"/>
          <path id="Path_887283" data-name="Path 887283" d="M11.609,0A11.577,11.577,0,0,1,23.219,11.476,11.61,11.61,0,0,1,0,11.476,11.5,11.5,0,0,1,11.609,0" fill="#313a52"/>
          <path id="Path_887284" data-name="Path 887284" d="M17.6,8.791v4.017H12.956V17.4H8.892V12.807H4.249V8.791H8.892V4.2h4.064V8.791Z" transform="translate(0.627 0.62)" fill="#4a78ff"/>
          <path id="Path_887285" data-name="Path 887285" d="M19.714,62.013A10.839,10.839,0,0,1,8.8,51.225V21.845a1.51,1.51,0,0,1,3.019,0V51.225a8.01,8.01,0,0,0,16.02,0V18.173A10.644,10.644,0,0,1,38.637,7.5,10.838,10.838,0,0,1,49.55,18.288v17.9a1.509,1.509,0,0,1-3.018,0V18.173a7.981,7.981,0,0,0-8.01-7.919,8.131,8.131,0,0,0-5.688,2.3,7.75,7.75,0,0,0-2.323,5.623V51.225a10.812,10.812,0,0,1-10.8,10.788" transform="translate(1.299 1.107)"/>
        </g>
      </g>
    </g>
  </g>
</svg>
