<svg xmlns="http://www.w3.org/2000/svg" xmlns:xlink="http://www.w3.org/1999/xlink" width="99" height="99" viewBox="0 0 99 99">
  <defs>
    <clipPath id="clip-path">
      <rect id="Rectangle_401223" data-name="Rectangle 401223" width="99" height="99" transform="translate(0)" fill="#844804"/>
    </clipPath>
    <clipPath id="clip-path-2">
      <rect id="Rectangle_401223-2" data-name="Rectangle 401223" width="88.539" height="88.539" fill="#f3f9ff"/>
    </clipPath>
    <clipPath id="clip-path-3">
      <rect id="Rectangle_406902" data-name="Rectangle 406902" width="59.905" height="69" fill="none"/>
    </clipPath>
    <clipPath id="clip-path-5">
      <rect id="Rectangle_406900" data-name="Rectangle 406900" width="29.952" height="68.997" fill="none"/>
    </clipPath>
  </defs>
  <g id="Group_1112282" data-name="Group 1112282" transform="translate(-619.921 -5755.871)">
    <g id="Group_1100724" data-name="Group 1100724" transform="translate(619.921 5755.871)">
      <g id="Group_1099654" data-name="Group 1099654" transform="translate(0 0)">
        <g id="Group_1099652" data-name="Group 1099652" clip-path="url(#clip-path)">
          <path id="Path_873521" data-name="Path 873521" d="M99,77.066A22,22,0,0,1,77.066,99H21.934A22,22,0,0,1,0,77.066V21.933A22,22,0,0,1,21.934,0H77.066A22,22,0,0,1,99,21.934Z" transform="translate(0)" fill="#005865"/>
        </g>
      </g>
      <g id="Group_1099659" data-name="Group 1099659" transform="translate(4.77 5.723)">
        <g id="Group_1099652-2" data-name="Group 1099652" transform="translate(0 0)" clip-path="url(#clip-path-2)">
          <path id="Path_873521-2" data-name="Path 873521" d="M88.539,68.922A19.674,19.674,0,0,1,68.923,88.539H19.616A19.674,19.674,0,0,1,0,68.922V19.616A19.674,19.674,0,0,1,19.616,0H68.923A19.674,19.674,0,0,1,88.539,19.616Z" fill="#f3f9ff"/>
        </g>
      </g>
    </g>
    <g id="Group_1100725" data-name="Group 1100725" transform="translate(636.343 5771.293)">
      <rect id="Rectangle_401104" data-name="Rectangle 401104" width="68" height="69" transform="translate(-0.421 0.438)" fill="none"/>
      <g id="Group_1112367" data-name="Group 1112367" transform="translate(3.579 0.438)">
        <g id="Group_1112366" data-name="Group 1112366" clip-path="url(#clip-path-3)">
          <g id="Group_1112365" data-name="Group 1112365" transform="translate(0 0)">
            <g id="Group_1112364" data-name="Group 1112364" clip-path="url(#clip-path-3)">
              <path id="Path_887286" data-name="Path 887286" d="M59.684,11.675s-26.806-26.269-59.51,0c0,0-4.289,43.3,29.744,57.325,0,0,32.982-9.705,29.766-57.325" transform="translate(0 0)" fill="#f3a744"/>
              <path id="Path_887287" data-name="Path 887287" d="M57.771,16.461s-23.521-23.05-52.219,0c0,0-3.764,38,26.1,50.3,0,0,28.942-8.515,26.119-50.3" transform="translate(-1.729 -1.991)" fill="#2bc897"/>
              <g id="Group_1112363" data-name="Group 1112363" transform="translate(0 0.003)" opacity="0.2" style="mix-blend-mode: overlay;isolation: isolate">
                <g id="Group_1112362" data-name="Group 1112362">
                  <g id="Group_1112361" data-name="Group 1112361" clip-path="url(#clip-path-5)">
                    <path id="Path_887288" data-name="Path 887288" d="M.174,11.676C11,2.98,21.176.044,29.953,0V68.988a.213.213,0,0,1-.034.014C-4.114,54.976.174,11.676.174,11.676" transform="translate(0 -0.004)"/>
                  </g>
                </g>
              </g>
              <path id="Path_887289" data-name="Path 887289" d="M46.94,54.541,35.954,50.8l-10.62,4.684L25.5,43.875l-7.736-8.653,11.089-3.429,5.838-10.031,6.687,9.487L52.723,33.7l-6.956,9.291Z" transform="translate(-5.689 -6.969)" fill="#fff"/>
            </g>
          </g>
        </g>
      </g>
    </g>
  </g>
</svg>
